<?xml version="1.0" encoding="UTF-8" standalone="no"?>
<svg
   xmlns:dc="http://purl.org/dc/elements/1.1/"
   xmlns:cc="http://creativecommons.org/ns#"
   xmlns:rdf="http://www.w3.org/1999/02/22-rdf-syntax-ns#"
   xmlns:svg="http://www.w3.org/2000/svg"
   xmlns="http://www.w3.org/2000/svg"
   width="323.12238mm"
   height="211.20364mm"
   viewBox="0 0 323.12238 211.20364"
   version="1.1"
   id="svg9311">
  <defs
     id="defs9305">
    <clipPath
       id="clip0">
      <rect
         x="0"
         y="0"
         width="1221"
         height="798"
         id="rect9874" />
    </clipPath>
    <clipPath
       id="clip1">
      <rect
         x="0"
         y="0"
         width="1220"
         height="796"
         id="rect9877" />
    </clipPath>
    <clipPath
       id="clip2">
      <rect
         x="0"
         y="0"
         width="1220"
         height="796"
         id="rect9880" />
    </clipPath>
    <clipPath
       id="clip3">
      <rect
         x="83"
         y="28"
         width="1120"
         height="680"
         id="rect9883" />
    </clipPath>
    <clipPath
       id="clip4">
      <rect
         x="83"
         y="28"
         width="1120"
         height="680"
         id="rect9886" />
    </clipPath>
    <clipPath
       id="clip5">
      <rect
         x="83"
         y="28"
         width="1120"
         height="680"
         id="rect9889" />
    </clipPath>
    <clipPath
       id="clip6">
      <rect
         x="0"
         y="0"
         width="1220"
         height="796"
         id="rect9892" />
    </clipPath>
    <clipPath
       id="clip7">
      <rect
         x="0"
         y="0"
         width="1220"
         height="796"
         id="rect9895" />
    </clipPath>
    <clipPath
       id="clip8">
      <rect
         x="0"
         y="0"
         width="1220"
         height="796"
         id="rect9898" />
    </clipPath>
    <clipPath
       id="clip9">
      <rect
         x="0"
         y="0"
         width="1220"
         height="796"
         id="rect9901" />
    </clipPath>
    <clipPath
       id="clip10">
      <rect
         x="0"
         y="0"
         width="1220"
         height="796"
         id="rect9904" />
    </clipPath>
    <clipPath
       id="clip11">
      <rect
         x="0"
         y="0"
         width="1220"
         height="796"
         id="rect9907" />
    </clipPath>
    <clipPath
       id="clip12">
      <rect
         x="0"
         y="0"
         width="1220"
         height="796"
         id="rect9910" />
    </clipPath>
    <clipPath
       id="clip13">
      <rect
         x="0"
         y="0"
         width="1220"
         height="796"
         id="rect9913" />
    </clipPath>
    <clipPath
       id="clip14">
      <rect
         x="0"
         y="0"
         width="1220"
         height="796"
         id="rect9916" />
    </clipPath>
    <clipPath
       id="clip15">
      <rect
         x="0"
         y="0"
         width="1220"
         height="796"
         id="rect9919" />
    </clipPath>
    <clipPath
       id="clip16">
      <rect
         x="0"
         y="0"
         width="1220"
         height="796"
         id="rect9922" />
    </clipPath>
    <clipPath
       id="clip17">
      <rect
         x="0"
         y="0"
         width="1220"
         height="796"
         id="rect9925" />
    </clipPath>
    <clipPath
       id="clip18">
      <rect
         x="0"
         y="0"
         width="1220"
         height="796"
         id="rect9928" />
    </clipPath>
    <clipPath
       id="clip19">
      <rect
         x="0"
         y="0"
         width="1220"
         height="796"
         id="rect9931" />
    </clipPath>
    <clipPath
       id="clip20">
      <rect
         x="0"
         y="0"
         width="1220"
         height="796"
         id="rect9934" />
    </clipPath>
    <clipPath
       id="clip21">
      <rect
         x="0"
         y="0"
         width="1220"
         height="796"
         id="rect9937" />
    </clipPath>
    <clipPath
       id="clip22">
      <rect
         x="0"
         y="0"
         width="1220"
         height="796"
         id="rect9940" />
    </clipPath>
  </defs>
  <metadata
     id="metadata9308">
    <rdf:RDF>
      <cc:Work
         rdf:about="">
        <dc:format>image/svg+xml</dc:format>
        <dc:type
           rdf:resource="http://purl.org/dc/dcmitype/StillImage" />
        <dc:title></dc:title>
      </cc:Work>
    </rdf:RDF>
  </metadata>
  <g
     id="layer1"
     transform="translate(65.555242,32.274442)">
    <rect
       x="-65.522171"
       y="-32.241367"
       width="322.79166"
       height="210.87291"
       fill="#ffffff"
       id="rect9945"
       style="stroke-width:0.264583" />
    <g
       clip-path="url(#clip1)"
       id="g9949"
       transform="matrix(0.26458333,0,0,0.26458333,-65.522171,-32.241368)">
      <path
         d="m 83.5,639.5 h 1119 m -1119,-68 h 1119 m -1119,-68 h 1119 m -1119,-67 h 1119 m -1119,-68 h 1119 m -1119,-68 h 1119 m -1119,-68 h 1119 m -1119,-68 h 1119 m -1119,-68 h 1119 m -1119,-68 h 1119"
         stroke="#d9d9d9"
         stroke-width="1.25"
         stroke-linejoin="round"
         stroke-miterlimit="10"
         fill="none"
         id="path9947" />
    </g>
    <g
       clip-path="url(#clip2)"
       id="g9953"
       transform="matrix(0.26458333,0,0,0.26458333,-65.522171,-32.241368)">
      <path
         d="m 83.5,707.5 h 1119"
         stroke="#d9d9d9"
         stroke-width="1.25"
         stroke-linejoin="round"
         stroke-miterlimit="10"
         fill="none"
         fill-rule="evenodd"
         id="path9951" />
    </g>
    <g
       clip-path="url(#clip3)"
       id="g9957"
       transform="matrix(0.26458333,0,0,0.26458333,-65.522171,-32.241368)">
      <path
         d="m 87,708 h 6 5 6 6 5 6 6 5 6 6 6 5 6 6 5 6 6 5 6 6 6 5 6 6 5 6 6 6 5 6 6 5 6 6 5 6 6 6 5 6 6 5 6 6 6 5 6 6 5 6 6 5 6 6 6 5 6 6 5 6 l 6,-679 h 5 6 6 6 5 6 6 5 6 6 6 5 6 6 5 6 6 5 6 6 6 5 6 6 5 6 6 5 6 6 6 5 6 6 5 6 6 6 5 6 6 5 6 6 5 6 6 6 5 6 6 5 6 6 6 5 6 6 5 6 6 5 6 6 6 5 6 6 5 6 6 5 6 6 6 5 6 6 5 6 6 6 5 6 6 5 6 6 5 6 6 6 5 6 6 5 l 6,679 h 6 6 5 6 6 5 6 6 5 6 6 6 5 6 6 5 6 6 5 6 6 6 5 6 6 5 6 6 6 5 6 6 5 6 6 5 6"
         stroke="#4472c4"
         stroke-width="3.75"
         stroke-linecap="round"
         stroke-linejoin="round"
         stroke-miterlimit="10"
         fill="none"
         id="path9955" />
    </g>
    <g
       clip-path="url(#clip4)"
       id="g9961"
       transform="matrix(0.26458333,0,0,0.26458333,-65.522171,-32.241368)">
      <path
         d="m 87,708 h 6 5 6 l 6,-121 5,103 6,-27 6,10 5,35 h 6 6 l 6,-10 5,10 h 6 l 6,-121 5,121 h 6 6 l 5,-57 6,33 6,24 6,-55 5,55 h 6 l 6,-25 5,25 h 6 6 l 6,-64 5,7 6,38 6,-43 5,62 h 6 6 l 5,-33 6,33 h 6 l 6,-120 5,120 h 6 6 5 l 6,-133 6,114 6,19 5,-60 6,60 h 6 5 l 6,-66 6,66 h 5 6 6 l 6,-68 5,68 h 6 l 6,-94 5,-19 6,113 6,-58 5,4 6,-53 6,47 6,-81 5,-119 6,148 6,-176 5,83 6,-52 6,45 6,-178 5,111 6,-46 6,20 5,-72 6,-142 6,86 5,59 6,106 6,-279 6,148 5,-148 6,79 6,47 5,-86 6,-21 6,40 5,-84 6,91 6,-34 6,-45 5,-18 6,-69 6,131 5,-115 6,-48 6,118 6,-74 5,96 6,-116 6,2 5,66 6,-26 6,159 5,-136 6,2 6,-91 6,54 5,10 6,50 6,-53 5,-51 6,-6 6,23 6,-27 5,83 6,-62 6,-21 5,31 6,38 6,78 5,-23 6,-83 6,-20 6,-21 h 5 6 6 5 6 l 6,31 5,-31 6,76 6,-76 6,180 5,-180 6,55 h 6 l 5,-55 6,28 6,-28 h 6 5 6 l 6,26 5,81 6,-78 6,-29 h 5 l 6,66 6,-42 6,-24 5,62 6,-62 6,83 5,-83 6,83 6,48 6,-131 h 5 l 6,113 6,3 5,164 6,-98 6,122 5,10 6,-86 6,120 6,-112 5,56 6,4 6,-3 5,77 6,39 6,-31 5,61 6,-54 6,96 6,-150 5,23 6,163 6,-192 5,280 6,-51 6,-17 6,-47 5,125 6,-63 6,96 5,-53 6,-53 6,-79 5,166 6,50"
         stroke="#a5a5a5"
         stroke-width="3.75"
         stroke-linecap="round"
         stroke-linejoin="round"
         stroke-miterlimit="10"
         fill="none"
         id="path9959" />
    </g>
    <g
       clip-path="url(#clip5)"
       id="g9965"
       transform="matrix(0.26458333,0,0,0.26458333,-65.522171,-32.241368)">
      <path
         d="m 87,708 h 6 5 6 6 5 6 6 5 6 6 6 5 6 6 5 6 6 5 6 6 6 5 6 6 5 6 6 6 5 6 6 5 6 6 5 6 6 6 5 6 6 5 6 6 6 5 6 6 5 6 6 5 6 6 6 5 6 6 5 6 6 5 6 6 6 5 6 6 5 6 6 l 6,-679 5,679 h 6 6 l 5,-679 h 6 6 5 l 6,679 6,-679 h 6 5 6 6 5 6 6 5 6 6 6 5 6 6 5 6 6 6 5 6 6 5 6 6 5 6 6 6 5 6 6 5 6 6 6 5 6 6 5 6 6 5 6 6 6 5 6 6 5 6 6 5 6 6 6 5 6 6 5 6 6 6 5 6 6 5 6 6 5 6 6 6 5 6 6 5 6 6 6 5 6 6 5 6 6 5 6 l 6,679 6,-679 h 5 6 6 l 5,679 h 6 6 5 6 6 l 6,-679 5,679 h 6 l 6,-679 5,679 h 6 6 6 5 6 6 5 6 6 5 6"
         stroke="#ffc000"
         stroke-width="3.75"
         stroke-linecap="round"
         stroke-linejoin="round"
         stroke-miterlimit="10"
         fill="none"
         id="path9963" />
    </g>
    <g
       clip-path="url(#clip6)"
       id="g9969"
       transform="matrix(0.26458333,0,0,0.26458333,-65.522171,-32.241368)">
      <text
         fill="#595959"
         font-family="Calibri, Calibri_MSFontService, sans-serif"
         font-weight="400"
         font-size="33px"
         transform="translate(36.1417,717)"
         id="text9967">0</text>
    </g>
    <g
       clip-path="url(#clip7)"
       id="g9973"
       transform="matrix(0.26458333,0,0,0.26458333,-65.522171,-32.241368)">
      <text
         fill="#595959"
         font-family="Calibri, Calibri_MSFontService, sans-serif"
         font-weight="400"
         font-size="33px"
         transform="translate(10.8333,650)"
         id="text9971">0.1</text>
    </g>
    <g
       clip-path="url(#clip8)"
       id="g9977"
       transform="matrix(0.26458333,0,0,0.26458333,-65.522171,-32.241368)">
      <text
         fill="#595959"
         font-family="Calibri, Calibri_MSFontService, sans-serif"
         font-weight="400"
         font-size="33px"
         transform="translate(10.8333,582)"
         id="text9975">0.2</text>
    </g>
    <g
       clip-path="url(#clip9)"
       id="g9981"
       transform="matrix(0.26458333,0,0,0.26458333,-65.522171,-32.241368)">
      <text
         fill="#595959"
         font-family="Calibri, Calibri_MSFontService, sans-serif"
         font-weight="400"
         font-size="33px"
         transform="translate(10.8333,514)"
         id="text9979">0.3</text>
    </g>
    <g
       clip-path="url(#clip10)"
       id="g9985"
       transform="matrix(0.26458333,0,0,0.26458333,-65.522171,-32.241368)">
      <text
         fill="#595959"
         font-family="Calibri, Calibri_MSFontService, sans-serif"
         font-weight="400"
         font-size="33px"
         transform="translate(10.8333,446)"
         id="text9983">0.4</text>
    </g>
    <g
       clip-path="url(#clip11)"
       id="g9989"
       transform="matrix(0.26458333,0,0,0.26458333,-65.522171,-32.241368)">
      <text
         fill="#595959"
         font-family="Calibri, Calibri_MSFontService, sans-serif"
         font-weight="400"
         font-size="33px"
         transform="translate(10.8333,378)"
         id="text9987">0.5</text>
    </g>
    <g
       clip-path="url(#clip12)"
       id="g9993"
       transform="matrix(0.26458333,0,0,0.26458333,-65.522171,-32.241368)">
      <text
         fill="#595959"
         font-family="Calibri, Calibri_MSFontService, sans-serif"
         font-weight="400"
         font-size="33px"
         transform="translate(10.8333,310)"
         id="text9991">0.6</text>
    </g>
    <g
       clip-path="url(#clip13)"
       id="g9997"
       transform="matrix(0.26458333,0,0,0.26458333,-65.522171,-32.241368)">
      <text
         fill="#595959"
         font-family="Calibri, Calibri_MSFontService, sans-serif"
         font-weight="400"
         font-size="33px"
         transform="translate(10.8333,242)"
         id="text9995">0.7</text>
    </g>
    <g
       clip-path="url(#clip14)"
       id="g10001"
       transform="matrix(0.26458333,0,0,0.26458333,-65.522171,-32.241368)">
      <text
         fill="#595959"
         font-family="Calibri, Calibri_MSFontService, sans-serif"
         font-weight="400"
         font-size="33px"
         transform="translate(10.8333,174)"
         id="text9999">0.8</text>
    </g>
    <g
       clip-path="url(#clip15)"
       id="g10005"
       transform="matrix(0.26458333,0,0,0.26458333,-65.522171,-32.241368)">
      <text
         fill="#595959"
         font-family="Calibri, Calibri_MSFontService, sans-serif"
         font-weight="400"
         font-size="33px"
         transform="translate(10.8333,106)"
         id="text10003">0.9</text>
    </g>
    <g
       clip-path="url(#clip16)"
       id="g10009"
       transform="matrix(0.26458333,0,0,0.26458333,-65.522171,-32.241368)">
      <text
         fill="#595959"
         font-family="Calibri, Calibri_MSFontService, sans-serif"
         font-weight="400"
         font-size="33px"
         transform="translate(36.1417,38)"
         id="text10007">1</text>
    </g>
    <g
       clip-path="url(#clip17)"
       id="g10013"
       transform="matrix(0.26458333,0,0,0.26458333,-65.522171,-32.241368)">
      <path
         d="m 276,761 h 32"
         stroke="#4472c4"
         stroke-width="3.75"
         stroke-linecap="round"
         stroke-linejoin="round"
         stroke-miterlimit="10"
         fill="none"
         fill-rule="evenodd"
         id="path10011" />
    </g>
    <g
       clip-path="url(#clip18)"
       id="g10017"
       transform="matrix(0.26458333,0,0,0.26458333,-65.522171,-32.241368)">
      <text
         fill="#595959"
         font-family="Calibri, Calibri_MSFontService, sans-serif"
         font-weight="400"
         font-size="33px"
         transform="translate(310.99,771)"
         id="text10015">Actual push</text>
    </g>
    <g
       clip-path="url(#clip19)"
       id="g10021"
       transform="matrix(0.26458333,0,0,0.26458333,-65.522171,-32.241368)">
      <path
         d="m 505,761 h 32"
         stroke="#a5a5a5"
         stroke-width="3.75"
         stroke-linecap="round"
         stroke-linejoin="round"
         stroke-miterlimit="10"
         fill="none"
         fill-rule="evenodd"
         id="path10019" />
    </g>
    <g
       clip-path="url(#clip20)"
       id="g10025"
       transform="matrix(0.26458333,0,0,0.26458333,-65.522171,-32.241368)">
      <text
         fill="#595959"
         font-family="Calibri, Calibri_MSFontService, sans-serif"
         font-weight="400"
         font-size="33px"
         transform="translate(540.673,771)"
         id="text10023">Sensed voltage</text>
    </g>
    <g
       clip-path="url(#clip21)"
       id="g10029"
       transform="matrix(0.26458333,0,0,0.26458333,-65.522171,-32.241368)">
      <path
         d="m 780,761 h 32"
         stroke="#ffc000"
         stroke-width="3.75"
         stroke-linecap="round"
         stroke-linejoin="round"
         stroke-miterlimit="10"
         fill="none"
         fill-rule="evenodd"
         id="path10027" />
    </g>
    <g
       clip-path="url(#clip22)"
       id="g10033"
       transform="matrix(0.26458333,0,0,0.26458333,-65.522171,-32.241368)">
      <text
         fill="#595959"
         font-family="Calibri, Calibri_MSFontService, sans-serif"
         font-weight="400"
         font-size="33px"
         transform="translate(815.339,771)"
         id="text10031">Threshold</text>
    </g>
    <rect
       x="-65.389877"
       y="-32.109077"
       width="322.79166"
       height="210.87291"
       stroke="#d9d9d9"
       stroke-width="0.330729"
       stroke-linejoin="round"
       stroke-miterlimit="10"
       fill="none"
       id="rect10035" />
  </g>
</svg>
