<?xml version="1.0" encoding="UTF-8" standalone="no"?>
<svg
   xmlns:dc="http://purl.org/dc/elements/1.1/"
   xmlns:cc="http://creativecommons.org/ns#"
   xmlns:rdf="http://www.w3.org/1999/02/22-rdf-syntax-ns#"
   xmlns:svg="http://www.w3.org/2000/svg"
   xmlns="http://www.w3.org/2000/svg"
   xmlns:sodipodi="http://sodipodi.sourceforge.net/DTD/sodipodi-0.dtd"
   xmlns:inkscape="http://www.inkscape.org/namespaces/inkscape"
   width="1843.4375"
   height="1813.5819"
   overflow="hidden"
   version="1.1"
   id="svg412"
   sodipodi:docname="karate2.svg"
   inkscape:version="1.0.2-2 (e86c870879, 2021-01-15)">
  <metadata
     id="metadata416">
    <rdf:RDF>
      <cc:Work
         rdf:about="">
        <dc:format>image/svg+xml</dc:format>
        <dc:type
           rdf:resource="http://purl.org/dc/dcmitype/StillImage" />
        <dc:title></dc:title>
      </cc:Work>
    </rdf:RDF>
  </metadata>
  <sodipodi:namedview
     pagecolor="#ffffff"
     bordercolor="#666666"
     borderopacity="1"
     objecttolerance="10"
     gridtolerance="10"
     guidetolerance="10"
     inkscape:pageopacity="0"
     inkscape:pageshadow="2"
     inkscape:window-width="1920"
     inkscape:window-height="1001"
     id="namedview414"
     showgrid="false"
     inkscape:zoom="0.48852266"
     inkscape:cx="641.82374"
     inkscape:cy="818.98489"
     inkscape:window-x="-9"
     inkscape:window-y="-9"
     inkscape:window-maximized="1"
     inkscape:current-layer="svg412"
     fit-margin-top="0"
     fit-margin-left="0"
     fit-margin-right="0"
     fit-margin-bottom="0" />
  <defs
     id="defs176">
    <rect
       x="330.01611"
       y="955.30975"
       width="413.96756"
       height="248.95953"
       id="rect1645" />
    <marker
       style="overflow:visible"
       id="Arrow1Lend"
       refX="0"
       refY="0"
       orient="auto"
       inkscape:stockid="Arrow1Lend"
       inkscape:isstock="true">
      <path
         transform="matrix(-0.8,0,0,-0.8,-10,0)"
         style="fill:#000000;fill-opacity:1;fill-rule:evenodd;stroke:#000000;stroke-width:1pt;stroke-opacity:1"
         d="M 0,0 5,-5 -12.5,0 5,5 Z"
         id="path1248" />
    </marker>
    <marker
       style="overflow:visible"
       id="Arrow1Lstart"
       refX="0"
       refY="0"
       orient="auto"
       inkscape:stockid="Arrow1Lstart"
       inkscape:isstock="true">
      <path
         transform="matrix(0.8,0,0,0.8,10,0)"
         style="fill:#000000;fill-opacity:1;fill-rule:evenodd;stroke:#000000;stroke-width:1pt;stroke-opacity:1"
         d="M 0,0 5,-5 -12.5,0 5,5 Z"
         id="path1245" />
    </marker>
    <clipPath
       id="clip0">
      <rect
         x="1572"
         y="112"
         width="1843"
         height="1699"
         id="rect2" />
    </clipPath>
    <clipPath
       id="clip1">
      <rect
         x="1573"
         y="112"
         width="1839"
         height="1697"
         id="rect5" />
    </clipPath>
    <clipPath
       id="clip2">
      <rect
         x="1573"
         y="112"
         width="1839"
         height="1697"
         id="rect8" />
    </clipPath>
    <clipPath
       id="clip3">
      <rect
         x="1573"
         y="112"
         width="1839"
         height="1697"
         id="rect11" />
    </clipPath>
    <clipPath
       id="clip4">
      <rect
         x="1573"
         y="112"
         width="1839"
         height="1697"
         id="rect14" />
    </clipPath>
    <clipPath
       id="clip5">
      <rect
         x="1573"
         y="112"
         width="1839"
         height="1697"
         id="rect17" />
    </clipPath>
    <clipPath
       id="clip6">
      <rect
         x="1573"
         y="112"
         width="1839"
         height="1697"
         id="rect20" />
    </clipPath>
    <clipPath
       id="clip7">
      <rect
         x="1813"
         y="163"
         width="1396"
         height="1341"
         id="rect23" />
    </clipPath>
    <clipPath
       id="clip8">
      <rect
         x="1813"
         y="163"
         width="1396"
         height="1341"
         id="rect26" />
    </clipPath>
    <clipPath
       id="clip9">
      <rect
         x="1813"
         y="163"
         width="1396"
         height="1341"
         id="rect29" />
    </clipPath>
    <clipPath
       id="clip10">
      <rect
         x="1813"
         y="163"
         width="1396"
         height="1341"
         id="rect32" />
    </clipPath>
    <clipPath
       id="clip11">
      <rect
         x="1813"
         y="163"
         width="1396"
         height="1341"
         id="rect35" />
    </clipPath>
    <clipPath
       id="clip12">
      <rect
         x="1573"
         y="112"
         width="1839"
         height="1697"
         id="rect38" />
    </clipPath>
    <clipPath
       id="clip13">
      <rect
         x="1573"
         y="112"
         width="1839"
         height="1697"
         id="rect41" />
    </clipPath>
    <clipPath
       id="clip14">
      <rect
         x="1573"
         y="112"
         width="1839"
         height="1697"
         id="rect44" />
    </clipPath>
    <clipPath
       id="clip15">
      <rect
         x="1573"
         y="112"
         width="1839"
         height="1697"
         id="rect47" />
    </clipPath>
    <clipPath
       id="clip16">
      <rect
         x="1573"
         y="112"
         width="1839"
         height="1697"
         id="rect50" />
    </clipPath>
    <clipPath
       id="clip17">
      <rect
         x="1573"
         y="112"
         width="1839"
         height="1697"
         id="rect53" />
    </clipPath>
    <clipPath
       id="clip18">
      <rect
         x="1573"
         y="112"
         width="1839"
         height="1697"
         id="rect56" />
    </clipPath>
    <clipPath
       id="clip19">
      <rect
         x="1573"
         y="112"
         width="1839"
         height="1697"
         id="rect59" />
    </clipPath>
    <clipPath
       id="clip20">
      <rect
         x="1573"
         y="112"
         width="1839"
         height="1697"
         id="rect62" />
    </clipPath>
    <clipPath
       id="clip21">
      <rect
         x="1573"
         y="112"
         width="1839"
         height="1697"
         id="rect65" />
    </clipPath>
    <clipPath
       id="clip22">
      <rect
         x="1573"
         y="112"
         width="1839"
         height="1697"
         id="rect68" />
    </clipPath>
    <clipPath
       id="clip23">
      <rect
         x="1573"
         y="112"
         width="1839"
         height="1697"
         id="rect71" />
    </clipPath>
    <clipPath
       id="clip24">
      <rect
         x="1573"
         y="112"
         width="1839"
         height="1697"
         id="rect74" />
    </clipPath>
    <clipPath
       id="clip25">
      <rect
         x="1573"
         y="112"
         width="1839"
         height="1697"
         id="rect77" />
    </clipPath>
    <clipPath
       id="clip26">
      <rect
         x="1573"
         y="112"
         width="1839"
         height="1697"
         id="rect80" />
    </clipPath>
    <clipPath
       id="clip27">
      <rect
         x="1573"
         y="112"
         width="1839"
         height="1697"
         id="rect83" />
    </clipPath>
    <clipPath
       id="clip28">
      <rect
         x="1573"
         y="112"
         width="1839"
         height="1697"
         id="rect86" />
    </clipPath>
    <clipPath
       id="clip29">
      <rect
         x="1573"
         y="112"
         width="1839"
         height="1697"
         id="rect89" />
    </clipPath>
    <clipPath
       id="clip30">
      <rect
         x="1573"
         y="112"
         width="1839"
         height="1697"
         id="rect92" />
    </clipPath>
    <clipPath
       id="clip31">
      <rect
         x="1573"
         y="112"
         width="1839"
         height="1697"
         id="rect95" />
    </clipPath>
    <clipPath
       id="clip32">
      <rect
         x="1573"
         y="112"
         width="1839"
         height="1697"
         id="rect98" />
    </clipPath>
    <clipPath
       id="clip33">
      <rect
         x="1573"
         y="112"
         width="1839"
         height="1697"
         id="rect101" />
    </clipPath>
    <clipPath
       id="clip34">
      <rect
         x="1573"
         y="112"
         width="1839"
         height="1697"
         id="rect104" />
    </clipPath>
    <clipPath
       id="clip35">
      <rect
         x="1573"
         y="112"
         width="1839"
         height="1697"
         id="rect107" />
    </clipPath>
    <clipPath
       id="clip36">
      <rect
         x="1573"
         y="112"
         width="1839"
         height="1697"
         id="rect110" />
    </clipPath>
    <clipPath
       id="clip37">
      <rect
         x="1573"
         y="112"
         width="1839"
         height="1697"
         id="rect113" />
    </clipPath>
    <clipPath
       id="clip38">
      <rect
         x="1573"
         y="112"
         width="1839"
         height="1697"
         id="rect116" />
    </clipPath>
    <clipPath
       id="clip39">
      <rect
         x="1573"
         y="112"
         width="1839"
         height="1697"
         id="rect119" />
    </clipPath>
    <clipPath
       id="clip40">
      <rect
         x="1573"
         y="112"
         width="1839"
         height="1697"
         id="rect122" />
    </clipPath>
    <clipPath
       id="clip41">
      <rect
         x="1573"
         y="112"
         width="1839"
         height="1697"
         id="rect125" />
    </clipPath>
    <clipPath
       id="clip42">
      <rect
         x="1573"
         y="112"
         width="1839"
         height="1697"
         id="rect128" />
    </clipPath>
    <clipPath
       id="clip43">
      <rect
         x="1573"
         y="112"
         width="1839"
         height="1697"
         id="rect131" />
    </clipPath>
    <clipPath
       id="clip44">
      <rect
         x="1573"
         y="112"
         width="1839"
         height="1697"
         id="rect134" />
    </clipPath>
    <clipPath
       id="clip45">
      <rect
         x="1573"
         y="112"
         width="1839"
         height="1697"
         id="rect137" />
    </clipPath>
    <clipPath
       id="clip46">
      <rect
         x="1573"
         y="112"
         width="1839"
         height="1697"
         id="rect140" />
    </clipPath>
    <clipPath
       id="clip47">
      <rect
         x="1573"
         y="112"
         width="1839"
         height="1697"
         id="rect143" />
    </clipPath>
    <clipPath
       id="clip48">
      <rect
         x="1573"
         y="112"
         width="1839"
         height="1697"
         id="rect146" />
    </clipPath>
    <clipPath
       id="clip49">
      <rect
         x="1573"
         y="112"
         width="1839"
         height="1697"
         id="rect149" />
    </clipPath>
    <clipPath
       id="clip50">
      <rect
         x="1573"
         y="112"
         width="1839"
         height="1697"
         id="rect152" />
    </clipPath>
    <clipPath
       id="clip51">
      <rect
         x="1573"
         y="112"
         width="1839"
         height="1697"
         id="rect155" />
    </clipPath>
    <clipPath
       id="clip52">
      <rect
         x="1573"
         y="112"
         width="1839"
         height="1697"
         id="rect158" />
    </clipPath>
    <clipPath
       id="clip53">
      <rect
         x="1573"
         y="112"
         width="1839"
         height="1697"
         id="rect161" />
    </clipPath>
    <clipPath
       id="clip54">
      <rect
         x="1573"
         y="112"
         width="1839"
         height="1697"
         id="rect164" />
    </clipPath>
    <clipPath
       id="clip55">
      <rect
         x="1573"
         y="112"
         width="1839"
         height="1697"
         id="rect167" />
    </clipPath>
    <clipPath
       id="clip56">
      <rect
         x="1573"
         y="112"
         width="1839"
         height="1697"
         id="rect170" />
    </clipPath>
    <clipPath
       id="clip57">
      <rect
         x="1573"
         y="112"
         width="1839"
         height="1697"
         id="rect173" />
    </clipPath>
  </defs>
  <rect
     x="1.21875"
     y="115.36311"
     width="1840"
     height="1696"
     fill="#ffffff"
     id="rect178" />
  <g
     clip-path="url(#clip1)"
     id="g182"
     transform="translate(-1571.7813,2.3631127)">
    <path
       d="m 1813.5,1389.55 h 1392 m -1392,-111.01 h 1392 m -1392,-112 h 1392 m -1392,-111.01 h 1392 m -1392,-111.999 h 1392 m -1392,-111.004 h 1392 m -1392,-112.003 h 1392 M 1813.5,609.52 h 1392 m -1392,-112.004 h 1392 m -1392,-111.003 h 1392 m -1392,-112.004 h 1392 M 1813.5,163.5 h 1392"
       stroke="#d9d9d9"
       stroke-width="3.4375"
       stroke-linejoin="round"
       stroke-miterlimit="10"
       fill="none"
       id="path180" />
  </g>
  <g
     clip-path="url(#clip2)"
     id="g186"
     transform="translate(-1571.7813,2.3631127)">
    <path
       d="m 2045.57,163.5 v 1338 m 232,-1338 v 1338 m 232.01,-1338 v 1338 m 232.01,-1338 v 1338 m 232.01,-1338 v 1338 m 231.9,-1338 v 1338"
       stroke="#d9d9d9"
       stroke-width="3.4375"
       stroke-linejoin="round"
       stroke-miterlimit="10"
       fill="none"
       id="path184" />
  </g>
  <g
     clip-path="url(#clip3)"
     id="g190"
     transform="translate(-1571.7813,2.3631127)">
    <path
       d="M 0,0 3.60892e-4,1338"
       stroke="#bfbfbf"
       stroke-width="3.4375"
       stroke-linejoin="round"
       stroke-miterlimit="10"
       fill="none"
       fill-rule="evenodd"
       transform="matrix(1,0,0,-1,3205.5,1501.5)"
       id="path188" />
  </g>
  <g
     clip-path="url(#clip4)"
     id="g194"
     transform="translate(-1571.7813,2.3631127)">
    <path
       d="m 3205.5,1501.5 h 13 m -13,-133.95 h 13 m -13,-134.01 h 13 m -13,-134 h 13 m -13,-134.008 h 13 m -13,-133.005 h 13 m -13,-134.004 h 13 m -13,-134.004 h 13 m -13,-134.005 h 13 m -13,-134.004 h 13 m -13,-133.01 h 13"
       stroke="#bfbfbf"
       stroke-width="3.4375"
       stroke-linejoin="round"
       stroke-miterlimit="10"
       fill="none"
       id="path192" />
  </g>
  <g
     clip-path="url(#clip5)"
     id="g198"
     transform="translate(-1571.7813,2.3631127)">
    <path
       d="M 0,0 3.60892e-4,1338"
       stroke="#bfbfbf"
       stroke-width="3.4375"
       stroke-linejoin="round"
       stroke-miterlimit="10"
       fill="none"
       fill-rule="evenodd"
       transform="matrix(1,0,0,-1,1813.5,1501.5)"
       id="path196" />
  </g>
  <g
     clip-path="url(#clip6)"
     id="g202"
     transform="translate(-1571.7813,2.3631127)">
    <path
       d="m 1813.5,1501.5 h 1392"
       stroke="#bfbfbf"
       stroke-width="3.4375"
       stroke-linejoin="round"
       stroke-miterlimit="10"
       fill="none"
       fill-rule="evenodd"
       id="path200" />
  </g>
  <g
     clip-path="url(#clip7)"
     id="g206"
     transform="translate(-1571.7813,2.3631127)">
    <path
       d="m 1814.5,609.474 c 2.98,0 6.42,0 8.93,0 2.51,0 4.04,-0.651 6.15,0 2.11,0.65 4.5,3.252 6.49,3.903 2,0.65 3.64,0 5.46,0 1.81,0 3.61,-0.186 5.45,0 1.83,0.185 3.71,-0.837 5.56,1.115 1.86,1.951 3.58,9.291 5.57,10.592 1.99,1.301 3.85,-2.323 6.38,-2.787 2.53,-0.465 6.23,1.579 8.82,0 2.59,-1.58 4.58,-8.27 6.72,-9.478 2.15,-1.208 4.26,0.743 6.15,2.23 1.9,1.487 3.5,4.553 5.22,6.69 1.72,2.137 3.36,7.433 5.1,6.132 1.74,-1.301 3.64,-9.292 5.34,-13.937 1.7,-4.646 3.23,-13.473 4.87,-13.937 1.64,-0.465 3.29,10.778 4.99,11.15 1.7,0.371 3.4,-5.761 5.22,-8.92 1.82,-3.159 3.88,-8.735 5.68,-10.035 1.8,-1.301 3.4,2.88 5.11,2.23 1.7,-0.651 3.36,-4.089 5.1,-6.133 1.74,-2.044 3.61,-5.853 5.33,-6.132 1.73,-0.279 3.16,3.438 4.99,4.46 1.84,1.022 4.2,4.181 6.03,1.672 1.23,-1.681 3.88,-8.07 4.99,-16.725 1.66,-12.915 3.31,-51.011 4.99,-60.767 0.47,-2.745 4.62,0.452 5.1,2.23 1.7,6.318 3.17,29.733 5.11,35.68 0.7,2.18 5.78,-3.169 6.49,0 1.95,8.641 3.52,36.794 5.22,51.847 1.7,15.052 3.31,28.99 4.99,38.467 1.67,9.4 3.43,14.159 5.1,18.398 1.61,4.093 3.29,6.09 4.99,7.247 0.29,0.2 5.37,-2.825 5.68,0 1.88,17.097 3.79,81.395 5.57,102.58 0.97,11.531 4.17,37.022 5.1,24.529 1.52,-20.224 3.71,-81.088 5.22,-162.231 1.72,-92.08 3.29,-314.428 5.11,-390.248 0.77,-32.455 4.98,-60.055 5.8,-64.669 0.11,-0.657 5.56,-2.84 5.68,0 1.93,46.644 4.06,202.371 5.92,279.863 1.85,77.492 3.3,144.392 5.22,185.089 1.39,29.68 4.82,51.912 6.26,59.095 0.54,2.73 5.07,0.952 5.57,0 1.77,-3.438 3.34,-17.19 5.1,-20.628 1.24,-2.427 4.21,1.049 5.45,0 1.76,-1.487 3.02,-7.433 5.1,-8.92 2.09,-1.487 5.34,1.765 7.43,0 2.09,-1.765 3.36,-8.827 5.1,-10.592 1.74,-1.766 3.48,0 5.34,0 1.85,0 3.92,-1.023 5.8,0 1.3,0.708 4.07,2.268 5.45,6.132 1.99,5.575 4.42,14.774 6.49,27.318 2.07,12.543 4.06,36.98 5.92,47.944 0.18,1.081 5.04,27.132 5.22,17.84 1.78,-94.217 3.67,-493.106 5.45,-583.141 0.43,-21.618 4.72,36.167 5.22,42.927 2.09,28.154 5.16,80.651 7.31,125.994 2.14,45.343 3.61,106.668 5.56,146.064 1.96,39.397 4.18,53.52 6.15,90.315 1.97,36.794 3.83,108.711 5.69,130.454 0.23,2.716 5.19,-0.105 5.45,0 1.2,0.486 5.73,9.128 6.96,5.017 2.1,-7.061 3.82,-37.817 5.68,-47.387 1.09,-5.606 4.34,-9.055 5.45,-10.035 1.9,-1.672 4.04,-0.929 5.92,0 1.87,0.929 3.21,4.646 5.33,5.575 2.13,0.929 5.18,-0.557 7.43,0 2.24,0.557 3.9,4.181 6.03,3.345 2.12,-0.836 4.62,-9.663 6.72,-8.362 0.86,0.526 5.16,7.593 5.92,16.167 1.87,21.185 3.17,124.693 5.34,110.942 2.16,-13.752 5.45,-103.88 7.65,-193.451 2.2,-89.572 3.62,-274.382 5.57,-343.976 1.03,-36.908 5.1,-77.926 6.15,-73.589 1.97,8.176 3.69,69.408 5.68,122.649 1.99,53.241 3.96,136.308 6.26,196.796 2.3,60.489 4.99,119.026 7.54,166.134 2.55,47.109 5.18,128.875 7.77,116.517 2.59,-12.358 5.59,-166.691 7.77,-190.664 2.14,-23.469 3.11,39.189 5.34,46.83 1.17,4.008 6.99,-2.195 8.35,0 2.65,4.274 4.8,19.977 7.54,25.645 2.67,5.506 6.55,8.994 8.93,8.362 2.46,-0.65 3.64,-10.221 5.8,-12.265 2.17,-2.044 5.01,0.557 7.19,0 2.19,-0.557 3.89,-3.53 5.92,-3.345 2.03,0.186 4.41,3.067 6.26,4.46 0.32,0.237 4.59,0.794 4.87,3.903 1.67,18.304 3.37,88.27 5.11,105.924 0.26,2.655 5.02,-0.629 5.33,0 0.28,0.553 6.8,38.117 7.08,25.088 2.12,-98.492 3.88,-513.641 5.68,-616.034 0.05,-2.686 5.06,1.016 5.1,1.672 1.76,24.995 3.7,108.526 5.46,148.294 1.75,39.768 3.32,57.144 5.1,90.315 1.78,33.171 3.36,82.045 5.57,108.712 2.13,25.84 5.37,27.519 7.65,51.289 2.36,24.53 4.45,77.028 6.5,95.89 0.98,9.061 4.92,15.943 5.8,17.282 1.4,2.151 3.79,-0.486 5.1,-0.557 1.6,-0.088 3.43,1.925 5.1,0 1.78,-2.045 3.81,-7.805 5.57,-12.265 1.76,-4.461 2.77,-11.522 4.99,-14.495 2.22,-2.974 5.99,-2.788 8.35,-3.345 2.36,-0.558 3.92,-0.093 5.8,0 1.87,0.093 3.58,0.65 5.45,0.557 1.88,-0.093 3.98,-0.929 5.8,-1.115 1.82,-0.186 3.36,-0.465 5.1,0 1.74,0.465 3.46,3.252 5.34,2.788 1.87,-0.465 4.06,-7.527 5.92,-5.575 1.85,1.951 2.95,15.238 5.22,17.282 0.55,0.502 7.76,-9.854 8.35,-5.017 2.37,19.698 4.02,110.57 5.91,123.206 0.44,2.94 5,-23.541 5.45,-47.387 1.96,-102.486 4.24,-472.943 6.27,-567.531 0.06,-2.958 5.85,-1.203 5.91,0 1.95,38.467 3.95,169.2 5.8,230.803 1.86,61.604 3.5,102.951 5.34,138.817 1.83,35.865 3.36,58.63 5.68,76.377 2.02,15.474 6.13,23.38 8.24,30.105 2.41,7.712 4.27,19.326 6.26,16.167 1.99,-3.159 3.75,-23.136 5.68,-35.122 1.94,-11.987 4,-32.706 5.92,-36.795 1.91,-4.088 3.67,13.008 5.57,12.265 1.89,-0.743 3.82,-14.309 5.8,-16.725 1.97,-2.416 4,1.115 6.03,2.23 1.16,0.642 4.74,0.93 6.14,4.46 2.44,6.133 6.02,26.481 8.47,32.335 1.33,3.161 5.14,2.737 6.26,2.787 2.09,0.093 4.28,-1.022 6.27,-2.23 1.49,-0.907 4.2,-1.528 5.68,-5.017 1.97,-4.646 4.22,-14.309 6.15,-22.857 1.93,-8.549 3.56,-23.694 5.45,-28.433 0.3,-0.758 5.6,2.942 5.92,0 1.97,-18.397 3.42,-100.628 5.91,-110.384 2.5,-9.757 6.55,34.286 9.05,51.847 2.49,17.561 3.85,44.6 5.91,53.52 0.74,3.164 5.74,-1.418 6.5,0 2.15,3.995 4.37,14.959 6.38,23.972 2.01,9.013 3.71,25.087 5.68,30.105 1.13,2.861 5.03,0.159 6.15,0 1.02,-0.144 4.67,-4.455 5.68,-1.672 1.97,5.388 3.56,30.94 6.15,34.007 2.59,3.066 6.77,-14.124 9.4,-15.61 1.28,-0.729 5.36,11.2 6.38,6.69 2.06,-9.199 3.98,-59.559 6.03,-61.882 2.05,-2.323 4.13,42.183 6.26,47.944 2.13,5.761 4.41,-10.592 6.5,-13.379 2.06,-2.761 4.02,-3.07 6.03,-3.345 2.03,-0.279 4.17,3.995 6.14,1.672 1.98,-2.323 3.72,-12.172 5.69,-15.61 1.05,-1.833 4.75,-1.302 6.15,-5.017 2.61,-6.969 6.74,-36.052 9.51,-36.795 2.76,-0.744 4.81,43.856 7.07,32.335 2.26,-11.522 4.41,-96.448 6.5,-101.465 2.09,-5.017 3.94,52.497 6.03,71.36 2.09,18.862 4.43,35.958 6.49,41.812 1.49,4.21 4.36,-7.291 5.92,-6.69 2.16,0.836 4.91,8.084 7.07,11.708 2.17,3.623 3.79,12.171 5.92,10.035 2.13,-2.138 3.94,-21.093 6.84,-22.858 2.9,-1.765 7.76,9.199 10.56,12.265 2.8,3.066 4.04,4.274 6.26,6.133 2.23,1.858 4.8,6.504 7.08,5.017 2.28,-1.487 4.46,-16.818 6.61,-13.937 2.15,2.88 4.12,25.458 6.26,31.219 1.3,3.472 4.89,1.553 6.61,3.346 2.86,2.973 7.49,11.614 10.56,14.494 3.05,2.86 5.2,3.341 7.89,2.788 2.7,-0.558 5.76,-7.434 8.35,-6.133 2.59,1.301 4.87,8.362 7.19,13.938 2.32,5.574 3.83,22.485 6.73,19.512 2.9,-2.973 7.57,-43.578 10.67,-37.352 3.09,6.225 5.55,41.998 7.88,74.704 2.34,32.707 4.04,127.481 6.15,121.535 1.49,-4.202 4.48,-78.567 6.5,-157.214 2.86,-111.314 7.69,-478.425 10.67,-510.667 2.98,-32.242 4.85,247.342 7.19,317.215 1.71,51.097 5.19,83.472 6.84,102.022 2.25,25.212 4.56,35.583 6.73,50.175 2.19,14.68 4.14,26.481 6.38,37.91 2.24,11.428 4.81,32.427 7.08,30.662 2.26,-1.766 4.25,-31.964 6.49,-41.255 1.89,-7.815 4.96,-10.431 6.96,-14.495 1.34,-2.725 6.04,-6.477 7.31,-14.495 2.24,-14.216 3.21,-59.001 6.15,-70.802 1.38,-5.572 10.02,1.667 11.48,0 3.09,-3.531 4.81,-18.862 7.07,-21.185 2.26,-2.323 4.28,6.133 6.5,7.248 1.01,0.505 5.84,-3.84 6.84,-0.558 1.78,5.806 4.65,21.86 6.5,44.043 2.3,27.689 4.85,108.526 7.31,122.091 1.08,5.985 6.39,-20.039 7.42,-40.697 2.34,-46.83 3.56,-192.987 6.61,-240.281 1.45,-22.471 10.22,-45.427 11.71,-43.484 2.41,3.123 5.44,33.862 7.2,68.014 2.3,44.692 4.33,162.975 6.61,200.141 0.73,11.942 6.31,24.469 7.07,22.858 2.36,-5.018 4.66,-45.158 7.08,-52.962 1.13,-3.644 6.14,10.773 7.42,6.132 2.75,-9.942 6.32,-65.599 9.05,-65.785 2.72,-0.186 4.97,51.568 7.31,64.67 1.36,7.618 4.92,15.18 6.72,13.937 3.1,-2.137 8.62,-24.344 11.83,-26.76 3.21,-2.415 4.95,5.761 7.43,12.266 2.47,6.504 4.97,25.365 7.42,26.759 2.46,1.394 4.87,-15.238 7.31,-18.397 0.73,-0.955 6.59,-4.152 7.31,-0.558 2.19,10.989 4.72,35.86 6.96,71.917 2.41,39.025 5.06,187.412 7.53,162.232 2.48,-25.181 4.93,-195.031 7.31,-313.313 2.38,-118.283 4.54,-371.758 6.96,-396.38 2.42,-24.623 5.07,195.495 7.54,248.643 1.64,35.274 5.72,54.334 7.31,70.245 2.39,23.972 3.88,41.162 7.07,73.589 3.19,32.428 8.8,103.323 12.07,120.977 1.53,8.277 6.4,-11.742 7.54,-15.052 2.41,-7.062 4.5,-13.473 6.95,-27.318 2.46,-13.844 5.24,-44.321 7.78,-55.749 1.6,-7.233 5.89,-11.353 7.42,-12.823 1.35,-1.295 5.72,-4.43 7.07,-1.115 2.44,5.947 4.97,34.472 7.54,36.795 2.57,2.323 5.4,-22.764 7.89,-22.857 2.49,-0.093 4.66,20.162 7.08,22.3 2.41,2.136 4.91,-10.036 7.42,-9.478 2.51,0.557 4.39,10.593 7.66,12.823 3.26,2.23 8.62,0.371 11.94,0.557 3.33,0.185 5.4,3.438 8.01,0.557 2.6,-2.88 5.04,-19.233 7.65,-17.839 2.61,1.393 5.49,23.135 8,26.202 2.52,3.066 4.51,-5.668 7.08,-7.805 2.57,-2.137 5.7,-4.832 8.35,-5.017 2.65,-0.186 5.07,5.853 7.54,3.902 2.47,-1.951 4.81,-14.495 7.31,-15.61 2.49,-1.115 5.08,6.969 7.65,8.92 2.57,1.951 5.18,1.765 7.77,2.788 2.59,1.022 5.18,2.508 7.77,3.345 2.6,0.836 5.24,1.672 7.78,1.672 2.53,0 5,-2.044 7.42,-1.672 2.42,0.371 3.75,2.88 7.07,3.902 3.33,1.022 8.59,1.487 12.88,2.23"
       stroke="#4472c4"
       stroke-width="6.875"
       stroke-linecap="round"
       stroke-linejoin="round"
       stroke-miterlimit="10"
       fill="none"
       id="path204" />
  </g>
  <g
     clip-path="url(#clip8)"
     id="g210"
     transform="translate(-1571.7813,2.3631127)">
    <path
       d="m 1814.5,608.853 c 2.98,0 6.42,0 8.93,0 1.36,0 5.01,2.859 6.15,0 2.11,-5.301 4.5,-26.967 6.49,-31.802 1.17,-2.834 4.39,2.517 5.46,2.79 1.81,0.464 3.61,0.185 5.45,0 1.83,-0.186 3.71,-2.418 5.56,-1.116 1.86,1.301 3.58,8.834 5.57,8.927 1.99,0.093 3.85,-6.975 6.38,-8.37 2.53,-1.394 6.23,0.093 8.82,0 2.59,-0.093 4.58,-0.557 6.72,-0.557 2.15,0 4.26,-1.023 6.15,0.557 1.9,1.581 3.5,8.742 5.22,8.928 1.72,0.186 3.36,-6.882 5.1,-7.811 1.74,-0.93 3.64,3.719 5.34,2.231 1.7,-1.488 3.23,-10.88 4.87,-11.158 1.64,-0.28 3.29,8.276 4.99,9.485 1.7,1.208 3.4,-1.953 5.22,-2.232 1.82,-0.279 3.88,-0.28 5.68,0.557 1.8,0.837 3.4,5.115 5.11,4.464 1.7,-0.651 3.36,-6.974 5.1,-8.369 1.74,-1.395 3.61,0.186 5.33,0 1.73,-0.186 3.16,-1.023 4.99,-1.116 1.84,-0.093 4.2,2.418 6.03,0.558 1.84,-1.86 3.33,-5.579 4.99,-11.716 1.66,-6.138 3.31,-23.713 4.99,-25.108 1.68,-1.394 3.4,8.648 5.1,16.738 1.7,8.09 3.17,26.502 5.11,31.803 0.97,2.675 5.51,-3.098 6.49,0 1.95,6.137 3.52,28.64 5.22,36.824 1.35,6.486 3.66,11.094 4.99,12.274 1.68,1.488 3.42,-3.533 5.1,-3.347 1.68,0.186 3.21,3.719 4.99,4.463 0.42,0.176 5.24,-2.81 5.68,0 1.51,9.583 4.14,35.628 5.57,71.416 1.78,44.449 3.38,142.367 5.1,195.278 1.72,52.911 3.5,149.336 5.22,122.186 1.72,-27.151 3.29,-196.299 5.11,-285.104 1.81,-88.804 3.88,-206.436 5.8,-247.723 0.13,-2.842 5.55,-1.876 5.68,0 1.93,27.245 4.06,116.422 5.92,163.475 1.85,47.052 3.3,107.31 5.22,118.84 1.91,11.531 4.29,-41.38 6.26,-49.656 0.29,-1.223 5.3,2.774 5.57,0 1.77,-18.784 3.34,-93.919 5.1,-112.703 0.25,-2.717 5.2,0.713 5.45,0 1.76,-4.929 3.02,-24.642 5.1,-29.571 1.45,-3.42 5.98,-0.645 7.43,0 2.09,0.93 3.36,4.649 5.1,5.58 1.74,0.929 3.48,1.208 5.34,0 1.85,-1.209 3.92,-7.719 5.8,-7.253 1.28,0.318 4.08,4.493 5.45,10.042 1.97,8.005 4.45,19.084 6.49,38.498 1.61,15.202 4.48,39.529 5.92,79.227 1.85,51.237 3.44,223.639 5.22,228.196 1.78,4.556 3.67,-122.096 5.45,-200.857 1.78,-78.763 3.13,-234.148 5.22,-271.715 1.3,-23.406 5.97,24.815 7.31,46.309 2.14,34.499 3.61,119.862 5.56,160.685 1.96,40.822 4.18,75.228 6.15,84.249 1.97,9.019 3.83,-25.108 5.69,-30.129 0.46,-1.258 4.93,2.678 5.45,0 2.07,-10.694 4.85,-42.217 6.96,-64.163 2.1,-21.945 3.82,-54.864 5.68,-67.51 0.72,-4.943 4.71,-7.824 5.45,-8.369 1.9,-1.395 4.04,-1.86 5.92,0 1.87,1.86 3.21,9.299 5.33,11.159 2.13,1.86 5.18,1.395 7.43,0 2.24,-1.395 3.9,-6.324 6.03,-8.369 1.36,-1.317 5.37,-7.555 6.72,-3.906 1.26,3.369 4.81,18.772 5.92,37.94 1.87,32.267 3.17,84.713 5.34,155.664 2.16,70.951 5.45,250.044 7.65,270.044 2.2,19.99 3.62,-80.439 5.57,-150.088 1.95,-69.649 4.17,-196.765 6.15,-267.809 1.97,-71.044 3.69,-174.356 5.68,-158.454 1.99,15.901 3.96,195.649 6.26,253.861 1.89,47.815 5.45,98.462 7.54,95.407 2.55,-3.72 5.18,-71.044 7.77,-117.724 2.59,-46.682 5.59,-137.16 7.77,-162.36 0.54,-6.163 4.78,10.704 5.34,11.159 1.5,1.224 6.61,-3.798 8.35,0 2.65,5.765 4.8,27.896 7.54,34.592 2,4.874 7.14,6.459 8.93,5.579 2.46,-1.209 3.64,-10.694 5.8,-12.832 2.17,-2.139 5.01,1.301 7.19,0 2.19,-1.303 3.89,-7.811 5.92,-7.811 2.03,0 4.41,5.114 6.26,7.811 0.42,0.603 4.5,3.54 4.87,8.369 1.67,21.573 3.37,100.893 5.11,121.072 0.23,2.661 5.06,-2.121 5.33,0 2.07,16.087 4.95,93.826 7.08,96.523 2.12,2.697 3.88,-50.866 5.68,-80.343 1.8,-29.478 3.35,-69.556 5.1,-96.523 1.76,-26.967 3.7,-56.073 5.46,-65.279 0.68,-3.571 4.41,4.452 5.1,10.043 1.78,14.414 3.36,57.189 5.57,76.438 2.2,19.248 5.29,36.916 7.65,39.055 2.36,2.139 4.45,-21.109 6.5,-26.223 0.73,-1.835 5.14,-0.861 5.8,-4.463 1.81,-10.043 3.4,-46.495 5.1,-55.794 0.46,-2.513 4.62,0.854 5.1,0 1.78,-3.162 3.81,-15.622 5.57,-18.97 1.19,-2.264 3.49,-1.493 4.99,-1.116 2.22,0.558 5.99,3.627 8.35,4.464 2.36,0.837 3.92,0.186 5.8,0.558 1.87,0.371 3.58,1.58 5.45,1.674 1.88,0.092 3.98,-0.93 5.8,-1.116 1.82,-0.186 3.36,0 5.1,0 1.74,0 3.46,-1.116 5.34,0 1.87,1.116 4.06,2.882 5.92,6.695 1.85,3.812 2.95,9.019 5.22,16.18 0.86,2.749 7.43,12.783 8.35,26.781 2.37,36.451 4.02,143.389 5.91,191.93 1.9,48.54 3.5,116.702 5.45,99.313 1.96,-17.389 4.24,-132.51 6.27,-203.647 2.03,-71.137 3.96,-185.235 5.91,-223.174 0.19,-3.657 5.62,-5.835 5.8,-4.464 1.86,14.227 3.5,69.556 5.34,89.828 1.45,16.087 3.84,27.374 5.68,31.802 1.61,3.883 6.55,4.327 8.24,1.674 2.41,-3.813 4.27,-15.715 6.26,-24.549 1.99,-8.834 3.75,-19.9 5.68,-28.455 1.94,-8.556 4,-19.621 5.92,-22.875 1.65,-2.802 3.93,4.308 5.57,3.347 1.89,-1.116 3.82,-8.927 5.8,-10.043 1.46,-0.828 4.52,0.243 6.03,3.348 2.03,4.184 3.71,12.832 6.14,21.759 2.44,8.927 6.02,26.595 8.47,31.803 1.34,2.846 5.12,-0.761 6.26,-0.558 1.96,0.349 4.4,-0.088 6.27,2.789 1.99,3.069 3.71,9.578 5.68,15.623 0.84,2.585 5.32,9.904 6.15,20.643 1.93,25.107 3.56,108.333 5.45,130 0.26,2.949 5.65,-0.507 5.92,0 0.51,0.972 5.26,33.843 5.91,22.317 2.5,-44.077 6.55,-260.092 9.05,-286.779 2.49,-26.688 3.85,105.543 5.91,126.651 0.32,3.236 6.17,-1.525 6.5,0 2.15,9.95 4.37,58.305 6.38,59.7 2.01,1.394 3.71,-42.776 5.68,-51.331 0.62,-2.667 5.54,3.015 6.15,0 1.97,-9.671 3.71,-46.587 5.68,-58.025 1.04,-6.04 4.78,-9.423 6.15,-10.601 2.59,-2.232 6.77,-5.021 9.4,-2.789 2.62,2.231 4.31,18.597 6.38,16.179 2.06,-2.417 3.98,-28.547 6.03,-30.686 2.05,-2.139 4.13,14.506 6.26,17.854 1.84,2.9 4.69,2.554 6.5,2.232 2.08,-0.372 4,-5.859 6.03,-4.464 2.03,1.395 4.17,10.322 6.14,12.833 1.89,2.402 3.8,0.452 5.69,2.231 1.45,1.37 4.22,3.859 6.15,8.928 1.33,3.523 8.09,15.554 9.51,32.36 2.76,32.825 4.81,142.553 7.07,164.591 0.9,8.798 5.66,-15.878 6.5,-32.36 2.09,-41.288 3.94,-197.51 6.03,-215.364 2.09,-17.854 4.43,81.924 6.49,108.24 1.96,24.927 3.87,43.755 5.92,49.656 0.78,2.247 6.29,-5.232 7.07,-12.274 2.17,-19.528 3.79,-83.319 5.92,-104.892 1.25,-12.682 5.14,-23.292 6.84,-24.549 2.9,-2.139 7.76,10.6 10.56,11.716 2.8,1.116 4.04,-2.975 6.26,-5.021 2.23,-2.046 4.8,-5.487 7.08,-7.253 2.28,-1.767 4.46,-6.045 6.61,-3.348 2.15,2.697 4.12,14.32 6.26,19.528 2.15,5.207 3.75,8.462 6.61,11.717 2.86,3.254 7.49,4.556 10.56,7.811 3.07,3.254 5.18,10.972 7.89,11.716 2.7,0.744 5.76,-6.695 8.35,-7.253 2.59,-0.558 4.87,2.232 7.19,3.906 2.32,1.674 3.83,9.484 6.73,6.137 2.9,-3.348 7.57,-37.661 10.67,-26.223 3.09,11.437 5.55,57.653 7.88,94.849 2.34,37.196 4.04,74.112 6.15,128.325 2.11,54.213 3.64,227.915 6.5,196.952 2.86,-30.966 7.69,-321.65 10.67,-382.744 0.43,-8.844 6.85,14.282 7.19,16.18 2.34,13.111 4.58,50.679 6.84,62.489 1.01,5.274 5.75,8.867 6.73,8.369 1.8,-0.92 4.53,-7.096 6.38,-15.064 2.24,-9.671 4.81,-30.036 7.08,-42.962 2.26,-12.925 4.25,-25.758 6.49,-34.592 2.24,-8.834 4.58,-14.041 6.96,-18.411 2.38,-4.371 5.07,-5.022 7.31,-7.812 2.24,-2.789 3.21,-7.439 6.15,-8.927 2.93,-1.488 8.39,-2.325 11.48,0 3.09,2.325 4.81,9.95 7.07,13.949 2.26,3.998 4.28,10.228 6.5,10.042 2.22,-0.186 4.62,-7.067 6.84,-11.158 1.2,-2.197 5.26,-6.052 6.5,-13.391 2.3,-13.669 4.85,-73.089 7.31,-68.626 2.45,4.464 5.08,52.725 7.42,95.407 2.34,42.682 3.56,142.088 6.61,160.686 3.05,18.598 8.56,-25.479 11.71,-49.098 3.16,-23.62 4.9,-81.366 7.2,-92.618 2.3,-11.252 4.33,24.363 6.61,25.107 1.89,0.618 5.11,-9.909 7.07,-20.643 2.36,-12.926 4.66,-48.355 7.08,-56.91 1.26,-4.471 5.99,6.843 7.42,5.58 2.75,-2.418 6.32,-24.085 9.05,-20.086 2.72,3.998 4.97,38.683 7.31,44.077 2.34,5.393 3.63,-9.3 6.72,-11.717 3.1,-2.418 8.62,-5.579 11.83,-2.789 3.21,2.789 4.95,13.483 7.43,19.527 2.47,6.044 4.97,14.32 7.42,16.738 2.46,2.418 4.87,-3.72 7.31,-2.232 0.88,0.538 6.45,4.543 7.31,11.159 1.67,12.891 5.25,49.284 6.96,98.755 2.41,70.3 5.06,269.204 7.53,323.048 0.14,2.86 7.18,3.65 7.31,0 2.38,-68.815 4.54,-323.141 6.96,-412.876 1.69,-62.859 5.81,-113.811 7.54,-125.536 1.84,-12.468 5.52,12.155 7.31,25.108 2.39,17.388 3.88,59.699 7.07,79.227 3.19,19.527 8.8,38.869 12.07,37.939 3.26,-0.93 5.12,-34.778 7.54,-43.519 1.5,-5.457 5.42,-4.631 6.95,-8.927 2.46,-6.881 5.24,-25.107 7.78,-32.36 2.21,-6.328 5.31,-11.321 7.42,-11.159 2.42,0.186 4.64,7.718 7.07,12.275 2.44,4.556 4.97,14.32 7.54,15.064 2.57,0.744 5.4,-12.554 7.89,-10.601 2.49,1.953 4.66,21.946 7.08,22.318 2.41,0.371 4.91,-19.156 7.42,-20.086 2.51,-0.93 4.39,12.554 7.66,14.507 3.26,1.952 8.62,-1.396 11.94,-2.79 3.33,-1.395 5.4,-3.627 8.01,-5.579 2.6,-1.953 5.04,-7.068 7.65,-6.138 2.61,0.93 5.49,9.95 8,11.717 2.52,1.766 4.51,-0.744 7.08,-1.116 2.57,-0.372 5.7,-1.116 8.35,-1.116 2.65,0 5.07,-0.837 7.54,1.116 2.47,1.953 4.81,10.229 7.31,10.601 2.49,0.371 5.08,-7.16 7.65,-8.369 2.57,-1.209 5.18,0.65 7.77,1.116 2.59,0.464 5.18,1.487 7.77,1.673 2.6,0.186 5.24,1.953 7.78,-0.557 2.53,-2.511 5,-11.438 7.42,-14.507 2.42,-3.069 3.75,-2.976 7.07,-3.905 3.33,-0.93 8.59,-1.116 12.88,-1.674"
       stroke="#f4b183"
       stroke-width="6.875"
       stroke-linecap="round"
       stroke-linejoin="round"
       stroke-miterlimit="10"
       stroke-dasharray="13.75, 13.75"
       fill="none"
       id="path208" />
  </g>
  <g
     clip-path="url(#clip9)"
     id="g214"
     transform="translate(-1571.7813,2.3631127)">
    <path
       d="m 1814.5,609.428 c 2.98,0 6.42,0 8.93,0 0.97,0 5.34,2.965 6.15,0 2.11,-7.712 4.5,-37.907 6.49,-46.269 0.78,-3.262 4.75,-3.649 5.46,-3.902 1.81,-0.651 3.61,-1.766 5.45,0 1.83,1.765 3.71,9.941 5.56,10.591 1.86,0.651 3.58,-6.503 5.57,-6.689 1.99,-0.186 3.85,4.645 6.38,5.574 2.53,0.929 6.23,0.371 8.82,0 2.59,-0.372 4.58,-1.394 6.72,-2.23 2.15,-0.836 4.26,-5.017 6.15,-2.787 1.9,2.23 3.5,18.768 5.22,16.166 1.72,-2.601 3.36,-30.474 5.1,-31.775 1.74,-1.301 3.64,23.785 5.34,23.971 1.7,0.186 3.23,-21.927 4.87,-22.856 1.64,-0.929 3.29,12.822 4.99,17.281 1.7,4.46 3.4,11.614 5.22,9.477 1.82,-2.137 3.88,-19.232 5.68,-22.298 1.63,-2.771 3.57,1.214 5.11,3.902 1.7,2.973 3.36,12.636 5.1,13.937 1.74,1.3 3.61,-7.526 5.33,-6.132 1.73,1.393 3.16,13.1 4.99,14.493 1.84,1.394 4.2,-3.623 6.03,-6.132 1.42,-1.935 3.71,-3.973 4.99,-8.919 1.66,-6.411 3.31,-17.653 4.99,-29.546 1.68,-11.892 3.4,-38.093 5.1,-41.809 1.7,-3.717 3.17,16.259 5.11,19.511 0.59,1.006 5.89,-3.192 6.49,0 1.95,10.313 3.52,46.92 5.22,61.878 1.6,14.067 3.41,26.213 4.99,27.873 1.68,1.765 3.42,-15.794 5.1,-17.281 1.68,-1.487 3.21,6.968 4.99,8.362 1.78,1.393 3.81,-1.301 5.68,0 1.88,1.301 3.79,5.017 5.57,7.805 0.32,0.499 4.8,14.048 5.1,8.919 1.72,-28.617 3.5,-166.031 5.22,-180.618 1.72,-14.587 3.29,110.564 5.11,93.096 1.81,-17.467 3.88,-164.916 5.8,-197.899 0.12,-2.057 5.56,-2.839 5.68,0 1.93,45.526 4.06,230.975 5.92,273.157 0.45,10.358 4.75,-17.81 5.22,-20.069 1.91,-9.198 4.29,-29.267 6.26,-35.12 0.57,-1.69 5.05,-2.736 5.57,0 1.77,9.477 3.34,47.384 5.1,56.861 0.5,2.68 4.95,-0.867 5.45,0 1.76,3.066 3.02,15.33 5.1,18.396 2.09,3.066 5.34,2.137 7.43,0 2.09,-2.137 3.36,-10.685 5.1,-12.821 1.49,-1.827 3.75,-2.145 5.34,0 1.85,2.508 3.92,11.52 5.8,15.051 0.98,1.861 4.4,2.166 5.45,6.132 1.99,7.526 4.42,33.076 6.49,39.023 0.52,1.485 5.45,0.021 5.92,-3.345 1.85,-13.472 3.44,-52.309 5.22,-77.487 1.78,-25.179 3.67,-39.952 5.45,-73.585 1.78,-33.634 3.13,-136.393 5.22,-128.217 2.09,8.176 5.16,146.984 7.31,177.273 0.25,3.558 5.33,3.303 5.56,4.46 1.96,9.848 4.18,52.773 6.15,54.631 1.97,1.858 3.83,-36.235 5.69,-43.482 0.67,-2.641 4.69,-1.896 5.45,0 2.07,5.203 4.85,22.02 6.96,31.218 2.1,9.198 3.82,24.714 5.68,23.971 1.86,-0.743 3.56,-23.692 5.45,-28.431 1.1,-2.747 4.83,-1.831 5.92,0 1.87,3.159 3.21,15.795 5.33,18.954 2.07,3.079 5.24,-0.181 7.43,0 2.24,0.186 3.9,0.743 6.03,1.115 1.33,0.233 5.4,-2.029 6.72,1.115 2.11,5.017 4.04,28.709 5.92,28.988 1.58,0.235 3.51,-13.52 5.34,-27.316 2.16,-16.352 5.45,-72.748 7.65,-70.797 1.93,1.708 3.86,123.815 5.57,82.504 1.95,-47.198 4.17,-348.414 6.15,-365.695 1.97,-17.281 3.69,208.955 5.68,262.007 1.06,28.306 5.03,49.562 6.26,56.304 1.88,10.289 5.46,23.975 7.54,19.511 2.55,-5.482 5.18,-58.162 7.77,-52.401 2.59,5.76 5.59,74.328 7.77,86.964 1.06,6.089 4.24,-10.254 5.34,-11.15 1.66,-1.348 6.43,3.708 8.35,0 2.65,-5.11 4.8,-28.709 7.54,-30.66 2.75,-1.951 6.48,14.958 8.93,18.954 2.01,3.266 4.03,4.333 5.8,5.017 2.17,0.836 5.01,0.836 7.19,0 2.19,-0.837 3.89,-3.995 5.92,-5.017 2.03,-1.022 4.41,-2.044 6.26,-1.115 1.16,0.58 3.83,2.684 4.87,6.689 1.67,6.411 3.37,26.48 5.11,31.775 0.31,0.965 4.96,2.642 5.33,0 2.07,-14.494 4.95,-67.731 7.08,-86.963 0.54,-4.942 5.22,-13.942 5.68,-28.431 1.8,-56.397 3.35,-269.44 5.1,-309.949 1.32,-30.332 4.14,33.363 5.46,66.896 1.75,44.782 3.32,157.761 5.1,201.801 1.26,31.316 4,53.714 5.57,62.435 1.19,6.656 6.37,5.452 7.65,11.15 2.36,10.498 4.45,44.504 6.5,51.844 1.3,4.682 4.64,-7.627 5.8,-7.805 1.81,-0.279 3.4,5.11 5.1,6.132 1.7,1.022 3.33,-0.185 5.1,0 1.78,0.186 3.81,0.372 5.57,1.115 1.12,0.472 3.58,5.996 4.99,3.345 2.22,-4.181 5.99,-25.736 8.35,-28.43 2.36,-2.695 3.92,9.197 5.8,12.264 1.87,3.066 3.58,5.76 5.45,6.132 1.88,0.371 3.98,-3.252 5.8,-3.903 1.82,-0.65 3.36,0.651 5.1,0 1.74,-0.65 3.46,-5.946 5.34,-3.902 1.87,2.044 4.06,13.472 5.92,16.167 1.48,2.149 3.41,1.111 5.22,0 0.99,-0.615 7.3,-2.547 8.35,-8.362 2.37,-13.194 4.02,-58.07 5.91,-70.798 0.58,-3.854 4.86,-9.428 5.45,-5.574 1.67,10.837 4.54,123.003 6.27,81.946 2.03,-48.22 3.96,-369.318 5.91,-371.269 1.95,-1.951 3.95,300.472 5.8,359.563 0.12,3.66 5.22,-5.104 5.34,-5.017 1.83,1.393 3.36,10.405 5.68,13.379 2.32,2.973 5.82,7.99 8.24,4.459 2.41,-3.53 4.27,-23.413 6.26,-25.643 1.99,-2.23 3.75,9.384 5.68,12.264 1.94,2.881 4,5.389 5.92,5.017 1.91,-0.371 3.67,-6.596 5.57,-7.246 1.89,-0.651 3.82,1.671 5.8,3.344 1.97,1.672 4,8.362 6.03,6.69 1.52,-1.256 4.31,-8.005 6.14,-16.724 2.44,-11.614 6.02,-46.92 8.47,-52.959 2.46,-6.039 4.18,13.472 6.26,16.724 0.85,1.31 5.47,6.12 6.27,2.787 1.99,-8.269 3.71,-40.973 5.68,-52.401 0.89,-5.163 5.28,-7.563 6.15,-16.167 1.93,-19.046 3.56,-81.761 5.45,-98.113 0.1,-0.897 5.81,-2.956 5.92,0 1.97,53.888 3.42,216.481 5.91,323.328 2.5,106.847 6.55,319.89 9.05,317.75 2.49,-2.13 3.85,-275.476 5.91,-330.572 0.13,-3.246 6.37,2.6 6.5,0 2.15,-44.132 4.37,-225.772 6.38,-264.794 0.8,-15.571 4.9,28.621 5.68,30.66 0.35,0.899 5.8,-3.054 6.15,0 1.97,17.374 3.71,80.739 5.68,104.246 1.56,18.585 4.1,32.458 6.15,36.792 1.9,4.025 7.47,0.805 9.4,-3.902 2.62,-6.411 4.31,-37.257 6.38,-34.563 2.06,2.695 3.98,38.743 6.03,50.729 1.86,10.887 4.33,21.015 6.26,21.184 2.13,0.186 4.41,-19.976 6.5,-20.069 2.08,-0.093 4,15.888 6.03,19.511 1.6,2.853 4.59,-0.403 6.14,2.23 1.98,3.345 3.72,10.87 5.69,17.839 1.97,6.968 3.54,18.675 6.15,23.971 0.6,1.228 8.87,1.686 9.51,7.804 2.47,23.608 5.05,225.828 7.07,150.515 2.26,-84.177 4.41,-541.574 6.5,-655.575 0.26,-14.53 5.76,-33.866 6.03,-28.431 2.09,42.646 4.43,216.481 6.49,284.306 1.88,61.363 3.96,80.275 5.92,122.641 2.16,46.827 4.91,141.967 7.07,158.32 2.17,16.352 3.79,-42.832 5.92,-60.206 2.13,-17.374 3.94,-39.209 6.84,-44.04 2.9,-4.831 7.76,13.751 10.56,15.052 2.8,1.3 4.04,-6.69 6.26,-7.247 2.23,-0.558 4.8,3.53 7.08,3.902 2.28,0.371 4.46,-1.858 6.61,-1.672 1.78,0.154 4.48,5.716 6.26,2.787 2.15,-3.531 3.75,-17.003 6.61,-23.971 2.86,-6.968 7.49,-16.631 10.56,-17.839 3.07,-1.208 5.18,11.521 7.89,10.592 2.7,-0.929 5.76,-16.445 8.35,-16.166 2.59,0.278 4.87,14.772 7.19,17.838 2.04,2.692 4.18,1.781 6.73,0.558 2.9,-1.394 7.57,-5.946 10.67,-8.919 1.54,-1.483 6.72,-3.082 7.88,-8.92 2.34,-11.706 4.04,-45.34 6.15,-61.321 1.69,-12.814 4.2,-51.996 6.5,-34.562 2.86,21.74 7.69,151.722 10.67,165.009 2.98,13.285 4.85,-75.537 7.19,-85.292 2.34,-9.756 4.58,23.692 6.84,26.758 2.27,3.066 4.55,-3.624 6.73,-8.362 2.19,-4.738 4.14,-17.746 6.38,-20.068 1.88,-1.947 5.18,1.85 7.08,6.132 2.26,5.109 4.25,21.461 6.49,24.528 2.24,3.066 4.58,-9.57 6.96,-6.132 2.38,3.437 5.07,15.795 7.31,26.758 2.24,10.963 3.21,32.518 6.15,39.022 1.96,4.358 9.41,-5.355 11.48,0 3.09,7.99 4.81,48.871 7.07,47.942 2.26,-0.929 4.28,-44.411 6.5,-53.516 0.82,-3.369 6.02,1.016 6.84,-1.115 2.23,-5.761 4.2,-24.436 6.5,-33.448 2.15,-8.436 5.01,-31.324 7.31,-20.626 2.45,11.428 5.08,86.964 7.42,89.194 2.34,2.23 3.56,-59.835 6.61,-75.815 2.18,-11.413 9.46,-22.524 11.71,-20.069 3.16,3.438 4.9,38.744 7.2,40.695 2.3,1.951 4.33,-19.047 6.61,-28.988 2.28,-9.941 4.71,-32.147 7.07,-30.66 2.36,1.486 4.66,31.217 7.08,39.579 1.79,6.213 5.38,8.176 7.42,10.592 2.75,3.252 6.32,6.132 9.05,8.919 2.72,2.787 4.97,10.778 7.31,7.805 2.34,-2.973 3.63,-23.878 6.72,-25.643 3.1,-1.766 8.62,15.516 11.83,15.051 3.21,-0.464 4.95,-15.423 7.43,-17.838 2.47,-2.416 4.97,2.787 7.42,3.344 2.42,0.55 4.9,-2.751 7.31,0 2.43,2.787 4.93,19.883 7.31,16.724 1.4,-1.872 5.52,-17.559 6.96,-35.677 2.41,-30.568 5.06,-137.787 7.53,-147.728 2.48,-9.942 4.93,85.013 7.31,88.079 2.38,3.066 4.54,-77.952 6.96,-69.683 2.42,8.269 5.07,95.419 7.54,119.297 1.29,12.463 6.06,21.158 7.31,23.971 1.87,4.219 4.58,13.236 7.07,8.362 3.19,-6.225 8.8,-42.088 12.07,-45.712 3.26,-3.623 5.12,25.364 7.54,23.971 2.41,-1.394 4.5,-26.294 6.95,-32.333 1.43,-3.501 6.31,0.191 7.78,-3.902 2.53,-7.061 5,-30.568 7.42,-38.465 1.66,-5.444 5.4,-10.52 7.07,-8.919 2.44,2.322 4.97,13.564 7.54,22.856 2.57,9.29 5.4,34.376 7.89,32.89 2.49,-1.487 4.66,-40.974 7.08,-41.81 2.41,-0.836 4.91,33.912 7.42,36.793 2.51,2.88 4.39,-16.631 7.66,-19.511 3.25,-2.871 8.63,-2.865 11.94,2.23 3.33,5.11 5.4,29.638 8.01,28.43 2.6,-1.208 5.04,-33.355 7.65,-35.678 2.61,-2.322 5.49,20.069 8,21.741 2.52,1.673 4.51,-10.406 7.08,-11.706 2.57,-1.301 5.7,3.809 8.35,3.902 2.65,0.093 5.07,-0.651 7.54,-3.345 2.47,-2.695 4.81,-10.777 7.31,-12.821 2.49,-2.044 5.08,-0.93 7.65,0.557 2.57,1.487 5.18,7.526 7.77,8.362 2.59,0.836 5.18,-3.159 7.77,-3.345 2.6,-0.186 5.24,-0.093 7.78,2.23 2.53,2.322 5,7.618 7.42,11.707 2.42,4.088 3.75,11.985 7.07,12.822 3.33,0.836 8.59,-5.204 12.88,-7.805"
       stroke="#a9d18e"
       stroke-width="6.875"
       stroke-linecap="round"
       stroke-linejoin="round"
       stroke-miterlimit="10"
       stroke-dasharray="13.75, 13.75"
       fill="none"
       id="path212" />
  </g>
  <g
     clip-path="url(#clip10)"
     id="g218"
     transform="translate(-1571.7813,2.3631127)">
    <path
       d="m 1814.5,441.5 c 2.98,0 6.42,0 8.93,0 2.51,0 4.04,0 6.15,0 2.11,0 4.5,0 6.49,0 2,0 3.64,0 5.46,0 1.81,0 3.61,0 5.45,0 1.83,0 3.71,0 5.56,0 1.86,0 3.58,0 5.57,0 1.99,0 3.85,0 6.38,0 2.53,0 6.23,0 8.82,0 2.59,0 4.58,0 6.72,0 2.15,0 4.26,0 6.15,0 1.9,0 3.5,0 5.22,0 1.72,0 3.36,0 5.1,0 1.74,0 3.64,0 5.34,0 1.7,0 3.23,0 4.87,0 1.64,0 3.29,0 4.99,0 1.7,0 3.4,0 5.22,0 1.82,0 3.88,0 5.68,0 1.8,0 3.4,0 5.11,0 1.7,0 3.36,0 5.1,0 1.74,0 3.61,0 5.33,0 1.73,0 3.16,0 4.99,0 1.84,0 4.2,0 6.03,0 1.84,0 3.33,0 4.99,0 1.66,0 3.31,0 4.99,0 1.68,0 3.4,0 5.1,0 1.7,0 3.17,0 5.11,0 1.93,0 4.54,0 6.49,0 1.95,0 3.52,0 5.22,0 1.7,0 3.31,0 4.99,0 1.68,0 3.42,0 5.1,0 1.68,0 3.21,0 4.99,0 1.78,0 3.81,0 5.68,0 1.88,0 3.79,0 5.57,0 1.78,0 3.38,0 5.1,0 1.72,0 3.5,0 5.22,0 1.72,0 3.29,0 5.11,0 1.81,0 3.88,0 5.8,0 1.91,0 3.75,0 5.68,0 1.93,0 4.06,0 5.92,0 1.85,0 3.3,0 5.22,0 1.91,0 4.29,0 6.26,0 1.97,0 3.79,0 5.57,0 1.77,0 3.34,0 5.1,0 1.76,0 3.69,0 5.45,0 1.76,0 3.02,0 5.1,0 2.09,0 5.34,0 7.43,0 2.09,0 3.36,0 5.1,0 1.74,0 3.48,0 5.34,0 1.85,0 3.92,0 5.8,0 1.87,0 3.46,0 5.45,0 1.99,0 4.42,0 6.49,0 2.07,0 4.06,0 5.92,0 1.85,0 3.44,0 5.22,0 1.78,0 3.67,0 5.45,0 1.78,0 3.13,0 5.22,0 2.09,0 5.16,0 7.31,0 2.14,0 3.61,0 5.56,0 1.96,0 4.18,0 6.15,0 1.97,0 3.83,0 5.69,0 1.85,0 3.38,0 5.45,0 2.07,0 4.85,0 6.96,0 2.1,0 3.82,0 5.68,0 1.86,0 3.56,0 5.45,0 1.9,0 4.04,0 5.92,0 1.87,0 3.21,0 5.33,0 2.13,0 5.18,0 7.43,0 2.24,0 3.9,0 6.03,0 2.12,0 4.62,0 6.72,0 2.11,0 4.04,0 5.92,0 1.87,0 3.17,0 5.34,0 2.16,0 5.45,0 7.65,0 2.2,0 3.62,0 5.57,0 1.95,0 4.17,0 6.15,0 1.97,0 3.69,0 5.68,0 1.99,0 3.96,0 6.26,0 2.3,0 4.99,0 7.54,0 2.55,0 5.18,0 7.77,0 2.59,0 5.59,0 7.77,0 2.19,0 3.06,0 5.34,0 2.28,0 5.7,0 8.35,0 2.65,0 4.8,0 7.54,0 2.75,0 6.48,0 8.93,0 2.46,0 3.64,0 5.8,0 2.17,0 5.01,0 7.19,0 2.19,0 3.89,0 5.92,0 2.03,0 4.41,0 6.26,0 1.86,0 3.21,0 4.87,0 1.67,0 3.37,0 5.11,0 1.74,0 3.26,0 5.33,0 2.07,0 4.95,0 7.08,0 2.12,0 3.88,0 5.68,0 1.8,0 3.35,0 5.1,0 1.76,0 3.7,0 5.46,0 1.75,0 3.32,0 5.1,0 1.78,0 3.36,0 5.57,0 2.2,0 5.29,0 7.65,0 2.36,0 4.45,0 6.5,0 2.05,0 3.98,0 5.8,0 1.81,0 3.4,0 5.1,0 1.7,0 3.33,0 5.1,0 1.78,0 3.81,0 5.57,0 1.76,0 2.77,0 4.99,0 2.22,0 5.99,0 8.35,0 2.36,0 3.92,0 5.8,0 1.87,0 3.58,0 5.45,0 1.88,0 3.98,0 5.8,0 1.82,0 3.36,0 5.1,0 1.74,0 3.46,0 5.34,0 1.87,0 4.06,0 5.92,0 1.85,0 2.95,0 5.22,0 2.26,0 5.97,0 8.35,0 2.37,0 4.02,0 5.91,0 1.9,0 3.5,0 5.45,0 1.96,0 4.24,0 6.27,0 2.03,0 3.96,0 5.91,0 1.95,0 3.95,0 5.8,0 1.86,0 3.5,0 5.34,0 1.83,0 3.36,0 5.68,0 2.32,0 5.82,0 8.24,0 2.41,0 4.27,0 6.26,0 1.99,0 3.75,0 5.68,0 1.94,0 4,0 5.92,0 1.91,0 3.67,0 5.57,0 1.89,0 3.82,0 5.8,0 1.97,0 4,0 6.03,0 2.03,0 3.71,0 6.14,0 2.44,0 6.02,0 8.47,0 2.46,0 4.18,0 6.26,0 2.09,0 4.28,0 6.27,0 1.99,0 3.71,0 5.68,0 1.97,0 4.22,0 6.15,0 1.93,0 3.56,0 5.45,0 1.89,0 3.94,0 5.92,0 1.97,0 3.42,0 5.91,0 2.5,0 6.55,0 9.05,0 2.49,0 3.85,0 5.91,0 2.07,0 4.35,0 6.5,0 2.15,0 4.37,0 6.38,0 2.01,0 3.71,0 5.68,0 1.97,0 4.18,0 6.15,0 1.97,0 3.71,0 5.68,0 1.97,0 3.56,0 6.15,0 2.59,0 6.77,0 9.4,0 2.62,0 4.31,0 6.38,0 2.06,0 3.98,0 6.03,0 2.05,0 4.13,0 6.26,0 2.13,0 4.41,0 6.5,0 2.08,0 4,0 6.03,0 2.03,0 4.17,0 6.14,0 1.98,0 3.72,0 5.69,0 1.97,0 3.54,0 6.15,0 2.61,0 6.74,0 9.51,0 2.76,0 4.81,0 7.07,0 2.26,0 4.41,0 6.5,0 2.09,0 3.94,0 6.03,0 2.09,0 4.43,0 6.49,0 2.07,0 3.75,0 5.92,0 2.16,0 4.91,0 7.07,0 2.17,0 3.79,0 5.92,0 2.13,0 3.94,0 6.84,0 2.9,0 7.76,0 10.56,0 2.8,0 4.04,0 6.26,0 2.23,0 4.8,0 7.08,0 2.28,0 4.46,0 6.61,0 2.15,0 4.12,0 6.26,0 2.15,0 3.75,0 6.61,0 2.86,0 7.49,0 10.56,0 3.07,0 5.18,0 7.89,0 2.7,0 5.76,0 8.35,0 2.59,0 4.87,0 7.19,0 2.32,0 3.83,0 6.73,0 2.9,0 7.57,0 10.67,0 3.09,0 5.55,0 7.88,0 2.34,0 4.04,0 6.15,0 2.11,0 3.64,0 6.5,0 2.86,0 7.69,0 10.67,0 2.98,0 4.85,0 7.19,0 2.34,0 4.58,0 6.84,0 2.27,0 4.55,0 6.73,0 2.19,0 4.14,0 6.38,0 2.24,0 4.81,0 7.08,0 2.26,0 4.25,0 6.49,0 2.24,0 4.58,0 6.96,0 2.38,0 5.07,0 7.31,0 2.24,0 3.21,0 6.15,0 2.93,0 8.39,0 11.48,0 3.09,0 4.81,0 7.07,0 2.26,0 4.28,0 6.5,0 2.22,0 4.62,0 6.84,0 2.23,0 4.2,0 6.5,0 2.3,0 4.85,0 7.31,0 2.45,0 5.08,0 7.42,0 2.34,0 3.56,0 6.61,0 3.05,0 8.56,0 11.71,0 3.16,0 4.9,0 7.2,0 2.3,0 4.33,0 6.61,0 2.28,0 4.71,0 7.07,0 2.36,0 4.66,0 7.08,0 2.41,0 4.68,0 7.42,0 2.75,0 6.32,0 9.05,0 2.72,0 4.97,0 7.31,0 2.34,0 3.63,0 6.72,0 3.1,0 8.62,0 11.83,0 3.21,0 4.95,0 7.43,0 2.47,0 4.97,0 7.42,0 2.46,0 4.87,0 7.31,0 2.43,0 4.93,0 7.31,0 2.37,0 4.54,0 6.96,0 2.41,0 5.06,0 7.53,0 2.48,0 4.93,0 7.31,0 2.38,0 4.54,0 6.96,0 2.42,0 5.07,0 7.54,0 2.47,0 4.91,0 7.31,0 2.39,0 3.88,0 7.07,0 3.19,0 8.8,0 12.07,0 3.26,0 5.12,0 7.54,0 2.41,0 4.5,0 6.95,0 2.46,0 5.24,0 7.78,0 2.53,0 5,0 7.42,0 2.42,0 4.64,0 7.07,0 2.44,0 4.97,0 7.54,0 2.57,0 5.4,0 7.89,0 2.49,0 4.66,0 7.08,0 2.41,0 4.91,0 7.42,0 2.51,0 4.39,0 7.66,0 3.26,0 8.62,0 11.94,0 3.33,0 5.4,0 8.01,0 2.6,0 5.04,0 7.65,0 2.61,0 5.49,0 8,0 2.52,0 4.51,0 7.08,0 2.57,0 5.7,0 8.35,0 2.65,0 5.07,0 7.54,0 2.47,0 4.81,0 7.31,0 2.49,0 5.08,0 7.65,0 2.57,0 5.18,0 7.77,0 2.59,0 5.18,0 7.77,0 2.6,0 5.24,0 7.78,0 2.53,0 5,0 7.42,0 2.42,0 3.75,0 7.07,0 3.33,0 8.59,0 12.88,0"
       stroke="#5b9bd5"
       stroke-width="6.875"
       stroke-linecap="round"
       stroke-linejoin="round"
       stroke-miterlimit="10"
       fill="none"
       id="path216" />
  </g>
  <g
     clip-path="url(#clip11)"
     id="g222"
     transform="translate(-1571.7813,2.3631127)">
    <path
       d="m 1814.5,1500.92 c 2.98,0 6.42,0 8.93,0 2.51,0 4.04,0 6.15,0 2.11,0 4.5,0 6.49,0 2,0 3.64,0 5.46,0 1.81,0 3.61,0 5.45,0 1.83,0 3.71,0 5.56,0 1.86,0 3.58,0 5.57,0 1.99,0 3.85,0 6.38,0 2.53,0 6.23,0 8.82,0 2.59,0 4.58,0 6.72,0 2.15,0 4.26,0 6.15,0 1.9,0 3.5,0 5.22,0 1.72,0 3.36,0 5.1,0 1.74,0 3.64,0 5.34,0 1.7,0 3.23,0 4.87,0 1.64,0 3.29,0 4.99,0 1.7,0 3.4,0 5.22,0 1.82,0 3.88,0 5.68,0 1.8,0 3.4,0 5.11,0 1.7,0 3.36,0 5.1,0 1.74,0 3.61,0 5.33,0 1.73,0 3.16,0 4.99,0 1.84,0 4.2,0 6.03,0 1.84,0 3.33,0 4.99,0 1.66,0 3.31,0 4.99,0 1.68,0 3.4,0 5.1,0 1.7,0 3.17,0 5.11,0 1.93,0 4.54,0 6.49,0 1.95,0 3.52,0 5.22,0 1.7,0 3.31,0 4.99,0 1.68,0 3.42,0 5.1,0 1.68,0 3.21,0 4.99,0 1.78,0 3.81,0 5.68,0 1.88,0 3.79,0 5.57,0 1.78,0 3.38,0 5.1,0 0.4,0 4.83,2.58 5.22,0 1.72,-11.14 3.29,-55.7 5.11,-66.84 0.46,-2.86 5.31,0 5.8,0 1.91,0 3.75,0 5.68,0 1.93,0 4.06,0 5.92,0 1.85,0 3.3,0 5.22,0 1.91,0 4.29,0 6.26,0 1.97,0 3.79,0 5.57,0 1.77,0 3.34,0 5.1,0 1.76,0 3.69,0 5.45,0 1.76,0 3.02,0 5.1,0 2.09,0 5.34,0 7.43,0 2.09,0 3.36,0 5.1,0 1.74,0 3.48,0 5.34,0 1.85,0 3.92,0 5.8,0 1.87,0 3.46,0 5.45,0 1.99,0 4.42,0 6.49,0 2.07,0 4.06,0 5.92,0 0.43,0 4.81,2.58 5.22,0 1.78,-11.14 3.67,-55.7 5.45,-66.84 0.41,-2.58 4.74,0 5.22,0 2.09,0 5.16,0 7.31,0 2.14,0 3.61,0 5.56,0 1.96,0 4.18,0 6.15,0 1.97,0 3.83,0 5.69,0 1.85,0 3.38,0 5.45,0 2.07,0 4.85,0 6.96,0 2.1,0 3.82,0 5.68,0 1.86,0 3.56,0 5.45,0 1.9,0 4.04,0 5.92,0 1.87,0 3.21,0 5.33,0 2.13,0 5.18,0 7.43,0 2.24,0 3.9,0 6.03,0 2.12,0 4.62,0 6.72,0 2.11,0 4.04,0 5.92,0 1.87,0 3.17,0 5.34,0 0.72,0 6.91,3.75 7.65,0 2.2,-11.14 3.62,-55.7 5.57,-66.84 0.53,-3.03 5.61,0 6.15,0 1.97,0 3.69,0 5.68,0 1.99,0 3.96,0 6.26,0 2.3,0 4.99,0 7.54,0 2.55,0 5.18,0 7.77,0 2.59,0 5.59,0 7.77,0 2.19,0 3.06,0 5.34,0 2.28,0 5.7,0 8.35,0 2.65,0 4.8,0 7.54,0 2.75,0 6.48,0 8.93,0 2.46,0 3.64,0 5.8,0 2.17,0 5.01,0 7.19,0 2.19,0 3.89,0 5.92,0 2.03,0 4.41,0 6.26,0 1.86,0 3.21,0 4.87,0 1.67,0 3.37,0 5.11,0 1.74,0 3.26,0 5.33,0 0.65,0 6.41,3.47 7.08,0 2.12,-11.15 3.88,-55.71 5.68,-66.85 0.41,-2.52 4.71,0 5.1,0 1.76,0 3.7,0 5.46,0 1.75,0 3.32,0 5.1,0 1.78,0 3.36,0 5.57,0 2.2,0 5.29,0 7.65,0 2.36,0 4.45,0 6.5,0 2.05,0 3.98,0 5.8,0 1.81,0 3.4,0 5.1,0 1.7,0 3.33,0 5.1,0 1.78,0 3.81,0 5.57,0 1.76,0 2.77,0 4.99,0 2.22,0 5.99,0 8.35,0 2.36,0 3.92,0 5.8,0 1.87,0 3.58,0 5.45,0 1.88,0 3.98,0 5.8,0 1.82,0 3.36,0 5.1,0 1.74,0 3.46,0 5.34,0 1.87,0 4.06,0 5.92,0 1.85,0 2.95,0 5.22,0 2.26,0 5.97,0 8.35,0 2.37,0 4.02,0 5.91,0 0.46,0 4.98,2.69 5.45,0 1.96,-11.14 4.24,-55.7 6.27,-66.84 0.53,-2.91 5.4,0 5.91,0 1.95,0 3.95,0 5.8,0 1.86,0 3.5,0 5.34,0 1.83,0 3.36,0 5.68,0 2.32,0 5.82,0 8.24,0 2.41,0 4.27,0 6.26,0 1.99,0 3.75,0 5.68,0 1.94,0 4,0 5.92,0 1.91,0 3.67,0 5.57,0 1.89,0 3.82,0 5.8,0 1.97,0 4,0 6.03,0 2.03,0 3.71,0 6.14,0 2.44,0 6.02,0 8.47,0 2.46,0 4.18,0 6.26,0 2.09,0 4.28,0 6.27,0 1.99,0 3.71,0 5.68,0 1.97,0 4.22,0 6.15,0 1.93,0 3.56,0 5.45,0 1.89,0 3.94,0 5.92,0 1.97,0 3.42,0 5.91,0 2.5,0 6.55,0 9.05,0 2.49,0 3.85,0 5.91,0 2.07,0 4.35,0 6.5,0 2.15,0 4.37,0 6.38,0 2.01,0 3.71,0 5.68,0 1.97,0 4.18,0 6.15,0 1.97,0 3.71,0 5.68,0 1.97,0 3.56,0 6.15,0 2.59,0 6.77,0 9.4,0 2.62,0 4.31,0 6.38,0 2.06,0 3.98,0 6.03,0 2.05,0 4.13,0 6.26,0 2.13,0 4.41,0 6.5,0 2.08,0 4,0 6.03,0 2.03,0 4.17,0 6.14,0 1.98,0 3.72,0 5.69,0 1.97,0 3.54,0 6.15,0 2.61,0 6.74,0 9.51,0 2.76,0 4.81,0 7.07,0 2.26,0 4.41,0 6.5,0 2.09,0 3.94,0 6.03,0 2.09,0 4.43,0 6.49,0 2.07,0 3.75,0 5.92,0 2.16,0 4.91,0 7.07,0 2.17,0 3.79,0 5.92,0 2.13,0 3.94,0 6.84,0 2.9,0 7.76,0 10.56,0 2.8,0 4.04,0 6.26,0 2.23,0 4.8,0 7.08,0 2.28,0 4.46,0 6.61,0 2.15,0 4.12,0 6.26,0 2.15,0 3.75,0 6.61,0 2.86,0 7.49,0 10.56,0 3.07,0 5.18,0 7.89,0 2.7,0 5.76,0 8.35,0 2.59,0 4.87,0 7.19,0 2.32,0 3.83,0 6.73,0 2.9,0 7.57,0 10.67,0 3.09,0 5.55,0 7.88,0 2.34,0 4.04,0 6.15,0 0.6,0 5.69,3.14 6.5,0 2.86,-11.14 7.69,-55.7 10.67,-66.84 0.93,-3.47 6.46,0 7.19,0 2.34,0 4.58,0 6.84,0 2.27,0 4.55,0 6.73,0 2.19,0 4.14,0 6.38,0 2.24,0 4.81,0 7.08,0 2.26,0 4.25,0 6.49,0 2.24,0 4.58,0 6.96,0 2.38,0 5.07,0 7.31,0 2.24,0 3.21,0 6.15,0 2.93,0 8.39,0 11.48,0 3.09,0 4.81,0 7.07,0 2.26,0 4.28,0 6.5,0 2.22,0 4.62,0 6.84,0 2.23,0 4.2,0 6.5,0 2.3,0 4.85,0 7.31,0 2.45,0 5.08,0 7.42,0 0.67,0 5.74,3.18 6.61,0 3.05,-11.14 8.56,-55.7 11.71,-66.85 0.98,-3.45 6.48,0 7.2,0 2.3,0 4.33,0 6.61,0 2.28,0 4.71,0 7.07,0 2.36,0 4.66,0 7.08,0 2.41,0 4.68,0 7.42,0 2.75,0 6.32,0 9.05,0 2.72,0 4.97,0 7.31,0 2.34,0 3.63,0 6.72,0 3.1,0 8.62,0 11.83,0 3.21,0 4.95,0 7.43,0 2.47,0 4.97,0 7.42,0 2.46,0 4.87,0 7.31,0 2.43,0 4.93,0 7.31,0 2.37,0 4.54,0 6.96,0 2.41,0 5.06,0 7.53,0 0.8,0 6.55,3.58 7.31,0 2.38,-11.14 4.54,-55.698 6.96,-66.838 0.8,-3.682 6.72,0 7.54,0 2.47,0 4.91,0 7.31,0 2.39,0 3.88,0 7.07,0 3.19,0 8.8,0 12.07,0 3.26,0 5.12,0 7.54,0 2.41,0 4.5,0 6.95,0 2.46,0 5.24,0 7.78,0 2.53,0 5,0 7.42,0 2.42,0 4.64,0 7.07,0 2.44,0 4.97,0 7.54,0 2.57,0 5.4,0 7.89,0 2.49,0 4.66,0 7.08,0 2.41,0 4.91,0 7.42,0 2.51,0 4.39,0 7.66,0 3.26,0 8.62,0 11.94,0 3.33,0 5.4,0 8.01,0 2.6,0 5.04,0 7.65,0 2.61,0 5.49,0 8,0 2.52,0 4.51,0 7.08,0 2.57,0 5.7,0 8.35,0 2.65,0 5.07,0 7.54,0 2.47,0 4.81,0 7.31,0 2.49,0 5.08,0 7.65,0 2.57,0 5.18,0 7.77,0 2.59,0 5.18,0 7.77,0 2.6,0 5.24,0 7.78,0 2.53,0 5,0 7.42,0 2.42,0 3.75,0 7.07,0 3.33,0 8.59,0 12.88,0"
       stroke="#ffc000"
       stroke-width="6.875"
       stroke-linecap="round"
       stroke-linejoin="round"
       stroke-miterlimit="10"
       fill="none"
       id="path220" />
  </g>
  <g
     clip-path="url(#clip12)"
     id="g226"
     transform="translate(-1571.7813,2.3631127)">
    <text
       fill="#595959"
       font-family="Calibri, Calibri_MSFontService, sans-serif"
       font-weight="400"
       font-size="41px"
       transform="translate(3243.97,1513)"
       id="text224">0</text>
  </g>
  <g
     clip-path="url(#clip13)"
     id="g230"
     transform="translate(-1571.7813,2.3631127)">
    <text
       fill="#595959"
       font-family="Calibri, Calibri_MSFontService, sans-serif"
       font-weight="400"
       font-size="41px"
       transform="translate(3243.97,1379)"
       id="text228">2</text>
  </g>
  <g
     clip-path="url(#clip14)"
     id="g234"
     transform="translate(-1571.7813,2.3631127)">
    <text
       fill="#595959"
       font-family="Calibri, Calibri_MSFontService, sans-serif"
       font-weight="400"
       font-size="41px"
       transform="translate(3243.97,1245)"
       id="text232">4</text>
  </g>
  <g
     clip-path="url(#clip15)"
     id="g238"
     transform="translate(-1571.7813,2.3631127)">
    <text
       fill="#595959"
       font-family="Calibri, Calibri_MSFontService, sans-serif"
       font-weight="400"
       font-size="41px"
       transform="translate(3243.97,1111)"
       id="text236">6</text>
  </g>
  <g
     clip-path="url(#clip16)"
     id="g242"
     transform="translate(-1571.7813,2.3631127)">
    <text
       fill="#595959"
       font-family="Calibri, Calibri_MSFontService, sans-serif"
       font-weight="400"
       font-size="41px"
       transform="translate(3243.97,978)"
       id="text240">8</text>
  </g>
  <g
     clip-path="url(#clip17)"
     id="g246"
     transform="translate(-1571.7813,2.3631127)">
    <text
       fill="#595959"
       font-family="Calibri, Calibri_MSFontService, sans-serif"
       font-weight="400"
       font-size="41px"
       transform="translate(3243.97,844)"
       id="text244">10</text>
  </g>
  <g
     clip-path="url(#clip18)"
     id="g250"
     transform="translate(-1571.7813,2.3631127)">
    <text
       fill="#595959"
       font-family="Calibri, Calibri_MSFontService, sans-serif"
       font-weight="400"
       font-size="41px"
       transform="translate(3243.97,710)"
       id="text248">12</text>
  </g>
  <g
     clip-path="url(#clip19)"
     id="g254"
     transform="translate(-1571.7813,2.3631127)">
    <text
       fill="#595959"
       font-family="Calibri, Calibri_MSFontService, sans-serif"
       font-weight="400"
       font-size="41px"
       transform="translate(3243.97,576)"
       id="text252">14</text>
  </g>
  <g
     clip-path="url(#clip20)"
     id="g258"
     transform="translate(-1571.7813,2.3631127)">
    <text
       fill="#595959"
       font-family="Calibri, Calibri_MSFontService, sans-serif"
       font-weight="400"
       font-size="41px"
       transform="translate(3243.97,442)"
       id="text256">16</text>
  </g>
  <g
     clip-path="url(#clip21)"
     id="g262"
     transform="translate(-1571.7813,2.3631127)">
    <text
       fill="#595959"
       font-family="Calibri, Calibri_MSFontService, sans-serif"
       font-weight="400"
       font-size="41px"
       transform="translate(3243.97,309)"
       id="text260">18</text>
  </g>
  <g
     clip-path="url(#clip22)"
     id="g266"
     transform="translate(-1571.7813,2.3631127)">
    <text
       fill="#595959"
       font-family="Calibri, Calibri_MSFontService, sans-serif"
       font-weight="400"
       font-size="41px"
       transform="translate(3243.97,175)"
       id="text264">20</text>
  </g>
  <g
     clip-path="url(#clip23)"
     id="g270"
     transform="translate(-1571.7813,2.3631127)">
    <text
       fill="#595959"
       font-family="Calibri, Calibri_MSFontService, sans-serif"
       font-weight="400"
       font-size="41px"
       transform="translate(1699.98,1513)"
       id="text268">-160</text>
  </g>
  <g
     clip-path="url(#clip24)"
     id="g274"
     transform="translate(-1571.7813,2.3631127)">
    <text
       fill="#595959"
       font-family="Calibri, Calibri_MSFontService, sans-serif"
       font-weight="400"
       font-size="41px"
       transform="translate(1699.98,1401)"
       id="text272">-140</text>
  </g>
  <g
     clip-path="url(#clip25)"
     id="g278"
     transform="translate(-1571.7813,2.3631127)">
    <text
       fill="#595959"
       font-family="Calibri, Calibri_MSFontService, sans-serif"
       font-weight="400"
       font-size="41px"
       transform="translate(1699.98,1290)"
       id="text276">-120</text>
  </g>
  <g
     clip-path="url(#clip26)"
     id="g282"
     transform="translate(-1571.7813,2.3631127)">
    <text
       fill="#595959"
       font-family="Calibri, Calibri_MSFontService, sans-serif"
       font-weight="400"
       font-size="41px"
       transform="translate(1699.98,1178)"
       id="text280">-100</text>
  </g>
  <g
     clip-path="url(#clip27)"
     id="g286"
     transform="translate(-1571.7813,2.3631127)">
    <text
       fill="#595959"
       font-family="Calibri, Calibri_MSFontService, sans-serif"
       font-weight="400"
       font-size="41px"
       transform="translate(1720.88,1067)"
       id="text284">-80</text>
  </g>
  <g
     clip-path="url(#clip28)"
     id="g290"
     transform="translate(-1571.7813,2.3631127)">
    <text
       fill="#595959"
       font-family="Calibri, Calibri_MSFontService, sans-serif"
       font-weight="400"
       font-size="41px"
       transform="translate(1720.88,955)"
       id="text288">-60</text>
  </g>
  <g
     clip-path="url(#clip29)"
     id="g294"
     transform="translate(-1571.7813,2.3631127)">
    <text
       fill="#595959"
       font-family="Calibri, Calibri_MSFontService, sans-serif"
       font-weight="400"
       font-size="41px"
       transform="translate(1720.88,844)"
       id="text292">-40</text>
  </g>
  <g
     clip-path="url(#clip30)"
     id="g298"
     transform="translate(-1571.7813,2.3631127)">
    <text
       fill="#595959"
       font-family="Calibri, Calibri_MSFontService, sans-serif"
       font-weight="400"
       font-size="41px"
       transform="translate(1720.88,732)"
       id="text296">-20</text>
  </g>
  <g
     clip-path="url(#clip31)"
     id="g302"
     transform="translate(-1571.7813,2.3631127)">
    <text
       fill="#595959"
       font-family="Calibri, Calibri_MSFontService, sans-serif"
       font-weight="400"
       font-size="41px"
       transform="translate(1754.41,621)"
       id="text300">0</text>
  </g>
  <g
     clip-path="url(#clip32)"
     id="g306"
     transform="translate(-1571.7813,2.3631127)">
    <text
       fill="#595959"
       font-family="Calibri, Calibri_MSFontService, sans-serif"
       font-weight="400"
       font-size="41px"
       transform="translate(1733.51,509)"
       id="text304">20</text>
  </g>
  <g
     clip-path="url(#clip33)"
     id="g310"
     transform="translate(-1571.7813,2.3631127)">
    <text
       fill="#595959"
       font-family="Calibri, Calibri_MSFontService, sans-serif"
       font-weight="400"
       font-size="41px"
       transform="translate(1733.51,398)"
       id="text308">40</text>
  </g>
  <g
     clip-path="url(#clip34)"
     id="g314"
     transform="translate(-1571.7813,2.3631127)">
    <text
       fill="#595959"
       font-family="Calibri, Calibri_MSFontService, sans-serif"
       font-weight="400"
       font-size="41px"
       transform="translate(1733.51,286)"
       id="text312">60</text>
  </g>
  <g
     clip-path="url(#clip35)"
     id="g318"
     transform="translate(-1571.7813,2.3631127)">
    <text
       fill="#595959"
       font-family="Calibri, Calibri_MSFontService, sans-serif"
       font-weight="400"
       font-size="41px"
       transform="translate(1733.51,175)"
       id="text316">80</text>
  </g>
  <g
     clip-path="url(#clip36)"
     id="g322"
     transform="translate(-1571.7813,2.3631127)">
    <text
       fill="#595959"
       font-family="Calibri, Calibri_MSFontService, sans-serif"
       font-weight="400"
       font-size="41px"
       transform="translate(1803.13,1566)"
       id="text320">0</text>
  </g>
  <g
     clip-path="url(#clip37)"
     id="g326"
     transform="translate(-1571.7813,2.3631127)">
    <text
       fill="#595959"
       font-family="Calibri, Calibri_MSFontService, sans-serif"
       font-weight="400"
       font-size="41px"
       transform="translate(2035.15,1566)"
       id="text324">2</text>
  </g>
  <g
     clip-path="url(#clip38)"
     id="g330"
     transform="translate(-1571.7813,2.3631127)">
    <text
       fill="#595959"
       font-family="Calibri, Calibri_MSFontService, sans-serif"
       font-weight="400"
       font-size="41px"
       transform="translate(2267.17,1566)"
       id="text328">4</text>
  </g>
  <g
     clip-path="url(#clip39)"
     id="g334"
     transform="translate(-1571.7813,2.3631127)">
    <text
       fill="#595959"
       font-family="Calibri, Calibri_MSFontService, sans-serif"
       font-weight="400"
       font-size="41px"
       transform="translate(2499.19,1566)"
       id="text332">6</text>
  </g>
  <g
     clip-path="url(#clip40)"
     id="g338"
     transform="translate(-1571.7813,2.3631127)">
    <text
       fill="#595959"
       font-family="Calibri, Calibri_MSFontService, sans-serif"
       font-weight="400"
       font-size="41px"
       transform="translate(2731.21,1566)"
       id="text336">8</text>
  </g>
  <g
     clip-path="url(#clip41)"
     id="g342"
     transform="translate(-1571.7813,2.3631127)">
    <text
       fill="#595959"
       font-family="Calibri, Calibri_MSFontService, sans-serif"
       font-weight="400"
       font-size="41px"
       transform="translate(2952.78,1566)"
       id="text340">10</text>
  </g>
  <g
     clip-path="url(#clip42)"
     id="g346"
     transform="translate(-1571.7813,2.3631127)">
    <text
       fill="#595959"
       font-family="Calibri, Calibri_MSFontService, sans-serif"
       font-weight="400"
       font-size="41px"
       transform="translate(3184.8,1566)"
       id="text344">12</text>
  </g>
  <g
     clip-path="url(#clip43)"
     id="g350"
     transform="translate(-1571.7813,2.3631127)">
    <text
       fill="#595959"
       font-family="Calibri, Calibri_MSFontService, sans-serif"
       font-weight="400"
       font-size="46px"
       transform="rotate(-90,2168.26,-1175.26)"
       id="text348">Number of chops</text>
  </g>
  <g
     clip-path="url(#clip44)"
     id="g354"
     transform="translate(-1571.7813,2.3631127)">
    <text
       fill="#595959"
       font-family="Calibri, Calibri_MSFontService, sans-serif"
       font-weight="400"
       font-size="46px"
       transform="rotate(-90,1343.145,-331.145)"
       id="text352">Acceleration (m/s</text>
  </g>
  <g
     clip-path="url(#clip45)"
     id="g358"
     transform="translate(-1571.7813,2.3631127)">
    <text
       fill="#595959"
       font-family="Calibri, Calibri_MSFontService, sans-serif"
       font-weight="400"
       font-size="31px"
       transform="rotate(-90,1171.145,-489.145)"
       id="text356">2</text>
  </g>
  <g
     clip-path="url(#clip46)"
     id="g362"
     transform="translate(-1571.7813,2.3631127)">
    <text
       fill="#595959"
       font-family="Calibri, Calibri_MSFontService, sans-serif"
       font-weight="400"
       font-size="46px"
       transform="rotate(-90,1170.145,-504.145)"
       id="text360">)</text>
  </g>
  <g
     clip-path="url(#clip47)"
     id="g366"
     transform="translate(-1571.7813,2.3631127)">
    <text
       fill="#595959"
       font-family="Calibri, Calibri_MSFontService, sans-serif"
       font-weight="400"
       font-size="46px"
       transform="translate(2369.24,1635)"
       id="text364">Time (seconds)</text>
  </g>
  <g
     clip-path="url(#clip48)"
     id="g370"
     transform="translate(-1571.7813,2.3631127)">
    <path
       d="m 1873.5,1743.5 h 116"
       stroke="#4472c4"
       stroke-width="6.875"
       stroke-linecap="round"
       stroke-linejoin="round"
       stroke-miterlimit="10"
       fill="none"
       fill-rule="evenodd"
       id="path368" />
  </g>
  <g
     clip-path="url(#clip49)"
     id="g374"
     transform="translate(-1571.7813,2.3631127)">
    <text
       fill="#595959"
       font-family="Calibri, Calibri_MSFontService, sans-serif"
       font-weight="400"
       font-size="41px"
       transform="translate(2001.99,1755)"
       id="text372">x</text>
  </g>
  <g
     clip-path="url(#clip50)"
     id="g378"
     transform="translate(-1571.7813,2.3631127)">
    <path
       d="m 2073.5,1743.5 h 115"
       stroke="#f4b183"
       stroke-width="6.875"
       stroke-linecap="round"
       stroke-linejoin="round"
       stroke-miterlimit="10"
       stroke-dasharray="13.75, 13.75"
       fill="none"
       fill-rule="evenodd"
       id="path376" />
  </g>
  <g
     clip-path="url(#clip51)"
     id="g382"
     transform="translate(-1571.7813,2.3631127)">
    <text
       fill="#595959"
       font-family="Calibri, Calibri_MSFontService, sans-serif"
       font-weight="400"
       font-size="41px"
       transform="translate(2201.7,1755)"
       id="text380">y</text>
  </g>
  <g
     clip-path="url(#clip52)"
     id="g386"
     transform="translate(-1571.7813,2.3631127)">
    <path
       d="m 2274.5,1743.5 h 115"
       stroke="#a9d18e"
       stroke-width="6.875"
       stroke-linecap="round"
       stroke-linejoin="round"
       stroke-miterlimit="10"
       stroke-dasharray="13.75, 13.75"
       fill="none"
       fill-rule="evenodd"
       id="path384" />
  </g>
  <g
     clip-path="url(#clip53)"
     id="g390"
     transform="translate(-1571.7813,2.3631127)">
    <text
       fill="#595959"
       font-family="Calibri, Calibri_MSFontService, sans-serif"
       font-weight="400"
       font-size="41px"
       transform="translate(2402.23,1755)"
       id="text388">z</text>
  </g>
  <g
     clip-path="url(#clip54)"
     id="g394"
     transform="translate(-1571.7813,2.3631127)">
    <path
       d="m 2472.5,1743.5 h 115"
       stroke="#5b9bd5"
       stroke-width="6.875"
       stroke-linecap="round"
       stroke-linejoin="round"
       stroke-miterlimit="10"
       fill="none"
       fill-rule="evenodd"
       id="path392" />
  </g>
  <g
     clip-path="url(#clip55)"
     id="g398"
     transform="translate(-1571.7813,2.3631127)">
    <text
       fill="#595959"
       font-family="Calibri, Calibri_MSFontService, sans-serif"
       font-weight="400"
       font-size="41px"
       transform="translate(2600.36,1755)"
       id="text396">threshold</text>
  </g>
  <g
     clip-path="url(#clip56)"
     id="g402"
     transform="translate(-1571.7813,2.3631127)">
    <path
       d="m 2815.5,1743.5 h 115"
       stroke="#ffc000"
       stroke-width="6.875"
       stroke-linecap="round"
       stroke-linejoin="round"
       stroke-miterlimit="10"
       fill="none"
       fill-rule="evenodd"
       id="path400" />
  </g>
  <g
     clip-path="url(#clip57)"
     id="g406"
     transform="translate(-1571.7813,2.3631127)">
    <text
       fill="#595959"
       font-family="Calibri, Calibri_MSFontService, sans-serif"
       font-weight="400"
       font-size="41px"
       transform="translate(2943.34,1755)"
       id="text404">chop count</text>
  </g>
  <rect
     x="1.71875"
     y="115.86311"
     width="1840"
     height="1696"
     stroke="#d9d9d9"
     stroke-width="3.4375"
     stroke-linejoin="round"
     stroke-miterlimit="10"
     fill="none"
     id="rect408" />
  <rect
     style="fill:#ffffff;fill-opacity:0.190283;stroke:#000000;stroke-width:8.56063;stroke-linecap:round"
     id="rect1241"
     width="289.48782"
     height="897.41223"
     x="981.58246"
     y="374.90213" />
  <path
     style="fill:none;stroke:#000000;stroke-width:5.7;stroke-linecap:butt;stroke-linejoin:miter;stroke-miterlimit:4;stroke-dasharray:none;stroke-opacity:1;marker-end:url(#Arrow1Lend)"
     d="M 697.88438,1202.8373 961.31829,1017.5651"
     id="path1243" />
  <rect
     style="fill:#ffffff;fill-opacity:1;stroke:#000000;stroke-width:6.78354;stroke-linecap:round;stroke-miterlimit:4;stroke-dasharray:none"
     id="rect1649"
     width="407.0943"
     height="250.77086"
     x="313.40738"
     y="1064.4249" />
  <text
     xml:space="preserve"
     id="text1643"
     style="font-size:32px;line-height:1.25;font-family:sans-serif;white-space:pre;shape-inside:url(#rect1645);fill:#000000;fill-opacity:1;"
     transform="translate(0.21875,114.36311)"><tspan
       x="330.01562"
       y="984.50512"><tspan
         style="fill:#000000;fill-opacity:1">For these two chops, I </tspan></tspan><tspan
       x="330.01562"
       y="1024.5051"><tspan
         style="fill:#000000;fill-opacity:1">accidentally twisted the </tspan></tspan><tspan
       x="330.01562"
       y="1064.5051"><tspan
         style="fill:#000000;fill-opacity:1">device, which caused a </tspan></tspan><tspan
       x="330.01562"
       y="1104.5051"><tspan
         style="fill:#000000;fill-opacity:1">false negative as the </tspan></tspan><tspan
       x="330.01562"
       y="1144.5051"><tspan
         style="fill:#000000;fill-opacity:1">acceleration was in the </tspan></tspan><tspan
       x="330.01562"
       y="1184.5051"><tspan
         style="fill:#000000;fill-opacity:1">wrong axis</tspan></tspan></text>
  <text
     xml:space="preserve"
     style="font-size:32px;line-height:1.25;font-family:sans-serif"
     x="171.01656"
     y="2030.7725"
     id="text1896"><tspan
       sodipodi:role="line"
       id="tspan1894"
       x="171.01656"
       y="2030.7725" /></text>
  <rect
     style="fill:#ffffff;fill-opacity:1;stroke:none;stroke-width:5.7;stroke-linecap:round;stroke-miterlimit:4;stroke-dasharray:none"
     id="rect1904"
     width="57.897564"
     height="674.50659"
     x="1658.9839"
     y="105.67848" />
  <rect
     style="fill:#ffffff;fill-opacity:1;stroke:none;stroke-width:5.7;stroke-linecap:round;stroke-miterlimit:4;stroke-dasharray:none"
     id="rect1906"
     width="81.056587"
     height="564.50122"
     x="130.48827"
     y="1005.9855" />
  <path
     sodipodi:type="star"
     style="fill:#ecd700;fill-opacity:1;stroke:none;stroke-width:1.16351;stroke-linecap:round;stroke-miterlimit:4;stroke-dasharray:none"
     id="path2073"
     sodipodi:sides="5"
     sodipodi:cx="430.67609"
     sodipodi:cy="133.54611"
     sodipodi:r1="36.176445"
     sodipodi:r2="14.470578"
     sodipodi:arg1="0.90115738"
     sodipodi:arg2="1.5294759"
     inkscape:flatsided="false"
     inkscape:rounded="0.1"
     inkscape:randomized="0"
     d="m 453.13091,161.9101 c -2.03112,1.60797 -19.26871,-14.01277 -21.85706,-13.90576 -2.58835,0.10701 -18.47768,17.09736 -20.6346,15.66254 -2.15692,-1.43482 7.37258,-22.65583 6.47096,-25.08443 -0.90162,-2.4286 -21.97046,-12.28994 -21.27239,-14.78467 0.69806,-2.49474 23.82522,0.0107 25.85634,-1.59726 2.03112,-1.60797 4.89917,-24.692961 7.48753,-24.799974 2.58835,-0.107013 7.35221,22.662444 9.50913,24.097264 2.15692,1.43482 24.99833,-2.97115 25.89995,-0.54255 0.90162,2.4286 -19.28131,13.99545 -19.97937,16.49019 -0.69807,2.49473 10.55063,22.85668 8.51951,24.46465 z"
     inkscape:transform-center-x="0.46178704"
     inkscape:transform-center-y="-3.012403" />
  <path
     sodipodi:type="star"
     style="fill:#ecd700;fill-opacity:1;stroke:none;stroke-width:1.16351;stroke-linecap:round;stroke-miterlimit:4;stroke-dasharray:none"
     id="path2075"
     sodipodi:sides="5"
     sodipodi:cx="535.07251"
     sodipodi:cy="133.54611"
     sodipodi:r1="36.176445"
     sodipodi:r2="14.470578"
     sodipodi:arg1="0.90115738"
     sodipodi:arg2="1.5294759"
     inkscape:flatsided="false"
     inkscape:rounded="0.1"
     inkscape:randomized="0"
     d="m 557.52734,161.9101 c -2.03112,1.60797 -19.26872,-14.01277 -21.85707,-13.90576 -2.58835,0.10701 -18.47767,17.09736 -20.6346,15.66254 -2.15692,-1.43482 7.37259,-22.65583 6.47097,-25.08443 -0.90162,-2.4286 -21.97047,-12.28994 -21.2724,-14.78467 0.69807,-2.49474 23.82522,0.0107 25.85634,-1.59726 2.03112,-1.60797 4.89918,-24.692961 7.48753,-24.799974 2.58835,-0.107013 7.35221,22.662444 9.50913,24.097264 2.15692,1.43482 24.99833,-2.97115 25.89995,-0.54255 0.90162,2.4286 -19.2813,13.99545 -19.97937,16.49019 -0.69807,2.49473 10.55064,22.85668 8.51952,24.46465 z"
     inkscape:transform-center-x="0.46174924"
     inkscape:transform-center-y="-3.012403" />
  <path
     sodipodi:type="star"
     style="fill:#ecd700;fill-opacity:1;stroke:none;stroke-width:1.16351;stroke-linecap:round;stroke-miterlimit:4;stroke-dasharray:none"
     id="path2077"
     sodipodi:sides="5"
     sodipodi:cx="647.6568"
     sodipodi:cy="133.54611"
     sodipodi:r1="36.176445"
     sodipodi:r2="14.470578"
     sodipodi:arg1="0.90115738"
     sodipodi:arg2="1.5294759"
     inkscape:flatsided="false"
     inkscape:rounded="0.1"
     inkscape:randomized="0"
     d="m 670.11163,161.9101 c -2.03112,1.60797 -19.26872,-14.01277 -21.85707,-13.90576 -2.58835,0.10701 -18.47767,17.09736 -20.6346,15.66254 -2.15692,-1.43482 7.37259,-22.65583 6.47097,-25.08443 -0.90162,-2.4286 -21.97047,-12.28994 -21.2724,-14.78467 0.69807,-2.49474 23.82522,0.0107 25.85634,-1.59726 2.03112,-1.60797 4.89918,-24.692961 7.48753,-24.799974 2.58835,-0.107013 7.35221,22.662444 9.50913,24.097264 2.15692,1.43482 24.99833,-2.97115 25.89995,-0.54255 0.90162,2.4286 -19.2813,13.99545 -19.97937,16.49019 -0.69807,2.49473 10.55064,22.85668 8.51952,24.46465 z"
     inkscape:transform-center-x="0.46179704"
     inkscape:transform-center-y="-3.012403" />
  <path
     sodipodi:type="star"
     style="fill:#ecd700;fill-opacity:1;stroke:none;stroke-width:1.16351;stroke-linecap:round;stroke-miterlimit:4;stroke-dasharray:none"
     id="path2079"
     sodipodi:sides="5"
     sodipodi:cx="778.66406"
     sodipodi:cy="133.54611"
     sodipodi:r1="36.176445"
     sodipodi:r2="14.470578"
     sodipodi:arg1="0.90115738"
     sodipodi:arg2="1.5294759"
     inkscape:flatsided="false"
     inkscape:rounded="0.1"
     inkscape:randomized="0"
     d="m 801.11889,161.9101 c -2.03112,1.60797 -19.26872,-14.01277 -21.85707,-13.90576 -2.58835,0.10701 -18.47767,17.09736 -20.63459,15.66254 -2.15692,-1.43482 7.37258,-22.65583 6.47096,-25.08443 -0.90162,-2.4286 -21.97047,-12.28994 -21.2724,-14.78467 0.69807,-2.49474 23.82522,0.0107 25.85634,-1.59726 2.03112,-1.60797 4.89918,-24.692961 7.48753,-24.799974 2.58835,-0.107013 7.35222,22.662444 9.50914,24.097264 2.15692,1.43482 24.99832,-2.97115 25.89994,-0.54255 0.90162,2.4286 -19.2813,13.99545 -19.97937,16.49019 -0.69807,2.49473 10.55064,22.85668 8.51952,24.46465 z"
     inkscape:transform-center-x="0.46176277"
     inkscape:transform-center-y="-3.012403" />
  <path
     sodipodi:type="star"
     style="fill:#ecd700;fill-opacity:1;stroke:none;stroke-width:1.16351;stroke-linecap:round;stroke-miterlimit:4;stroke-dasharray:none"
     id="path2081"
     sodipodi:sides="5"
     sodipodi:cx="917.85919"
     sodipodi:cy="133.54611"
     sodipodi:r1="36.176445"
     sodipodi:r2="14.470578"
     sodipodi:arg1="0.90115738"
     sodipodi:arg2="1.5294759"
     inkscape:flatsided="false"
     inkscape:rounded="0.1"
     inkscape:randomized="0"
     d="m 940.31402,161.9101 c -2.03112,1.60797 -19.26872,-14.01277 -21.85707,-13.90576 -2.58835,0.10701 -18.47767,17.09736 -20.63459,15.66254 -2.15692,-1.43482 7.37258,-22.65583 6.47096,-25.08443 -0.90162,-2.4286 -21.97047,-12.28994 -21.2724,-14.78467 0.69807,-2.49474 23.82522,0.0107 25.85634,-1.59726 2.03112,-1.60797 4.89918,-24.692961 7.48753,-24.799974 2.58835,-0.107013 7.35222,22.662444 9.50914,24.097264 2.15692,1.43482 24.99832,-2.97115 25.89994,-0.54255 0.90162,2.4286 -19.2813,13.99545 -19.97937,16.49019 -0.69807,2.49473 10.55064,22.85668 8.51952,24.46465 z"
     inkscape:transform-center-x="0.4618141"
     inkscape:transform-center-y="-3.012403" />
  <path
     sodipodi:type="star"
     style="fill:#ecd700;fill-opacity:1;stroke:none;stroke-width:1.16351;stroke-linecap:round;stroke-miterlimit:4;stroke-dasharray:none"
     id="path2083"
     sodipodi:sides="5"
     sodipodi:cx="1345.6798"
     sodipodi:cy="133.54611"
     sodipodi:r1="36.176445"
     sodipodi:r2="14.470578"
     sodipodi:arg1="0.90115738"
     sodipodi:arg2="1.5294759"
     inkscape:flatsided="false"
     inkscape:rounded="0.1"
     inkscape:randomized="0"
     d="m 1368.1346,161.9101 c -2.0311,1.60797 -19.2687,-14.01277 -21.857,-13.90576 -2.5884,0.10701 -18.4777,17.09736 -20.6346,15.66254 -2.1569,-1.43482 7.3726,-22.65583 6.4709,-25.08443 -0.9016,-2.4286 -21.9704,-12.28994 -21.2724,-14.78467 0.6981,-2.49474 23.8253,0.0107 25.8564,-1.59726 2.0311,-1.60797 4.8992,-24.692961 7.4875,-24.799974 2.5884,-0.107013 7.3522,22.662444 9.5091,24.097264 2.157,1.43482 24.9984,-2.97115 25.9,-0.54255 0.9016,2.4286 -19.2813,13.99545 -19.9794,16.49019 -0.6981,2.49473 10.5507,22.85668 8.5195,24.46465 z"
     inkscape:transform-center-x="0.46167835"
     inkscape:transform-center-y="-3.012403" />
  <path
     sodipodi:type="star"
     style="fill:#ecd700;fill-opacity:1;stroke:none;stroke-width:1.16351;stroke-linecap:round;stroke-miterlimit:4;stroke-dasharray:none"
     id="path2085"
     sodipodi:sides="5"
     sodipodi:cx="1472.5929"
     sodipodi:cy="133.54611"
     sodipodi:r1="36.176445"
     sodipodi:r2="14.470578"
     sodipodi:arg1="0.90115738"
     sodipodi:arg2="1.5294759"
     inkscape:flatsided="false"
     inkscape:rounded="0.1"
     inkscape:randomized="0"
     d="m 1495.0477,161.9101 c -2.0311,1.60797 -19.2687,-14.01277 -21.857,-13.90576 -2.5884,0.10701 -18.4777,17.09736 -20.6346,15.66254 -2.157,-1.43482 7.3725,-22.65583 6.4709,-25.08443 -0.9016,-2.4286 -21.9704,-12.28994 -21.2724,-14.78467 0.6981,-2.49474 23.8252,0.0107 25.8564,-1.59726 2.0311,-1.60797 4.8991,-24.692961 7.4875,-24.799974 2.5883,-0.107013 7.3522,22.662444 9.5091,24.097264 2.157,1.43482 24.9984,-2.97115 25.9,-0.54255 0.9016,2.4286 -19.2813,13.99545 -19.9794,16.49019 -0.6981,2.49473 10.5506,22.85668 8.5195,24.46465 z"
     inkscape:transform-center-x="0.46184543"
     inkscape:transform-center-y="-3.012403" />
  <path
     sodipodi:type="star"
     style="fill:#ecd700;fill-opacity:1;stroke:none;stroke-width:1.16351;stroke-linecap:round;stroke-miterlimit:4;stroke-dasharray:none"
     id="path2087"
     sodipodi:sides="5"
     sodipodi:cx="1599.5062"
     sodipodi:cy="133.54611"
     sodipodi:r1="36.176445"
     sodipodi:r2="14.470578"
     sodipodi:arg1="0.90115738"
     sodipodi:arg2="1.5294759"
     inkscape:flatsided="false"
     inkscape:rounded="0.1"
     inkscape:randomized="0"
     d="m 1621.9611,161.9101 c -2.0312,1.60797 -19.2688,-14.01277 -21.8571,-13.90576 -2.5884,0.10701 -18.4777,17.09736 -20.6346,15.66254 -2.1569,-1.43482 7.3726,-22.65583 6.471,-25.08443 -0.9017,-2.4286 -21.9705,-12.28994 -21.2724,-14.78467 0.698,-2.49474 23.8252,0.0107 25.8563,-1.59726 2.0311,-1.60797 4.8992,-24.692961 7.4875,-24.799974 2.5884,-0.107013 7.3522,22.662444 9.5092,24.097264 2.1569,1.43482 24.9983,-2.97115 25.8999,-0.54255 0.9016,2.4286 -19.2813,13.99545 -19.9794,16.49019 -0.698,2.49473 10.5507,22.85668 8.5196,24.46465 z"
     inkscape:transform-center-x="0.46176836"
     inkscape:transform-center-y="-3.012403" />
  <path
     sodipodi:type="star"
     style="fill:#ecd700;fill-opacity:1;stroke:none;stroke-width:1.16351;stroke-linecap:round;stroke-miterlimit:4;stroke-dasharray:none"
     id="path1922"
     sodipodi:sides="5"
     sodipodi:cx="1599.5062"
     sodipodi:cy="133.54611"
     sodipodi:r1="36.176445"
     sodipodi:r2="14.470578"
     sodipodi:arg1="0.90115738"
     sodipodi:arg2="1.5294759"
     inkscape:flatsided="false"
     inkscape:rounded="0.1"
     inkscape:randomized="0"
     d="m 1621.9611,161.9101 c -2.0312,1.60797 -19.2688,-14.01277 -21.8571,-13.90576 -2.5884,0.10701 -18.4777,17.09736 -20.6346,15.66254 -2.1569,-1.43482 7.3726,-22.65583 6.471,-25.08443 -0.9017,-2.4286 -21.9705,-12.28994 -21.2724,-14.78467 0.698,-2.49474 23.8252,0.0107 25.8563,-1.59726 2.0311,-1.60797 4.8992,-24.692961 7.4875,-24.799974 2.5884,-0.107013 7.3522,22.662444 9.5092,24.097264 2.1569,1.43482 24.9983,-2.97115 25.8999,-0.54255 0.9016,2.4286 -19.2813,13.99545 -19.9794,16.49019 -0.698,2.49473 10.5507,22.85668 8.5196,24.46465 z"
     inkscape:transform-center-x="0.46178145"
     inkscape:transform-center-y="-3.012403" />
  <text
     xml:space="preserve"
     style="font-size:85.0662px;line-height:1.25;font-family:sans-serif;fill:#ff2525;fill-opacity:1;stroke:#fa0000;stroke-width:2.65832;stroke-opacity:1"
     x="1034.1549"
     y="170.15001"
     id="text2091"><tspan
       sodipodi:role="line"
       id="tspan2089"
       x="1034.1549"
       y="170.15001"
       style="font-weight:bold;fill:#ff2525;fill-opacity:1;stroke:#fa0000;stroke-width:2.65832;stroke-opacity:1">X</tspan></text>
  <text
     xml:space="preserve"
     style="font-size:85.0662px;line-height:1.25;font-family:sans-serif;fill:#ff2525;fill-opacity:1;stroke:#fa0000;stroke-width:2.65832;stroke-opacity:1"
     x="1150.8965"
     y="171.89767"
     id="text2091-9"><tspan
       sodipodi:role="line"
       id="tspan2089-3"
       x="1150.8965"
       y="171.89767"
       style="font-weight:bold;fill:#ff2525;fill-opacity:1;stroke:#fa0000;stroke-width:2.65832;stroke-opacity:1">X</tspan></text>
  <path
     sodipodi:type="star"
     style="fill:#ecd700;fill-opacity:1;stroke:none;stroke-width:1.16351;stroke-linecap:round;stroke-miterlimit:4;stroke-dasharray:none"
     id="path2073-4"
     sodipodi:sides="5"
     sodipodi:cx="162.25465"
     sodipodi:cy="36.145942"
     sodipodi:r1="36.176445"
     sodipodi:r2="14.470578"
     sodipodi:arg1="0.90115738"
     sodipodi:arg2="1.5294759"
     inkscape:flatsided="false"
     inkscape:rounded="0.1"
     inkscape:randomized="0"
     inkscape:transform-center-x="0.46178145"
     inkscape:transform-center-y="-3.012403"
     d="m 184.70948,64.509933 c -2.03112,1.60797 -19.26871,-14.012776 -21.85707,-13.905764 -2.58835,0.107013 -18.47767,17.097357 -20.63459,15.662537 -2.15692,-1.434819 7.37258,-22.655822 6.47096,-25.084422 -0.90162,-2.4286 -21.97047,-12.289939 -21.2724,-14.784676 0.69807,-2.494738 23.82522,0.01071 25.85634,-1.597262 2.03112,-1.60797 4.89918,-24.6929566 7.48753,-24.79996930204 C 163.34861,-0.10663601 168.11247,22.662817 170.26939,24.097637 c 2.15692,1.43482 24.99833,-2.971148 25.89994,-0.542548 0.90162,2.4286 -19.2813,13.99545 -19.97937,16.490188 -0.69807,2.494737 10.55064,22.856686 8.51952,24.464656 z" />
  <text
     xml:space="preserve"
     style="font-size:85.0662px;line-height:1.25;font-family:sans-serif;fill:#ff2525;fill-opacity:1;stroke:#fa0000;stroke-width:2.65832;stroke-opacity:1"
     x="542.61176"
     y="64.100044"
     id="text2091-2"><tspan
       sodipodi:role="line"
       id="tspan2089-5"
       x="542.61176"
       y="64.100044"
       style="font-weight:bold;fill:#ff2525;fill-opacity:1;stroke:#fa0000;stroke-width:2.65832;stroke-opacity:1">X</tspan></text>
  <text
     xml:space="preserve"
     style="font-size:32px;line-height:1.25;font-family:sans-serif"
     x="247.90428"
     y="41.668526"
     id="text2147"><tspan
       sodipodi:role="line"
       id="tspan2145"
       x="247.90428"
       y="41.668526">True positive</tspan></text>
  <text
     xml:space="preserve"
     style="font-size:32px;line-height:1.25;font-family:sans-serif"
     x="660.31781"
     y="42.027901"
     id="text2151"><tspan
       sodipodi:role="line"
       id="tspan2149"
       x="660.31781"
       y="42.027901">False negative</tspan></text>
</svg>
