<?xml version="1.0" encoding="UTF-8" standalone="no"?>
<svg
   xmlns:dc="http://purl.org/dc/elements/1.1/"
   xmlns:cc="http://creativecommons.org/ns#"
   xmlns:rdf="http://www.w3.org/1999/02/22-rdf-syntax-ns#"
   xmlns:svg="http://www.w3.org/2000/svg"
   xmlns="http://www.w3.org/2000/svg"
   xmlns:sodipodi="http://sodipodi.sourceforge.net/DTD/sodipodi-0.dtd"
   xmlns:inkscape="http://www.inkscape.org/namespaces/inkscape"
   width="1843"
   height="1699"
   overflow="hidden"
   version="1.1"
   id="svg412"
   sodipodi:docname="karate2.svg"
   inkscape:version="1.0.2-2 (e86c870879, 2021-01-15)">
  <metadata
     id="metadata416">
    <rdf:RDF>
      <cc:Work
         rdf:about="">
        <dc:format>image/svg+xml</dc:format>
        <dc:type
           rdf:resource="http://purl.org/dc/dcmitype/StillImage" />
        <dc:title></dc:title>
      </cc:Work>
    </rdf:RDF>
  </metadata>
  <sodipodi:namedview
     pagecolor="#ffffff"
     bordercolor="#666666"
     borderopacity="1"
     objecttolerance="10"
     gridtolerance="10"
     guidetolerance="10"
     inkscape:pageopacity="0"
     inkscape:pageshadow="2"
     inkscape:window-width="1920"
     inkscape:window-height="1001"
     id="namedview414"
     showgrid="false"
     inkscape:zoom="0.34543769"
     inkscape:cx="921.5"
     inkscape:cy="1460.3193"
     inkscape:window-x="-9"
     inkscape:window-y="-9"
     inkscape:window-maximized="1"
     inkscape:current-layer="svg412" />
  <defs
     id="defs176">
    <rect
       x="330.01611"
       y="955.30978"
       width="413.96757"
       height="248.95953"
       id="rect1645" />
    <marker
       style="overflow:visible;"
       id="Arrow1Lend"
       refX="0.0"
       refY="0.0"
       orient="auto"
       inkscape:stockid="Arrow1Lend"
       inkscape:isstock="true">
      <path
         transform="scale(0.8) rotate(180) translate(12.5,0)"
         style="fill-rule:evenodd;stroke:#000000;stroke-width:1pt;stroke-opacity:1;fill:#000000;fill-opacity:1"
         d="M 0.0,0.0 L 5.0,-5.0 L -12.5,0.0 L 5.0,5.0 L 0.0,0.0 z "
         id="path1248" />
    </marker>
    <marker
       style="overflow:visible"
       id="Arrow1Lstart"
       refX="0.0"
       refY="0.0"
       orient="auto"
       inkscape:stockid="Arrow1Lstart"
       inkscape:isstock="true">
      <path
         transform="scale(0.8) translate(12.5,0)"
         style="fill-rule:evenodd;stroke:#000000;stroke-width:1pt;stroke-opacity:1;fill:#000000;fill-opacity:1"
         d="M 0.0,0.0 L 5.0,-5.0 L -12.5,0.0 L 5.0,5.0 L 0.0,0.0 z "
         id="path1245" />
    </marker>
    <clipPath
       id="clip0">
      <rect
         x="1572"
         y="112"
         width="1843"
         height="1699"
         id="rect2" />
    </clipPath>
    <clipPath
       id="clip1">
      <rect
         x="1573"
         y="112"
         width="1839"
         height="1697"
         id="rect5" />
    </clipPath>
    <clipPath
       id="clip2">
      <rect
         x="1573"
         y="112"
         width="1839"
         height="1697"
         id="rect8" />
    </clipPath>
    <clipPath
       id="clip3">
      <rect
         x="1573"
         y="112"
         width="1839"
         height="1697"
         id="rect11" />
    </clipPath>
    <clipPath
       id="clip4">
      <rect
         x="1573"
         y="112"
         width="1839"
         height="1697"
         id="rect14" />
    </clipPath>
    <clipPath
       id="clip5">
      <rect
         x="1573"
         y="112"
         width="1839"
         height="1697"
         id="rect17" />
    </clipPath>
    <clipPath
       id="clip6">
      <rect
         x="1573"
         y="112"
         width="1839"
         height="1697"
         id="rect20" />
    </clipPath>
    <clipPath
       id="clip7">
      <rect
         x="1813"
         y="163"
         width="1396"
         height="1341"
         id="rect23" />
    </clipPath>
    <clipPath
       id="clip8">
      <rect
         x="1813"
         y="163"
         width="1396"
         height="1341"
         id="rect26" />
    </clipPath>
    <clipPath
       id="clip9">
      <rect
         x="1813"
         y="163"
         width="1396"
         height="1341"
         id="rect29" />
    </clipPath>
    <clipPath
       id="clip10">
      <rect
         x="1813"
         y="163"
         width="1396"
         height="1341"
         id="rect32" />
    </clipPath>
    <clipPath
       id="clip11">
      <rect
         x="1813"
         y="163"
         width="1396"
         height="1341"
         id="rect35" />
    </clipPath>
    <clipPath
       id="clip12">
      <rect
         x="1573"
         y="112"
         width="1839"
         height="1697"
         id="rect38" />
    </clipPath>
    <clipPath
       id="clip13">
      <rect
         x="1573"
         y="112"
         width="1839"
         height="1697"
         id="rect41" />
    </clipPath>
    <clipPath
       id="clip14">
      <rect
         x="1573"
         y="112"
         width="1839"
         height="1697"
         id="rect44" />
    </clipPath>
    <clipPath
       id="clip15">
      <rect
         x="1573"
         y="112"
         width="1839"
         height="1697"
         id="rect47" />
    </clipPath>
    <clipPath
       id="clip16">
      <rect
         x="1573"
         y="112"
         width="1839"
         height="1697"
         id="rect50" />
    </clipPath>
    <clipPath
       id="clip17">
      <rect
         x="1573"
         y="112"
         width="1839"
         height="1697"
         id="rect53" />
    </clipPath>
    <clipPath
       id="clip18">
      <rect
         x="1573"
         y="112"
         width="1839"
         height="1697"
         id="rect56" />
    </clipPath>
    <clipPath
       id="clip19">
      <rect
         x="1573"
         y="112"
         width="1839"
         height="1697"
         id="rect59" />
    </clipPath>
    <clipPath
       id="clip20">
      <rect
         x="1573"
         y="112"
         width="1839"
         height="1697"
         id="rect62" />
    </clipPath>
    <clipPath
       id="clip21">
      <rect
         x="1573"
         y="112"
         width="1839"
         height="1697"
         id="rect65" />
    </clipPath>
    <clipPath
       id="clip22">
      <rect
         x="1573"
         y="112"
         width="1839"
         height="1697"
         id="rect68" />
    </clipPath>
    <clipPath
       id="clip23">
      <rect
         x="1573"
         y="112"
         width="1839"
         height="1697"
         id="rect71" />
    </clipPath>
    <clipPath
       id="clip24">
      <rect
         x="1573"
         y="112"
         width="1839"
         height="1697"
         id="rect74" />
    </clipPath>
    <clipPath
       id="clip25">
      <rect
         x="1573"
         y="112"
         width="1839"
         height="1697"
         id="rect77" />
    </clipPath>
    <clipPath
       id="clip26">
      <rect
         x="1573"
         y="112"
         width="1839"
         height="1697"
         id="rect80" />
    </clipPath>
    <clipPath
       id="clip27">
      <rect
         x="1573"
         y="112"
         width="1839"
         height="1697"
         id="rect83" />
    </clipPath>
    <clipPath
       id="clip28">
      <rect
         x="1573"
         y="112"
         width="1839"
         height="1697"
         id="rect86" />
    </clipPath>
    <clipPath
       id="clip29">
      <rect
         x="1573"
         y="112"
         width="1839"
         height="1697"
         id="rect89" />
    </clipPath>
    <clipPath
       id="clip30">
      <rect
         x="1573"
         y="112"
         width="1839"
         height="1697"
         id="rect92" />
    </clipPath>
    <clipPath
       id="clip31">
      <rect
         x="1573"
         y="112"
         width="1839"
         height="1697"
         id="rect95" />
    </clipPath>
    <clipPath
       id="clip32">
      <rect
         x="1573"
         y="112"
         width="1839"
         height="1697"
         id="rect98" />
    </clipPath>
    <clipPath
       id="clip33">
      <rect
         x="1573"
         y="112"
         width="1839"
         height="1697"
         id="rect101" />
    </clipPath>
    <clipPath
       id="clip34">
      <rect
         x="1573"
         y="112"
         width="1839"
         height="1697"
         id="rect104" />
    </clipPath>
    <clipPath
       id="clip35">
      <rect
         x="1573"
         y="112"
         width="1839"
         height="1697"
         id="rect107" />
    </clipPath>
    <clipPath
       id="clip36">
      <rect
         x="1573"
         y="112"
         width="1839"
         height="1697"
         id="rect110" />
    </clipPath>
    <clipPath
       id="clip37">
      <rect
         x="1573"
         y="112"
         width="1839"
         height="1697"
         id="rect113" />
    </clipPath>
    <clipPath
       id="clip38">
      <rect
         x="1573"
         y="112"
         width="1839"
         height="1697"
         id="rect116" />
    </clipPath>
    <clipPath
       id="clip39">
      <rect
         x="1573"
         y="112"
         width="1839"
         height="1697"
         id="rect119" />
    </clipPath>
    <clipPath
       id="clip40">
      <rect
         x="1573"
         y="112"
         width="1839"
         height="1697"
         id="rect122" />
    </clipPath>
    <clipPath
       id="clip41">
      <rect
         x="1573"
         y="112"
         width="1839"
         height="1697"
         id="rect125" />
    </clipPath>
    <clipPath
       id="clip42">
      <rect
         x="1573"
         y="112"
         width="1839"
         height="1697"
         id="rect128" />
    </clipPath>
    <clipPath
       id="clip43">
      <rect
         x="1573"
         y="112"
         width="1839"
         height="1697"
         id="rect131" />
    </clipPath>
    <clipPath
       id="clip44">
      <rect
         x="1573"
         y="112"
         width="1839"
         height="1697"
         id="rect134" />
    </clipPath>
    <clipPath
       id="clip45">
      <rect
         x="1573"
         y="112"
         width="1839"
         height="1697"
         id="rect137" />
    </clipPath>
    <clipPath
       id="clip46">
      <rect
         x="1573"
         y="112"
         width="1839"
         height="1697"
         id="rect140" />
    </clipPath>
    <clipPath
       id="clip47">
      <rect
         x="1573"
         y="112"
         width="1839"
         height="1697"
         id="rect143" />
    </clipPath>
    <clipPath
       id="clip48">
      <rect
         x="1573"
         y="112"
         width="1839"
         height="1697"
         id="rect146" />
    </clipPath>
    <clipPath
       id="clip49">
      <rect
         x="1573"
         y="112"
         width="1839"
         height="1697"
         id="rect149" />
    </clipPath>
    <clipPath
       id="clip50">
      <rect
         x="1573"
         y="112"
         width="1839"
         height="1697"
         id="rect152" />
    </clipPath>
    <clipPath
       id="clip51">
      <rect
         x="1573"
         y="112"
         width="1839"
         height="1697"
         id="rect155" />
    </clipPath>
    <clipPath
       id="clip52">
      <rect
         x="1573"
         y="112"
         width="1839"
         height="1697"
         id="rect158" />
    </clipPath>
    <clipPath
       id="clip53">
      <rect
         x="1573"
         y="112"
         width="1839"
         height="1697"
         id="rect161" />
    </clipPath>
    <clipPath
       id="clip54">
      <rect
         x="1573"
         y="112"
         width="1839"
         height="1697"
         id="rect164" />
    </clipPath>
    <clipPath
       id="clip55">
      <rect
         x="1573"
         y="112"
         width="1839"
         height="1697"
         id="rect167" />
    </clipPath>
    <clipPath
       id="clip56">
      <rect
         x="1573"
         y="112"
         width="1839"
         height="1697"
         id="rect170" />
    </clipPath>
    <clipPath
       id="clip57">
      <rect
         x="1573"
         y="112"
         width="1839"
         height="1697"
         id="rect173" />
    </clipPath>
  </defs>
  <g
     clip-path="url(#clip0)"
     transform="translate(-1572 -112)"
     id="g410">
    <rect
       x="1573"
       y="113"
       width="1840"
       height="1696"
       fill="#FFFFFF"
       id="rect178" />
    <g
       clip-path="url(#clip1)"
       id="g182">
      <path
         d="M1813.5 1389.55 3205.5 1389.55M1813.5 1278.54 3205.5 1278.54M1813.5 1166.54 3205.5 1166.54M1813.5 1055.53 3205.5 1055.53M1813.5 943.531 3205.5 943.531M1813.5 832.527 3205.5 832.527M1813.5 720.524 3205.5 720.524M1813.5 609.52 3205.5 609.52M1813.5 497.516 3205.5 497.516M1813.5 386.513 3205.5 386.513M1813.5 274.509 3205.5 274.509M1813.5 163.5 3205.5 163.5"
         stroke="#D9D9D9"
         stroke-width="3.4375"
         stroke-linejoin="round"
         stroke-miterlimit="10"
         fill="none"
         id="path180" />
    </g>
    <g
       clip-path="url(#clip2)"
       id="g186">
      <path
         d="M2045.57 163.5 2045.57 1501.5M2277.57 163.5 2277.57 1501.5M2509.58 163.5 2509.58 1501.5M2741.59 163.5 2741.59 1501.5M2973.6 163.5 2973.6 1501.5M3205.5 163.5 3205.5 1501.5"
         stroke="#D9D9D9"
         stroke-width="3.4375"
         stroke-linejoin="round"
         stroke-miterlimit="10"
         fill="none"
         id="path184" />
    </g>
    <g
       clip-path="url(#clip3)"
       id="g190">
      <path
         d="M0 0 0.000360892 1338"
         stroke="#BFBFBF"
         stroke-width="3.4375"
         stroke-linejoin="round"
         stroke-miterlimit="10"
         fill="none"
         fill-rule="evenodd"
         transform="matrix(1 0 0 -1 3205.5 1501.5)"
         id="path188" />
    </g>
    <g
       clip-path="url(#clip4)"
       id="g194">
      <path
         d="M3205.5 1501.5 3218.5 1501.5M3205.5 1367.55 3218.5 1367.55M3205.5 1233.54 3218.5 1233.54M3205.5 1099.54 3218.5 1099.54M3205.5 965.532 3218.5 965.532M3205.5 832.527 3218.5 832.527M3205.5 698.523 3218.5 698.523M3205.5 564.519 3218.5 564.519M3205.5 430.514 3218.5 430.514M3205.5 296.51 3218.5 296.51M3205.5 163.5 3218.5 163.5"
         stroke="#BFBFBF"
         stroke-width="3.4375"
         stroke-linejoin="round"
         stroke-miterlimit="10"
         fill="none"
         id="path192" />
    </g>
    <g
       clip-path="url(#clip5)"
       id="g198">
      <path
         d="M0 0 0.000360892 1338"
         stroke="#BFBFBF"
         stroke-width="3.4375"
         stroke-linejoin="round"
         stroke-miterlimit="10"
         fill="none"
         fill-rule="evenodd"
         transform="matrix(1 0 0 -1 1813.5 1501.5)"
         id="path196" />
    </g>
    <g
       clip-path="url(#clip6)"
       id="g202">
      <path
         d="M1813.5 1501.5 3205.5 1501.5"
         stroke="#BFBFBF"
         stroke-width="3.4375"
         stroke-linejoin="round"
         stroke-miterlimit="10"
         fill="none"
         fill-rule="evenodd"
         id="path200" />
    </g>
    <g
       clip-path="url(#clip7)"
       id="g206">
      <path
         d="M1814.5 609.474C1817.48 609.474 1820.92 609.474 1823.43 609.474 1825.94 609.474 1827.47 608.823 1829.58 609.474 1831.69 610.124 1834.08 612.726 1836.07 613.377 1838.07 614.027 1839.71 613.377 1841.53 613.377 1843.34 613.377 1845.14 613.191 1846.98 613.377 1848.81 613.562 1850.69 612.54 1852.54 614.492 1854.4 616.443 1856.12 623.783 1858.11 625.084 1860.1 626.385 1861.96 622.761 1864.49 622.297 1867.02 621.832 1870.72 623.876 1873.31 622.297 1875.9 620.717 1877.89 614.027 1880.03 612.819 1882.18 611.611 1884.29 613.562 1886.18 615.049 1888.08 616.536 1889.68 619.602 1891.4 621.739 1893.12 623.876 1894.76 629.172 1896.5 627.871 1898.24 626.57 1900.14 618.579 1901.84 613.934 1903.54 609.288 1905.07 600.461 1906.71 599.997 1908.35 599.532 1910 610.775 1911.7 611.147 1913.4 611.518 1915.1 605.386 1916.92 602.227 1918.74 599.068 1920.8 593.492 1922.6 592.192 1924.4 590.891 1926 595.072 1927.71 594.422 1929.41 593.771 1931.07 590.333 1932.81 588.289 1934.55 586.245 1936.42 582.436 1938.14 582.157 1939.87 581.878 1941.3 585.595 1943.13 586.617 1944.97 587.639 1947.33 590.798 1949.16 588.289 1950.39 586.608 1953.04 580.219 1954.15 571.564 1955.81 558.649 1957.46 520.553 1959.14 510.797 1959.61 508.052 1963.76 511.249 1964.24 513.027 1965.94 519.345 1967.41 542.76 1969.35 548.707 1970.05 550.887 1975.13 545.538 1975.84 548.707 1977.79 557.348 1979.36 585.501 1981.06 600.554 1982.76 615.606 1984.37 629.544 1986.05 639.021 1987.72 648.421 1989.48 653.18 1991.15 657.419 1992.76 661.512 1994.44 663.509 1996.14 664.666 1996.43 664.866 2001.51 661.841 2001.82 664.666 2003.7 681.763 2005.61 746.061 2007.39 767.246 2008.36 778.777 2011.56 804.268 2012.49 791.775 2014.01 771.551 2016.2 710.687 2017.71 629.544 2019.43 537.464 2021 315.116 2022.82 239.296 2023.59 206.841 2027.8 179.241 2028.62 174.627 2028.73 173.97 2034.18 171.787 2034.3 174.627 2036.23 221.271 2038.36 376.998 2040.22 454.49 2042.07 531.982 2043.52 598.882 2045.44 639.579 2046.83 669.259 2050.26 691.491 2051.7 698.674 2052.24 701.404 2056.77 699.626 2057.27 698.674 2059.04 695.236 2060.61 681.484 2062.37 678.046 2063.61 675.619 2066.58 679.095 2067.82 678.046 2069.58 676.559 2070.84 670.613 2072.92 669.126 2075.01 667.639 2078.26 670.891 2080.35 669.126 2082.44 667.361 2083.71 660.299 2085.45 658.534 2087.19 656.768 2088.93 658.534 2090.79 658.534 2092.64 658.534 2094.71 657.511 2096.59 658.534 2097.89 659.242 2100.66 660.802 2102.04 664.666 2104.03 670.241 2106.46 679.44 2108.53 691.984 2110.6 704.527 2112.59 728.964 2114.45 739.928 2114.63 741.009 2119.49 767.06 2119.67 757.768 2121.45 663.551 2123.34 264.662 2125.12 174.627 2125.55 153.009 2129.84 210.794 2130.34 217.554 2132.43 245.708 2135.5 298.205 2137.65 343.548 2139.79 388.891 2141.26 450.216 2143.21 489.612 2145.17 529.009 2147.39 543.132 2149.36 579.927 2151.33 616.721 2153.19 688.638 2155.05 710.381 2155.28 713.097 2160.24 710.276 2160.5 710.381 2161.7 710.867 2166.23 719.509 2167.46 715.398 2169.56 708.337 2171.28 677.581 2173.14 668.011 2174.23 662.405 2177.48 658.956 2178.59 657.976 2180.49 656.304 2182.63 657.047 2184.51 657.976 2186.38 658.905 2187.72 662.622 2189.84 663.551 2191.97 664.48 2195.02 662.994 2197.27 663.551 2199.51 664.108 2201.17 667.732 2203.3 666.896 2205.42 666.06 2207.92 657.233 2210.02 658.534 2210.88 659.06 2215.18 666.127 2215.94 674.701 2217.81 695.886 2219.11 799.394 2221.28 785.643 2223.44 771.891 2226.73 681.763 2228.93 592.192 2231.13 502.62 2232.55 317.81 2234.5 248.216 2235.53 211.308 2239.6 170.29 2240.65 174.627 2242.62 182.803 2244.34 244.035 2246.33 297.276 2248.32 350.517 2250.29 433.584 2252.59 494.072 2254.89 554.561 2257.58 613.098 2260.13 660.206 2262.68 707.315 2265.31 789.081 2267.9 776.723 2270.49 764.365 2273.49 610.032 2275.67 586.059 2277.81 562.59 2278.78 625.248 2281.01 632.889 2282.18 636.897 2288 630.694 2289.36 632.889 2292.01 637.163 2294.16 652.866 2296.9 658.534 2299.57 664.04 2303.45 667.528 2305.83 666.896 2308.29 666.246 2309.47 656.675 2311.63 654.631 2313.8 652.587 2316.64 655.188 2318.82 654.631 2321.01 654.074 2322.71 651.101 2324.74 651.286 2326.77 651.472 2329.15 654.353 2331 655.746 2331.32 655.983 2335.59 656.54 2335.87 659.649 2337.54 677.953 2339.24 747.919 2340.98 765.573 2341.24 768.228 2346 764.944 2346.31 765.573 2346.59 766.126 2353.11 803.69 2353.39 790.661 2355.51 692.169 2357.27 277.02 2359.07 174.627 2359.12 171.941 2364.13 175.643 2364.17 176.299 2365.93 201.294 2367.87 284.825 2369.63 324.593 2371.38 364.361 2372.95 381.737 2374.73 414.908 2376.51 448.079 2378.09 496.953 2380.3 523.62 2382.43 549.46 2385.67 551.139 2387.95 574.909 2390.31 599.439 2392.4 651.937 2394.45 670.799 2395.43 679.86 2399.37 686.742 2400.25 688.081 2401.65 690.232 2404.04 687.595 2405.35 687.524 2406.95 687.436 2408.78 689.449 2410.45 687.524 2412.23 685.479 2414.26 679.719 2416.02 675.259 2417.78 670.798 2418.79 663.737 2421.01 660.764 2423.23 657.79 2427 657.976 2429.36 657.419 2431.72 656.861 2433.28 657.326 2435.16 657.419 2437.03 657.512 2438.74 658.069 2440.61 657.976 2442.49 657.883 2444.59 657.047 2446.41 656.861 2448.23 656.675 2449.77 656.396 2451.51 656.861 2453.25 657.326 2454.97 660.113 2456.85 659.649 2458.72 659.184 2460.91 652.122 2462.77 654.074 2464.62 656.025 2465.72 669.312 2467.99 671.356 2468.54 671.858 2475.75 661.502 2476.34 666.339 2478.71 686.037 2480.36 776.909 2482.25 789.545 2482.69 792.485 2487.25 766.004 2487.7 742.158 2489.66 639.672 2491.94 269.215 2493.97 174.627 2494.03 171.669 2499.82 173.424 2499.88 174.627 2501.83 213.094 2503.83 343.827 2505.68 405.43 2507.54 467.034 2509.18 508.381 2511.02 544.247 2512.85 580.112 2514.38 602.877 2516.7 620.624 2518.72 636.098 2522.83 644.004 2524.94 650.729 2527.35 658.441 2529.21 670.055 2531.2 666.896 2533.19 663.737 2534.95 643.76 2536.88 631.774 2538.82 619.787 2540.88 599.068 2542.8 594.979 2544.71 590.891 2546.47 607.987 2548.37 607.244 2550.26 606.501 2552.19 592.935 2554.17 590.519 2556.14 588.103 2558.17 591.634 2560.2 592.749 2561.36 593.391 2564.94 593.679 2566.34 597.209 2568.78 603.342 2572.36 623.69 2574.81 629.544 2576.14 632.705 2579.95 632.281 2581.07 632.331 2583.16 632.424 2585.35 631.309 2587.34 630.101 2588.83 629.194 2591.54 628.573 2593.02 625.084 2594.99 620.438 2597.24 610.775 2599.17 602.227 2601.1 593.678 2602.73 578.533 2604.62 573.794 2604.92 573.036 2610.22 576.736 2610.54 573.794 2612.51 555.397 2613.96 473.166 2616.45 463.41 2618.95 453.653 2623 497.696 2625.5 515.257 2627.99 532.818 2629.35 559.857 2631.41 568.777 2632.15 571.941 2637.15 567.359 2637.91 568.777 2640.06 572.772 2642.28 583.736 2644.29 592.749 2646.3 601.762 2648 617.836 2649.97 622.854 2651.1 625.715 2655 623.013 2656.12 622.854 2657.14 622.71 2660.79 618.399 2661.8 621.182 2663.77 626.57 2665.36 652.122 2667.95 655.189 2670.54 658.255 2674.72 641.065 2677.35 639.579 2678.63 638.85 2682.71 650.779 2683.73 646.269 2685.79 637.07 2687.71 586.71 2689.76 584.387 2691.81 582.064 2693.89 626.57 2696.02 632.331 2698.15 638.092 2700.43 621.739 2702.52 618.952 2704.58 616.191 2706.54 615.882 2708.55 615.607 2710.58 615.328 2712.72 619.602 2714.69 617.279 2716.67 614.956 2718.41 605.107 2720.38 601.669 2721.43 599.836 2725.13 600.367 2726.53 596.652 2729.14 589.683 2733.27 560.6 2736.04 559.857 2738.8 559.113 2740.85 603.713 2743.11 592.192 2745.37 580.67 2747.52 495.744 2749.61 490.727 2751.7 485.71 2753.55 543.224 2755.64 562.087 2757.73 580.949 2760.07 598.045 2762.13 603.899 2763.62 608.109 2766.49 596.608 2768.05 597.209 2770.21 598.045 2772.96 605.293 2775.12 608.917 2777.29 612.54 2778.91 621.088 2781.04 618.952 2783.17 616.814 2784.98 597.859 2787.88 596.094 2790.78 594.329 2795.64 605.293 2798.44 608.359 2801.24 611.425 2802.48 612.633 2804.7 614.492 2806.93 616.35 2809.5 620.996 2811.78 619.509 2814.06 618.022 2816.24 602.691 2818.39 605.572 2820.54 608.452 2822.51 631.03 2824.65 636.791 2825.95 640.263 2829.54 638.344 2831.26 640.137 2834.12 643.11 2838.75 651.751 2841.82 654.631 2844.87 657.491 2847.02 657.972 2849.71 657.419 2852.41 656.861 2855.47 649.985 2858.06 651.286 2860.65 652.587 2862.93 659.648 2865.25 665.224 2867.57 670.798 2869.08 687.709 2871.98 684.736 2874.88 681.763 2879.55 641.158 2882.65 647.384 2885.74 653.609 2888.2 689.382 2890.53 722.088 2892.87 754.795 2894.57 849.569 2896.68 843.623 2898.17 839.421 2901.16 765.056 2903.18 686.409 2906.04 575.095 2910.87 207.984 2913.85 175.742 2916.83 143.5 2918.7 423.084 2921.04 492.957 2922.75 544.054 2926.23 576.429 2927.88 594.979 2930.13 620.191 2932.44 630.562 2934.61 645.154 2936.8 659.834 2938.75 671.635 2940.99 683.064 2943.23 694.492 2945.8 715.491 2948.07 713.726 2950.33 711.96 2952.32 681.762 2954.56 672.471 2956.45 664.656 2959.52 662.04 2961.52 657.976 2962.86 655.251 2967.56 651.499 2968.83 643.481 2971.07 629.265 2972.04 584.48 2974.98 572.679 2976.36 567.107 2985 574.346 2986.46 572.679 2989.55 569.148 2991.27 553.817 2993.53 551.494 2995.79 549.171 2997.81 557.627 3000.03 558.742 3001.04 559.247 3005.87 554.902 3006.87 558.184 3008.65 563.99 3011.52 580.044 3013.37 602.227 3015.67 629.916 3018.22 710.753 3020.68 724.318 3021.76 730.303 3027.07 704.279 3028.1 683.621 3030.44 636.791 3031.66 490.634 3034.71 443.34 3036.16 420.869 3044.93 397.913 3046.42 399.856 3048.83 402.979 3051.86 433.718 3053.62 467.87 3055.92 512.562 3057.95 630.845 3060.23 668.011 3060.96 679.953 3066.54 692.48 3067.3 690.869 3069.66 685.851 3071.96 645.711 3074.38 637.907 3075.51 634.263 3080.52 648.68 3081.8 644.039 3084.55 634.097 3088.12 578.44 3090.85 578.254 3093.57 578.068 3095.82 629.822 3098.16 642.924 3099.52 650.542 3103.08 658.104 3104.88 656.861 3107.98 654.724 3113.5 632.517 3116.71 630.101 3119.92 627.686 3121.66 635.862 3124.14 642.367 3126.61 648.871 3129.11 667.732 3131.56 669.126 3134.02 670.52 3136.43 653.888 3138.87 650.729 3139.6 649.774 3145.46 646.577 3146.18 650.171 3148.37 661.16 3150.9 686.031 3153.14 722.088 3155.55 761.113 3158.2 909.5 3160.67 884.32 3163.15 859.139 3165.6 689.289 3167.98 571.007 3170.36 452.724 3172.52 199.249 3174.94 174.627 3177.36 150.004 3180.01 370.122 3182.48 423.27 3184.12 458.544 3188.2 477.604 3189.79 493.515 3192.18 517.487 3193.67 534.677 3196.86 567.104 3200.05 599.532 3205.66 670.427 3208.93 688.081 3210.46 696.358 3215.33 676.339 3216.47 673.029 3218.88 665.967 3220.97 659.556 3223.42 645.711 3225.88 631.867 3228.66 601.39 3231.2 589.962 3232.8 582.729 3237.09 578.609 3238.62 577.139 3239.97 575.844 3244.34 572.709 3245.69 576.024 3248.13 581.971 3250.66 610.496 3253.23 612.819 3255.8 615.142 3258.63 590.055 3261.12 589.962 3263.61 589.869 3265.78 610.124 3268.2 612.262 3270.61 614.398 3273.11 602.226 3275.62 602.784 3278.13 603.341 3280.01 613.377 3283.28 615.607 3286.54 617.837 3291.9 615.978 3295.22 616.164 3298.55 616.349 3300.62 619.602 3303.23 616.721 3305.83 613.841 3308.27 597.488 3310.88 598.882 3313.49 600.275 3316.37 622.017 3318.88 625.084 3321.4 628.15 3323.39 619.416 3325.96 617.279 3328.53 615.142 3331.66 612.447 3334.31 612.262 3336.96 612.076 3339.38 618.115 3341.85 616.164 3344.32 614.213 3346.66 601.669 3349.16 600.554 3351.65 599.439 3354.24 607.523 3356.81 609.474 3359.38 611.425 3361.99 611.239 3364.58 612.262 3367.17 613.284 3369.76 614.77 3372.35 615.607 3374.95 616.443 3377.59 617.279 3380.13 617.279 3382.66 617.279 3385.13 615.235 3387.55 615.607 3389.97 615.978 3391.3 618.487 3394.62 619.509 3397.95 620.531 3403.21 620.996 3407.5 621.739"
         stroke="#4472C4"
         stroke-width="6.875"
         stroke-linecap="round"
         stroke-linejoin="round"
         stroke-miterlimit="10"
         fill="none"
         id="path204" />
    </g>
    <g
       clip-path="url(#clip8)"
       id="g210">
      <path
         d="M1814.5 608.853C1817.48 608.853 1820.92 608.853 1823.43 608.853 1824.79 608.853 1828.44 611.712 1829.58 608.853 1831.69 603.552 1834.08 581.886 1836.07 577.051 1837.24 574.217 1840.46 579.568 1841.53 579.841 1843.34 580.305 1845.14 580.026 1846.98 579.841 1848.81 579.655 1850.69 577.423 1852.54 578.725 1854.4 580.026 1856.12 587.559 1858.11 587.652 1860.1 587.745 1861.96 580.677 1864.49 579.282 1867.02 577.888 1870.72 579.375 1873.31 579.282 1875.9 579.189 1877.89 578.725 1880.03 578.725 1882.18 578.725 1884.29 577.702 1886.18 579.282 1888.08 580.863 1889.68 588.024 1891.4 588.21 1893.12 588.396 1894.76 581.328 1896.5 580.399 1898.24 579.469 1900.14 584.118 1901.84 582.63 1903.54 581.142 1905.07 571.75 1906.71 571.472 1908.35 571.192 1910 579.748 1911.7 580.957 1913.4 582.165 1915.1 579.004 1916.92 578.725 1918.74 578.446 1920.8 578.445 1922.6 579.282 1924.4 580.119 1926 584.397 1927.71 583.746 1929.41 583.095 1931.07 576.772 1932.81 575.377 1934.55 573.982 1936.42 575.563 1938.14 575.377 1939.87 575.191 1941.3 574.354 1943.13 574.261 1944.97 574.168 1947.33 576.679 1949.16 574.819 1951 572.959 1952.49 569.24 1954.15 563.103 1955.81 556.965 1957.46 539.39 1959.14 537.995 1960.82 536.601 1962.54 546.643 1964.24 554.733 1965.94 562.823 1967.41 581.235 1969.35 586.536 1970.32 589.211 1974.86 583.438 1975.84 586.536 1977.79 592.673 1979.36 615.176 1981.06 623.36 1982.41 629.846 1984.72 634.454 1986.05 635.634 1987.73 637.122 1989.47 632.101 1991.15 632.287 1992.83 632.473 1994.36 636.006 1996.14 636.75 1996.56 636.926 2001.38 633.94 2001.82 636.75 2003.33 646.333 2005.96 672.378 2007.39 708.166 2009.17 752.615 2010.77 850.533 2012.49 903.444 2014.21 956.355 2015.99 1052.78 2017.71 1025.63 2019.43 998.479 2021 829.331 2022.82 740.526 2024.63 651.722 2026.7 534.09 2028.62 492.803 2028.75 489.961 2034.17 490.927 2034.3 492.803 2036.23 520.048 2038.36 609.225 2040.22 656.278 2042.07 703.33 2043.52 763.588 2045.44 775.118 2047.35 786.649 2049.73 733.738 2051.7 725.462 2051.99 724.239 2057 728.236 2057.27 725.462 2059.04 706.678 2060.61 631.543 2062.37 612.759 2062.62 610.042 2067.57 613.472 2067.82 612.759 2069.58 607.83 2070.84 588.117 2072.92 583.188 2074.37 579.768 2078.9 582.543 2080.35 583.188 2082.44 584.118 2083.71 587.837 2085.45 588.768 2087.19 589.697 2088.93 589.976 2090.79 588.768 2092.64 587.559 2094.71 581.049 2096.59 581.515 2097.87 581.833 2100.67 586.008 2102.04 591.557 2104.01 599.562 2106.49 610.641 2108.53 630.055 2110.14 645.257 2113.01 669.584 2114.45 709.282 2116.3 760.519 2117.89 932.921 2119.67 937.478 2121.45 942.034 2123.34 815.382 2125.12 736.621 2126.9 657.858 2128.25 502.473 2130.34 464.906 2131.64 441.5 2136.31 489.721 2137.65 511.215 2139.79 545.714 2141.26 631.077 2143.21 671.9 2145.17 712.722 2147.39 747.128 2149.36 756.149 2151.33 765.168 2153.19 731.041 2155.05 726.02 2155.51 724.762 2159.98 728.698 2160.5 726.02 2162.57 715.326 2165.35 683.803 2167.46 661.857 2169.56 639.912 2171.28 606.993 2173.14 594.347 2173.86 589.404 2177.85 586.523 2178.59 585.978 2180.49 584.583 2182.63 584.118 2184.51 585.978 2186.38 587.838 2187.72 595.277 2189.84 597.137 2191.97 598.997 2195.02 598.532 2197.27 597.137 2199.51 595.742 2201.17 590.813 2203.3 588.768 2204.66 587.451 2208.67 581.213 2210.02 584.862 2211.28 588.231 2214.83 603.634 2215.94 622.802 2217.81 655.069 2219.11 707.515 2221.28 778.466 2223.44 849.417 2226.73 1028.51 2228.93 1048.51 2231.13 1068.5 2232.55 968.071 2234.5 898.422 2236.45 828.773 2238.67 701.657 2240.65 630.613 2242.62 559.569 2244.34 456.257 2246.33 472.159 2248.32 488.06 2250.29 667.808 2252.59 726.02 2254.48 773.835 2258.04 824.482 2260.13 821.427 2262.68 817.707 2265.31 750.383 2267.9 703.703 2270.49 657.021 2273.49 566.543 2275.67 541.343 2276.21 535.18 2280.45 552.047 2281.01 552.502 2282.51 553.726 2287.62 548.704 2289.36 552.502 2292.01 558.267 2294.16 580.398 2296.9 587.094 2298.9 591.968 2304.04 593.553 2305.83 592.673 2308.29 591.464 2309.47 581.979 2311.63 579.841 2313.8 577.702 2316.64 581.142 2318.82 579.841 2321.01 578.538 2322.71 572.03 2324.74 572.03 2326.77 572.03 2329.15 577.144 2331 579.841 2331.42 580.444 2335.5 583.381 2335.87 588.21 2337.54 609.783 2339.24 689.103 2340.98 709.282 2341.21 711.943 2346.04 707.161 2346.31 709.282 2348.38 725.369 2351.26 803.108 2353.39 805.805 2355.51 808.502 2357.27 754.939 2359.07 725.462 2360.87 695.984 2362.42 655.906 2364.17 628.939 2365.93 601.972 2367.87 572.866 2369.63 563.66 2370.31 560.089 2374.04 568.112 2374.73 573.703 2376.51 588.117 2378.09 630.892 2380.3 650.141 2382.5 669.389 2385.59 687.057 2387.95 689.196 2390.31 691.335 2392.4 668.087 2394.45 662.973 2395.18 661.138 2399.59 662.112 2400.25 658.51 2402.06 648.467 2403.65 612.015 2405.35 602.716 2405.81 600.203 2409.97 603.57 2410.45 602.716 2412.23 599.554 2414.26 587.094 2416.02 583.746 2417.21 581.482 2419.51 582.253 2421.01 582.63 2423.23 583.188 2427 586.257 2429.36 587.094 2431.72 587.931 2433.28 587.28 2435.16 587.652 2437.03 588.023 2438.74 589.232 2440.61 589.326 2442.49 589.418 2444.59 588.396 2446.41 588.21 2448.23 588.024 2449.77 588.21 2451.51 588.21 2453.25 588.21 2454.97 587.094 2456.85 588.21 2458.72 589.326 2460.91 591.092 2462.77 594.905 2464.62 598.717 2465.72 603.924 2467.99 611.085 2468.85 613.834 2475.42 623.868 2476.34 637.866 2478.71 674.317 2480.36 781.255 2482.25 829.796 2484.15 878.336 2485.75 946.498 2487.7 929.109 2489.66 911.72 2491.94 796.599 2493.97 725.462 2496 654.325 2497.93 540.227 2499.88 502.288 2500.07 498.631 2505.5 496.453 2505.68 497.824 2507.54 512.051 2509.18 567.38 2511.02 587.652 2512.47 603.739 2514.86 615.026 2516.7 619.454 2518.31 623.337 2523.25 623.781 2524.94 621.128 2527.35 617.315 2529.21 605.413 2531.2 596.579 2533.19 587.745 2534.95 576.679 2536.88 568.124 2538.82 559.568 2540.88 548.503 2542.8 545.249 2544.45 542.447 2546.73 549.557 2548.37 548.596 2550.26 547.48 2552.19 539.669 2554.17 538.553 2555.63 537.725 2558.69 538.796 2560.2 541.901 2562.23 546.085 2563.91 554.733 2566.34 563.66 2568.78 572.587 2572.36 590.255 2574.81 595.463 2576.15 598.309 2579.93 594.702 2581.07 594.905 2583.03 595.254 2585.47 594.817 2587.34 597.694 2589.33 600.763 2591.05 607.272 2593.02 613.317 2593.86 615.902 2598.34 623.221 2599.17 633.96 2601.1 659.067 2602.73 742.293 2604.62 763.96 2604.88 766.909 2610.27 763.453 2610.54 763.96 2611.05 764.932 2615.8 797.803 2616.45 786.277 2618.95 742.2 2623 526.185 2625.5 499.498 2627.99 472.81 2629.35 605.041 2631.41 626.149 2631.73 629.385 2637.58 624.624 2637.91 626.149 2640.06 636.099 2642.28 684.454 2644.29 685.849 2646.3 687.243 2648 643.073 2649.97 634.518 2650.59 631.851 2655.51 637.533 2656.12 634.518 2658.09 624.847 2659.83 587.931 2661.8 576.493 2662.84 570.453 2666.58 567.07 2667.95 565.892 2670.54 563.66 2674.72 560.871 2677.35 563.103 2679.97 565.334 2681.66 581.7 2683.73 579.282 2685.79 576.865 2687.71 550.735 2689.76 548.596 2691.81 546.457 2693.89 563.102 2696.02 566.45 2697.86 569.35 2700.71 569.004 2702.52 568.682 2704.6 568.31 2706.52 562.823 2708.55 564.218 2710.58 565.613 2712.72 574.54 2714.69 577.051 2716.58 579.453 2718.49 577.503 2720.38 579.282 2721.83 580.652 2724.6 583.141 2726.53 588.21 2727.86 591.733 2734.62 603.764 2736.04 620.57 2738.8 653.395 2740.85 763.123 2743.11 785.161 2744.01 793.959 2748.77 769.283 2749.61 752.801 2751.7 711.513 2753.55 555.291 2755.64 537.437 2757.73 519.583 2760.07 619.361 2762.13 645.677 2764.09 670.604 2766 689.432 2768.05 695.333 2768.83 697.58 2774.34 690.101 2775.12 683.059 2777.29 663.531 2778.91 599.74 2781.04 578.167 2782.29 565.485 2786.18 554.875 2787.88 553.618 2790.78 551.479 2795.64 564.218 2798.44 565.334 2801.24 566.45 2802.48 562.359 2804.7 560.313 2806.93 558.267 2809.5 554.826 2811.78 553.06 2814.06 551.293 2816.24 547.015 2818.39 549.712 2820.54 552.409 2822.51 564.032 2824.65 569.24 2826.8 574.447 2828.4 577.702 2831.26 580.957 2834.12 584.211 2838.75 585.513 2841.82 588.768 2844.89 592.022 2847 599.74 2849.71 600.484 2852.41 601.228 2855.47 593.789 2858.06 593.231 2860.65 592.673 2862.93 595.463 2865.25 597.137 2867.57 598.811 2869.08 606.621 2871.98 603.274 2874.88 599.926 2879.55 565.613 2882.65 577.051 2885.74 588.488 2888.2 634.704 2890.53 671.9 2892.87 709.096 2894.57 746.012 2896.68 800.225 2898.79 854.438 2900.32 1028.14 2903.18 997.177 2906.04 966.211 2910.87 675.527 2913.85 614.433 2914.28 605.589 2920.7 628.715 2921.04 630.613 2923.38 643.724 2925.62 681.292 2927.88 693.102 2928.89 698.376 2933.63 701.969 2934.61 701.471 2936.41 700.551 2939.14 694.375 2940.99 686.407 2943.23 676.736 2945.8 656.371 2948.07 643.445 2950.33 630.52 2952.32 617.687 2954.56 608.853 2956.8 600.019 2959.14 594.812 2961.52 590.442 2963.9 586.071 2966.59 585.42 2968.83 582.63 2971.07 579.841 2972.04 575.191 2974.98 573.703 2977.91 572.215 2983.37 571.378 2986.46 573.703 2989.55 576.028 2991.27 583.653 2993.53 587.652 2995.79 591.65 2997.81 597.88 3000.03 597.694 3002.25 597.508 3004.65 590.627 3006.87 586.536 3008.07 584.339 3012.13 580.484 3013.37 573.145 3015.67 559.476 3018.22 500.056 3020.68 504.519 3023.13 508.983 3025.76 557.244 3028.1 599.926 3030.44 642.608 3031.66 742.014 3034.71 760.612 3037.76 779.21 3043.27 735.133 3046.42 711.514 3049.58 687.894 3051.32 630.148 3053.62 618.896 3055.92 607.644 3057.95 643.259 3060.23 644.003 3062.12 644.621 3065.34 634.094 3067.3 623.36 3069.66 610.434 3071.96 575.005 3074.38 566.45 3075.64 561.979 3080.37 573.293 3081.8 572.03 3084.55 569.612 3088.12 547.945 3090.85 551.944 3093.57 555.942 3095.82 590.627 3098.16 596.021 3100.5 601.414 3101.79 586.721 3104.88 584.304 3107.98 581.886 3113.5 578.725 3116.71 581.515 3119.92 584.304 3121.66 594.998 3124.14 601.042 3126.61 607.086 3129.11 615.362 3131.56 617.78 3134.02 620.198 3136.43 614.06 3138.87 615.548 3139.75 616.086 3145.32 620.091 3146.18 626.707 3147.85 639.598 3151.43 675.991 3153.14 725.462 3155.55 795.762 3158.2 994.666 3160.67 1048.51 3160.81 1051.37 3167.85 1052.16 3167.98 1048.51 3170.36 979.695 3172.52 725.369 3174.94 635.634 3176.63 572.775 3180.75 521.823 3182.48 510.098 3184.32 497.63 3188 522.253 3189.79 535.206 3192.18 552.594 3193.67 594.905 3196.86 614.433 3200.05 633.96 3205.66 653.302 3208.93 652.372 3212.19 651.442 3214.05 617.594 3216.47 608.853 3217.97 603.396 3221.89 604.222 3223.42 599.926 3225.88 593.045 3228.66 574.819 3231.2 567.566 3233.41 561.238 3236.51 556.245 3238.62 556.407 3241.04 556.593 3243.26 564.125 3245.69 568.682 3248.13 573.238 3250.66 583.002 3253.23 583.746 3255.8 584.49 3258.63 571.192 3261.12 573.145 3263.61 575.098 3265.78 595.091 3268.2 595.463 3270.61 595.834 3273.11 576.307 3275.62 575.377 3278.13 574.447 3280.01 587.931 3283.28 589.884 3286.54 591.836 3291.9 588.488 3295.22 587.094 3298.55 585.699 3300.62 583.467 3303.23 581.515 3305.83 579.562 3308.27 574.447 3310.88 575.377 3313.49 576.307 3316.37 585.327 3318.88 587.094 3321.4 588.86 3323.39 586.35 3325.96 585.978 3328.53 585.606 3331.66 584.862 3334.31 584.862 3336.96 584.862 3339.38 584.025 3341.85 585.978 3344.32 587.931 3346.66 596.207 3349.16 596.579 3351.65 596.95 3354.24 589.419 3356.81 588.21 3359.38 587.001 3361.99 588.86 3364.58 589.326 3367.17 589.79 3369.76 590.813 3372.35 590.999 3374.95 591.185 3377.59 592.952 3380.13 590.442 3382.66 587.931 3385.13 579.004 3387.55 575.935 3389.97 572.866 3391.3 572.959 3394.62 572.03 3397.95 571.1 3403.21 570.914 3407.5 570.356"
         stroke="#F4B183"
         stroke-width="6.875"
         stroke-linecap="round"
         stroke-linejoin="round"
         stroke-miterlimit="10"
         stroke-dasharray="13.75 13.75"
         fill="none"
         id="path208" />
    </g>
    <g
       clip-path="url(#clip9)"
       id="g214">
      <path
         d="M1814.5 609.428C1817.48 609.428 1820.92 609.428 1823.43 609.428 1824.4 609.428 1828.77 612.393 1829.58 609.428 1831.69 601.716 1834.08 571.521 1836.07 563.159 1836.85 559.897 1840.82 559.51 1841.53 559.257 1843.34 558.606 1845.14 557.491 1846.98 559.257 1848.81 561.022 1850.69 569.198 1852.54 569.848 1854.4 570.499 1856.12 563.345 1858.11 563.159 1860.1 562.973 1861.96 567.804 1864.49 568.733 1867.02 569.662 1870.72 569.104 1873.31 568.733 1875.9 568.361 1877.89 567.339 1880.03 566.503 1882.18 565.667 1884.29 561.486 1886.18 563.716 1888.08 565.946 1889.68 582.484 1891.4 579.882 1893.12 577.281 1894.76 549.408 1896.5 548.107 1898.24 546.806 1900.14 571.892 1901.84 572.078 1903.54 572.264 1905.07 550.151 1906.71 549.222 1908.35 548.293 1910 562.044 1911.7 566.503 1913.4 570.963 1915.1 578.117 1916.92 575.98 1918.74 573.843 1920.8 556.748 1922.6 553.682 1924.23 550.911 1926.17 554.896 1927.71 557.584 1929.41 560.557 1931.07 570.22 1932.81 571.521 1934.55 572.821 1936.42 563.995 1938.14 565.389 1939.87 566.782 1941.3 578.489 1943.13 579.882 1944.97 581.276 1947.33 576.259 1949.16 573.75 1950.58 571.815 1952.87 569.777 1954.15 564.831 1955.81 558.42 1957.46 547.178 1959.14 535.285 1960.82 523.393 1962.54 497.192 1964.24 493.476 1965.94 489.759 1967.41 509.735 1969.35 512.987 1969.94 513.993 1975.24 509.795 1975.84 512.987 1977.79 523.3 1979.36 559.907 1981.06 574.865 1982.66 588.932 1984.47 601.078 1986.05 602.738 1987.73 604.503 1989.47 586.944 1991.15 585.457 1992.83 583.97 1994.36 592.425 1996.14 593.819 1997.92 595.212 1999.95 592.518 2001.82 593.819 2003.7 595.12 2005.61 598.836 2007.39 601.624 2007.71 602.123 2012.19 615.672 2012.49 610.543 2014.21 581.926 2015.99 444.512 2017.71 429.925 2019.43 415.338 2021 540.489 2022.82 523.021 2024.63 505.554 2026.7 358.105 2028.62 325.122 2028.74 323.065 2034.18 322.283 2034.3 325.122 2036.23 370.648 2038.36 556.097 2040.22 598.279 2040.67 608.637 2044.97 580.469 2045.44 578.21 2047.35 569.012 2049.73 548.943 2051.7 543.09 2052.27 541.4 2056.75 540.354 2057.27 543.09 2059.04 552.567 2060.61 590.474 2062.37 599.951 2062.87 602.631 2067.32 599.084 2067.82 599.951 2069.58 603.017 2070.84 615.281 2072.92 618.347 2075.01 621.413 2078.26 620.484 2080.35 618.347 2082.44 616.21 2083.71 607.662 2085.45 605.526 2086.94 603.699 2089.2 603.381 2090.79 605.526 2092.64 608.034 2094.71 617.046 2096.59 620.577 2097.57 622.438 2100.99 622.743 2102.04 626.709 2104.03 634.235 2106.46 659.785 2108.53 665.732 2109.05 667.217 2113.98 665.753 2114.45 662.387 2116.3 648.915 2117.89 610.078 2119.67 584.9 2121.45 559.721 2123.34 544.948 2125.12 511.315 2126.9 477.681 2128.25 374.922 2130.34 383.098 2132.43 391.274 2135.5 530.082 2137.65 560.371 2137.9 563.929 2142.98 563.674 2143.21 564.831 2145.17 574.679 2147.39 617.604 2149.36 619.462 2151.33 621.32 2153.19 583.227 2155.05 575.98 2155.72 573.339 2159.74 574.084 2160.5 575.98 2162.57 581.183 2165.35 598 2167.46 607.198 2169.56 616.396 2171.28 631.912 2173.14 631.169 2175 630.426 2176.7 607.477 2178.59 602.738 2179.69 599.991 2183.42 600.907 2184.51 602.738 2186.38 605.897 2187.72 618.533 2189.84 621.692 2191.91 624.771 2195.08 621.511 2197.27 621.692 2199.51 621.878 2201.17 622.435 2203.3 622.807 2204.63 623.04 2208.7 620.778 2210.02 623.922 2212.13 628.939 2214.06 652.631 2215.94 652.91 2217.52 653.145 2219.45 639.39 2221.28 625.594 2223.44 609.242 2226.73 552.846 2228.93 554.797 2230.86 556.505 2232.79 678.612 2234.5 637.301 2236.45 590.103 2238.67 288.887 2240.65 271.606 2242.62 254.325 2244.34 480.561 2246.33 533.613 2247.39 561.919 2251.36 583.175 2252.59 589.917 2254.47 600.206 2258.05 613.892 2260.13 609.428 2262.68 603.946 2265.31 551.266 2267.9 557.027 2270.49 562.787 2273.49 631.355 2275.67 643.991 2276.73 650.08 2279.91 633.737 2281.01 632.841 2282.67 631.493 2287.44 636.549 2289.36 632.841 2292.01 627.731 2294.16 604.132 2296.9 602.181 2299.65 600.23 2303.38 617.139 2305.83 621.135 2307.84 624.401 2309.86 625.468 2311.63 626.152 2313.8 626.988 2316.64 626.988 2318.82 626.152 2321.01 625.315 2322.71 622.157 2324.74 621.135 2326.77 620.113 2329.15 619.091 2331 620.02 2332.16 620.6 2334.83 622.704 2335.87 626.709 2337.54 633.12 2339.24 653.189 2340.98 658.484 2341.29 659.449 2345.94 661.126 2346.31 658.484 2348.38 643.99 2351.26 590.753 2353.39 571.521 2353.93 566.579 2358.61 557.579 2359.07 543.09 2360.87 486.693 2362.42 273.65 2364.17 233.141 2365.49 202.809 2368.31 266.504 2369.63 300.037 2371.38 344.819 2372.95 457.798 2374.73 501.838 2375.99 533.154 2378.73 555.552 2380.3 564.273 2381.49 570.929 2386.67 569.725 2387.95 575.423 2390.31 585.921 2392.4 619.927 2394.45 627.267 2395.75 631.949 2399.09 619.64 2400.25 619.462 2402.06 619.183 2403.65 624.572 2405.35 625.594 2407.05 626.616 2408.68 625.409 2410.45 625.594 2412.23 625.78 2414.26 625.966 2416.02 626.709 2417.14 627.181 2419.6 632.705 2421.01 630.054 2423.23 625.873 2427 604.318 2429.36 601.624 2431.72 598.929 2433.28 610.821 2435.16 613.888 2437.03 616.954 2438.74 619.648 2440.61 620.02 2442.49 620.391 2444.59 616.768 2446.41 616.117 2448.23 615.467 2449.77 616.768 2451.51 616.117 2453.25 615.467 2454.97 610.171 2456.85 612.215 2458.72 614.259 2460.91 625.687 2462.77 628.382 2464.25 630.531 2466.18 629.493 2467.99 628.382 2468.98 627.767 2475.29 625.835 2476.34 620.02 2478.71 606.826 2480.36 561.95 2482.25 549.222 2482.83 545.368 2487.11 539.794 2487.7 543.648 2489.37 554.485 2492.24 666.651 2493.97 625.594 2496 577.374 2497.93 256.276 2499.88 254.325 2501.83 252.374 2503.83 554.797 2505.68 613.888 2505.8 617.548 2510.9 608.784 2511.02 608.871 2512.85 610.264 2514.38 619.276 2516.7 622.25 2519.02 625.223 2522.52 630.24 2524.94 626.709 2527.35 623.179 2529.21 603.296 2531.2 601.066 2533.19 598.836 2534.95 610.45 2536.88 613.33 2538.82 616.211 2540.88 618.719 2542.8 618.347 2544.71 617.976 2546.47 611.751 2548.37 611.101 2550.26 610.45 2552.19 612.772 2554.17 614.445 2556.14 616.117 2558.17 622.807 2560.2 621.135 2561.72 619.879 2564.51 613.13 2566.34 604.411 2568.78 592.797 2572.36 557.491 2574.81 551.452 2577.27 545.413 2578.99 564.924 2581.07 568.176 2581.92 569.486 2586.54 574.296 2587.34 570.963 2589.33 562.694 2591.05 529.99 2593.02 518.562 2593.91 513.399 2598.3 510.999 2599.17 502.395 2601.1 483.349 2602.73 420.634 2604.62 404.282 2604.72 403.385 2610.43 401.326 2610.54 404.282 2612.51 458.17 2613.96 620.763 2616.45 727.61 2618.95 834.457 2623 1047.5 2625.5 1045.36 2627.99 1043.23 2629.35 769.884 2631.41 714.788 2631.54 711.542 2637.78 717.388 2637.91 714.788 2640.06 670.656 2642.28 489.016 2644.29 449.994 2645.09 434.423 2649.19 478.615 2649.97 480.654 2650.32 481.553 2655.77 477.6 2656.12 480.654 2658.09 498.028 2659.83 561.393 2661.8 584.9 2663.36 603.485 2665.9 617.358 2667.95 621.692 2669.85 625.717 2675.42 622.497 2677.35 617.79 2679.97 611.379 2681.66 580.533 2683.73 583.227 2685.79 585.922 2687.71 621.97 2689.76 633.956 2691.62 644.843 2694.09 654.971 2696.02 655.14 2698.15 655.326 2700.43 635.164 2702.52 635.071 2704.6 634.978 2706.52 650.959 2708.55 654.582 2710.15 657.435 2713.14 654.179 2714.69 656.812 2716.67 660.157 2718.41 667.682 2720.38 674.651 2722.35 681.619 2723.92 693.326 2726.53 698.622 2727.13 699.85 2735.4 700.308 2736.04 706.426 2738.51 730.034 2741.09 932.254 2743.11 856.941 2745.37 772.764 2747.52 315.367 2749.61 201.366 2749.87 186.836 2755.37 167.5 2755.64 172.935 2757.73 215.581 2760.07 389.416 2762.13 457.241 2764.01 518.604 2766.09 537.516 2768.05 579.882 2770.21 626.709 2772.96 721.849 2775.12 738.202 2777.29 754.554 2778.91 695.37 2781.04 677.996 2783.17 660.622 2784.98 638.787 2787.88 633.956 2790.78 629.125 2795.64 647.707 2798.44 649.008 2801.24 650.308 2802.48 642.318 2804.7 641.761 2806.93 641.203 2809.5 645.291 2811.78 645.663 2814.06 646.034 2816.24 643.805 2818.39 643.991 2820.17 644.145 2822.87 649.707 2824.65 646.778 2826.8 643.247 2828.4 629.775 2831.26 622.807 2834.12 615.839 2838.75 606.176 2841.82 604.968 2844.89 603.76 2847 616.489 2849.71 615.56 2852.41 614.631 2855.47 599.115 2858.06 599.394 2860.65 599.672 2862.93 614.166 2865.25 617.232 2867.29 619.924 2869.43 619.013 2871.98 617.79 2874.88 616.396 2879.55 611.844 2882.65 608.871 2884.19 607.388 2889.37 605.789 2890.53 599.951 2892.87 588.245 2894.57 554.611 2896.68 538.63 2898.37 525.816 2900.88 486.634 2903.18 504.068 2906.04 525.808 2910.87 655.79 2913.85 669.077 2916.83 682.362 2918.7 593.54 2921.04 583.785 2923.38 574.029 2925.62 607.477 2927.88 610.543 2930.15 613.609 2932.43 606.919 2934.61 602.181 2936.8 597.443 2938.75 584.435 2940.99 582.113 2942.87 580.166 2946.17 583.963 2948.07 588.245 2950.33 593.354 2952.32 609.706 2954.56 612.773 2956.8 615.839 2959.14 603.203 2961.52 606.641 2963.9 610.078 2966.59 622.436 2968.83 633.399 2971.07 644.362 2972.04 665.917 2974.98 672.421 2976.94 676.779 2984.39 667.066 2986.46 672.421 2989.55 680.411 2991.27 721.292 2993.53 720.363 2995.79 719.434 2997.81 675.952 3000.03 666.847 3000.85 663.478 3006.05 667.863 3006.87 665.732 3009.1 659.971 3011.07 641.296 3013.37 632.284 3015.52 623.848 3018.38 600.96 3020.68 611.658 3023.13 623.086 3025.76 698.622 3028.1 700.852 3030.44 703.082 3031.66 641.017 3034.71 625.037 3036.89 613.624 3044.17 602.513 3046.42 604.968 3049.58 608.406 3051.32 643.712 3053.62 645.663 3055.92 647.614 3057.95 626.616 3060.23 616.675 3062.51 606.734 3064.94 584.528 3067.3 586.015 3069.66 587.501 3071.96 617.232 3074.38 625.594 3076.17 631.807 3079.76 633.77 3081.8 636.186 3084.55 639.438 3088.12 642.318 3090.85 645.105 3093.57 647.892 3095.82 655.883 3098.16 652.91 3100.5 649.937 3101.79 629.032 3104.88 627.267 3107.98 625.501 3113.5 642.783 3116.71 642.318 3119.92 641.854 3121.66 626.895 3124.14 624.48 3126.61 622.064 3129.11 627.267 3131.56 627.824 3133.98 628.374 3136.46 625.073 3138.87 627.824 3141.3 630.611 3143.8 647.707 3146.18 644.548 3147.58 642.676 3151.7 626.989 3153.14 608.871 3155.55 578.303 3158.2 471.084 3160.67 461.143 3163.15 451.201 3165.6 546.156 3167.98 549.222 3170.36 552.288 3172.52 471.27 3174.94 479.539 3177.36 487.808 3180.01 574.958 3182.48 598.836 3183.77 611.299 3188.54 619.994 3189.79 622.807 3191.66 627.026 3194.37 636.043 3196.86 631.169 3200.05 624.944 3205.66 589.081 3208.93 585.457 3212.19 581.834 3214.05 610.821 3216.47 609.428 3218.88 608.034 3220.97 583.134 3223.42 577.095 3224.85 573.594 3229.73 577.286 3231.2 573.193 3233.73 566.132 3236.2 542.625 3238.62 534.728 3240.28 529.284 3244.02 524.208 3245.69 525.809 3248.13 528.131 3250.66 539.373 3253.23 548.665 3255.8 557.955 3258.63 583.041 3261.12 581.555 3263.61 580.068 3265.78 540.581 3268.2 539.745 3270.61 538.909 3273.11 573.657 3275.62 576.538 3278.13 579.418 3280.01 559.907 3283.28 557.027 3286.53 554.156 3291.91 554.162 3295.22 559.257 3298.55 564.367 3300.62 588.895 3303.23 587.687 3305.83 586.479 3308.27 554.332 3310.88 552.009 3313.49 549.687 3316.37 572.078 3318.88 573.75 3321.4 575.423 3323.39 563.344 3325.96 562.044 3328.53 560.743 3331.66 565.853 3334.31 565.946 3336.96 566.039 3339.38 565.295 3341.85 562.601 3344.32 559.906 3346.66 551.824 3349.16 549.78 3351.65 547.736 3354.24 548.85 3356.81 550.337 3359.38 551.824 3361.99 557.863 3364.58 558.699 3367.17 559.535 3369.76 555.54 3372.35 555.354 3374.95 555.168 3377.59 555.261 3380.13 557.584 3382.66 559.906 3385.13 565.202 3387.55 569.291 3389.97 573.379 3391.3 581.276 3394.62 582.113 3397.95 582.949 3403.21 576.909 3407.5 574.308"
         stroke="#A9D18E"
         stroke-width="6.875"
         stroke-linecap="round"
         stroke-linejoin="round"
         stroke-miterlimit="10"
         stroke-dasharray="13.75 13.75"
         fill="none"
         id="path212" />
    </g>
    <g
       clip-path="url(#clip10)"
       id="g218">
      <path
         d="M1814.5 441.5C1817.48 441.5 1820.92 441.5 1823.43 441.5 1825.94 441.5 1827.47 441.5 1829.58 441.5 1831.69 441.5 1834.08 441.5 1836.07 441.5 1838.07 441.5 1839.71 441.5 1841.53 441.5 1843.34 441.5 1845.14 441.5 1846.98 441.5 1848.81 441.5 1850.69 441.5 1852.54 441.5 1854.4 441.5 1856.12 441.5 1858.11 441.5 1860.1 441.5 1861.96 441.5 1864.49 441.5 1867.02 441.5 1870.72 441.5 1873.31 441.5 1875.9 441.5 1877.89 441.5 1880.03 441.5 1882.18 441.5 1884.29 441.5 1886.18 441.5 1888.08 441.5 1889.68 441.5 1891.4 441.5 1893.12 441.5 1894.76 441.5 1896.5 441.5 1898.24 441.5 1900.14 441.5 1901.84 441.5 1903.54 441.5 1905.07 441.5 1906.71 441.5 1908.35 441.5 1910 441.5 1911.7 441.5 1913.4 441.5 1915.1 441.5 1916.92 441.5 1918.74 441.5 1920.8 441.5 1922.6 441.5 1924.4 441.5 1926 441.5 1927.71 441.5 1929.41 441.5 1931.07 441.5 1932.81 441.5 1934.55 441.5 1936.42 441.5 1938.14 441.5 1939.87 441.5 1941.3 441.5 1943.13 441.5 1944.97 441.5 1947.33 441.5 1949.16 441.5 1951 441.5 1952.49 441.5 1954.15 441.5 1955.81 441.5 1957.46 441.5 1959.14 441.5 1960.82 441.5 1962.54 441.5 1964.24 441.5 1965.94 441.5 1967.41 441.5 1969.35 441.5 1971.28 441.5 1973.89 441.5 1975.84 441.5 1977.79 441.5 1979.36 441.5 1981.06 441.5 1982.76 441.5 1984.37 441.5 1986.05 441.5 1987.73 441.5 1989.47 441.5 1991.15 441.5 1992.83 441.5 1994.36 441.5 1996.14 441.5 1997.92 441.5 1999.95 441.5 2001.82 441.5 2003.7 441.5 2005.61 441.5 2007.39 441.5 2009.17 441.5 2010.77 441.5 2012.49 441.5 2014.21 441.5 2015.99 441.5 2017.71 441.5 2019.43 441.5 2021 441.5 2022.82 441.5 2024.63 441.5 2026.7 441.5 2028.62 441.5 2030.53 441.5 2032.37 441.5 2034.3 441.5 2036.23 441.5 2038.36 441.5 2040.22 441.5 2042.07 441.5 2043.52 441.5 2045.44 441.5 2047.35 441.5 2049.73 441.5 2051.7 441.5 2053.67 441.5 2055.49 441.5 2057.27 441.5 2059.04 441.5 2060.61 441.5 2062.37 441.5 2064.13 441.5 2066.06 441.5 2067.82 441.5 2069.58 441.5 2070.84 441.5 2072.92 441.5 2075.01 441.5 2078.26 441.5 2080.35 441.5 2082.44 441.5 2083.71 441.5 2085.45 441.5 2087.19 441.5 2088.93 441.5 2090.79 441.5 2092.64 441.5 2094.71 441.5 2096.59 441.5 2098.46 441.5 2100.05 441.5 2102.04 441.5 2104.03 441.5 2106.46 441.5 2108.53 441.5 2110.6 441.5 2112.59 441.5 2114.45 441.5 2116.3 441.5 2117.89 441.5 2119.67 441.5 2121.45 441.5 2123.34 441.5 2125.12 441.5 2126.9 441.5 2128.25 441.5 2130.34 441.5 2132.43 441.5 2135.5 441.5 2137.65 441.5 2139.79 441.5 2141.26 441.5 2143.21 441.5 2145.17 441.5 2147.39 441.5 2149.36 441.5 2151.33 441.5 2153.19 441.5 2155.05 441.5 2156.9 441.5 2158.43 441.5 2160.5 441.5 2162.57 441.5 2165.35 441.5 2167.46 441.5 2169.56 441.5 2171.28 441.5 2173.14 441.5 2175 441.5 2176.7 441.5 2178.59 441.5 2180.49 441.5 2182.63 441.5 2184.51 441.5 2186.38 441.5 2187.72 441.5 2189.84 441.5 2191.97 441.5 2195.02 441.5 2197.27 441.5 2199.51 441.5 2201.17 441.5 2203.3 441.5 2205.42 441.5 2207.92 441.5 2210.02 441.5 2212.13 441.5 2214.06 441.5 2215.94 441.5 2217.81 441.5 2219.11 441.5 2221.28 441.5 2223.44 441.5 2226.73 441.5 2228.93 441.5 2231.13 441.5 2232.55 441.5 2234.5 441.5 2236.45 441.5 2238.67 441.5 2240.65 441.5 2242.62 441.5 2244.34 441.5 2246.33 441.5 2248.32 441.5 2250.29 441.5 2252.59 441.5 2254.89 441.5 2257.58 441.5 2260.13 441.5 2262.68 441.5 2265.31 441.5 2267.9 441.5 2270.49 441.5 2273.49 441.5 2275.67 441.5 2277.86 441.5 2278.73 441.5 2281.01 441.5 2283.29 441.5 2286.71 441.5 2289.36 441.5 2292.01 441.5 2294.16 441.5 2296.9 441.5 2299.65 441.5 2303.38 441.5 2305.83 441.5 2308.29 441.5 2309.47 441.5 2311.63 441.5 2313.8 441.5 2316.64 441.5 2318.82 441.5 2321.01 441.5 2322.71 441.5 2324.74 441.5 2326.77 441.5 2329.15 441.5 2331 441.5 2332.86 441.5 2334.21 441.5 2335.87 441.5 2337.54 441.5 2339.24 441.5 2340.98 441.5 2342.72 441.5 2344.24 441.5 2346.31 441.5 2348.38 441.5 2351.26 441.5 2353.39 441.5 2355.51 441.5 2357.27 441.5 2359.07 441.5 2360.87 441.5 2362.42 441.5 2364.17 441.5 2365.93 441.5 2367.87 441.5 2369.63 441.5 2371.38 441.5 2372.95 441.5 2374.73 441.5 2376.51 441.5 2378.09 441.5 2380.3 441.5 2382.5 441.5 2385.59 441.5 2387.95 441.5 2390.31 441.5 2392.4 441.5 2394.45 441.5 2396.5 441.5 2398.43 441.5 2400.25 441.5 2402.06 441.5 2403.65 441.5 2405.35 441.5 2407.05 441.5 2408.68 441.5 2410.45 441.5 2412.23 441.5 2414.26 441.5 2416.02 441.5 2417.78 441.5 2418.79 441.5 2421.01 441.5 2423.23 441.5 2427 441.5 2429.36 441.5 2431.72 441.5 2433.28 441.5 2435.16 441.5 2437.03 441.5 2438.74 441.5 2440.61 441.5 2442.49 441.5 2444.59 441.5 2446.41 441.5 2448.23 441.5 2449.77 441.5 2451.51 441.5 2453.25 441.5 2454.97 441.5 2456.85 441.5 2458.72 441.5 2460.91 441.5 2462.77 441.5 2464.62 441.5 2465.72 441.5 2467.99 441.5 2470.25 441.5 2473.96 441.5 2476.34 441.5 2478.71 441.5 2480.36 441.5 2482.25 441.5 2484.15 441.5 2485.75 441.5 2487.7 441.5 2489.66 441.5 2491.94 441.5 2493.97 441.5 2496 441.5 2497.93 441.5 2499.88 441.5 2501.83 441.5 2503.83 441.5 2505.68 441.5 2507.54 441.5 2509.18 441.5 2511.02 441.5 2512.85 441.5 2514.38 441.5 2516.7 441.5 2519.02 441.5 2522.52 441.5 2524.94 441.5 2527.35 441.5 2529.21 441.5 2531.2 441.5 2533.19 441.5 2534.95 441.5 2536.88 441.5 2538.82 441.5 2540.88 441.5 2542.8 441.5 2544.71 441.5 2546.47 441.5 2548.37 441.5 2550.26 441.5 2552.19 441.5 2554.17 441.5 2556.14 441.5 2558.17 441.5 2560.2 441.5 2562.23 441.5 2563.91 441.5 2566.34 441.5 2568.78 441.5 2572.36 441.5 2574.81 441.5 2577.27 441.5 2578.99 441.5 2581.07 441.5 2583.16 441.5 2585.35 441.5 2587.34 441.5 2589.33 441.5 2591.05 441.5 2593.02 441.5 2594.99 441.5 2597.24 441.5 2599.17 441.5 2601.1 441.5 2602.73 441.5 2604.62 441.5 2606.51 441.5 2608.56 441.5 2610.54 441.5 2612.51 441.5 2613.96 441.5 2616.45 441.5 2618.95 441.5 2623 441.5 2625.5 441.5 2627.99 441.5 2629.35 441.5 2631.41 441.5 2633.48 441.5 2635.76 441.5 2637.91 441.5 2640.06 441.5 2642.28 441.5 2644.29 441.5 2646.3 441.5 2648 441.5 2649.97 441.5 2651.94 441.5 2654.15 441.5 2656.12 441.5 2658.09 441.5 2659.83 441.5 2661.8 441.5 2663.77 441.5 2665.36 441.5 2667.95 441.5 2670.54 441.5 2674.72 441.5 2677.35 441.5 2679.97 441.5 2681.66 441.5 2683.73 441.5 2685.79 441.5 2687.71 441.5 2689.76 441.5 2691.81 441.5 2693.89 441.5 2696.02 441.5 2698.15 441.5 2700.43 441.5 2702.52 441.5 2704.6 441.5 2706.52 441.5 2708.55 441.5 2710.58 441.5 2712.72 441.5 2714.69 441.5 2716.67 441.5 2718.41 441.5 2720.38 441.5 2722.35 441.5 2723.92 441.5 2726.53 441.5 2729.14 441.5 2733.27 441.5 2736.04 441.5 2738.8 441.5 2740.85 441.5 2743.11 441.5 2745.37 441.5 2747.52 441.5 2749.61 441.5 2751.7 441.5 2753.55 441.5 2755.64 441.5 2757.73 441.5 2760.07 441.5 2762.13 441.5 2764.2 441.5 2765.88 441.5 2768.05 441.5 2770.21 441.5 2772.96 441.5 2775.12 441.5 2777.29 441.5 2778.91 441.5 2781.04 441.5 2783.17 441.5 2784.98 441.5 2787.88 441.5 2790.78 441.5 2795.64 441.5 2798.44 441.5 2801.24 441.5 2802.48 441.5 2804.7 441.5 2806.93 441.5 2809.5 441.5 2811.78 441.5 2814.06 441.5 2816.24 441.5 2818.39 441.5 2820.54 441.5 2822.51 441.5 2824.65 441.5 2826.8 441.5 2828.4 441.5 2831.26 441.5 2834.12 441.5 2838.75 441.5 2841.82 441.5 2844.89 441.5 2847 441.5 2849.71 441.5 2852.41 441.5 2855.47 441.5 2858.06 441.5 2860.65 441.5 2862.93 441.5 2865.25 441.5 2867.57 441.5 2869.08 441.5 2871.98 441.5 2874.88 441.5 2879.55 441.5 2882.65 441.5 2885.74 441.5 2888.2 441.5 2890.53 441.5 2892.87 441.5 2894.57 441.5 2896.68 441.5 2898.79 441.5 2900.32 441.5 2903.18 441.5 2906.04 441.5 2910.87 441.5 2913.85 441.5 2916.83 441.5 2918.7 441.5 2921.04 441.5 2923.38 441.5 2925.62 441.5 2927.88 441.5 2930.15 441.5 2932.43 441.5 2934.61 441.5 2936.8 441.5 2938.75 441.5 2940.99 441.5 2943.23 441.5 2945.8 441.5 2948.07 441.5 2950.33 441.5 2952.32 441.5 2954.56 441.5 2956.8 441.5 2959.14 441.5 2961.52 441.5 2963.9 441.5 2966.59 441.5 2968.83 441.5 2971.07 441.5 2972.04 441.5 2974.98 441.5 2977.91 441.5 2983.37 441.5 2986.46 441.5 2989.55 441.5 2991.27 441.5 2993.53 441.5 2995.79 441.5 2997.81 441.5 3000.03 441.5 3002.25 441.5 3004.65 441.5 3006.87 441.5 3009.1 441.5 3011.07 441.5 3013.37 441.5 3015.67 441.5 3018.22 441.5 3020.68 441.5 3023.13 441.5 3025.76 441.5 3028.1 441.5 3030.44 441.5 3031.66 441.5 3034.71 441.5 3037.76 441.5 3043.27 441.5 3046.42 441.5 3049.58 441.5 3051.32 441.5 3053.62 441.5 3055.92 441.5 3057.95 441.5 3060.23 441.5 3062.51 441.5 3064.94 441.5 3067.3 441.5 3069.66 441.5 3071.96 441.5 3074.38 441.5 3076.79 441.5 3079.06 441.5 3081.8 441.5 3084.55 441.5 3088.12 441.5 3090.85 441.5 3093.57 441.5 3095.82 441.5 3098.16 441.5 3100.5 441.5 3101.79 441.5 3104.88 441.5 3107.98 441.5 3113.5 441.5 3116.71 441.5 3119.92 441.5 3121.66 441.5 3124.14 441.5 3126.61 441.5 3129.11 441.5 3131.56 441.5 3134.02 441.5 3136.43 441.5 3138.87 441.5 3141.3 441.5 3143.8 441.5 3146.18 441.5 3148.55 441.5 3150.72 441.5 3153.14 441.5 3155.55 441.5 3158.2 441.5 3160.67 441.5 3163.15 441.5 3165.6 441.5 3167.98 441.5 3170.36 441.5 3172.52 441.5 3174.94 441.5 3177.36 441.5 3180.01 441.5 3182.48 441.5 3184.95 441.5 3187.39 441.5 3189.79 441.5 3192.18 441.5 3193.67 441.5 3196.86 441.5 3200.05 441.5 3205.66 441.5 3208.93 441.5 3212.19 441.5 3214.05 441.5 3216.47 441.5 3218.88 441.5 3220.97 441.5 3223.42 441.5 3225.88 441.5 3228.66 441.5 3231.2 441.5 3233.73 441.5 3236.2 441.5 3238.62 441.5 3241.04 441.5 3243.26 441.5 3245.69 441.5 3248.13 441.5 3250.66 441.5 3253.23 441.5 3255.8 441.5 3258.63 441.5 3261.12 441.5 3263.61 441.5 3265.78 441.5 3268.2 441.5 3270.61 441.5 3273.11 441.5 3275.62 441.5 3278.13 441.5 3280.01 441.5 3283.28 441.5 3286.54 441.5 3291.9 441.5 3295.22 441.5 3298.55 441.5 3300.62 441.5 3303.23 441.5 3305.83 441.5 3308.27 441.5 3310.88 441.5 3313.49 441.5 3316.37 441.5 3318.88 441.5 3321.4 441.5 3323.39 441.5 3325.96 441.5 3328.53 441.5 3331.66 441.5 3334.31 441.5 3336.96 441.5 3339.38 441.5 3341.85 441.5 3344.32 441.5 3346.66 441.5 3349.16 441.5 3351.65 441.5 3354.24 441.5 3356.81 441.5 3359.38 441.5 3361.99 441.5 3364.58 441.5 3367.17 441.5 3369.76 441.5 3372.35 441.5 3374.95 441.5 3377.59 441.5 3380.13 441.5 3382.66 441.5 3385.13 441.5 3387.55 441.5 3389.97 441.5 3391.3 441.5 3394.62 441.5 3397.95 441.5 3403.21 441.5 3407.5 441.5"
         stroke="#5B9BD5"
         stroke-width="6.875"
         stroke-linecap="round"
         stroke-linejoin="round"
         stroke-miterlimit="10"
         fill="none"
         id="path216" />
    </g>
    <g
       clip-path="url(#clip11)"
       id="g222">
      <path
         d="M1814.5 1500.92C1817.48 1500.92 1820.92 1500.92 1823.43 1500.92 1825.94 1500.92 1827.47 1500.92 1829.58 1500.92 1831.69 1500.92 1834.08 1500.92 1836.07 1500.92 1838.07 1500.92 1839.71 1500.92 1841.53 1500.92 1843.34 1500.92 1845.14 1500.92 1846.98 1500.92 1848.81 1500.92 1850.69 1500.92 1852.54 1500.92 1854.4 1500.92 1856.12 1500.92 1858.11 1500.92 1860.1 1500.92 1861.96 1500.92 1864.49 1500.92 1867.02 1500.92 1870.72 1500.92 1873.31 1500.92 1875.9 1500.92 1877.89 1500.92 1880.03 1500.92 1882.18 1500.92 1884.29 1500.92 1886.18 1500.92 1888.08 1500.92 1889.68 1500.92 1891.4 1500.92 1893.12 1500.92 1894.76 1500.92 1896.5 1500.92 1898.24 1500.92 1900.14 1500.92 1901.84 1500.92 1903.54 1500.92 1905.07 1500.92 1906.71 1500.92 1908.35 1500.92 1910 1500.92 1911.7 1500.92 1913.4 1500.92 1915.1 1500.92 1916.92 1500.92 1918.74 1500.92 1920.8 1500.92 1922.6 1500.92 1924.4 1500.92 1926 1500.92 1927.71 1500.92 1929.41 1500.92 1931.07 1500.92 1932.81 1500.92 1934.55 1500.92 1936.42 1500.92 1938.14 1500.92 1939.87 1500.92 1941.3 1500.92 1943.13 1500.92 1944.97 1500.92 1947.33 1500.92 1949.16 1500.92 1951 1500.92 1952.49 1500.92 1954.15 1500.92 1955.81 1500.92 1957.46 1500.92 1959.14 1500.92 1960.82 1500.92 1962.54 1500.92 1964.24 1500.92 1965.94 1500.92 1967.41 1500.92 1969.35 1500.92 1971.28 1500.92 1973.89 1500.92 1975.84 1500.92 1977.79 1500.92 1979.36 1500.92 1981.06 1500.92 1982.76 1500.92 1984.37 1500.92 1986.05 1500.92 1987.73 1500.92 1989.47 1500.92 1991.15 1500.92 1992.83 1500.92 1994.36 1500.92 1996.14 1500.92 1997.92 1500.92 1999.95 1500.92 2001.82 1500.92 2003.7 1500.92 2005.61 1500.92 2007.39 1500.92 2009.17 1500.92 2010.77 1500.92 2012.49 1500.92 2012.89 1500.92 2017.32 1503.5 2017.71 1500.92 2019.43 1489.78 2021 1445.22 2022.82 1434.08 2023.28 1431.22 2028.13 1434.08 2028.62 1434.08 2030.53 1434.08 2032.37 1434.08 2034.3 1434.08 2036.23 1434.08 2038.36 1434.08 2040.22 1434.08 2042.07 1434.08 2043.52 1434.08 2045.44 1434.08 2047.35 1434.08 2049.73 1434.08 2051.7 1434.08 2053.67 1434.08 2055.49 1434.08 2057.27 1434.08 2059.04 1434.08 2060.61 1434.08 2062.37 1434.08 2064.13 1434.08 2066.06 1434.08 2067.82 1434.08 2069.58 1434.08 2070.84 1434.08 2072.92 1434.08 2075.01 1434.08 2078.26 1434.08 2080.35 1434.08 2082.44 1434.08 2083.71 1434.08 2085.45 1434.08 2087.19 1434.08 2088.93 1434.08 2090.79 1434.08 2092.64 1434.08 2094.71 1434.08 2096.59 1434.08 2098.46 1434.08 2100.05 1434.08 2102.04 1434.08 2104.03 1434.08 2106.46 1434.08 2108.53 1434.08 2110.6 1434.08 2112.59 1434.08 2114.45 1434.08 2114.88 1434.08 2119.26 1436.66 2119.67 1434.08 2121.45 1422.94 2123.34 1378.38 2125.12 1367.24 2125.53 1364.66 2129.86 1367.24 2130.34 1367.24 2132.43 1367.24 2135.5 1367.24 2137.65 1367.24 2139.79 1367.24 2141.26 1367.24 2143.21 1367.24 2145.17 1367.24 2147.39 1367.24 2149.36 1367.24 2151.33 1367.24 2153.19 1367.24 2155.05 1367.24 2156.9 1367.24 2158.43 1367.24 2160.5 1367.24 2162.57 1367.24 2165.35 1367.24 2167.46 1367.24 2169.56 1367.24 2171.28 1367.24 2173.14 1367.24 2175 1367.24 2176.7 1367.24 2178.59 1367.24 2180.49 1367.24 2182.63 1367.24 2184.51 1367.24 2186.38 1367.24 2187.72 1367.24 2189.84 1367.24 2191.97 1367.24 2195.02 1367.24 2197.27 1367.24 2199.51 1367.24 2201.17 1367.24 2203.3 1367.24 2205.42 1367.24 2207.92 1367.24 2210.02 1367.24 2212.13 1367.24 2214.06 1367.24 2215.94 1367.24 2217.81 1367.24 2219.11 1367.24 2221.28 1367.24 2222 1367.24 2228.19 1370.99 2228.93 1367.24 2231.13 1356.1 2232.55 1311.54 2234.5 1300.4 2235.03 1297.37 2240.11 1300.4 2240.65 1300.4 2242.62 1300.4 2244.34 1300.4 2246.33 1300.4 2248.32 1300.4 2250.29 1300.4 2252.59 1300.4 2254.89 1300.4 2257.58 1300.4 2260.13 1300.4 2262.68 1300.4 2265.31 1300.4 2267.9 1300.4 2270.49 1300.4 2273.49 1300.4 2275.67 1300.4 2277.86 1300.4 2278.73 1300.4 2281.01 1300.4 2283.29 1300.4 2286.71 1300.4 2289.36 1300.4 2292.01 1300.4 2294.16 1300.4 2296.9 1300.4 2299.65 1300.4 2303.38 1300.4 2305.83 1300.4 2308.29 1300.4 2309.47 1300.4 2311.63 1300.4 2313.8 1300.4 2316.64 1300.4 2318.82 1300.4 2321.01 1300.4 2322.71 1300.4 2324.74 1300.4 2326.77 1300.4 2329.15 1300.4 2331 1300.4 2332.86 1300.4 2334.21 1300.4 2335.87 1300.4 2337.54 1300.4 2339.24 1300.4 2340.98 1300.4 2342.72 1300.4 2344.24 1300.4 2346.31 1300.4 2346.96 1300.4 2352.72 1303.87 2353.39 1300.4 2355.51 1289.25 2357.27 1244.69 2359.07 1233.55 2359.48 1231.03 2363.78 1233.55 2364.17 1233.55 2365.93 1233.55 2367.87 1233.55 2369.63 1233.55 2371.38 1233.55 2372.95 1233.55 2374.73 1233.55 2376.51 1233.55 2378.09 1233.55 2380.3 1233.55 2382.5 1233.55 2385.59 1233.55 2387.95 1233.55 2390.31 1233.55 2392.4 1233.55 2394.45 1233.55 2396.5 1233.55 2398.43 1233.55 2400.25 1233.55 2402.06 1233.55 2403.65 1233.55 2405.35 1233.55 2407.05 1233.55 2408.68 1233.55 2410.45 1233.55 2412.23 1233.55 2414.26 1233.55 2416.02 1233.55 2417.78 1233.55 2418.79 1233.55 2421.01 1233.55 2423.23 1233.55 2427 1233.55 2429.36 1233.55 2431.72 1233.55 2433.28 1233.55 2435.16 1233.55 2437.03 1233.55 2438.74 1233.55 2440.61 1233.55 2442.49 1233.55 2444.59 1233.55 2446.41 1233.55 2448.23 1233.55 2449.77 1233.55 2451.51 1233.55 2453.25 1233.55 2454.97 1233.55 2456.85 1233.55 2458.72 1233.55 2460.91 1233.55 2462.77 1233.55 2464.62 1233.55 2465.72 1233.55 2467.99 1233.55 2470.25 1233.55 2473.96 1233.55 2476.34 1233.55 2478.71 1233.55 2480.36 1233.55 2482.25 1233.55 2482.71 1233.55 2487.23 1236.24 2487.7 1233.55 2489.66 1222.41 2491.94 1177.85 2493.97 1166.71 2494.5 1163.8 2499.37 1166.71 2499.88 1166.71 2501.83 1166.71 2503.83 1166.71 2505.68 1166.71 2507.54 1166.71 2509.18 1166.71 2511.02 1166.71 2512.85 1166.71 2514.38 1166.71 2516.7 1166.71 2519.02 1166.71 2522.52 1166.71 2524.94 1166.71 2527.35 1166.71 2529.21 1166.71 2531.2 1166.71 2533.19 1166.71 2534.95 1166.71 2536.88 1166.71 2538.82 1166.71 2540.88 1166.71 2542.8 1166.71 2544.71 1166.71 2546.47 1166.71 2548.37 1166.71 2550.26 1166.71 2552.19 1166.71 2554.17 1166.71 2556.14 1166.71 2558.17 1166.71 2560.2 1166.71 2562.23 1166.71 2563.91 1166.71 2566.34 1166.71 2568.78 1166.71 2572.36 1166.71 2574.81 1166.71 2577.27 1166.71 2578.99 1166.71 2581.07 1166.71 2583.16 1166.71 2585.35 1166.71 2587.34 1166.71 2589.33 1166.71 2591.05 1166.71 2593.02 1166.71 2594.99 1166.71 2597.24 1166.71 2599.17 1166.71 2601.1 1166.71 2602.73 1166.71 2604.62 1166.71 2606.51 1166.71 2608.56 1166.71 2610.54 1166.71 2612.51 1166.71 2613.96 1166.71 2616.45 1166.71 2618.95 1166.71 2623 1166.71 2625.5 1166.71 2627.99 1166.71 2629.35 1166.71 2631.41 1166.71 2633.48 1166.71 2635.76 1166.71 2637.91 1166.71 2640.06 1166.71 2642.28 1166.71 2644.29 1166.71 2646.3 1166.71 2648 1166.71 2649.97 1166.71 2651.94 1166.71 2654.15 1166.71 2656.12 1166.71 2658.09 1166.71 2659.83 1166.71 2661.8 1166.71 2663.77 1166.71 2665.36 1166.71 2667.95 1166.71 2670.54 1166.71 2674.72 1166.71 2677.35 1166.71 2679.97 1166.71 2681.66 1166.71 2683.73 1166.71 2685.79 1166.71 2687.71 1166.71 2689.76 1166.71 2691.81 1166.71 2693.89 1166.71 2696.02 1166.71 2698.15 1166.71 2700.43 1166.71 2702.52 1166.71 2704.6 1166.71 2706.52 1166.71 2708.55 1166.71 2710.58 1166.71 2712.72 1166.71 2714.69 1166.71 2716.67 1166.71 2718.41 1166.71 2720.38 1166.71 2722.35 1166.71 2723.92 1166.71 2726.53 1166.71 2729.14 1166.71 2733.27 1166.71 2736.04 1166.71 2738.8 1166.71 2740.85 1166.71 2743.11 1166.71 2745.37 1166.71 2747.52 1166.71 2749.61 1166.71 2751.7 1166.71 2753.55 1166.71 2755.64 1166.71 2757.73 1166.71 2760.07 1166.71 2762.13 1166.71 2764.2 1166.71 2765.88 1166.71 2768.05 1166.71 2770.21 1166.71 2772.96 1166.71 2775.12 1166.71 2777.29 1166.71 2778.91 1166.71 2781.04 1166.71 2783.17 1166.71 2784.98 1166.71 2787.88 1166.71 2790.78 1166.71 2795.64 1166.71 2798.44 1166.71 2801.24 1166.71 2802.48 1166.71 2804.7 1166.71 2806.93 1166.71 2809.5 1166.71 2811.78 1166.71 2814.06 1166.71 2816.24 1166.71 2818.39 1166.71 2820.54 1166.71 2822.51 1166.71 2824.65 1166.71 2826.8 1166.71 2828.4 1166.71 2831.26 1166.71 2834.12 1166.71 2838.75 1166.71 2841.82 1166.71 2844.89 1166.71 2847 1166.71 2849.71 1166.71 2852.41 1166.71 2855.47 1166.71 2858.06 1166.71 2860.65 1166.71 2862.93 1166.71 2865.25 1166.71 2867.57 1166.71 2869.08 1166.71 2871.98 1166.71 2874.88 1166.71 2879.55 1166.71 2882.65 1166.71 2885.74 1166.71 2888.2 1166.71 2890.53 1166.71 2892.87 1166.71 2894.57 1166.71 2896.68 1166.71 2897.28 1166.71 2902.37 1169.85 2903.18 1166.71 2906.04 1155.57 2910.87 1111.01 2913.85 1099.87 2914.78 1096.4 2920.31 1099.87 2921.04 1099.87 2923.38 1099.87 2925.62 1099.87 2927.88 1099.87 2930.15 1099.87 2932.43 1099.87 2934.61 1099.87 2936.8 1099.87 2938.75 1099.87 2940.99 1099.87 2943.23 1099.87 2945.8 1099.87 2948.07 1099.87 2950.33 1099.87 2952.32 1099.87 2954.56 1099.87 2956.8 1099.87 2959.14 1099.87 2961.52 1099.87 2963.9 1099.87 2966.59 1099.87 2968.83 1099.87 2971.07 1099.87 2972.04 1099.87 2974.98 1099.87 2977.91 1099.87 2983.37 1099.87 2986.46 1099.87 2989.55 1099.87 2991.27 1099.87 2993.53 1099.87 2995.79 1099.87 2997.81 1099.87 3000.03 1099.87 3002.25 1099.87 3004.65 1099.87 3006.87 1099.87 3009.1 1099.87 3011.07 1099.87 3013.37 1099.87 3015.67 1099.87 3018.22 1099.87 3020.68 1099.87 3023.13 1099.87 3025.76 1099.87 3028.1 1099.87 3028.77 1099.87 3033.84 1103.05 3034.71 1099.87 3037.76 1088.73 3043.27 1044.17 3046.42 1033.02 3047.4 1029.57 3052.9 1033.02 3053.62 1033.02 3055.92 1033.02 3057.95 1033.02 3060.23 1033.02 3062.51 1033.02 3064.94 1033.02 3067.3 1033.02 3069.66 1033.02 3071.96 1033.02 3074.38 1033.02 3076.79 1033.02 3079.06 1033.02 3081.8 1033.02 3084.55 1033.02 3088.12 1033.02 3090.85 1033.02 3093.57 1033.02 3095.82 1033.02 3098.16 1033.02 3100.5 1033.02 3101.79 1033.02 3104.88 1033.02 3107.98 1033.02 3113.5 1033.02 3116.71 1033.02 3119.92 1033.02 3121.66 1033.02 3124.14 1033.02 3126.61 1033.02 3129.11 1033.02 3131.56 1033.02 3134.02 1033.02 3136.43 1033.02 3138.87 1033.02 3141.3 1033.02 3143.8 1033.02 3146.18 1033.02 3148.55 1033.02 3150.72 1033.02 3153.14 1033.02 3155.55 1033.02 3158.2 1033.02 3160.67 1033.02 3161.47 1033.02 3167.22 1036.6 3167.98 1033.02 3170.36 1021.88 3172.52 977.322 3174.94 966.182 3175.74 962.5 3181.66 966.182 3182.48 966.182 3184.95 966.182 3187.39 966.182 3189.79 966.182 3192.18 966.182 3193.67 966.182 3196.86 966.182 3200.05 966.182 3205.66 966.182 3208.93 966.182 3212.19 966.182 3214.05 966.182 3216.47 966.182 3218.88 966.182 3220.97 966.182 3223.42 966.182 3225.88 966.182 3228.66 966.182 3231.2 966.182 3233.73 966.182 3236.2 966.182 3238.62 966.182 3241.04 966.182 3243.26 966.182 3245.69 966.182 3248.13 966.182 3250.66 966.182 3253.23 966.182 3255.8 966.182 3258.63 966.182 3261.12 966.182 3263.61 966.182 3265.78 966.182 3268.2 966.182 3270.61 966.182 3273.11 966.182 3275.62 966.182 3278.13 966.182 3280.01 966.182 3283.28 966.182 3286.54 966.182 3291.9 966.182 3295.22 966.182 3298.55 966.182 3300.62 966.182 3303.23 966.182 3305.83 966.182 3308.27 966.182 3310.88 966.182 3313.49 966.182 3316.37 966.182 3318.88 966.182 3321.4 966.182 3323.39 966.182 3325.96 966.182 3328.53 966.182 3331.66 966.182 3334.31 966.182 3336.96 966.182 3339.38 966.182 3341.85 966.182 3344.32 966.182 3346.66 966.182 3349.16 966.182 3351.65 966.182 3354.24 966.182 3356.81 966.182 3359.38 966.182 3361.99 966.182 3364.58 966.182 3367.17 966.182 3369.76 966.182 3372.35 966.182 3374.95 966.182 3377.59 966.182 3380.13 966.182 3382.66 966.182 3385.13 966.182 3387.55 966.182 3389.97 966.182 3391.3 966.182 3394.62 966.182 3397.95 966.182 3403.21 966.182 3407.5 966.182"
         stroke="#FFC000"
         stroke-width="6.875"
         stroke-linecap="round"
         stroke-linejoin="round"
         stroke-miterlimit="10"
         fill="none"
         id="path220" />
    </g>
    <g
       clip-path="url(#clip12)"
       id="g226">
      <text
         fill="#595959"
         font-family="Calibri,Calibri_MSFontService,sans-serif"
         font-weight="400"
         font-size="41"
         transform="matrix(1 0 0 1 3243.97 1513)"
         id="text224">0</text>
    </g>
    <g
       clip-path="url(#clip13)"
       id="g230">
      <text
         fill="#595959"
         font-family="Calibri,Calibri_MSFontService,sans-serif"
         font-weight="400"
         font-size="41"
         transform="matrix(1 0 0 1 3243.97 1379)"
         id="text228">2</text>
    </g>
    <g
       clip-path="url(#clip14)"
       id="g234">
      <text
         fill="#595959"
         font-family="Calibri,Calibri_MSFontService,sans-serif"
         font-weight="400"
         font-size="41"
         transform="matrix(1 0 0 1 3243.97 1245)"
         id="text232">4</text>
    </g>
    <g
       clip-path="url(#clip15)"
       id="g238">
      <text
         fill="#595959"
         font-family="Calibri,Calibri_MSFontService,sans-serif"
         font-weight="400"
         font-size="41"
         transform="matrix(1 0 0 1 3243.97 1111)"
         id="text236">6</text>
    </g>
    <g
       clip-path="url(#clip16)"
       id="g242">
      <text
         fill="#595959"
         font-family="Calibri,Calibri_MSFontService,sans-serif"
         font-weight="400"
         font-size="41"
         transform="matrix(1 0 0 1 3243.97 978)"
         id="text240">8</text>
    </g>
    <g
       clip-path="url(#clip17)"
       id="g246">
      <text
         fill="#595959"
         font-family="Calibri,Calibri_MSFontService,sans-serif"
         font-weight="400"
         font-size="41"
         transform="matrix(1 0 0 1 3243.97 844)"
         id="text244">10</text>
    </g>
    <g
       clip-path="url(#clip18)"
       id="g250">
      <text
         fill="#595959"
         font-family="Calibri,Calibri_MSFontService,sans-serif"
         font-weight="400"
         font-size="41"
         transform="matrix(1 0 0 1 3243.97 710)"
         id="text248">12</text>
    </g>
    <g
       clip-path="url(#clip19)"
       id="g254">
      <text
         fill="#595959"
         font-family="Calibri,Calibri_MSFontService,sans-serif"
         font-weight="400"
         font-size="41"
         transform="matrix(1 0 0 1 3243.97 576)"
         id="text252">14</text>
    </g>
    <g
       clip-path="url(#clip20)"
       id="g258">
      <text
         fill="#595959"
         font-family="Calibri,Calibri_MSFontService,sans-serif"
         font-weight="400"
         font-size="41"
         transform="matrix(1 0 0 1 3243.97 442)"
         id="text256">16</text>
    </g>
    <g
       clip-path="url(#clip21)"
       id="g262">
      <text
         fill="#595959"
         font-family="Calibri,Calibri_MSFontService,sans-serif"
         font-weight="400"
         font-size="41"
         transform="matrix(1 0 0 1 3243.97 309)"
         id="text260">18</text>
    </g>
    <g
       clip-path="url(#clip22)"
       id="g266">
      <text
         fill="#595959"
         font-family="Calibri,Calibri_MSFontService,sans-serif"
         font-weight="400"
         font-size="41"
         transform="matrix(1 0 0 1 3243.97 175)"
         id="text264">20</text>
    </g>
    <g
       clip-path="url(#clip23)"
       id="g270">
      <text
         fill="#595959"
         font-family="Calibri,Calibri_MSFontService,sans-serif"
         font-weight="400"
         font-size="41"
         transform="matrix(1 0 0 1 1699.98 1513)"
         id="text268">-160</text>
    </g>
    <g
       clip-path="url(#clip24)"
       id="g274">
      <text
         fill="#595959"
         font-family="Calibri,Calibri_MSFontService,sans-serif"
         font-weight="400"
         font-size="41"
         transform="matrix(1 0 0 1 1699.98 1401)"
         id="text272">-140</text>
    </g>
    <g
       clip-path="url(#clip25)"
       id="g278">
      <text
         fill="#595959"
         font-family="Calibri,Calibri_MSFontService,sans-serif"
         font-weight="400"
         font-size="41"
         transform="matrix(1 0 0 1 1699.98 1290)"
         id="text276">-120</text>
    </g>
    <g
       clip-path="url(#clip26)"
       id="g282">
      <text
         fill="#595959"
         font-family="Calibri,Calibri_MSFontService,sans-serif"
         font-weight="400"
         font-size="41"
         transform="matrix(1 0 0 1 1699.98 1178)"
         id="text280">-100</text>
    </g>
    <g
       clip-path="url(#clip27)"
       id="g286">
      <text
         fill="#595959"
         font-family="Calibri,Calibri_MSFontService,sans-serif"
         font-weight="400"
         font-size="41"
         transform="matrix(1 0 0 1 1720.88 1067)"
         id="text284">-80</text>
    </g>
    <g
       clip-path="url(#clip28)"
       id="g290">
      <text
         fill="#595959"
         font-family="Calibri,Calibri_MSFontService,sans-serif"
         font-weight="400"
         font-size="41"
         transform="matrix(1 0 0 1 1720.88 955)"
         id="text288">-60</text>
    </g>
    <g
       clip-path="url(#clip29)"
       id="g294">
      <text
         fill="#595959"
         font-family="Calibri,Calibri_MSFontService,sans-serif"
         font-weight="400"
         font-size="41"
         transform="matrix(1 0 0 1 1720.88 844)"
         id="text292">-40</text>
    </g>
    <g
       clip-path="url(#clip30)"
       id="g298">
      <text
         fill="#595959"
         font-family="Calibri,Calibri_MSFontService,sans-serif"
         font-weight="400"
         font-size="41"
         transform="matrix(1 0 0 1 1720.88 732)"
         id="text296">-20</text>
    </g>
    <g
       clip-path="url(#clip31)"
       id="g302">
      <text
         fill="#595959"
         font-family="Calibri,Calibri_MSFontService,sans-serif"
         font-weight="400"
         font-size="41"
         transform="matrix(1 0 0 1 1754.41 621)"
         id="text300">0</text>
    </g>
    <g
       clip-path="url(#clip32)"
       id="g306">
      <text
         fill="#595959"
         font-family="Calibri,Calibri_MSFontService,sans-serif"
         font-weight="400"
         font-size="41"
         transform="matrix(1 0 0 1 1733.51 509)"
         id="text304">20</text>
    </g>
    <g
       clip-path="url(#clip33)"
       id="g310">
      <text
         fill="#595959"
         font-family="Calibri,Calibri_MSFontService,sans-serif"
         font-weight="400"
         font-size="41"
         transform="matrix(1 0 0 1 1733.51 398)"
         id="text308">40</text>
    </g>
    <g
       clip-path="url(#clip34)"
       id="g314">
      <text
         fill="#595959"
         font-family="Calibri,Calibri_MSFontService,sans-serif"
         font-weight="400"
         font-size="41"
         transform="matrix(1 0 0 1 1733.51 286)"
         id="text312">60</text>
    </g>
    <g
       clip-path="url(#clip35)"
       id="g318">
      <text
         fill="#595959"
         font-family="Calibri,Calibri_MSFontService,sans-serif"
         font-weight="400"
         font-size="41"
         transform="matrix(1 0 0 1 1733.51 175)"
         id="text316">80</text>
    </g>
    <g
       clip-path="url(#clip36)"
       id="g322">
      <text
         fill="#595959"
         font-family="Calibri,Calibri_MSFontService,sans-serif"
         font-weight="400"
         font-size="41"
         transform="matrix(1 0 0 1 1803.13 1566)"
         id="text320">0</text>
    </g>
    <g
       clip-path="url(#clip37)"
       id="g326">
      <text
         fill="#595959"
         font-family="Calibri,Calibri_MSFontService,sans-serif"
         font-weight="400"
         font-size="41"
         transform="matrix(1 0 0 1 2035.15 1566)"
         id="text324">2</text>
    </g>
    <g
       clip-path="url(#clip38)"
       id="g330">
      <text
         fill="#595959"
         font-family="Calibri,Calibri_MSFontService,sans-serif"
         font-weight="400"
         font-size="41"
         transform="matrix(1 0 0 1 2267.17 1566)"
         id="text328">4</text>
    </g>
    <g
       clip-path="url(#clip39)"
       id="g334">
      <text
         fill="#595959"
         font-family="Calibri,Calibri_MSFontService,sans-serif"
         font-weight="400"
         font-size="41"
         transform="matrix(1 0 0 1 2499.19 1566)"
         id="text332">6</text>
    </g>
    <g
       clip-path="url(#clip40)"
       id="g338">
      <text
         fill="#595959"
         font-family="Calibri,Calibri_MSFontService,sans-serif"
         font-weight="400"
         font-size="41"
         transform="matrix(1 0 0 1 2731.21 1566)"
         id="text336">8</text>
    </g>
    <g
       clip-path="url(#clip41)"
       id="g342">
      <text
         fill="#595959"
         font-family="Calibri,Calibri_MSFontService,sans-serif"
         font-weight="400"
         font-size="41"
         transform="matrix(1 0 0 1 2952.78 1566)"
         id="text340">10</text>
    </g>
    <g
       clip-path="url(#clip42)"
       id="g346">
      <text
         fill="#595959"
         font-family="Calibri,Calibri_MSFontService,sans-serif"
         font-weight="400"
         font-size="41"
         transform="matrix(1 0 0 1 3184.8 1566)"
         id="text344">12</text>
    </g>
    <g
       clip-path="url(#clip43)"
       id="g350">
      <text
         fill="#595959"
         font-family="Calibri,Calibri_MSFontService,sans-serif"
         font-weight="400"
         font-size="46"
         transform="matrix(6.12323e-17 -1 1 6.12323e-17 3343.52 993)"
         id="text348">Number of chops</text>
    </g>
    <g
       clip-path="url(#clip44)"
       id="g354">
      <text
         fill="#595959"
         font-family="Calibri,Calibri_MSFontService,sans-serif"
         font-weight="400"
         font-size="46"
         transform="matrix(6.12323e-17 -1 1 6.12323e-17 1674.29 1012)"
         id="text352">Acceleration (m/s</text>
    </g>
    <g
       clip-path="url(#clip45)"
       id="g358">
      <text
         fill="#595959"
         font-family="Calibri,Calibri_MSFontService,sans-serif"
         font-weight="400"
         font-size="31"
         transform="matrix(6.12323e-17 -1 1 6.12323e-17 1660.29 682)"
         id="text356">2</text>
    </g>
    <g
       clip-path="url(#clip46)"
       id="g362">
      <text
         fill="#595959"
         font-family="Calibri,Calibri_MSFontService,sans-serif"
         font-weight="400"
         font-size="46"
         transform="matrix(6.12323e-17 -1 1 6.12323e-17 1674.29 666)"
         id="text360">)</text>
    </g>
    <g
       clip-path="url(#clip47)"
       id="g366">
      <text
         fill="#595959"
         font-family="Calibri,Calibri_MSFontService,sans-serif"
         font-weight="400"
         font-size="46"
         transform="matrix(1 0 0 1 2369.24 1635)"
         id="text364">Time (seconds)</text>
    </g>
    <g
       clip-path="url(#clip48)"
       id="g370">
      <path
         d="M1873.5 1743.5 1989.5 1743.5"
         stroke="#4472C4"
         stroke-width="6.875"
         stroke-linecap="round"
         stroke-linejoin="round"
         stroke-miterlimit="10"
         fill="none"
         fill-rule="evenodd"
         id="path368" />
    </g>
    <g
       clip-path="url(#clip49)"
       id="g374">
      <text
         fill="#595959"
         font-family="Calibri,Calibri_MSFontService,sans-serif"
         font-weight="400"
         font-size="41"
         transform="matrix(1 0 0 1 2001.99 1755)"
         id="text372">x</text>
    </g>
    <g
       clip-path="url(#clip50)"
       id="g378">
      <path
         d="M2073.5 1743.5 2188.5 1743.5"
         stroke="#F4B183"
         stroke-width="6.875"
         stroke-linecap="round"
         stroke-linejoin="round"
         stroke-miterlimit="10"
         stroke-dasharray="13.75 13.75"
         fill="none"
         fill-rule="evenodd"
         id="path376" />
    </g>
    <g
       clip-path="url(#clip51)"
       id="g382">
      <text
         fill="#595959"
         font-family="Calibri,Calibri_MSFontService,sans-serif"
         font-weight="400"
         font-size="41"
         transform="matrix(1 0 0 1 2201.7 1755)"
         id="text380">y</text>
    </g>
    <g
       clip-path="url(#clip52)"
       id="g386">
      <path
         d="M2274.5 1743.5 2389.5 1743.5"
         stroke="#A9D18E"
         stroke-width="6.875"
         stroke-linecap="round"
         stroke-linejoin="round"
         stroke-miterlimit="10"
         stroke-dasharray="13.75 13.75"
         fill="none"
         fill-rule="evenodd"
         id="path384" />
    </g>
    <g
       clip-path="url(#clip53)"
       id="g390">
      <text
         fill="#595959"
         font-family="Calibri,Calibri_MSFontService,sans-serif"
         font-weight="400"
         font-size="41"
         transform="matrix(1 0 0 1 2402.23 1755)"
         id="text388">z</text>
    </g>
    <g
       clip-path="url(#clip54)"
       id="g394">
      <path
         d="M2472.5 1743.5 2587.5 1743.5"
         stroke="#5B9BD5"
         stroke-width="6.875"
         stroke-linecap="round"
         stroke-linejoin="round"
         stroke-miterlimit="10"
         fill="none"
         fill-rule="evenodd"
         id="path392" />
    </g>
    <g
       clip-path="url(#clip55)"
       id="g398">
      <text
         fill="#595959"
         font-family="Calibri,Calibri_MSFontService,sans-serif"
         font-weight="400"
         font-size="41"
         transform="matrix(1 0 0 1 2600.36 1755)"
         id="text396">threshold</text>
    </g>
    <g
       clip-path="url(#clip56)"
       id="g402">
      <path
         d="M2815.5 1743.5 2930.5 1743.5"
         stroke="#FFC000"
         stroke-width="6.875"
         stroke-linecap="round"
         stroke-linejoin="round"
         stroke-miterlimit="10"
         fill="none"
         fill-rule="evenodd"
         id="path400" />
    </g>
    <g
       clip-path="url(#clip57)"
       id="g406">
      <text
         fill="#595959"
         font-family="Calibri,Calibri_MSFontService,sans-serif"
         font-weight="400"
         font-size="41"
         transform="matrix(1 0 0 1 2943.34 1755)"
         id="text404">chop count</text>
    </g>
    <rect
       x="1573.5"
       y="113.5"
       width="1840"
       height="1696"
       stroke="#D9D9D9"
       stroke-width="3.4375"
       stroke-linejoin="round"
       stroke-miterlimit="10"
       fill="none"
       id="rect408" />
  </g>
  <rect
     style="fill:#ffffff;stroke:#000000;stroke-width:8.56063;stroke-linecap:round;fill-opacity:0.19028339"
     id="rect1241"
     width="289.48782"
     height="897.41223"
     x="981.36371"
     y="260.53903" />
  <path
     style="fill:none;stroke:#000000;stroke-width:5.7;stroke-linecap:butt;stroke-linejoin:miter;stroke-opacity:1;stroke-miterlimit:4;stroke-dasharray:none;marker-end:url(#Arrow1Lend)"
     d="M 697.66563,1088.4742 961.09954,903.20197"
     id="path1243" />
  <rect
     style="fill:#ffffff;fill-opacity:1;stroke:#000000;stroke-width:6.78354;stroke-linecap:round;stroke-miterlimit:4;stroke-dasharray:none"
     id="rect1649"
     width="407.0943"
     height="250.77086"
     x="313.18863"
     y="950.06177" />
  <text
     xml:space="preserve"
     id="text1643"
     style="font-size:32px;line-height:1.25;font-family:sans-serif;white-space:pre;shape-inside:url(#rect1645);fill:#000000;fill-opacity:1;"><tspan
       x="330.01562"
       y="984.50512"><tspan
         style="fill:#000000;fill-opacity:1">For these two chops, I </tspan></tspan><tspan
       x="330.01562"
       y="1024.5051"><tspan
         style="fill:#000000;fill-opacity:1">accidentally twisted the </tspan></tspan><tspan
       x="330.01562"
       y="1064.5051"><tspan
         style="fill:#000000;fill-opacity:1">device, which caused a </tspan></tspan><tspan
       x="330.01562"
       y="1104.5051"><tspan
         style="fill:#000000;fill-opacity:1">false negative as the </tspan></tspan><tspan
       x="330.01562"
       y="1144.5051"><tspan
         style="fill:#000000;fill-opacity:1">acceleration was in the </tspan></tspan><tspan
       x="330.01562"
       y="1184.5051"><tspan
         style="fill:#000000;fill-opacity:1">wrong axis</tspan></tspan></text>
  <text
     xml:space="preserve"
     style="font-size:32px;line-height:1.25;font-family:sans-serif"
     x="170.79781"
     y="1916.4093"
     id="text1896"><tspan
       sodipodi:role="line"
       id="tspan1894"
       x="170.79781"
       y="1916.4093" /></text>
</svg>
