<?xml version="1.0" encoding="UTF-8" standalone="no"?>
<svg
   xmlns:dc="http://purl.org/dc/elements/1.1/"
   xmlns:cc="http://creativecommons.org/ns#"
   xmlns:rdf="http://www.w3.org/1999/02/22-rdf-syntax-ns#"
   xmlns:svg="http://www.w3.org/2000/svg"
   xmlns="http://www.w3.org/2000/svg"
   width="3359"
   height="2194"
   overflow="hidden"
   version="1.1"
   id="svg4493">
  <metadata
     id="metadata4497">
    <rdf:RDF>
      <cc:Work
         rdf:about="">
        <dc:format>image/svg+xml</dc:format>
        <dc:type
           rdf:resource="http://purl.org/dc/dcmitype/StillImage" />
        <dc:title></dc:title>
      </cc:Work>
    </rdf:RDF>
  </metadata>
  <defs
     id="defs4417">
    <clipPath
       id="clip0">
      <rect
         x="-1"
         y="-1"
         width="3359"
         height="2194"
         id="rect4363" />
    </clipPath>
    <clipPath
       id="clip1">
      <rect
         x="0"
         y="0"
         width="3355"
         height="2190"
         id="rect4366" />
    </clipPath>
    <clipPath
       id="clip2">
      <rect
         x="0"
         y="0"
         width="3355"
         height="2190"
         id="rect4369" />
    </clipPath>
    <clipPath
       id="clip3">
      <rect
         x="121"
         y="50"
         width="3116"
         height="2037"
         id="rect4372" />
    </clipPath>
    <clipPath
       id="clip4">
      <rect
         x="0"
         y="0"
         width="3355"
         height="2190"
         id="rect4375" />
    </clipPath>
    <clipPath
       id="clip5">
      <rect
         x="0"
         y="0"
         width="3355"
         height="2190"
         id="rect4378" />
    </clipPath>
    <clipPath
       id="clip6">
      <rect
         x="0"
         y="0"
         width="3355"
         height="2190"
         id="rect4381" />
    </clipPath>
    <clipPath
       id="clip7">
      <rect
         x="0"
         y="0"
         width="3355"
         height="2190"
         id="rect4384" />
    </clipPath>
    <clipPath
       id="clip8">
      <rect
         x="0"
         y="0"
         width="3355"
         height="2190"
         id="rect4387" />
    </clipPath>
    <clipPath
       id="clip9">
      <rect
         x="0"
         y="0"
         width="3355"
         height="2190"
         id="rect4390" />
    </clipPath>
    <clipPath
       id="clip10">
      <rect
         x="0"
         y="0"
         width="3355"
         height="2190"
         id="rect4393" />
    </clipPath>
    <clipPath
       id="clip11">
      <rect
         x="0"
         y="0"
         width="3355"
         height="2190"
         id="rect4396" />
    </clipPath>
    <clipPath
       id="clip12">
      <rect
         x="0"
         y="0"
         width="3355"
         height="2190"
         id="rect4399" />
    </clipPath>
    <clipPath
       id="clip13">
      <rect
         x="0"
         y="0"
         width="3355"
         height="2190"
         id="rect4402" />
    </clipPath>
    <clipPath
       id="clip14">
      <rect
         x="0"
         y="0"
         width="3355"
         height="2190"
         id="rect4405" />
    </clipPath>
    <clipPath
       id="clip15">
      <rect
         x="0"
         y="0"
         width="3355"
         height="2190"
         id="rect4408" />
    </clipPath>
    <clipPath
       id="clip16">
      <rect
         x="0"
         y="0"
         width="3355"
         height="2190"
         id="rect4411" />
    </clipPath>
    <clipPath
       id="clip17">
      <rect
         x="0"
         y="0"
         width="3355"
         height="2190"
         id="rect4414" />
    </clipPath>
  </defs>
  <g
     clip-path="url(#clip0)"
     transform="translate(1 1)"
     id="g4491">
    <rect
       x="0"
       y="0"
       width="3356"
       height="2191"
       fill="#FFFFFF"
       id="rect4419" />
    <g
       clip-path="url(#clip1)"
       id="g4423">
      <path
         d="M121.5 1880.56 3233.5 1880.56M121.5 1677.56 3233.5 1677.56M121.5 1474.55 3233.5 1474.55M121.5 1270.54 3233.5 1270.54M121.5 1067.54 3233.5 1067.54M121.5 863.529 3233.5 863.529M121.5 660.522 3233.5 660.522M121.5 457.515 3233.5 457.515M121.5 253.508 3233.5 253.508M121.5 50.5 3233.5 50.5"
         stroke="#D9D9D9"
         stroke-width="3.4375"
         stroke-linejoin="round"
         stroke-miterlimit="10"
         fill="none"
         id="path4421" />
    </g>
    <g
       clip-path="url(#clip2)"
       id="g4427">
      <path
         d="M121.5 2084.5 3233.5 2084.5"
         stroke="#D9D9D9"
         stroke-width="3.4375"
         stroke-linejoin="round"
         stroke-miterlimit="10"
         fill="none"
         fill-rule="evenodd"
         id="path4425" />
    </g>
    <g
       clip-path="url(#clip3)"
       id="g4431">
      <path
         d="M124 443.015 128.004 491.016 133.004 477.016 137.005 437.014 141.005 511.017 146.005 433.014 150.005 442.015 154.005 462.015 159.005 457.015 163.005 433.014 167.005 439.014 171.006 478.016 176.006 430.014 180.006 450.015 184.006 427.014 189.006 464.015 193.006 470.015 197.006 443.015 202.007 420.014 206.007 445.015 210.007 408.013 215.007 466.015 219.007 412.014 223.007 427.014 228.007 505.017 232.008 505.017 236.008 495.016 241.008 455.015 245.008 471.015 249.008 419.014 253.008 415.014 258.008 453.015 262.009 435.014 266.009 425.014 271.009 459.015 275.009 435.014 279.009 454.015 284.009 494.016 288.009 416.014 292.01 693.023 297.01 417.014 301.01 409.013 305.01 400.013 310.01 437.014 314.01 451.015 318.01 418.014 323.011 457.015 327.011 484.016 331.011 401.013 336.011 435.014 340.011 480.016 344.011 442.015 348.011 490.016 353.012 433.014 357.012 410.013 361.012 491.016 366.012 440.014 370.012 413.014 374.012 462.015 379.012 408.013 383.013 449.015 387.013 471.015 392.013 438.014 396.013 395.013 400.013 427.014 405.013 412.014 409.013 394.013 413.014 482.016 418.014 467.015 422.014 465.015 426.014 441.014 430.014 425.014 435.014 450.015 439.014 450.015 443.015 429.014 448.015 476.016 452.015 404.013 456.015 475.016 461.015 450.015 465.015 472.016 469.015 441.014 474.016 404.013 478.016 412.014 482.016 417.014 487.016 478.016 491.016 476.016 495.016 481.016 500.016 426.014 504.017 450.015 508.017 434.014 512.017 427.014 517.017 440.014 521.017 450.015 525.017 435.014 530.017 450.015 534.018 403.013 538.018 438.014 543.018 482.016 547.018 397.013 551.018 433.014 556.018 408.013 560.018 459.015 564.018 439.014 569.019 460.015 573.019 396.013 577.019 457.015 582.019 421.014 586.019 423.014 590.019 440.014 594.019 474.016 599.02 405.013 603.02 450.015 607.02 391.013 612.02 410.013 616.02 424.014 620.02 425.014 625.021 411.013 629.021 453.015 633.021 763 638.021 686.023 642.021 702.023 646.021 675.022 651.021 417.014 655.021 684.022 659.022 395.013 664.022 419.014 668.022 416.014 672.022 391.013 676.022 448.015 681.022 387.013 685.023 430.014 689.023 428.014 694.023 380.012 698.023 438.014 702.023 395.013 707.023 392.013 711.023 414.014 715.023 425.014 720.024 428.014 724.024 390.013 728.024 475.016 733.024 421.014 737.024 452.015 741.024 381.013 746.024 468.015 750.025 432.014 754.025 411.013 758.025 386.013 763.025 399.013 767.025 388.013 771.025 440.014 776.025 475.016 780.026 454.015 784.026 432.014 789.026 398.013 793.026 386.013 797.026 461.015 802.026 411.013 806.026 426.014 810.027 411.013 815.027 379.012 819.027 443.015 823.027 379.012 828.027 381.013 832.027 409.013 836.027 471.015 840.028 458.015 845.028 472.016 849.028 392.013 853.028 449.015 858.028 388.013 862.028 424.014 866.028 471.015 871.029 422.014 875.029 420.014 879.029 441.014 884.029 438.014 888.029 436.014 892.029 410.013 897.029 450.015 901.03 422.014 905.03 432.014 910.03 380.012 914.03 371.012 918.03 420.014 922.03 438.014 927.03 444.015 931.031 449.015 935.031 419.014 940.031 443.015 944.031 385.013 948.031 429.014 953.031 435.014 957.031 444.015 961.032 376.012 966.032 462.015 970.032 425.014 974.032 452.015 979.032 408.013 983.032 404.013 987.032 395.013 992.033 407.013 996.033 414.014 1000.03 405.013 1004.03 374.012 1009.03 389.013 1013.03 455.015 1017.03 433.014 1022.03 389.013 1026.03 448.015 1030.03 391.013 1035.03 426.014 1039.03 463.015 1043.03 458.015 1048.03 376.012 1052.03 378.012 1056.03 366.012 1061.03 393.013 1065.03 413.014 1069.04 423.014 1074.04 456.015 1078.04 463.015 1082.04 416.014 1086.04 454.015 1091.04 460.015 1095.04 404.013 1099.04 369.012 1104.04 459.015 1108.04 397.013 1112.04 403.013 1117.04 435.014 1121.04 384.013 1125.04 422.014 1130.04 451.015 1134.04 371.012 1138.04 450.015 1143.04 378.012 1147.04 392.013 1151.04 368.012 1156.04 420.014 1160.04 399.013 1164.04 380.012 1168.04 381.013 1173.04 463.015 1177.04 410.013 1181.04 431.014 1186.04 407.013 1190.04 405.013 1194.04 415.014 1199.04 370.012 1203.04 426.014 1207.04 409.013 1212.04 426.014 1216.04 458.015 1220.04 365.012 1225.04 433.014 1229.04 392.013 1233.04 401.013 1238.04 377.012 1242.04 379.012 1246.04 441.014 1250.04 375.012 1255.04 421.014 1259.04 408.013 1263.04 431.014 1268.04 436.014 1272.04 381.013 1276.04 421.014 1281.04 360.012 1285.04 431.014 1289.04 363.012 1294.04 389.013 1298.04 393.013 1302.04 438.014 1307.04 384.013 1311.04 435.014 1315.04 391.013 1320.04 364.012 1324.04 395.013 1328.04 432.014 1332.04 400.013 1337.04 413.014 1341.04 417.014 1345.04 369.012 1350.04 390.013 1354.04 415.014 1358.04 433.014 1363.04 425.014 1367.04 419.014 1371.05 434.014 1376.05 373.012 1380.05 446.015 1384.05 410.013 1389.05 372.012 1393.05 420.014 1397.05 433.014 1402.05 396.013 1406.05 412.014 1410.05 361.012 1414.05 382.013 1419.05 401.013 1423.05 368.012 1427.05 391.013 1432.05 437.014 1436.05 456.015 1440.05 432.014 1445.05 410.013 1449.05 451.015 1453.05 386.013 1458.05 405.013 1462.05 382.013 1466.05 375.012 1471.05 424.014 1475.05 440.014 1479.05 365.012 1484.05 449.015 1488.05 446.015 1492.05 381.013 1496.05 364.012 1501.05 433.014 1505.05 373.012 1509.05 377.012 1514.05 412.014 1518.05 443.015 1522.05 405.013 1527.05 385.013 1531.05 424.014 1535.05 391.013 1540.05 393.013 1544.05 368.012 1548.05 383.013 1553.05 400.013 1557.05 360.012 1561.05 382.013 1566.05 426.014 1570.05 358 1574.05 414.014 1578.05 391.013 1583.05 408.013 1587.05 447.015 1591.05 359.012 1596.05 382.013 1600.05 441.014 1604.05 426.014 1609.05 426.014 1613.05 376.012 1617.05 393.013 1622.05 359.012 1626.05 435.014 1630.05 409.013 1635.05 418.014 1639.05 368.012 1643.05 380.012 1648.05 409.013 1652.05 424.014 1656.05 456.015 1660.05 418.014 1665.05 391.013 1669.05 400.013 1673.05 402.013 1678.06 410.013 1682.06 418.014 1686.06 403.013 1691.06 361.012 1695.06 401.013 1699.06 412.014 1704.06 378.012 1708.06 387.013 1712.06 379.012 1717.06 440.014 1721.06 415.014 1725.06 409.013 1730.06 400.013 1734.06 370.012 1738.06 456.015 1742.06 410.013 1747.06 393.013 1751.06 395.013 1755.06 425.014 1760.06 360.012 1764.06 425.014 1768.06 442.015 1773.06 729.024 1777.06 655.021 1781.06 685.022 1786.06 379.012 1790.06 365.012 1794.06 360.012 1799.06 368.012 1803.06 394.013 1807.06 392.013 1812.06 390.013 1816.06 429.014 1820.06 376.012 1824.06 418.014 1829.06 417.014 1833.06 366.012 1837.06 407.013 1842.06 447.015 1846.06 425.014 1850.06 372.012 1855.06 374.012 1859.06 444.015 1863.06 399.013 1868.06 383.013 1872.06 404.013 1876.06 422.014 1881.06 409.013 1885.06 422.014 1889.06 382.013 1894.06 371.012 1898.06 442.015 1902.06 360.012 1906.06 390.013 1911.06 397.013 1915.06 438.014 1919.06 443.015 1924.06 422.014 1928.06 375.012 1932.06 448.015 1937.06 438.014 1941.06 451.015 1945.06 383.013 1950.06 387.013 1954.06 397.013 1958.06 389.013 1963.06 380.012 1967.06 448.015 1971.06 369.012 1976.06 399.013 1980.06 381.013 1984.07 387.013 1989.07 407.013 1993.07 417.014 1997.07 428.014 2001.07 395.013 2006.07 431.014 2010.07 419.014 2014.07 363.012 2019.07 363.012 2023.07 439.014 2027.07 384.013 2032.07 422.014 2036.07 368.012 2040.07 434.014 2045.07 459.015 2049.07 377.012 2053.07 396.013 2058.07 409.013 2062.07 455.015 2066.07 402.013 2071.07 448.015 2075.07 424.014 2079.07 381.013 2083.07 372.012 2088.07 410.013 2092.07 432.014 2096.07 404.013 2101.07 415.014 2105.07 426.014 2109.07 406.013 2114.07 393.013 2118.07 414.014 2122.07 456.015 2127.07 403.013 2131.07 427.014 2135.07 458.015 2140.07 457.015 2144.07 429.014 2148.07 430.014 2153.07 445.015 2157.07 364.012 2161.07 443.015 2165.07 377.012 2170.07 427.014 2174.07 389.013 2178.07 437.014 2183.07 382.013 2187.07 373.012 2191.07 462.015 2196.07 451.015 2200.07 661.022 2204.07 685.022 2209.07 692.023 2213.07 667.022 2217.07 397.013 2222.07 401.013 2226.07 420.014 2230.07 658.022 2235.07 404.013 2239.07 384.013 2243.07 364.012 2247.07 409.013 2252.07 388.013 2256.07 440.014 2260.07 396.013 2265.07 381.013 2269.07 386.013 2273.07 386.013 2278.07 403.013 2282.07 420.014 2286.07 398.013 2291.07 400.013 2295.08 421.014 2299.08 376.012 2304.08 421.014 2308.08 441.014 2312.08 408.013 2317.08 460.015 2321.08 391.013 2325.08 390.013 2329.08 406.013 2334.08 455.015 2338.08 402.013 2342.08 433.014 2347.08 404.013 2351.08 454.015 2355.08 465.015 2360.08 449.015 2364.08 379.012 2368.08 409.013 2373.08 371.012 2377.08 441.014 2381.08 414.014 2386.08 463.015 2390.08 395.013 2394.08 407.013 2399.08 404.013 2403.08 377.012 2407.08 450.015 2411.08 446.015 2416.08 457.015 2420.08 443.015 2424.08 374.012 2429.08 466.015 2433.08 418.014 2437.08 424.014 2442.08 383.013 2446.08 416.014 2450.08 464.015 2455.08 469.015 2459.08 409.013 2463.08 403.013 2468.08 407.013 2472.08 397.013 2476.08 376.012 2481.08 465.015 2485.08 447.015 2489.08 436.014 2493.08 437.014 2498.08 737.024 2502.08 700.023 2506.08 674.022 2511.08 374.012 2515.08 432.014 2519.08 399.013 2524.08 404.013 2528.08 424.014 2532.08 375.012 2537.08 377.012 2541.08 394.013 2545.08 457.015 2550.08 469.015 2554.08 403.013 2558.08 473.016 2563.08 466.015 2567.08 426.014 2571.08 380.012 2575.08 426.014 2580.08 439.014 2584.08 424.014 2588.08 449.015 2593.08 441.014 2597.09 424.014 2601.09 472.016 2606.09 476.016 2610.09 437.014 2614.09 425.014 2619.09 469.015 2623.09 477.016 2627.09 413.014 2632.09 447.015 2636.09 460.015 2640.09 421.014 2645.09 425.014 2649.09 450.015 2653.09 387.013 2657.09 458.015 2662.09 379.012 2666.09 385.013 2670.09 439.014 2675.09 449.015 2679.09 389.013 2683.09 440.014 2688.09 436.014 2692.09 414.014 2696.09 466.015 2701.09 397.013 2705.09 423.014 2709.09 423.014 2714.09 431.014 2718.09 444.015 2722.09 409.013 2727.09 388.013 2731.09 398.013 2735.09 428.014 2739.09 429.014 2744.09 387.013 2748.09 440.014 2752.09 443.015 2757.09 433.014 2761.09 476.016 2765.09 396.013 2770.09 477.016 2774.09 452.015 2778.09 460.015 2783.09 472.016 2787.09 386.013 2791.09 413.014 2796.09 405.013 2800.09 433.014 2804.09 405.013 2809.09 406.013 2813.09 468.015 2817.09 407.013 2821.09 410.013 2826.09 471.015 2830.09 459.015 2834.09 407.013 2839.09 427.014 2843.09 487.016 2847.09 447.015 2852.09 393.013 2856.09 443.015 2860.09 447.015 2865.09 392.013 2869.09 413.014 2873.09 470.015 2878.09 390.013 2882.09 464.015 2886.09 433.014 2891.09 417.014 2895.09 404.013 2899.09 425.014 2903.1 443.015 2908.1 472.016 2912.1 443.015 2916.1 466.015 2921.1 394.013 2925.1 397.013 2929.1 408.013 2934.1 415.014 2938.1 464.015 2942.1 431.014 2947.1 490.016 2951.1 429.014 2955.1 454.015 2960.1 412.014 2964.1 469.015 2968.1 476.016 2973.1 486.016 2977.1 428.014 2981.1 480.016 2985.1 423.014 2990.1 478.016 2994.1 450.015 2998.1 478.016 3003.1 397.013 3007.1 418.014 3011.1 439.014 3016.1 483.016 3020.1 482.016 3024.1 492.016 3029.1 436.014 3033.1 492.016 3037.1 491.016 3042.1 487.016 3046.1 495.016 3050.1 483.016 3055.1 481.016 3059.1 440.014 3063.1 424.014 3067.1 445.015 3072.1 452.015 3076.1 425.014 3080.1 466.015 3085.1 444.015 3089.1 456.015 3093.1 467.015 3098.1 466.015 3102.1 471.015 3106.1 465.015 3111.1 413.014 3115.1 494.016 3119.1 414.014 3124.1 484.016 3128.1 456.015 3132.1 493.016 3137.1 453.015 3141.1 452.015 3145.1 482.016 3149.1 407.013 3154.1 461.015 3158.1 411.013 3162.1 463.015 3167.1 433.014 3171.1 505.017 3175.1 478.016 3180.1 492.016 3184.1 509.017 3188.1 467.015 3193.1 506.017 3197.1 474.016 3201.1 461.015 3206.1 450.015 3210.11 482.016 3214.11 479.016 3219.11 421.014 3223.11 428.014 3227.11 451.015 3232 445.015"
         stroke="#4472C4"
         stroke-width="10.3125"
         stroke-linecap="round"
         stroke-linejoin="round"
         stroke-miterlimit="10"
         fill="none"
         id="path4429" />
    </g>
    <g
       clip-path="url(#clip4)"
       id="g4435">
      <text
         fill="#595959"
         font-family="Calibri,Calibri_MSFontService,sans-serif"
         font-weight="400"
         font-size="41"
         transform="matrix(1 0 0 1 62.7007 2096)"
         id="text4433">0</text>
    </g>
    <g
       clip-path="url(#clip5)"
       id="g4439">
      <text
         fill="#595959"
         font-family="Calibri,Calibri_MSFontService,sans-serif"
         font-weight="400"
         font-size="41"
         transform="matrix(1 0 0 1 31.3966 1893)"
         id="text4437">0.1</text>
    </g>
    <g
       clip-path="url(#clip6)"
       id="g4443">
      <text
         fill="#595959"
         font-family="Calibri,Calibri_MSFontService,sans-serif"
         font-weight="400"
         font-size="41"
         transform="matrix(1 0 0 1 31.3966 1689)"
         id="text4441">0.2</text>
    </g>
    <g
       clip-path="url(#clip7)"
       id="g4447">
      <text
         fill="#595959"
         font-family="Calibri,Calibri_MSFontService,sans-serif"
         font-weight="400"
         font-size="41"
         transform="matrix(1 0 0 1 31.3966 1486)"
         id="text4445">0.3</text>
    </g>
    <g
       clip-path="url(#clip8)"
       id="g4451">
      <text
         fill="#595959"
         font-family="Calibri,Calibri_MSFontService,sans-serif"
         font-weight="400"
         font-size="41"
         transform="matrix(1 0 0 1 31.3966 1282)"
         id="text4449">0.4</text>
    </g>
    <g
       clip-path="url(#clip9)"
       id="g4455">
      <text
         fill="#595959"
         font-family="Calibri,Calibri_MSFontService,sans-serif"
         font-weight="400"
         font-size="41"
         transform="matrix(1 0 0 1 31.3966 1079)"
         id="text4453">0.5</text>
    </g>
    <g
       clip-path="url(#clip10)"
       id="g4459">
      <text
         fill="#595959"
         font-family="Calibri,Calibri_MSFontService,sans-serif"
         font-weight="400"
         font-size="41"
         transform="matrix(1 0 0 1 31.3966 876)"
         id="text4457">0.6</text>
    </g>
    <g
       clip-path="url(#clip11)"
       id="g4463">
      <text
         fill="#595959"
         font-family="Calibri,Calibri_MSFontService,sans-serif"
         font-weight="400"
         font-size="41"
         transform="matrix(1 0 0 1 31.3966 672)"
         id="text4461">0.7</text>
    </g>
    <g
       clip-path="url(#clip12)"
       id="g4467">
      <text
         fill="#595959"
         font-family="Calibri,Calibri_MSFontService,sans-serif"
         font-weight="400"
         font-size="41"
         transform="matrix(1 0 0 1 31.3966 469)"
         id="text4465">0.8</text>
    </g>
    <g
       clip-path="url(#clip13)"
       id="g4471">
      <text
         fill="#595959"
         font-family="Calibri,Calibri_MSFontService,sans-serif"
         font-weight="400"
         font-size="41"
         transform="matrix(1 0 0 1 31.3966 265)"
         id="text4469">0.9</text>
    </g>
    <g
       clip-path="url(#clip14)"
       id="g4475">
      <text
         fill="#595959"
         font-family="Calibri,Calibri_MSFontService,sans-serif"
         font-weight="400"
         font-size="41"
         transform="matrix(1 0 0 1 62.7007 62)"
         id="text4473">1</text>
    </g>
    <g
       clip-path="url(#clip15)"
       id="g4479">
      <text
         fill="#595959"
         font-family="Calibri,Calibri_MSFontService,sans-serif"
         font-weight="400"
         font-size="41"
         transform="matrix(1 0 0 1 50.2799 2150)"
         id="text4477">11:00:00</text>
    </g>
    <g
       clip-path="url(#clip16)"
       id="g4483">
      <text
         fill="#595959"
         font-family="Calibri,Calibri_MSFontService,sans-serif"
         font-weight="400"
         font-size="41"
         transform="matrix(1 0 0 1 1604.06 2150)"
         id="text4481">12:00:00</text>
    </g>
    <g
       clip-path="url(#clip17)"
       id="g4487">
      <text
         fill="#595959"
         font-family="Calibri,Calibri_MSFontService,sans-serif"
         font-weight="400"
         font-size="41"
         transform="matrix(1 0 0 1 3157.85 2150)"
         id="text4485">13:00:00</text>
    </g>
    <rect
       x="0.499836"
       y="0.499836"
       width="3356"
       height="2191"
       stroke="#D9D9D9"
       stroke-width="3.4375"
       stroke-linejoin="round"
       stroke-miterlimit="10"
       fill="none"
       id="rect4489" />
  </g>
</svg>
