<?xml version="1.0" encoding="UTF-8" standalone="no"?>
<svg
   xmlns:dc="http://purl.org/dc/elements/1.1/"
   xmlns:cc="http://creativecommons.org/ns#"
   xmlns:rdf="http://www.w3.org/1999/02/22-rdf-syntax-ns#"
   xmlns:svg="http://www.w3.org/2000/svg"
   xmlns="http://www.w3.org/2000/svg"
   xmlns:sodipodi="http://sodipodi.sourceforge.net/DTD/sodipodi-0.dtd"
   xmlns:inkscape="http://www.inkscape.org/namespaces/inkscape"
   width="3359"
   height="2194"
   overflow="hidden"
   version="1.1"
   id="svg4221"
   sodipodi:docname="lightgraph_7am.svg"
   inkscape:version="1.0.2-2 (e86c870879, 2021-01-15)">
  <metadata
     id="metadata4225">
    <rdf:RDF>
      <cc:Work
         rdf:about="">
        <dc:format>image/svg+xml</dc:format>
        <dc:type
           rdf:resource="http://purl.org/dc/dcmitype/StillImage" />
        <dc:title></dc:title>
      </cc:Work>
    </rdf:RDF>
  </metadata>
  <sodipodi:namedview
     pagecolor="#ffffff"
     bordercolor="#666666"
     borderopacity="1"
     objecttolerance="10"
     gridtolerance="10"
     guidetolerance="10"
     inkscape:pageopacity="0"
     inkscape:pageshadow="2"
     inkscape:window-width="1920"
     inkscape:window-height="1001"
     id="namedview4223"
     showgrid="false"
     inkscape:zoom="0.25215838"
     inkscape:cx="1679.5"
     inkscape:cy="1097"
     inkscape:window-x="-9"
     inkscape:window-y="-9"
     inkscape:window-maximized="1"
     inkscape:current-layer="svg4221" />
  <defs
     id="defs4149">
    <clipPath
       id="clip0">
      <rect
         x="-1"
         y="-1"
         width="3359"
         height="2194"
         id="rect4098" />
    </clipPath>
    <clipPath
       id="clip1">
      <rect
         x="0"
         y="0"
         width="3355"
         height="2190"
         id="rect4101" />
    </clipPath>
    <clipPath
       id="clip2">
      <rect
         x="0"
         y="0"
         width="3355"
         height="2190"
         id="rect4104" />
    </clipPath>
    <clipPath
       id="clip3">
      <rect
         x="120"
         y="50"
         width="3119"
         height="2037"
         id="rect4107" />
    </clipPath>
    <clipPath
       id="clip4">
      <rect
         x="0"
         y="0"
         width="3355"
         height="2190"
         id="rect4110" />
    </clipPath>
    <clipPath
       id="clip5">
      <rect
         x="0"
         y="0"
         width="3355"
         height="2190"
         id="rect4113" />
    </clipPath>
    <clipPath
       id="clip6">
      <rect
         x="0"
         y="0"
         width="3355"
         height="2190"
         id="rect4116" />
    </clipPath>
    <clipPath
       id="clip7">
      <rect
         x="0"
         y="0"
         width="3355"
         height="2190"
         id="rect4119" />
    </clipPath>
    <clipPath
       id="clip8">
      <rect
         x="0"
         y="0"
         width="3355"
         height="2190"
         id="rect4122" />
    </clipPath>
    <clipPath
       id="clip9">
      <rect
         x="0"
         y="0"
         width="3355"
         height="2190"
         id="rect4125" />
    </clipPath>
    <clipPath
       id="clip10">
      <rect
         x="0"
         y="0"
         width="3355"
         height="2190"
         id="rect4128" />
    </clipPath>
    <clipPath
       id="clip11">
      <rect
         x="0"
         y="0"
         width="3355"
         height="2190"
         id="rect4131" />
    </clipPath>
    <clipPath
       id="clip12">
      <rect
         x="0"
         y="0"
         width="3355"
         height="2190"
         id="rect4134" />
    </clipPath>
    <clipPath
       id="clip13">
      <rect
         x="0"
         y="0"
         width="3355"
         height="2190"
         id="rect4137" />
    </clipPath>
    <clipPath
       id="clip14">
      <rect
         x="0"
         y="0"
         width="3355"
         height="2190"
         id="rect4140" />
    </clipPath>
    <clipPath
       id="clip15">
      <rect
         x="0"
         y="0"
         width="3355"
         height="2190"
         id="rect4143" />
    </clipPath>
    <clipPath
       id="clip16">
      <rect
         x="0"
         y="0"
         width="3355"
         height="2190"
         id="rect4146" />
    </clipPath>
  </defs>
  <g
     clip-path="url(#clip0)"
     transform="translate(1 1)"
     id="g4219">
    <rect
       x="0"
       y="0"
       width="3356"
       height="2191"
       fill="#FFFFFF"
       id="rect4151" />
    <g
       clip-path="url(#clip1)"
       id="g4155">
      <path
         d="M120.5 1880.56 3236.5 1880.56M120.5 1677.56 3236.5 1677.56M120.5 1474.55 3236.5 1474.55M120.5 1270.54 3236.5 1270.54M120.5 1067.54 3236.5 1067.54M120.5 863.529 3236.5 863.529M120.5 660.522 3236.5 660.522M120.5 457.515 3236.5 457.515M120.5 253.508 3236.5 253.508M120.5 50.5 3236.5 50.5"
         stroke="#D9D9D9"
         stroke-width="3.4375"
         stroke-linejoin="round"
         stroke-miterlimit="10"
         fill="none"
         id="path4153" />
    </g>
    <g
       clip-path="url(#clip2)"
       id="g4159">
      <path
         d="M120.5 2084.5 3236.5 2084.5"
         stroke="#D9D9D9"
         stroke-width="3.4375"
         stroke-linejoin="round"
         stroke-miterlimit="10"
         fill="none"
         fill-rule="evenodd"
         id="path4157" />
    </g>
    <g
       clip-path="url(#clip3)"
       id="g4163">
      <path
         d="M125 1040.03 133.004 1037.03 142.005 992.033 150.005 1018.03 159.005 981.032 168.006 1040.03 176.006 1004.03 185.006 997.033 194.006 976.032 202.007 1008.03 211.007 1067.04 220.007 1046.03 228.007 1046.03 237.008 1067.04 245.008 1048.03 254.008 984.032 263.009 981.032 271.009 985.032 280.009 1028.03 289.009 1016.03 297.01 993.033 306.01 1063.03 314.01 1061.03 323.011 989.032 332.011 1021.03 340.011 1048.03 349.011 1010.03 358.012 982.032 366.012 976.032 375.012 1047.03 383.013 988.032 392.013 986.032 401.013 1066.04 409.013 996.033 418.014 975.032 427.014 1001.03 435.014 1007.03 444.015 1007.03 453.015 1017.03 461.015 987.032 470.015 994.033 478.016 1037.03 487.016 1048.03 496.016 1017.03 504.017 1042.03 513.017 1041.03 522.017 1053.03 530.017 1057.03 539.018 993.033 547.018 993.033 556.018 997.033 565.019 1027.03 573.019 1028.03 582.019 989.032 591.019 975.032 599.02 997.033 608.02 1008.03 617.02 978.032 625.021 973.032 634.021 1020.03 642.021 1019.03 651.021 1062.03 660.022 1004.03 668.022 1012.03 677.022 1031.03 686.023 1001.03 694.023 1001.03 703.023 1055.03 711.023 977.032 720.024 977.032 729.024 1032.03 737.024 1012.03 746.024 1026.03 755.025 983.032 763.025 1006.03 772.025 1040.03 781.026 1063.03 789.026 975.032 798.026 997.033 806.026 1034.03 815.027 967.032 824.027 971.032 832.027 1017.03 841.028 1053.03 850.028 992.033 858.028 1007.03 867.028 972.032 875.029 1019.03 884.029 1034.03 893.029 969.032 901.03 1065.03 910.03 994.033 919.03 1061.03 927.03 1042.03 936.031 1019.03 944.031 976.032 953.031 970.032 962.032 1037.03 970.032 982.032 979.032 1060.03 988.032 989.032 996.033 1292 1005.03 1266.04 1014.03 977.032 1022.03 998.033 1031.03 1035.03 1039.03 1290.04 1048.03 1046.03 1057.03 979.032 1065.03 977.032 1074.04 966.032 1083.04 993.033 1091.04 1012.03 1100.04 1014.03 1108.04 979.032 1117.04 978.032 1126.04 1020.03 1134.04 1045.03 1143.04 1061.03 1152.04 1006.03 1160.04 1016.03 1169.04 1029.03 1178.04 1014.03 1186.04 1027.03 1195.04 1024.03 1203.04 979.032 1212.04 1057.03 1221.04 1023.03 1229.04 1006.03 1238.04 1008.03 1247.04 1000.03 1255.04 1048.03 1264.04 993.033 1272.04 1030.03 1281.04 1020.03 1290.04 988.032 1298.04 970.032 1307.04 1016.03 1316.04 1002.03 1324.04 991.033 1333.04 989.032 1341.04 996.033 1350.04 985.032 1359.04 1032.03 1367.04 1014.03 1376.05 988.032 1385.05 968.032 1393.05 1045.03 1402.05 1017.03 1411.05 1039.03 1419.05 1063.03 1428.05 979.032 1436.05 1061.03 1445.05 994.033 1454.05 967.032 1462.05 1040.03 1471.05 1007.03 1480.05 996.033 1488.05 988.032 1497.05 982.032 1505.05 1043.03 1514.05 1065.03 1523.05 981.032 1531.05 1038.03 1540.05 1031.03 1549.05 1024.03 1557.05 1059.03 1566.05 1054.03 1575.05 1064.03 1583.05 972.032 1592.05 989.032 1600.05 1042.03 1609.05 1066.04 1618.05 983.032 1626.05 967.032 1635.05 983.032 1644.05 972.032 1652.05 1031.03 1661.05 980.032 1669.05 1040.03 1678.06 1008.03 1687.06 1032.03 1695.06 1034.03 1704.06 1010.03 1713.06 991.033 1721.06 992.033 1730.06 991.033 1739.06 995.033 1747.06 1063.03 1756.06 1262.04 1764.06 1004.03 1773.06 1015.03 1782.06 967.032 1790.06 981.032 1799.06 993.033 1808.06 1020.03 1816.06 981.032 1825.06 976.032 1833.06 1047.03 1842.06 1003.03 1851.06 1034.03 1859.06 1046.03 1868.06 1067.04 1877.06 988.032 1885.06 993.033 1894.06 1049.03 1902.06 986.032 1911.06 1058.03 1920.06 1056.03 1928.06 1052.03 1937.06 1032.03 1946.06 1042.03 1954.06 1009.03 1963.06 1002.03 1972.06 1012.03 1980.06 1038.03 1989.07 973.032 1997.07 1014.03 2006.07 1019.03 2015.07 1064.03 2023.07 1042.03 2032.07 996.033 2041.07 968.032 2049.07 1051.03 2058.07 975.032 2066.07 1037.03 2075.07 977.032 2084.07 998.033 2092.07 966 2101.07 1034.03 2110.07 1010.03 2118.07 1000.03 2127.07 1032.03 2136.07 1004.03 2144.07 1023.03 2153.07 1025.03 2161.07 1007.03 2170.07 1007.03 2179.07 1041.03 2187.07 1051.03 2196.07 998.033 2205.07 1031.03 2213.07 983.032 2222.07 999.033 2230.07 1009.03 2239.07 1052.03 2248.07 974.032 2256.07 1043.03 2265.07 971.032 2274.07 978.032 2282.07 973.032 2291.08 1028.03 2300.08 995.033 2308.08 988.032 2317.08 994.033 2325.08 1032.03 2334.08 990.032 2343.08 1038.03 2351.08 984.032 2360.08 995.033 2369.08 983.032 2377.08 1011.03 2386.08 996.033 2394.08 1067.04 2403.08 986.032 2412.08 1047.03 2420.08 1022.03 2429.08 995.033 2438.08 1066.04 2446.08 978.032 2455.08 997.033 2463.08 1039.03 2472.08 1048.03 2481.08 990.032 2489.08 1007.03 2498.08 978.032 2507.08 1044.03 2515.08 974.032 2524.08 1009.03 2533.08 1059.03 2541.08 1044.03 2550.08 1056.03 2558.08 995.033 2567.08 974.032 2576.08 1024.03 2584.08 1058.03 2593.09 1002.03 2602.09 1006.03 2610.09 1025.03 2619.09 1030.03 2627.09 977.032 2636.09 985.032 2645.09 1059.03 2653.09 1047.03 2662.09 1061.03 2671.09 969.032 2679.09 971.032 2688.09 989.032 2697.09 976.032 2705.09 1007.03 2714.09 999.033 2722.09 1059.03 2731.09 1023.03 2740.09 973.032 2748.09 1048.03 2757.09 1056.03 2766.09 1032.03 2774.09 1042.03 2783.09 1021.03 2791.09 1030.03 2800.09 1044.03 2809.09 983.032 2817.09 969.032 2826.09 999.033 2835.09 997.033 2843.09 1056.03 2852.09 992.033 2860.09 994.033 2869.09 984.032 2878.09 1041.03 2886.09 1061.03 2895.09 997.033 2904.1 1067.04 2912.1 1058.03 2921.1 1011.03 2930.1 1028.03 2938.1 970.032 2947.1 1023.03 2955.1 1008.03 2964.1 1064.03 2973.1 1061.03 2981.1 1013.03 2990.1 971.032 2999.1 976.032 3007.1 1021.03 3016.1 1047.03 3024.1 1019.03 3033.1 1043.03 3042.1 997.033 3050.1 979.032 3059.1 1057.03 3068.1 1039.03 3076.1 1007.03 3085.1 1021.03 3094.1 1028.03 3102.1 968.032 3111.1 1020.03 3119.1 985.032 3128.1 999.033 3137.1 980.032 3145.1 970.032 3154.1 1040.03 3163.1 1060.03 3171.1 1023.03 3180.1 1065.03 3188.1 975.032 3197.1 1025.03 3206.11 1055.03 3214.11 973.032 3223.11 1056.03 3232 1211.04"
         stroke="#4472C4"
         stroke-width="10.3125"
         stroke-linecap="round"
         stroke-linejoin="round"
         stroke-miterlimit="10"
         fill="none"
         id="path4161" />
    </g>
    <g
       clip-path="url(#clip4)"
       id="g4167">
      <text
         fill="#595959"
         font-family="Calibri,Calibri_MSFontService,sans-serif"
         font-weight="400"
         font-size="41"
         transform="matrix(1 0 0 1 61.0958 2096)"
         id="text4165">0</text>
    </g>
    <g
       clip-path="url(#clip5)"
       id="g4171">
      <text
         fill="#595959"
         font-family="Calibri,Calibri_MSFontService,sans-serif"
         font-weight="400"
         font-size="41"
         transform="matrix(1 0 0 1 29.7917 1893)"
         id="text4169">0.1</text>
    </g>
    <g
       clip-path="url(#clip6)"
       id="g4175">
      <text
         fill="#595959"
         font-family="Calibri,Calibri_MSFontService,sans-serif"
         font-weight="400"
         font-size="41"
         transform="matrix(1 0 0 1 29.7917 1689)"
         id="text4173">0.2</text>
    </g>
    <g
       clip-path="url(#clip7)"
       id="g4179">
      <text
         fill="#595959"
         font-family="Calibri,Calibri_MSFontService,sans-serif"
         font-weight="400"
         font-size="41"
         transform="matrix(1 0 0 1 29.7917 1486)"
         id="text4177">0.3</text>
    </g>
    <g
       clip-path="url(#clip8)"
       id="g4183">
      <text
         fill="#595959"
         font-family="Calibri,Calibri_MSFontService,sans-serif"
         font-weight="400"
         font-size="41"
         transform="matrix(1 0 0 1 29.7917 1282)"
         id="text4181">0.4</text>
    </g>
    <g
       clip-path="url(#clip9)"
       id="g4187">
      <text
         fill="#595959"
         font-family="Calibri,Calibri_MSFontService,sans-serif"
         font-weight="400"
         font-size="41"
         transform="matrix(1 0 0 1 29.7917 1079)"
         id="text4185">0.5</text>
    </g>
    <g
       clip-path="url(#clip10)"
       id="g4191">
      <text
         fill="#595959"
         font-family="Calibri,Calibri_MSFontService,sans-serif"
         font-weight="400"
         font-size="41"
         transform="matrix(1 0 0 1 29.7917 876)"
         id="text4189">0.6</text>
    </g>
    <g
       clip-path="url(#clip11)"
       id="g4195">
      <text
         fill="#595959"
         font-family="Calibri,Calibri_MSFontService,sans-serif"
         font-weight="400"
         font-size="41"
         transform="matrix(1 0 0 1 29.7917 672)"
         id="text4193">0.7</text>
    </g>
    <g
       clip-path="url(#clip12)"
       id="g4199">
      <text
         fill="#595959"
         font-family="Calibri,Calibri_MSFontService,sans-serif"
         font-weight="400"
         font-size="41"
         transform="matrix(1 0 0 1 29.7917 469)"
         id="text4197">0.8</text>
    </g>
    <g
       clip-path="url(#clip13)"
       id="g4203">
      <text
         fill="#595959"
         font-family="Calibri,Calibri_MSFontService,sans-serif"
         font-weight="400"
         font-size="41"
         transform="matrix(1 0 0 1 29.7917 265)"
         id="text4201">0.9</text>
    </g>
    <g
       clip-path="url(#clip14)"
       id="g4207">
      <text
         fill="#595959"
         font-family="Calibri,Calibri_MSFontService,sans-serif"
         font-weight="400"
         font-size="41"
         transform="matrix(1 0 0 1 61.0958 62)"
         id="text4205">1</text>
    </g>
    <g
       clip-path="url(#clip15)"
       id="g4211">
      <text
         fill="#595959"
         font-family="Calibri,Calibri_MSFontService,sans-serif"
         font-weight="400"
         font-size="41"
         transform="matrix(1 0 0 1 50.8324 2150)"
         id="text4209">07:00:00</text>
    </g>
    <g
       clip-path="url(#clip16)"
       id="g4215">
      <text
         fill="#595959"
         font-family="Calibri,Calibri_MSFontService,sans-serif"
         font-weight="400"
         font-size="41"
         transform="matrix(1 0 0 1 3157.98 2150)"
         id="text4213">08:00:00</text>
    </g>
    <rect
       x="0.499836"
       y="0.499836"
       width="3356"
       height="2191"
       stroke="#D9D9D9"
       stroke-width="3.4375"
       stroke-linejoin="round"
       stroke-miterlimit="10"
       fill="none"
       id="rect4217" />
  </g>
</svg>
