<?xml version="1.0" encoding="UTF-8" standalone="no"?>
<svg
   xmlns:dc="http://purl.org/dc/elements/1.1/"
   xmlns:cc="http://creativecommons.org/ns#"
   xmlns:rdf="http://www.w3.org/1999/02/22-rdf-syntax-ns#"
   xmlns:svg="http://www.w3.org/2000/svg"
   xmlns="http://www.w3.org/2000/svg"
   xmlns:sodipodi="http://sodipodi.sourceforge.net/DTD/sodipodi-0.dtd"
   xmlns:inkscape="http://www.inkscape.org/namespaces/inkscape"
   width="205.6162mm"
   height="74.836426mm"
   viewBox="0 0 205.6162 74.836426"
   version="1.1"
   id="svg8"
   inkscape:version="1.0.2-2 (e86c870879, 2021-01-15)"
   sodipodi:docname="sensors_wewant.svg">
  <defs
     id="defs2">
    <marker
       style="overflow:visible"
       id="Arrow1Mend"
       refX="0"
       refY="0"
       orient="auto"
       inkscape:stockid="Arrow1Mend"
       inkscape:isstock="true">
      <path
         transform="matrix(-0.4,0,0,-0.4,-4,0)"
         style="fill:#000000;fill-opacity:1;fill-rule:evenodd;stroke:#000000;stroke-width:1pt;stroke-opacity:1"
         d="M 0,0 5,-5 -12.5,0 5,5 Z"
         id="path873" />
    </marker>
    <marker
       style="overflow:visible"
       id="Arrow1Lend"
       refX="0"
       refY="0"
       orient="auto"
       inkscape:stockid="Arrow1Lend"
       inkscape:isstock="true">
      <path
         transform="matrix(-0.8,0,0,-0.8,-10,0)"
         style="fill:#000000;fill-opacity:1;fill-rule:evenodd;stroke:#000000;stroke-width:1pt;stroke-opacity:1"
         d="M 0,0 5,-5 -12.5,0 5,5 Z"
         id="path867" />
    </marker>
  </defs>
  <sodipodi:namedview
     id="base"
     pagecolor="#ffffff"
     bordercolor="#666666"
     borderopacity="1.0"
     inkscape:pageopacity="0.0"
     inkscape:pageshadow="2"
     inkscape:zoom="0.35"
     inkscape:cx="401.42321"
     inkscape:cy="227.13747"
     inkscape:document-units="mm"
     inkscape:current-layer="layer1"
     inkscape:document-rotation="0"
     showgrid="false"
     showguides="true"
     inkscape:guide-bbox="true"
     inkscape:snap-object-midpoints="true"
     inkscape:window-width="1920"
     inkscape:window-height="1001"
     inkscape:window-x="-9"
     inkscape:window-y="-9"
     inkscape:window-maximized="1"
     fit-margin-top="0"
     fit-margin-left="0"
     fit-margin-right="0"
     fit-margin-bottom="0">
    <sodipodi:guide
       position="144.76346,37.418212"
       orientation="0,-1"
       id="guide857" />
  </sodipodi:namedview>
  <metadata
     id="metadata5">
    <rdf:RDF>
      <cc:Work
         rdf:about="">
        <dc:format>image/svg+xml</dc:format>
        <dc:type
           rdf:resource="http://purl.org/dc/dcmitype/StillImage" />
        <dc:title></dc:title>
      </cc:Work>
    </rdf:RDF>
  </metadata>
  <g
     inkscape:label="Layer 1"
     inkscape:groupmode="layer"
     id="layer1"
     transform="translate(0.37655675,-88.069877)">
    <path
       id="path835"
       style="fill:#aaffee;stroke:#000000;stroke-width:2.265;stroke-linecap:round"
       d="M 73.32737,125.48809 A 36.285713,36.285713 0 0 1 37.041656,161.7738 36.285713,36.285713 0 0 1 0.7559433,125.48809 36.285713,36.285713 0 0 1 37.041656,89.202377 36.285713,36.285713 0 0 1 73.32737,125.48809 Z" />
    <path
       id="path835-8"
       style="fill:#afdde9;stroke:#000000;stroke-width:2.265;stroke-linecap:round"
       d="m 204.10714,125.48809 a 36.285713,36.285713 0 0 1 -36.28571,36.28571 36.285713,36.285713 0 0 1 -36.28572,-36.28571 36.285713,36.285713 0 0 1 36.28572,-36.285713 36.285713,36.285713 0 0 1 36.28571,36.285713 z" />
    <path
       style="fill:none;stroke:#000000;stroke-width:3;stroke-linecap:butt;stroke-linejoin:miter;stroke-miterlimit:4;stroke-dasharray:none;stroke-opacity:1;marker-end:url(#Arrow1Mend)"
       d="M 80.130951,125.48809 H 123.22024"
       id="path862" />
    <g
       aria-label="Sensor
Data"
       id="text1174"
       style="font-style:normal;font-weight:normal;font-size:10.5833px;line-height:1.25;font-family:sans-serif;text-align:center;text-anchor:middle;fill:#000000;fill-opacity:1;stroke:none;stroke-width:0.264583">
      <path
         d="m 25.954097,118.75614 q 0,0.44958 -0.211873,0.88883 -0.206705,0.43925 -0.583942,0.74414 -0.41341,0.33072 -0.966346,0.51676 -0.547768,0.18603 -1.322912,0.18603 -0.831988,0 -1.498612,-0.15503 -0.661456,-0.15502 -1.348751,-0.45991 v -1.28158 h 0.07235 q 0.583942,0.48576 1.348751,0.74931 0.764809,0.26355 1.4366,0.26355 0.950843,0 1.477941,-0.35657 0.532266,-0.35656 0.532266,-0.95084 0,-0.5116 -0.253214,-0.75447 -0.248046,-0.24288 -0.759641,-0.37724 -0.387572,-0.10335 -0.842323,-0.17053 -0.449584,-0.0672 -0.956011,-0.17053 -1.02319,-0.21704 -1.519282,-0.73897 -0.490925,-0.5271 -0.490925,-1.36943 0,-0.96634 0.816485,-1.58129 0.816485,-0.62011 2.072218,-0.62011 0.811318,0 1.488277,0.15502 0.676959,0.15503 1.198889,0.38241 v 1.20922 h -0.07235 q -0.439249,-0.37207 -1.157549,-0.61494 -0.713132,-0.24805 -1.462438,-0.24805 -0.821653,0 -1.322913,0.34106 -0.496092,0.34107 -0.496092,0.8785 0,0.48059 0.248046,0.75447 0.248046,0.27389 0.873329,0.41858 0.330728,0.0724 0.940508,0.1757 0.60978,0.10335 1.033526,0.21187 0.857826,0.22738 1.291906,0.6873 0.434081,0.45992 0.434081,1.28674 z"
         style="text-align:center;text-anchor:middle;stroke-width:0.264583"
         id="path1422" />
      <path
         d="m 32.351619,118.16703 h -4.252957 q 0,0.53226 0.160196,0.93017 0.160197,0.39274 0.439249,0.64595 0.268716,0.24805 0.635618,0.37207 0.372069,0.12402 0.816485,0.12402 0.589109,0 1.183386,-0.23254 0.599445,-0.23771 0.852659,-0.46508 h 0.05168 v 1.05936 q -0.490925,0.2067 -1.00252,0.34623 -0.511595,0.13953 -1.074866,0.13953 -1.4366,0 -2.24275,-0.77515 -0.80615,-0.78031 -0.80615,-2.21174 0,-1.41593 0.769977,-2.24792 0.775144,-0.83199 2.036044,-0.83199 1.167884,0 1.798335,0.68213 0.635618,0.68213 0.635618,1.93786 z m -0.945676,-0.74414 q -0.0052,-0.76481 -0.387572,-1.18339 -0.377237,-0.41858 -1.152381,-0.41858 -0.780311,0 -1.245398,0.45992 -0.459919,0.45992 -0.52193,1.14205 z"
         style="text-align:center;text-anchor:middle;stroke-width:0.264583"
         id="path1424" />
      <path
         d="m 38.650956,120.95238 h -0.971513 v -3.28661 q 0,-0.39791 -0.04651,-0.74414 -0.04651,-0.3514 -0.170532,-0.54777 -0.12919,-0.21704 -0.372069,-0.32039 -0.242878,-0.10852 -0.63045,-0.10852 -0.397908,0 -0.831988,0.19637 -0.434081,0.19637 -0.831988,0.50126 v 4.3098 h -0.971514 v -5.77224 h 0.971514 v 0.64078 q 0.454751,-0.37723 0.940508,-0.58911 0.485757,-0.21187 0.997352,-0.21187 0.93534,0 1.426265,0.56327 0.490924,0.56327 0.490924,1.62264 z"
         style="text-align:center;text-anchor:middle;stroke-width:0.264583"
         id="path1426" />
      <path
         d="m 44.645404,119.2884 q 0,0.79065 -0.656289,1.29708 -0.651121,0.50642 -1.782831,0.50642 -0.640786,0 -1.178219,-0.14986 -0.532265,-0.15503 -0.893999,-0.33589 v -1.09037 h 0.05168 q 0.459919,0.34623 1.02319,0.55293 0.563271,0.20154 1.080034,0.20154 0.640786,0 1.00252,-0.2067 0.361733,-0.20671 0.361733,-0.65113 0,-0.34106 -0.196369,-0.51676 -0.19637,-0.1757 -0.754474,-0.29972 -0.206705,-0.0465 -0.542601,-0.10852 -0.330728,-0.062 -0.604612,-0.13436 -0.759641,-0.20154 -1.080034,-0.58911 -0.315225,-0.39274 -0.315225,-0.96118 0,-0.35656 0.144693,-0.67179 0.149862,-0.31522 0.449584,-0.56327 0.289387,-0.24288 0.733803,-0.3824 0.449583,-0.1447 1.002519,-0.1447 0.516763,0 1.043861,0.12919 0.532266,0.12403 0.883664,0.30489 v 1.0387 h -0.05168 q -0.372069,-0.27389 -0.904335,-0.45992 -0.532265,-0.19121 -1.04386,-0.19121 -0.532266,0 -0.899167,0.20671 -0.366902,0.20154 -0.366902,0.60461 0,0.35657 0.222208,0.53744 0.21704,0.18086 0.702797,0.29455 0.268717,0.062 0.599445,0.12402 0.335896,0.062 0.558104,0.11369 0.676959,0.15503 1.04386,0.53227 0.366902,0.3824 0.366902,1.01285 z"
         style="text-align:center;text-anchor:middle;stroke-width:0.264583"
         id="path1428" />
      <path
         d="m 50.955075,118.06884 q 0,1.41076 -0.723468,2.22725 -0.723467,0.81648 -1.93786,0.81648 -1.224727,0 -1.948195,-0.81648 -0.7183,-0.81649 -0.7183,-2.22725 0,-1.41076 0.7183,-2.22725 0.723468,-0.82165 1.948195,-0.82165 1.214393,0 1.93786,0.82165 0.723468,0.81649 0.723468,2.22725 z m -1.002519,0 q 0,-1.12137 -0.439249,-1.66397 -0.439248,-0.54777 -1.21956,-0.54777 -0.790646,0 -1.229895,0.54777 -0.43408,0.5426 -0.43408,1.66397 0,1.0852 0.439248,1.64847 0.439248,0.55811 1.224727,0.55811 0.775144,0 1.214393,-0.55294 0.444416,-0.5581 0.444416,-1.65364 z"
         style="text-align:center;text-anchor:middle;stroke-width:0.264583"
         id="path1430" />
      <path
         d="m 56.060691,116.2395 h -0.05168 q -0.21704,-0.0517 -0.423745,-0.0724 -0.201538,-0.0258 -0.48059,-0.0258 -0.449583,0 -0.868161,0.20153 -0.418578,0.19637 -0.80615,0.5116 v 4.09793 h -0.971514 v -5.77224 h 0.971514 v 0.85266 q 0.578774,-0.46509 1.018023,-0.65629 0.444416,-0.19637 0.904334,-0.19637 0.253214,0 0.366902,0.0155 0.113688,0.0103 0.341063,0.0465 z"
         style="text-align:center;text-anchor:middle;stroke-width:0.264583"
         id="path1432" />
      <path
         d="m 32.690098,130.34196 q 0,1.04902 -0.459918,1.90168 -0.454752,0.85266 -1.214393,1.32291 -0.527098,0.32556 -1.178219,0.47026 -0.645953,0.14469 -1.705316,0.14469 h -1.943028 v -7.69459 h 1.922357 q 1.126543,0 1.787999,0.16536 0.666624,0.1602 1.126543,0.44442 0.785479,0.49092 1.224727,1.30741 0.439248,0.81648 0.439248,1.93786 z m -1.069698,-0.0155 q 0,-0.90433 -0.315226,-1.52445 -0.315225,-0.62011 -0.940508,-0.97668 -0.454751,-0.25838 -0.966346,-0.35657 -0.511595,-0.10335 -1.224727,-0.10335 h -0.961179 v 5.93761 h 0.961179 q 0.73897,0 1.286739,-0.10852 0.552936,-0.10853 1.012855,-0.40308 0.573606,-0.3669 0.857826,-0.96635 0.289387,-0.59944 0.289387,-1.49861 z"
         style="text-align:center;text-anchor:middle;stroke-width:0.264583"
         id="path1434" />
      <path
         d="m 38.751725,134.1815 h -0.966346 v -0.61495 q -0.129191,0.0879 -0.351399,0.24805 -0.21704,0.15503 -0.423745,0.24805 -0.242879,0.11885 -0.558104,0.19637 -0.315225,0.0827 -0.738971,0.0827 -0.780311,0 -1.322912,-0.51676 -0.542601,-0.51677 -0.542601,-1.31775 0,-0.65629 0.279052,-1.05936 0.284219,-0.40825 0.80615,-0.64079 0.527098,-0.23254 1.266068,-0.31522 0.738971,-0.0827 1.586462,-0.12403 v -0.14986 q 0,-0.33073 -0.118856,-0.54777 -0.113688,-0.21704 -0.330728,-0.34106 -0.206705,-0.11886 -0.496092,-0.1602 -0.289387,-0.0413 -0.604612,-0.0413 -0.382405,0 -0.852659,0.10336 -0.470254,0.0982 -0.971514,0.28938 h -0.05168 v -0.98701 q 0.28422,-0.0775 0.821653,-0.17054 0.537433,-0.093 1.059363,-0.093 0.60978,0 1.059364,0.10335 0.454751,0.0982 0.785479,0.34106 0.32556,0.23771 0.496092,0.61495 0.170532,0.37724 0.170532,0.93534 z m -0.966346,-1.4211 v -1.60713 q -0.444416,0.0258 -1.049029,0.0775 -0.599444,0.0517 -0.950843,0.14986 -0.418578,0.11885 -0.676959,0.37207 -0.258381,0.24804 -0.258381,0.68729 0,0.49609 0.299722,0.74931 0.299722,0.24804 0.91467,0.24804 0.511595,0 0.93534,-0.19637 0.423746,-0.20153 0.78548,-0.48059 z"
         style="text-align:center;text-anchor:middle;stroke-width:0.264583"
         id="path1436" />
      <path
         d="m 43.619629,134.12983 q -0.273884,0.0723 -0.599444,0.11885 -0.320393,0.0465 -0.573607,0.0465 -0.883664,0 -1.343583,-0.47542 -0.459919,-0.47542 -0.459919,-1.52445 v -3.06957 h -0.656288 v -0.81649 h 0.656288 v -1.65881 h 0.971514 v 1.65881 h 2.005039 v 0.81649 H 41.61459 v 2.63032 q 0,0.45475 0.02067,0.71313 0.02067,0.25322 0.144693,0.47542 0.113688,0.20671 0.310058,0.30489 0.201537,0.093 0.60978,0.093 0.237711,0 0.496092,-0.0672 0.258381,-0.0723 0.372069,-0.11885 h 0.05168 z"
         style="text-align:center;text-anchor:middle;stroke-width:0.264583"
         id="path1438" />
      <path
         d="m 49.278181,134.1815 h -0.966346 v -0.61495 q -0.129191,0.0879 -0.351399,0.24805 -0.21704,0.15503 -0.423746,0.24805 -0.242878,0.11885 -0.558103,0.19637 -0.315225,0.0827 -0.738971,0.0827 -0.780311,0 -1.322912,-0.51676 -0.542601,-0.51677 -0.542601,-1.31775 0,-0.65629 0.279052,-1.05936 0.284219,-0.40825 0.80615,-0.64079 0.527097,-0.23254 1.266068,-0.31522 0.738971,-0.0827 1.586462,-0.12403 v -0.14986 q 0,-0.33073 -0.118856,-0.54777 -0.113688,-0.21704 -0.330728,-0.34106 -0.206705,-0.11886 -0.496092,-0.1602 -0.289387,-0.0413 -0.604613,-0.0413 -0.382404,0 -0.852658,0.10336 -0.470254,0.0982 -0.971514,0.28938 h -0.05168 v -0.98701 q 0.284219,-0.0775 0.821653,-0.17054 0.537433,-0.093 1.059363,-0.093 0.60978,0 1.059364,0.10335 0.454751,0.0982 0.785479,0.34106 0.32556,0.23771 0.496092,0.61495 0.170532,0.37724 0.170532,0.93534 z m -0.966346,-1.4211 v -1.60713 q -0.444416,0.0258 -1.049029,0.0775 -0.599444,0.0517 -0.950843,0.14986 -0.418578,0.11885 -0.676959,0.37207 -0.258381,0.24804 -0.258381,0.68729 0,0.49609 0.299722,0.74931 0.299722,0.24804 0.91467,0.24804 0.511595,0 0.93534,-0.19637 0.423746,-0.20153 0.78548,-0.48059 z"
         style="text-align:center;text-anchor:middle;stroke-width:0.264583"
         id="path1440" />
    </g>
    <g
       aria-label="The state of 
the world"
       id="text1180"
       style="font-style:normal;font-weight:normal;font-size:8.81944px;line-height:1.25;font-family:sans-serif;text-align:center;text-anchor:middle;fill:#000000;fill-opacity:1;stroke:none;stroke-width:0.264583">
      <path
         d="m 144.87538,117.62681 h -2.29098 v 5.65426 h -0.85266 v -5.65426 h -2.29099 v -0.75792 h 5.43463 z"
         style="font-size:8.81944px;text-align:center;text-anchor:middle;stroke-width:0.264583"
         id="path1379" />
      <path
         d="m 149.69421,123.28107 h -0.8096 v -2.73885 q 0,-0.33159 -0.0388,-0.62012 -0.0388,-0.29283 -0.14212,-0.45647 -0.10765,-0.18087 -0.31005,-0.267 -0.2024,-0.0904 -0.52538,-0.0904 -0.33159,0 -0.69333,0.16364 -0.36173,0.16364 -0.69332,0.41772 v 3.59151 h -0.8096 v -6.70071 h 0.8096 v 2.42448 q 0.37896,-0.31436 0.78376,-0.49092 0.4048,-0.17656 0.83113,-0.17656 0.77945,0 1.18855,0.46939 0.40911,0.4694 0.40911,1.3522 z"
         style="font-size:8.81944px;text-align:center;text-anchor:middle;stroke-width:0.264583"
         id="path1381" />
      <path
         d="m 155.27957,120.95994 h -3.54414 q 0,0.44355 0.13349,0.77514 0.1335,0.32728 0.36605,0.5383 0.22393,0.2067 0.52968,0.31006 0.31006,0.10335 0.68041,0.10335 0.49092,0 0.98615,-0.19379 0.49954,-0.19809 0.71055,-0.38757 h 0.0431 v 0.8828 q -0.40911,0.17226 -0.83544,0.28853 -0.42633,0.11627 -0.89572,0.11627 -1.19717,0 -1.86897,-0.64595 -0.67179,-0.65026 -0.67179,-1.84313 0,-1.17994 0.64165,-1.87327 0.64596,-0.69332 1.69671,-0.69332 0.97324,0 1.49861,0.56844 0.52969,0.56844 0.52969,1.61489 z m -0.78807,-0.62012 q -0.004,-0.63734 -0.32298,-0.98616 -0.31436,-0.34882 -0.96032,-0.34882 -0.65026,0 -1.03783,0.38327 -0.38327,0.38327 -0.43494,0.95171 z"
         style="font-size:8.81944px;text-align:center;text-anchor:middle;stroke-width:0.264583"
         id="path1383" />
      <path
         d="m 163.04395,121.89442 q 0,0.65887 -0.54691,1.08089 -0.5426,0.42203 -1.4857,0.42203 -0.53399,0 -0.98185,-0.12489 -0.44356,-0.12919 -0.745,-0.27991 v -0.90864 h 0.0431 q 0.38327,0.28852 0.85266,0.46078 0.4694,0.16795 0.90003,0.16795 0.53399,0 0.83544,-0.17226 0.30144,-0.17225 0.30144,-0.5426 0,-0.28422 -0.16364,-0.43064 -0.16364,-0.14641 -0.62873,-0.24977 -0.17225,-0.0387 -0.45217,-0.0904 -0.2756,-0.0517 -0.50384,-0.11197 -0.63304,-0.16794 -0.90003,-0.49092 -0.26269,-0.32729 -0.26269,-0.80099 0,-0.29714 0.12058,-0.55982 0.12488,-0.26269 0.37465,-0.4694 0.24116,-0.2024 0.61151,-0.31867 0.37465,-0.12058 0.83543,-0.12058 0.43064,0 0.86989,0.10766 0.44355,0.10335 0.73639,0.25408 v 0.86558 h -0.0431 q -0.31006,-0.22824 -0.75361,-0.38327 -0.44356,-0.15933 -0.86989,-0.15933 -0.44355,0 -0.7493,0.17225 -0.30576,0.16795 -0.30576,0.50384 0,0.29714 0.18518,0.44787 0.18086,0.15072 0.58566,0.24546 0.22393,0.0517 0.49954,0.10335 0.27992,0.0517 0.46509,0.0947 0.56413,0.12919 0.86989,0.44356 0.30575,0.31867 0.30575,0.84405 z"
         style="font-size:8.81944px;text-align:center;text-anchor:middle;stroke-width:0.264583"
         id="path1385" />
      <path
         d="m 166.70005,123.238 q -0.22823,0.0603 -0.49953,0.0991 -0.267,0.0388 -0.47801,0.0388 -0.73639,0 -1.11966,-0.39619 -0.38326,-0.39618 -0.38326,-1.27038 v -2.55798 h -0.54691 v -0.68041 h 0.54691 v -1.38234 h 0.80959 v 1.38234 h 1.67087 v 0.68041 h -1.67087 v 2.19194 q 0,0.37896 0.0172,0.59428 0.0172,0.21101 0.12058,0.39619 0.0947,0.17225 0.25838,0.25407 0.16795,0.0775 0.50815,0.0775 0.19809,0 0.41341,-0.056 0.21532,-0.0603 0.31006,-0.099 h 0.0431 z"
         style="font-size:8.81944px;text-align:center;text-anchor:middle;stroke-width:0.264583"
         id="path1387" />
      <path
         d="m 171.41553,123.28107 h -0.80529 v -0.51246 q -0.10766,0.0732 -0.29284,0.2067 -0.18086,0.1292 -0.35312,0.20671 -0.2024,0.0991 -0.46509,0.16364 -0.26269,0.0689 -0.61581,0.0689 -0.65026,0 -1.10243,-0.43063 -0.45217,-0.43064 -0.45217,-1.09813 0,-0.5469 0.23255,-0.8828 0.23685,-0.3402 0.67179,-0.53399 0.43925,-0.19379 1.05506,-0.26269 0.61581,-0.0689 1.32206,-0.10335 v -0.12489 q 0,-0.2756 -0.0991,-0.45647 -0.0947,-0.18087 -0.27561,-0.28422 -0.17225,-0.0991 -0.41341,-0.1335 -0.24116,-0.0345 -0.50384,-0.0345 -0.31868,0 -0.71056,0.0861 -0.39187,0.0818 -0.80959,0.24115 h -0.0431 v -0.82251 q 0.23685,-0.0646 0.68472,-0.14211 0.44786,-0.0775 0.8828,-0.0775 0.50815,0 0.88281,0.0861 0.37896,0.0818 0.65456,0.28422 0.27131,0.19809 0.41342,0.51246 0.14211,0.31436 0.14211,0.77945 z m -0.80529,-1.18425 v -1.33928 q -0.37035,0.0215 -0.8742,0.0646 -0.49954,0.0431 -0.79237,0.12489 -0.34881,0.099 -0.56413,0.31005 -0.21532,0.20671 -0.21532,0.57275 0,0.41341 0.24977,0.62442 0.24977,0.20671 0.76223,0.20671 0.42633,0 0.77945,-0.16364 0.35312,-0.16795 0.65457,-0.40049 z"
         style="font-size:8.81944px;text-align:center;text-anchor:middle;stroke-width:0.264583"
         id="path1389" />
      <path
         d="m 175.47212,123.238 q -0.22823,0.0603 -0.49954,0.0991 -0.26699,0.0388 -0.478,0.0388 -0.73639,0 -1.11966,-0.39619 -0.38326,-0.39618 -0.38326,-1.27038 v -2.55798 h -0.54691 v -0.68041 h 0.54691 v -1.38234 h 0.80959 v 1.38234 h 1.67087 v 0.68041 h -1.67087 v 2.19194 q 0,0.37896 0.0172,0.59428 0.0172,0.21101 0.12058,0.39619 0.0947,0.17225 0.25838,0.25407 0.16795,0.0775 0.50815,0.0775 0.19809,0 0.41341,-0.056 0.21532,-0.0603 0.31006,-0.099 h 0.0431 z"
         style="font-size:8.81944px;text-align:center;text-anchor:middle;stroke-width:0.264583"
         id="path1391" />
      <path
         d="m 180.47612,120.95994 h -3.54414 q 0,0.44355 0.1335,0.77514 0.1335,0.32728 0.36604,0.5383 0.22393,0.2067 0.52968,0.31006 0.31006,0.10335 0.68041,0.10335 0.49093,0 0.98616,-0.19379 0.49954,-0.19809 0.71055,-0.38757 h 0.0431 v 0.8828 q -0.4091,0.17226 -0.83543,0.28853 -0.42633,0.11627 -0.89573,0.11627 -1.19717,0 -1.86896,-0.64595 -0.67179,-0.65026 -0.67179,-1.84313 0,-1.17994 0.64165,-1.87327 0.64595,-0.69332 1.6967,-0.69332 0.97324,0 1.49862,0.56844 0.52968,0.56844 0.52968,1.61489 z m -0.78806,-0.62012 q -0.004,-0.63734 -0.32298,-0.98616 -0.31436,-0.34882 -0.96032,-0.34882 -0.65026,0 -1.03783,0.38327 -0.38327,0.38327 -0.43495,0.95171 z"
         style="font-size:8.81944px;text-align:center;text-anchor:middle;stroke-width:0.264583"
         id="path1393" />
      <path
         d="m 188.90368,120.87811 q 0,1.17564 -0.60289,1.85605 -0.60289,0.6804 -1.61489,0.6804 -1.02061,0 -1.6235,-0.6804 -0.59858,-0.68041 -0.59858,-1.85605 0,-1.17563 0.59858,-1.85604 0.60289,-0.68471 1.6235,-0.68471 1.012,0 1.61489,0.68471 0.60289,0.68041 0.60289,1.85604 z m -0.83543,0 q 0,-0.93448 -0.36604,-1.38665 -0.36605,-0.45647 -1.01631,-0.45647 -0.65887,0 -1.02491,0.45647 -0.36174,0.45217 -0.36174,1.38665 0,0.90434 0.36604,1.37374 0.36605,0.46508 1.02061,0.46508 0.64596,0 1.012,-0.46078 0.37035,-0.46509 0.37035,-1.37804 z"
         style="font-size:8.81944px;text-align:center;text-anchor:middle;stroke-width:0.264583"
         id="path1395" />
      <path
         d="m 192.74496,117.36412 h -0.0431 q -0.1335,-0.0388 -0.34882,-0.0775 -0.21532,-0.0431 -0.37896,-0.0431 -0.52107,0 -0.75792,0.23254 -0.23254,0.22824 -0.23254,0.83113 v 0.16364 h 1.45986 v 0.68041 h -1.43403 v 4.12981 h -0.80959 v -4.12981 h -0.54691 v -0.68041 h 0.54691 v -0.15933 q 0,-0.85697 0.42633,-1.31344 0.42633,-0.46078 1.23162,-0.46078 0.2713,0 0.48662,0.0258 0.21962,0.0258 0.40049,0.0603 z"
         style="font-size:8.81944px;text-align:center;text-anchor:middle;stroke-width:0.264583"
         id="path1397" />
      <path
         d="m 149.96551,134.2623 q -0.22824,0.0603 -0.49954,0.099 -0.26699,0.0388 -0.478,0.0388 -0.73639,0 -1.11966,-0.39619 -0.38327,-0.39618 -0.38327,-1.27038 v -2.55798 h -0.54691 v -0.68041 h 0.54691 v -1.38234 h 0.8096 v 1.38234 h 1.67087 v 0.68041 h -1.67087 v 2.19194 q 0,0.37896 0.0172,0.59428 0.0172,0.21101 0.12057,0.39619 0.0947,0.17225 0.25839,0.25407 0.16794,0.0775 0.50815,0.0775 0.19809,0 0.41341,-0.056 0.21532,-0.0603 0.31006,-0.099 h 0.0431 z"
         style="font-size:8.81944px;text-align:center;text-anchor:middle;stroke-width:0.264583"
         id="path1399" />
      <path
         d="m 154.9652,134.30537 h -0.80959 v -2.73885 q 0,-0.33159 -0.0388,-0.62012 -0.0388,-0.29283 -0.14211,-0.45647 -0.10766,-0.18087 -0.31006,-0.267 -0.2024,-0.0904 -0.52538,-0.0904 -0.33159,0 -0.69332,0.16364 -0.36174,0.16364 -0.69333,0.41772 v 3.59151 h -0.80959 v -6.70071 h 0.80959 v 2.42448 q 0.37896,-0.31436 0.78376,-0.49092 0.4048,-0.17656 0.83113,-0.17656 0.77945,0 1.18856,0.46939 0.4091,0.4694 0.4091,1.3522 z"
         style="font-size:8.81944px;text-align:center;text-anchor:middle;stroke-width:0.264583"
         id="path1401" />
      <path
         d="m 160.55056,131.98423 h -3.54414 q 0,0.44356 0.1335,0.77515 0.1335,0.32728 0.36604,0.5383 0.22393,0.2067 0.52968,0.31006 0.31006,0.10335 0.68041,0.10335 0.49092,0 0.98616,-0.19379 0.49953,-0.19809 0.71055,-0.38757 h 0.0431 v 0.8828 q -0.4091,0.17226 -0.83543,0.28853 -0.42634,0.11627 -0.89573,0.11627 -1.19717,0 -1.86896,-0.64595 -0.6718,-0.65026 -0.6718,-1.84313 0,-1.17994 0.64165,-1.87327 0.64596,-0.69332 1.69671,-0.69332 0.97324,0 1.49862,0.56844 0.52968,0.56844 0.52968,1.61489 z m -0.78806,-0.62011 q -0.004,-0.63734 -0.32298,-0.98616 -0.31437,-0.34882 -0.96032,-0.34882 -0.65026,0 -1.03784,0.38327 -0.38326,0.38327 -0.43494,0.95171 z"
         style="font-size:8.81944px;text-align:center;text-anchor:middle;stroke-width:0.264583"
         id="path1403" />
      <path
         d="m 170.92891,129.49515 -1.25316,4.81022 h -0.7493 l -1.23593,-3.70779 -1.22732,3.70779 h -0.745 l -1.26607,-4.81022 h 0.84405 l 0.8828,3.72501 1.20148,-3.72501 h 0.66749 l 1.23162,3.72501 0.83543,-3.72501 z"
         style="font-size:8.81944px;text-align:center;text-anchor:middle;stroke-width:0.264583"
         id="path1405" />
      <path
         d="m 176.19559,131.90241 q 0,1.17564 -0.60289,1.85605 -0.60289,0.6804 -1.61489,0.6804 -1.02061,0 -1.6235,-0.6804 -0.59858,-0.68041 -0.59858,-1.85605 0,-1.17563 0.59858,-1.85604 0.60289,-0.68471 1.6235,-0.68471 1.012,0 1.61489,0.68471 0.60289,0.68041 0.60289,1.85604 z m -0.83543,0 q 0,-0.93448 -0.36604,-1.38665 -0.36605,-0.45647 -1.01631,-0.45647 -0.65887,0 -1.02491,0.45647 -0.36174,0.45217 -0.36174,1.38665 0,0.90434 0.36604,1.37374 0.36605,0.46508 1.02061,0.46508 0.64596,0 1.012,-0.46078 0.37035,-0.46509 0.37035,-1.37804 z"
         style="font-size:8.81944px;text-align:center;text-anchor:middle;stroke-width:0.264583"
         id="path1407" />
      <path
         d="m 180.45028,130.37796 h -0.0431 q -0.18087,-0.0431 -0.35312,-0.0603 -0.16795,-0.0215 -0.40049,-0.0215 -0.37466,0 -0.72347,0.16795 -0.34882,0.16364 -0.6718,0.42633 v 3.41495 h -0.80959 v -4.81022 h 0.80959 v 0.71056 q 0.48232,-0.38758 0.84836,-0.54691 0.37035,-0.16365 0.75361,-0.16365 0.21101,0 0.30575,0.0129 0.0947,0.009 0.28422,0.0388 z"
         style="font-size:8.81944px;text-align:center;text-anchor:middle;stroke-width:0.264583"
         id="path1409" />
      <path
         d="m 182.03072,134.30537 h -0.8096 v -6.70071 h 0.8096 z"
         style="font-size:8.81944px;text-align:center;text-anchor:middle;stroke-width:0.264583"
         id="path1411" />
      <path
         d="m 187.53426,134.30537 h -0.8096 v -0.50385 q -0.34882,0.30145 -0.72778,0.4694 -0.37896,0.16794 -0.82251,0.16794 -0.86128,0 -1.36943,-0.66318 -0.50384,-0.66318 -0.50384,-1.83882 0,-0.6115 0.17225,-1.08951 0.17656,-0.478 0.4737,-0.8139 0.29284,-0.32728 0.68041,-0.49954 0.39188,-0.17225 0.8096,-0.17225 0.37896,0 0.67179,0.0818 0.29283,0.0775 0.61581,0.24546 v -2.08428 h 0.8096 z m -0.8096,-1.18425 v -2.76039 q -0.32728,-0.14641 -0.58567,-0.20239 -0.25838,-0.056 -0.56413,-0.056 -0.68041,0 -1.05937,0.4737 -0.37896,0.4737 -0.37896,1.34359 0,0.85697 0.29284,1.30483 0.29283,0.44355 0.93878,0.44355 0.34451,0 0.69764,-0.15072 0.35312,-0.15503 0.65887,-0.39618 z"
         style="font-size:8.81944px;text-align:center;text-anchor:middle;stroke-width:0.264583"
         id="path1413" />
    </g>
    <g
       id="text1216"
       style="font-style:normal;font-weight:normal;font-size:10.5833px;line-height:1.25;font-family:sans-serif;fill:#000000;fill-opacity:1;stroke:none;stroke-width:0.264583" />
  </g>
</svg>
