<?xml version="1.0" encoding="UTF-8" standalone="no"?>
<svg
   xmlns:dc="http://purl.org/dc/elements/1.1/"
   xmlns:cc="http://creativecommons.org/ns#"
   xmlns:rdf="http://www.w3.org/1999/02/22-rdf-syntax-ns#"
   xmlns:svg="http://www.w3.org/2000/svg"
   xmlns="http://www.w3.org/2000/svg"
   xmlns:sodipodi="http://sodipodi.sourceforge.net/DTD/sodipodi-0.dtd"
   xmlns:inkscape="http://www.inkscape.org/namespaces/inkscape"
   width="280.59064mm"
   height="141.58078mm"
   viewBox="0 0 280.59064 141.58078"
   version="1.1"
   id="svg1481"
   inkscape:version="1.0.2-2 (e86c870879, 2021-01-15)"
   sodipodi:docname="sensor_graph1.svg">
  <defs
     id="defs1475" />
  <sodipodi:namedview
     id="base"
     pagecolor="#ffffff"
     bordercolor="#666666"
     borderopacity="1.0"
     inkscape:pageopacity="0.0"
     inkscape:pageshadow="2"
     inkscape:zoom="0.7"
     inkscape:cx="254.20835"
     inkscape:cy="458.4616"
     inkscape:document-units="mm"
     inkscape:current-layer="layer1"
     inkscape:document-rotation="0"
     showgrid="true"
     inkscape:snap-nodes="true"
     inkscape:snap-others="false"
     showguides="true"
     inkscape:guide-bbox="true"
     fit-margin-top="0"
     fit-margin-left="0"
     fit-margin-right="0"
     fit-margin-bottom="0"
     inkscape:window-width="1431"
     inkscape:window-height="1055"
     inkscape:window-x="160"
     inkscape:window-y="0"
     inkscape:window-maximized="0">
    <inkscape:grid
       type="xygrid"
       id="grid2619"
       dotted="true"
       units="mm"
       spacingx="1"
       spacingy="1"
       visible="false"
       originx="96.894202"
       originy="-38.553572" />
    <sodipodi:guide
       position="101.8942,110.13435"
       orientation="0,-1"
       id="guide2621" />
    <sodipodi:guide
       position="161.8942,45.134353"
       orientation="0,-1"
       id="guide2623" />
  </sodipodi:namedview>
  <metadata
     id="metadata1478">
    <rdf:RDF>
      <cc:Work
         rdf:about="">
        <dc:format>image/svg+xml</dc:format>
        <dc:type
           rdf:resource="http://purl.org/dc/dcmitype/StillImage" />
        <dc:title></dc:title>
      </cc:Work>
    </rdf:RDF>
  </metadata>
  <g
     inkscape:label="Layer 1"
     inkscape:groupmode="layer"
     id="layer1"
     transform="translate(96.894196,-38.553572)">
    <path
       style="fill:none;stroke:#000000;stroke-width:0.264583px;stroke-linecap:butt;stroke-linejoin:miter;stroke-opacity:1"
       d="M -96.761905,38.553572 V 170.84524 H 183.69643"
       id="path2613" />
    <path
       style="fill:none;stroke:#000000;stroke-width:1.465;stroke-linecap:butt;stroke-linejoin:miter;stroke-miterlimit:4;stroke-dasharray:none;stroke-opacity:1"
       d="m -92.982141,138.33928 c 0,0 77.259007,14.00923 105.833331,-6.80357 24.963289,-18.18262 28.860586,-80.581298 59.720239,-79.374997 20.060403,0.784159 19.442922,0.552851 38.553571,12.095238 30.04984,18.149405 73.32738,75.595239 73.32738,75.595239"
       id="path2615"
       sodipodi:nodetypes="csssc" />
    <path
       style="fill:none;stroke:#ff0000;stroke-width:1.665;stroke-linecap:butt;stroke-linejoin:miter;stroke-miterlimit:4;stroke-dasharray:none;stroke-opacity:1"
       d="m -94.999999,135 5,-5 5.000001,5 5,-5 L -75,135 h 35.000001 l 5.000001,-5 L -30,135 h 15 l 5,-5 h 5 l 5,5 h 5 l 5,-5 h 10 l 5,-10 5,-10 9.999999,-15.000001 5,-15.000001 L 50,69.999999 h 65 L 125,75 140,94.999999 145,100 h 5 l 5,5 5,5 5,5 5,5 5,10 h 5 l 5,5"
       id="path2625" />
    <g
       aria-label="Time"
       id="text2629"
       style="font-style:normal;font-weight:normal;font-size:10.5833px;line-height:1.25;font-family:sans-serif;fill:#000000;fill-opacity:1;stroke:none;stroke-width:0.264583">
      <path
         d="M 37.168958,173.21491 H 34.419781 V 180 h -1.02319 v -6.78509 h -2.749178 v -0.90951 h 6.521545 z"
         style="stroke-width:0.264583"
         id="path2706" />
      <path
         d="m 39.16883,173.26141 h -1.095537 v -1.00768 H 39.16883 Z M 39.106818,180 h -0.971514 v -5.77224 h 0.971514 z"
         style="stroke-width:0.264583"
         id="path2708" />
      <path
         d="m 49.452407,180 h -0.971514 v -3.28661 q 0,-0.37207 -0.03617,-0.7183 -0.03101,-0.34623 -0.139526,-0.55294 -0.118855,-0.2222 -0.341063,-0.33589 -0.222208,-0.11369 -0.640786,-0.11369 -0.408242,0 -0.816485,0.2067 -0.408242,0.20154 -0.816485,0.51677 0.0155,0.11885 0.02584,0.27905 0.01034,0.15503 0.01034,0.31006 V 180 h -0.971514 v -3.28661 q 0,-0.38241 -0.03617,-0.72347 -0.03101,-0.34623 -0.139525,-0.55293 -0.118856,-0.22221 -0.341064,-0.33073 -0.222208,-0.11369 -0.640786,-0.11369 -0.397907,0 -0.800982,0.19637 -0.397907,0.19637 -0.795814,0.50126 V 180 h -0.971514 v -5.77224 h 0.971514 v 0.64079 q 0.454751,-0.37724 0.904334,-0.58911 0.454752,-0.21188 0.966347,-0.21188 0.589109,0 0.997352,0.24805 0.41341,0.24805 0.614947,0.68729 0.58911,-0.49609 1.074867,-0.71313 0.485757,-0.22221 1.038693,-0.22221 0.950843,0 1.400426,0.57878 0.454752,0.57361 0.454752,1.60713 z"
         style="stroke-width:0.264583"
         id="path2710" />
      <path
         d="m 56.154819,177.21465 h -4.252957 q 0,0.53226 0.160196,0.93017 0.160197,0.39274 0.439249,0.64596 0.268716,0.24804 0.635618,0.37206 0.372069,0.12403 0.816485,0.12403 0.589109,0 1.183386,-0.23255 0.599445,-0.23771 0.852659,-0.46508 h 0.05168 v 1.05936 q -0.490924,0.20671 -1.00252,0.34623 -0.511595,0.13953 -1.074866,0.13953 -1.4366,0 -2.24275,-0.77515 -0.80615,-0.78031 -0.80615,-2.21174 0,-1.41593 0.769977,-2.24792 0.775144,-0.83199 2.036045,-0.83199 1.167883,0 1.798334,0.68213 0.635618,0.68213 0.635618,1.93786 z m -0.945676,-0.74414 q -0.0052,-0.76481 -0.387572,-1.18339 -0.377237,-0.41857 -1.152381,-0.41857 -0.780311,0 -1.245398,0.45992 -0.459918,0.45991 -0.52193,1.14204 z"
         style="stroke-width:0.264583"
         id="path2712" />
    </g>
    <g
       aria-label="Value"
       transform="rotate(90)"
       id="text2633"
       style="font-style:normal;font-weight:normal;font-size:10.5833px;line-height:1.25;font-family:sans-serif;fill:#000000;fill-opacity:1;stroke:none;stroke-width:0.264583">
      <path
         d="m 97.567047,104.65822 -2.800853,7.69459 H 93.40194 l -2.800853,-7.69459 h 1.095536 l 2.413282,6.76959 2.413282,-6.76959 z"
         style="stroke-width:0.264583"
         id="path2695" />
      <path
         d="m 102.62615,112.35281 h -0.96634 v -0.61494 q -0.12919,0.0879 -0.3514,0.24804 -0.21704,0.15503 -0.42375,0.24805 -0.24287,0.11885 -0.5581,0.19637 -0.31523,0.0827 -0.738971,0.0827 -0.780311,0 -1.322912,-0.51676 -0.542601,-0.51677 -0.542601,-1.31775 0,-0.65629 0.279052,-1.05936 0.284219,-0.40824 0.80615,-0.64079 0.527098,-0.23254 1.266072,-0.31522 0.73897,-0.0827 1.58646,-0.12402 v -0.14987 q 0,-0.33072 -0.11886,-0.54776 -0.11369,-0.21704 -0.33073,-0.34107 -0.2067,-0.11885 -0.49609,-0.16019 -0.28939,-0.0414 -0.60461,-0.0414 -0.382405,0 -0.852659,0.10336 -0.470254,0.0982 -0.971514,0.28938 h -0.05168 v -0.98701 q 0.284219,-0.0775 0.821653,-0.17053 0.537433,-0.093 1.059366,-0.093 0.60978,0 1.05936,0.10335 0.45475,0.0982 0.78548,0.34106 0.32556,0.23772 0.49609,0.61495 0.17053,0.37724 0.17053,0.93534 z m -0.96634,-1.42109 v -1.60714 q -0.44442,0.0258 -1.04903,0.0775 -0.59945,0.0517 -0.950844,0.14986 -0.418578,0.11886 -0.676959,0.37207 -0.258381,0.24805 -0.258381,0.68729 0,0.4961 0.299722,0.74931 0.299722,0.24805 0.91467,0.24805 0.511592,0 0.935342,-0.19637 0.42374,-0.20154 0.78548,-0.48059 z"
         style="stroke-width:0.264583"
         id="path2697" />
      <path
         d="m 105.47868,112.35281 h -0.97151 v -8.04082 h 0.97151 z"
         style="stroke-width:0.264583"
         id="path2699" />
      <path
         d="m 112.18626,112.35281 h -0.97151 v -0.64078 q -0.49092,0.38757 -0.94051,0.59428 -0.44958,0.2067 -0.99218,0.2067 -0.90951,0 -1.41593,-0.55294 -0.50643,-0.5581 -0.50643,-1.63297 v -3.74653 h 0.97151 v 3.28662 q 0,0.43924 0.0413,0.75447 0.0413,0.31006 0.1757,0.53226 0.13953,0.22738 0.36174,0.33073 0.22221,0.10335 0.64595,0.10335 0.37724,0 0.82165,-0.19636 0.44959,-0.19637 0.83716,-0.50126 v -4.30981 h 0.97151 z"
         style="stroke-width:0.264583"
         id="path2701" />
      <path
         d="m 118.93002,109.56746 h -4.25296 q 0,0.53227 0.1602,0.93018 0.16019,0.39274 0.43924,0.64595 0.26872,0.24805 0.63562,0.37207 0.37207,0.12402 0.81649,0.12402 0.58911,0 1.18338,-0.23254 0.59945,-0.23771 0.85266,-0.46509 h 0.0517 v 1.05937 q -0.49093,0.2067 -1.00252,0.34623 -0.5116,0.13952 -1.07487,0.13952 -1.4366,0 -2.24275,-0.77514 -0.80615,-0.78031 -0.80615,-2.21175 0,-1.41593 0.76998,-2.24791 0.77514,-0.83199 2.03604,-0.83199 1.16789,0 1.79834,0.68212 0.63562,0.68213 0.63562,1.93786 z m -0.94568,-0.74414 q -0.005,-0.7648 -0.38757,-1.18338 -0.37724,-0.41858 -1.15238,-0.41858 -0.78031,0 -1.2454,0.45992 -0.45992,0.45992 -0.52193,1.14204 z"
         style="stroke-width:0.264583"
         id="path2703" />
    </g>
    <g
       aria-label="Real value"
       id="text2637"
       style="font-style:normal;font-weight:normal;font-size:8.81944px;line-height:1.25;font-family:sans-serif;text-align:end;text-anchor:end;fill:#000000;fill-opacity:1;stroke:none;stroke-width:0.264583">
      <path
         d="m -63.153454,53.283604 h -1.106736 l -2.144571,-2.54937 h -1.201477 v 2.54937 h -0.85266 v -6.412181 h 1.795755 q 0.581359,0 0.968932,0.07751 0.387573,0.07321 0.697632,0.266994 0.348816,0.219625 0.542602,0.555522 0.198093,0.33159 0.198093,0.844048 0,0.693325 -0.348816,1.162719 -0.348815,0.465087 -0.96032,0.701938 z m -1.993848,-4.607813 q 0,-0.275608 -0.09905,-0.48662 -0.09474,-0.215318 -0.318672,-0.361734 -0.185173,-0.124885 -0.439249,-0.172255 -0.254076,-0.05168 -0.598585,-0.05168 h -1.003384 v 2.420179 h 0.861274 q 0.404798,0 0.706244,-0.0689 0.301446,-0.07321 0.512458,-0.266995 0.193786,-0.180867 0.28422,-0.413411 0.09474,-0.23685 0.09474,-0.598585 z"
         style="font-size:8.81944px;text-align:end;text-anchor:end;stroke-width:0.264583"
         id="path2676" />
      <path
         d="m -58.580092,50.962472 h -3.54414 q 0,0.443556 0.133497,0.775146 0.133497,0.327284 0.366041,0.538296 0.223931,0.206705 0.529683,0.310058 0.310059,0.103353 0.680406,0.103353 0.490926,0 0.986158,-0.193787 0.499539,-0.198092 0.710551,-0.387573 h 0.04306 v 0.882806 q -0.409105,0.172254 -0.835436,0.288526 -0.42633,0.116272 -0.895724,0.116272 -1.19717,0 -1.868963,-0.645955 -0.671794,-0.650261 -0.671794,-1.843125 0,-1.179945 0.641649,-1.87327 0.645955,-0.693325 1.696709,-0.693325 0.973239,0 1.498616,0.568441 0.529683,0.56844 0.529683,1.614887 z m -0.788065,-0.620117 q -0.0043,-0.637342 -0.322978,-0.986158 -0.314365,-0.348816 -0.96032,-0.348816 -0.650261,0 -1.037834,0.383267 -0.383267,0.383266 -0.434943,0.951707 z"
         style="font-size:8.81944px;text-align:end;text-anchor:end;stroke-width:0.264583"
         id="path2678" />
      <path
         d="m -53.614851,53.283604 h -0.805291 v -0.512458 q -0.107659,0.07321 -0.292832,0.206706 -0.180868,0.129191 -0.353123,0.206705 -0.202399,0.09905 -0.465087,0.163642 -0.262689,0.0689 -0.615811,0.0689 -0.650261,0 -1.10243,-0.430637 -0.452168,-0.430636 -0.452168,-1.098123 0,-0.546909 0.232544,-0.882806 0.23685,-0.340203 0.671793,-0.533989 0.439249,-0.193787 1.05506,-0.262688 0.61581,-0.0689 1.322054,-0.103353 V 49.98062 q 0,-0.275607 -0.09905,-0.456475 -0.09474,-0.180867 -0.275607,-0.28422 -0.172255,-0.09905 -0.413412,-0.133497 -0.241156,-0.03445 -0.503845,-0.03445 -0.318671,0 -0.71055,0.08613 -0.39188,0.08182 -0.809597,0.241157 h -0.04306 v -0.822517 q 0.23685,-0.06459 0.684712,-0.14211 0.447863,-0.07751 0.882806,-0.07751 0.508151,0 0.882805,0.08613 0.37896,0.08182 0.654568,0.28422 0.271301,0.198093 0.413411,0.512458 0.14211,0.314365 0.14211,0.779452 z m -0.805291,-1.184251 v -1.33928 q -0.370347,0.02153 -0.874192,0.0646 -0.499539,0.04306 -0.792372,0.124885 -0.348815,0.09905 -0.564134,0.310058 -0.215318,0.206706 -0.215318,0.572747 0,0.413411 0.249769,0.624423 0.24977,0.206706 0.762227,0.206706 0.426331,0 0.779453,-0.163642 0.353122,-0.167948 0.654567,-0.400492 z"
         style="font-size:8.81944px;text-align:end;text-anchor:end;stroke-width:0.264583"
         id="path2680" />
      <path
         d="m -51.237736,53.283604 h -0.809597 v -6.700708 h 0.809597 z"
         style="font-size:8.81944px;text-align:end;text-anchor:end;stroke-width:0.264583"
         id="path2682" />
      <path
         d="m -42.375233,48.473392 -1.946478,4.810212 h -0.813904 l -1.933558,-4.810212 h 0.878498 l 1.490003,3.82836 1.477084,-3.82836 z"
         style="font-size:8.81944px;text-align:end;text-anchor:end;stroke-width:0.264583"
         id="path2684" />
      <path
         d="m -37.750193,53.283604 h -0.805291 v -0.512458 q -0.107659,0.07321 -0.292833,0.206706 -0.180868,0.129191 -0.353122,0.206705 -0.202399,0.09905 -0.465088,0.163642 -0.262688,0.0689 -0.61581,0.0689 -0.650262,0 -1.10243,-0.430637 -0.452169,-0.430636 -0.452169,-1.098123 0,-0.546909 0.232544,-0.882806 0.23685,-0.340203 0.671793,-0.533989 0.43925,-0.193787 1.05506,-0.262688 0.615811,-0.0689 1.322055,-0.103353 V 49.98062 q 0,-0.275607 -0.09905,-0.456475 -0.09474,-0.180867 -0.275607,-0.28422 -0.172255,-0.09905 -0.413411,-0.133497 -0.241157,-0.03445 -0.503845,-0.03445 -0.318671,0 -0.710551,0.08613 -0.391879,0.08182 -0.809597,0.241157 h -0.04306 v -0.822517 q 0.236851,-0.06459 0.684713,-0.14211 0.447862,-0.07751 0.882805,-0.07751 0.508151,0 0.882805,0.08613 0.378961,0.08182 0.654568,0.28422 0.271301,0.198093 0.413411,0.512458 0.142111,0.314365 0.142111,0.779452 z m -0.805291,-1.184251 v -1.33928 q -0.370348,0.02153 -0.874193,0.0646 -0.499538,0.04306 -0.792371,0.124885 -0.348816,0.09905 -0.564134,0.310058 -0.215319,0.206706 -0.215319,0.572747 0,0.413411 0.24977,0.624423 0.249769,0.206706 0.762227,0.206706 0.42633,0 0.779452,-0.163642 0.353122,-0.167948 0.654568,-0.400492 z"
         style="font-size:8.81944px;text-align:end;text-anchor:end;stroke-width:0.264583"
         id="path2686" />
      <path
         d="m -35.373081,53.283604 h -0.809597 v -6.700708 h 0.809597 z"
         style="font-size:8.81944px;text-align:end;text-anchor:end;stroke-width:0.264583"
         id="path2688" />
      <path
         d="m -29.783414,53.283604 h -0.809597 v -0.53399 q -0.409105,0.322978 -0.783759,0.495232 -0.374653,0.172255 -0.826822,0.172255 -0.757921,0 -1.179945,-0.460781 -0.422024,-0.465088 -0.422024,-1.360812 v -3.122116 h 0.809597 v 2.738849 q 0,0.366041 0.03445,0.62873 0.03445,0.258382 0.146417,0.443555 0.116272,0.189481 0.301446,0.275608 0.185173,0.08613 0.538295,0.08613 0.314365,0 0.684713,-0.163642 0.374654,-0.163642 0.697631,-0.417717 v -3.59151 h 0.809597 z"
         style="font-size:8.81944px;text-align:end;text-anchor:end;stroke-width:0.264583"
         id="path2690" />
      <path
         d="m -24.163606,50.962472 h -3.54414 q 0,0.443556 0.133498,0.775146 0.133497,0.327284 0.366041,0.538296 0.223931,0.206705 0.529683,0.310058 0.310059,0.103353 0.680406,0.103353 0.490926,0 0.986158,-0.193787 0.499539,-0.198092 0.710551,-0.387573 h 0.04306 v 0.882806 q -0.409104,0.172254 -0.835435,0.288526 -0.42633,0.116272 -0.895724,0.116272 -1.19717,0 -1.868964,-0.645955 -0.671793,-0.650261 -0.671793,-1.843125 0,-1.179945 0.641649,-1.87327 0.645955,-0.693325 1.696709,-0.693325 0.973239,0 1.498615,0.568441 0.529683,0.56844 0.529683,1.614887 z m -0.788065,-0.620117 q -0.0043,-0.637342 -0.322977,-0.986158 -0.314365,-0.348816 -0.96032,-0.348816 -0.650262,0 -1.037835,0.383267 -0.383266,0.383266 -0.434943,0.951707 z"
         style="font-size:8.81944px;text-align:end;text-anchor:end;stroke-width:0.264583"
         id="path2692" />
    </g>
    <path
       style="fill:none;stroke:#000000;stroke-width:1.665;stroke-linecap:butt;stroke-linejoin:miter;stroke-opacity:1;stroke-miterlimit:4;stroke-dasharray:none"
       d="M -19.999994,50 H 10.000004"
       id="path2643" />
    <path
       style="fill:none;stroke:#ff0000;stroke-width:1.665;stroke-linecap:butt;stroke-linejoin:miter;stroke-opacity:1;stroke-miterlimit:4;stroke-dasharray:none"
       d="M -19.999994,65 H 10.000004"
       id="path2645" />
    <g
       aria-label="Sensor value"
       id="text2651"
       style="font-style:normal;font-weight:normal;font-size:10.5833px;line-height:1.25;font-family:sans-serif;fill:#000000;fill-opacity:1;stroke:none;stroke-width:0.264583">
      <path
         d="m -75.48689,66.453401 q 0,0.374654 -0.176561,0.740696 -0.172254,0.366041 -0.486619,0.620116 -0.34451,0.275608 -0.805291,0.430637 -0.456475,0.155029 -1.10243,0.155029 -0.693325,0 -1.248846,-0.129191 -0.551215,-0.129191 -1.123962,-0.383266 v -1.067979 h 0.06029 q 0.48662,0.404798 1.123962,0.624423 0.637342,0.219625 1.19717,0.219625 0.792371,0 1.231621,-0.29714 0.443556,-0.297139 0.443556,-0.792371 0,-0.426331 -0.211012,-0.62873 -0.206706,-0.202399 -0.633036,-0.314365 -0.322978,-0.08613 -0.701938,-0.14211 -0.374654,-0.05598 -0.796678,-0.14211 -0.852661,-0.180867 -1.266072,-0.61581 -0.409105,-0.43925 -0.409105,-1.141188 0,-0.80529 0.680406,-1.317748 0.680406,-0.516764 1.726853,-0.516764 0.6761,0 1.240234,0.129191 0.564134,0.129191 0.999077,0.318671 v 1.00769 h -0.06029 q -0.366041,-0.310058 -0.964626,-0.512458 -0.594279,-0.206705 -1.218702,-0.206705 -0.684712,0 -1.10243,0.28422 -0.413411,0.28422 -0.413411,0.732082 0,0.400492 0.206705,0.62873 0.206706,0.228237 0.727777,0.348816 0.275607,0.06029 0.783758,0.146416 0.508152,0.08613 0.861274,0.176561 0.714857,0.18948 1.076592,0.572747 0.361734,0.383267 0.361734,1.072285 z"
         style="font-size:8.81944px;stroke-width:0.264583"
         id="path2653" />
      <path
         d="m -70.155607,65.962476 h -3.54414 q 0,0.443555 0.133497,0.775146 0.133497,0.327284 0.366041,0.538296 0.223931,0.206705 0.529683,0.310058 0.310059,0.103353 0.680406,0.103353 0.490926,0 0.986159,-0.193787 0.499538,-0.198093 0.71055,-0.387573 h 0.04306 v 0.882806 q -0.409105,0.172254 -0.835435,0.288526 -0.426331,0.116272 -0.895725,0.116272 -1.19717,0 -1.868963,-0.645955 -0.671793,-0.650261 -0.671793,-1.843125 0,-1.179945 0.641648,-1.87327 0.645955,-0.693325 1.696709,-0.693325 0.973239,0 1.498616,0.56844 0.529683,0.568441 0.529683,1.614888 z m -0.788065,-0.620117 q -0.0043,-0.637343 -0.322978,-0.986158 -0.314365,-0.348816 -0.96032,-0.348816 -0.650261,0 -1.037834,0.383267 -0.383267,0.383266 -0.434943,0.951707 z"
         style="font-size:8.81944px;stroke-width:0.264583"
         id="path2655" />
      <path
         d="m -64.906145,68.283607 h -0.809597 v -2.738849 q 0,-0.33159 -0.03876,-0.620117 -0.03876,-0.292833 -0.14211,-0.456475 -0.10766,-0.180867 -0.310059,-0.266995 -0.202399,-0.09043 -0.525377,-0.09043 -0.33159,0 -0.693325,0.163642 -0.361735,0.163642 -0.693325,0.417717 v 3.59151 h -0.809597 v -4.810212 h 0.809597 v 0.53399 q 0.37896,-0.314365 0.783759,-0.490926 0.404798,-0.176561 0.831129,-0.176561 0.779452,0 1.188557,0.469394 0.409105,0.469394 0.409105,1.352199 z"
         style="font-size:8.81944px;stroke-width:0.264583"
         id="path2657" />
      <path
         d="m -59.91076,66.896957 q 0,0.658874 -0.546909,1.080898 -0.542602,0.422024 -1.485696,0.422024 -0.53399,0 -0.981852,-0.124884 -0.443556,-0.129191 -0.745002,-0.279914 v -0.908644 h 0.04306 q 0.383267,0.288527 0.852661,0.460782 0.469394,0.167948 0.90003,0.167948 0.53399,0 0.835436,-0.172255 0.301445,-0.172254 0.301445,-0.542602 0,-0.28422 -0.163642,-0.430637 -0.163641,-0.146416 -0.628729,-0.249769 -0.172255,-0.03876 -0.452169,-0.09043 -0.275607,-0.05168 -0.503845,-0.111965 -0.633036,-0.167949 -0.90003,-0.490926 -0.262689,-0.327284 -0.262689,-0.800984 0,-0.29714 0.120579,-0.559828 0.124884,-0.262688 0.374653,-0.469394 0.241157,-0.202399 0.611505,-0.318671 0.374654,-0.120579 0.835435,-0.120579 0.430637,0 0.869886,0.10766 0.443556,0.103352 0.736389,0.254075 v 0.86558 h -0.04306 q -0.310058,-0.228237 -0.753614,-0.383267 -0.443556,-0.159335 -0.869886,-0.159335 -0.443556,0 -0.749308,0.172255 -0.305752,0.167948 -0.305752,0.503844 0,0.29714 0.185174,0.447863 0.180867,0.150723 0.585665,0.245463 0.223932,0.05168 0.499539,0.103352 0.279914,0.05168 0.465088,0.09474 0.564134,0.129192 0.869886,0.443556 0.305752,0.318671 0.305752,0.844048 z"
         style="font-size:8.81944px;stroke-width:0.264583"
         id="path2659" />
      <path
         d="m -54.652685,65.880655 q 0,1.175638 -0.602892,1.856044 -0.602891,0.680406 -1.614887,0.680406 -1.020609,0 -1.623501,-0.680406 -0.598585,-0.680406 -0.598585,-1.856044 0,-1.175639 0.598585,-1.856045 0.602892,-0.684712 1.623501,-0.684712 1.011996,0 1.614887,0.684712 0.602892,0.680406 0.602892,1.856045 z m -0.835435,0 q 0,-0.934482 -0.366042,-1.386651 -0.366041,-0.456475 -1.016302,-0.456475 -0.658874,0 -1.024916,0.456475 -0.361734,0.452169 -0.361734,1.386651 0,0.904337 0.366041,1.373731 0.366041,0.465087 1.020609,0.465087 0.645955,0 1.011996,-0.460781 0.370348,-0.465088 0.370348,-1.378037 z"
         style="font-size:8.81944px;stroke-width:0.264583"
         id="path2661" />
      <path
         d="m -50.397995,64.356201 h -0.04306 q -0.180867,-0.04306 -0.353122,-0.06029 -0.167948,-0.02153 -0.400492,-0.02153 -0.374654,0 -0.72347,0.167948 -0.348815,0.163642 -0.671793,0.42633 v 3.414949 h -0.809597 v -4.810212 h 0.809597 v 0.710551 q 0.482313,-0.387573 0.848354,-0.546909 0.370348,-0.163642 0.753615,-0.163642 0.211012,0 0.305752,0.01292 0.09474,0.0086 0.28422,0.03876 z"
         style="font-size:8.81944px;stroke-width:0.264583"
         id="path2663" />
      <path
         d="m -42.375231,63.473395 -1.946478,4.810212 h -0.813903 l -1.933559,-4.810212 h 0.878499 l 1.490003,3.828361 1.477084,-3.828361 z"
         style="font-size:8.81944px;stroke-width:0.264583"
         id="path2665" />
      <path
         d="m -37.750193,68.283607 h -0.805291 V 67.77115 q -0.107659,0.07321 -0.292833,0.206705 -0.180867,0.129191 -0.353122,0.206706 -0.202399,0.09905 -0.465087,0.163642 -0.262689,0.0689 -0.615811,0.0689 -0.650261,0 -1.10243,-0.430637 -0.452168,-0.430637 -0.452168,-1.098123 0,-0.546909 0.232543,-0.882806 0.236851,-0.340203 0.671794,-0.533989 0.439249,-0.193787 1.05506,-0.262689 0.61581,-0.0689 1.322054,-0.103352 v -0.124885 q 0,-0.275608 -0.09905,-0.456475 -0.09474,-0.180867 -0.275608,-0.28422 -0.172254,-0.09905 -0.413411,-0.133498 -0.241156,-0.03445 -0.503845,-0.03445 -0.318671,0 -0.71055,0.08613 -0.39188,0.08182 -0.809597,0.241156 h -0.04306 v -0.822516 q 0.23685,-0.0646 0.684712,-0.14211 0.447862,-0.07751 0.882805,-0.07751 0.508152,0 0.882806,0.08613 0.37896,0.08182 0.654568,0.28422 0.271301,0.198093 0.413411,0.512458 0.14211,0.314365 0.14211,0.779452 z m -0.805291,-1.18425 v -1.339281 q -0.370347,0.02153 -0.874192,0.0646 -0.499539,0.04306 -0.792372,0.124884 -0.348816,0.09905 -0.564134,0.310059 -0.215318,0.206706 -0.215318,0.572747 0,0.413411 0.249769,0.624423 0.249769,0.206706 0.762227,0.206706 0.42633,0 0.779452,-0.163642 0.353123,-0.167949 0.654568,-0.400492 z"
         style="font-size:8.81944px;stroke-width:0.264583"
         id="path2667" />
      <path
         d="m -35.373081,68.283607 h -0.809597 V 61.5829 h 0.809597 z"
         style="font-size:8.81944px;stroke-width:0.264583"
         id="path2669" />
      <path
         d="m -29.783413,68.283607 h -0.809597 v -0.533989 q -0.409105,0.322977 -0.783759,0.495232 -0.374654,0.172255 -0.826823,0.172255 -0.75792,0 -1.179944,-0.460781 -0.422024,-0.465088 -0.422024,-1.360812 v -3.122117 h 0.809597 v 2.73885 q 0,0.366041 0.03445,0.628729 0.03445,0.258383 0.146416,0.443556 0.116272,0.18948 0.301446,0.275608 0.185174,0.08613 0.538296,0.08613 0.314365,0 0.684712,-0.163642 0.374654,-0.163642 0.697632,-0.417717 v -3.591511 h 0.809597 z"
         style="font-size:8.81944px;stroke-width:0.264583"
         id="path2671" />
      <path
         d="m -24.163605,65.962476 h -3.54414 q 0,0.443555 0.133497,0.775146 0.133498,0.327284 0.366041,0.538296 0.223931,0.206705 0.529683,0.310058 0.310059,0.103353 0.680406,0.103353 0.490926,0 0.986159,-0.193787 0.499538,-0.198093 0.71055,-0.387573 h 0.04306 v 0.882806 q -0.409105,0.172254 -0.835435,0.288526 -0.426331,0.116272 -0.895725,0.116272 -1.19717,0 -1.868963,-0.645955 -0.671793,-0.650261 -0.671793,-1.843125 0,-1.179945 0.641648,-1.87327 0.645955,-0.693325 1.696709,-0.693325 0.973239,0 1.498616,0.56844 0.529683,0.568441 0.529683,1.614888 z m -0.788065,-0.620117 q -0.0043,-0.637343 -0.322978,-0.986158 -0.314365,-0.348816 -0.96032,-0.348816 -0.650261,0 -1.037834,0.383267 -0.383267,0.383266 -0.434943,0.951707 z"
         style="font-size:8.81944px;stroke-width:0.264583"
         id="path2673" />
    </g>
  </g>
</svg>
