---
---

<?xml version="1.0" encoding="UTF-8" standalone="no"?>
<svg
   xmlns:dc="http://purl.org/dc/elements/1.1/"
   xmlns:cc="http://creativecommons.org/ns#"
   xmlns:rdf="http://www.w3.org/1999/02/22-rdf-syntax-ns#"
   xmlns:svg="http://www.w3.org/2000/svg"
   xmlns="http://www.w3.org/2000/svg"
   xmlns:sodipodi="http://sodipodi.sourceforge.net/DTD/sodipodi-0.dtd"
   xmlns:inkscape="http://www.inkscape.org/namespaces/inkscape"
   viewBox="0 0 323.12238 211.20364"
   version="1.1"
   id="svg8"
   inkscape:version="1.0.2-2 (e86c870879, 2021-01-15)"
   
   
   sodipodi:docname="median_filter.svg">
  <style
     id="style5077">
.openspot { 
    opacity:0.5;
}
.openspot:hover { 
    fill:#ffd5d5;
    opacity:1;
}
.invisible { visibility:hidden; }
</style>
   
  <defs
     id="defs2">
    <clipPath
       id="clip0">
      <rect
         x="0"
         y="0"
         width="1221"
         height="798"
         id="rect833" />
    </clipPath>
    <clipPath
       id="clip1">
      <rect
         x="0"
         y="0"
         width="1220"
         height="796"
         id="rect836" />
    </clipPath>
    <clipPath
       id="clip2">
      <rect
         x="15"
         y="18"
         width="1188"
         height="764"
         id="rect839" />
    </clipPath>
    <clipPath
       id="clip3">
      <rect
         x="15"
         y="18"
         width="1188"
         height="764"
         id="rect842" />
    </clipPath>
    <clipPath
       id="clip4">
      <rect
         x="15"
         y="18"
         width="1188"
         height="764"
         id="rect845" />
    </clipPath>
    <clipPath
       id="clip5">
      <rect
         x="0"
         y="0"
         width="1220"
         height="796"
         id="rect848" />
    </clipPath>
    <clipPath
       id="clip6">
      <rect
         x="0"
         y="0"
         width="1220"
         height="796"
         id="rect851" />
    </clipPath>
    <clipPath
       id="clip7">
      <rect
         x="0"
         y="0"
         width="1220"
         height="796"
         id="rect854" />
    </clipPath>
    <clipPath
       id="clip8">
      <rect
         x="0"
         y="0"
         width="1220"
         height="796"
         id="rect857" />
    </clipPath>
    <clipPath
       id="clip9">
      <rect
         x="0"
         y="0"
         width="1220"
         height="796"
         id="rect860" />
    </clipPath>
    <clipPath
       id="clip10">
      <rect
         x="0"
         y="0"
         width="1220"
         height="796"
         id="rect863" />
    </clipPath>
    <clipPath
       id="clip0-9">
      <rect
         x="0"
         y="0"
         width="1221"
         height="798"
         id="rect987" />
    </clipPath>
    <clipPath
       id="clip1-7">
      <rect
         x="0"
         y="0"
         width="1220"
         height="796"
         id="rect990" />
    </clipPath>
    <clipPath
       id="clip2-3">
      <rect
         x="13"
         y="18"
         width="1190"
         height="764"
         id="rect993" />
    </clipPath>
    <clipPath
       id="clip3-1">
      <rect
         x="13"
         y="18"
         width="1190"
         height="764"
         id="rect996" />
    </clipPath>
    <clipPath
       id="clip4-6">
      <rect
         x="13"
         y="18"
         width="1190"
         height="764"
         id="rect999" />
    </clipPath>
    <clipPath
       id="clip5-5">
      <rect
         x="0"
         y="0"
         width="1220"
         height="796"
         id="rect1002" />
    </clipPath>
    <clipPath
       id="clip6-5">
      <rect
         x="0"
         y="0"
         width="1220"
         height="796"
         id="rect1005" />
    </clipPath>
    <clipPath
       id="clip7-3">
      <rect
         x="0"
         y="0"
         width="1220"
         height="796"
         id="rect1008" />
    </clipPath>
    <clipPath
       id="clip8-0">
      <rect
         x="0"
         y="0"
         width="1220"
         height="796"
         id="rect1011" />
    </clipPath>
    <clipPath
       id="clip9-2">
      <rect
         x="0"
         y="0"
         width="1220"
         height="796"
         id="rect1014" />
    </clipPath>
    <clipPath
       id="clip10-7">
      <rect
         x="0"
         y="0"
         width="1220"
         height="796"
         id="rect1017" />
    </clipPath>
    <rect
       x="237.75638"
       y="218.40411"
       width="748.31946"
       height="327.64721"
       id="rect5066" />
    <rect
       x="237.75638"
       y="218.40411"
       width="693.91687"
       height="414.69135"
       id="rect1944" />
    <rect
       x="237.75638"
       y="218.40411"
       width="880.21125"
       height="424.36786"
       id="rect5066-2" />
    <rect
       x="237.75638"
       y="218.40411"
       width="748.31946"
       height="327.64722"
       id="rect2170" />
  </defs>
  <sodipodi:namedview
     id="base"
     pagecolor="#ffffff"
     bordercolor="#666666"
     borderopacity="1.0"
     inkscape:pageopacity="0.0"
     inkscape:pageshadow="2"
     inkscape:zoom="0.7"
     inkscape:cx="313.69018"
     inkscape:cy="485.9509"
     inkscape:document-units="mm"
     inkscape:current-layer="layer1"
     inkscape:document-rotation="0"
     showgrid="false"
     inkscape:window-width="1920"
     inkscape:window-height="1001"
     inkscape:window-x="-9"
     inkscape:window-y="-9"
     inkscape:window-maximized="1"
     fit-margin-top="0"
     fit-margin-left="0"
     fit-margin-right="0"
     fit-margin-bottom="0" />
  <metadata
     id="metadata5">
    <rdf:RDF>
      <cc:Work
         rdf:about="">
        <dc:format>image/svg+xml</dc:format>
        <dc:type
           rdf:resource="http://purl.org/dc/dcmitype/StillImage" />
        <dc:title></dc:title>
      </cc:Work>
    </rdf:RDF>
  </metadata>
  <g
     inkscape:label="Layer 1"
     inkscape:groupmode="layer"
     id="layer1"
     transform="translate(102.59691,-36.517226)">
    <rect
       x="-102.56384"
       y="36.550301"
       width="322.79166"
       height="210.87291"
       fill="#ffffff"
       id="rect1022"
       style="stroke-width:0.264583" />
    <g
       clip-path="url(#clip1-7)"
       id="g1026"
       transform="matrix(0.26458333,0,0,0.26458333,-102.56384,36.550299)">
      <path
         d="m 13.5,781.5 h 1188 m -1188,-146 h 1188 m -1188,-145 h 1188 m -1188,-145 h 1188 m -1188,-146 h 1188 M 13.5,54.5 h 1188"
         stroke="#d9d9d9"
         stroke-width="1.25"
         stroke-linejoin="round"
         stroke-miterlimit="10"
         fill="none"
         id="path1024" />
    </g>
    <g
       clip-path="url(#clip2-3)"
       id="g1030"
       transform="matrix(0.26458333,0,0,0.26458333,-102.56384,36.550299)">
      <path
         d="m 14,434 1,-39 1,-39 1,-30 v -30 l 1,-31 1,-30 1,-30 1,-30 v -30 l 1,-30 1,-30 1,-30 h 1 v 0 h 1 1 1 1 v 0 h 1 1 1 l 1,70 1,71 v 71 l 1,70 1,71 1,71 1,71 v 70 l 1,71 1,71 1,-41 1,-41 v -41 l 1,-40 1,-41 1,-41 1,-40 v -41 l 1,-41 1,-41 1,1 h 1 v 1 h 1 1 l 1,1 h 1 v 0 l 1,1 h 1 l 1,5 1,5 1,5 v 5 l 1,4 1,5 1,5 1,5 v 5 l 1,5 1,-36 1,-35 1,-35 v -35 l 1,-35 1,-36 1,-35 1,-35 V 90 l 1,-35 h 1 1 1 v 0 h 1 1 1 1 1 v 0 l 1,33 1,33 1,33 1,33 v 33 l 1,33 1,33 1,33 1,33 v 33 l 1,1 1,2 1,1 1,1 v 1 l 1,1 1,1 1,1 1,2 v 1 l 1,-34 1,-35 1,-34 1,-34 1,-34 v -34 l 1,-35 1,-34 1,-34 1,-34 v 35 l 1,35 1,35 1,36 1,35 v 35 l 1,36 1,35 1,35 1,35 v -1 l 1,-1 1,-1 1,-1 1,-2 v -1 l 1,-1 1,-1 1,-1 1,-1 v -5 l 1,-4 1,-4 1,-5 1,-4 1,-4 v -5 l 1,-4 1,-4 1,-5 h 1 v 0 h 1 1 l 1,-1 h 1 v 0 h 1 1 l 1,-1 1,3 v 3 l 1,3 1,4 1,3 1,3 v 3 l 1,3 1,3 1,3 1,-3 1,-4 v -3 l 1,-3 1,-3 1,-3 1,-3 v -3 l 1,-3 1,-4 1,4 1,4 v 5 l 1,4 1,4 1,4 1,4 v 4 l 1,4 1,4 1,36 1,37 v 36 l 1,37 1,36 1,37 1,36 v 37 l 1,37 1,36 1,-38 1,-38 1,-38 v -37 l 1,-38 1,-38 1,-38 1,-38 v -38 l 1,-38 1,2 1,3 1,2 v 2 l 1,2 1,2 1,2 1,3 v 2 l 1,2 1,-4 1,-5 1,-4 v -4 l 1,-5 1,-4 1,-4 1,-5 1,-4 v -4 l 1,4 1,5 1,4 1,5 v 4 l 1,5 1,4 1,5 1,4 v 5 h 1 l 1,-1 h 1 1 v 0 l 1,-1 h 1 1 l 1,-1 v 0 l 1,-4 1,-4 1,-4 1,-4 1,-5 v -4 l 1,-4 1,-4 1,-4 1,-4 v 2 l 1,3 1,3 1,2 1,3 v 3 l 1,3 1,2 1,3 1,3 v 37 l 1,37 1,37 1,37 1,37 v 37 l 1,38 1,37 1,37 1,37 v -34 l 1,-33 1,-34 1,-34 1,-33 1,-34 v -34 l 1,-34 1,-33 1,-34 1,-3 v -3 l 1,-3 1,-3 1,-3 1,-3 v -3 l 1,-3 1,-3 1,-3 1,2 v 3 l 1,3 1,3 1,3 1,3 v 3 l 1,2 1,3 1,3 1,-7 1,-7 v -6 l 1,-7 1,-7 1,-7 1,-7 v -7 l 1,-7 1,-7 1,2 1,2 v 2 l 1,1 1,2 1,2 1,2 v 1 l 1,2 1,2 1,3 1,3 v 3 l 1,3 1,3 1,3 1,3 1,3 v 3 l 1,3 h 1 l 1,-1 h 1 v 0 h 1 1 1 l 1,-1 v 0 h 1 l 1,1 h 1 l 1,1 v 0 l 1,1 h 1 l 1,1 h 1 v 1 h 1 l 1,-5 1,-5 1,-5 v -5 l 1,-5 1,-5 1,-5 1,-5 1,-5 v -5 h 1 l 1,1 1,1 1,1 v 1 l 1,1 1,1 1,1 1,1 v 1 l 1,5 1,5 1,6 1,5 v 5 l 1,5 1,6 1,5 1,5 v 5 l 1,36 1,36 1,36 1,35 1,36 v 36 l 1,35 1,36 1,36 1,36 v -41 l 1,-41 1,-41 1,-41 1,-41 v -41 l 1,-41 1,-41 1,-41 1,-41 v -30 l 1,-30 1,-30 1,-30 1,-31 v -30 l 1,-30 1,-30 1,-30 1,-30 v 31 l 1,32 1,32 1,32 1,32 1,32 v 32 l 1,31 1,32 1,32 1,4 v 5 l 1,4 1,4 1,4 1,5 v 4 l 1,4 1,4 1,5 1,-36 v -36 l 1,-37 1,-36 1,-36 1,-36 v -36 l 1,-36 1,-36 1,-36 1,31 1,31 v 31 l 1,31 1,31 1,32 1,31 v 31 l 1,31 1,31 1,3 1,3 v 3 l 1,2 1,3 1,3 1,3 v 2 l 1,3 1,3 1,32 1,31 v 32 l 1,32 1,32 1,32 1,31 1,32 v 32 l 1,32 1,-33 1,-33 1,-33 v -33 l 1,-34 1,-33 1,-33 1,-33 v -33 l 1,-33 1,2 1,2 1,1 v 2 l 1,2 1,2 1,1 1,2 v 2 l 1,1 1,-1 1,-1 1,-1 v -1 l 1,-1 1,-1 1,-1 1,-1 1,-1 v -1 l 1,-1 1,-1 h 1 l 1,-1 v -1 h 1 l 1,-1 1,-1 h 1 v -1 l 1,-23 1,-22 1,-23 1,-22 v -23 l 1,-23 1,-22 1,-23 1,-22 v -23 l 1,3 1,4 1,3 1,3 1,3 v 4 l 1,3 1,3 1,3 1,4 v 36 l 1,37 1,37 1,37 1,36 v 37 l 1,37 1,37 1,36 1,37 v -40 l 1,-39 1,-40 1,-39 1,-40 v -39 l 1,-40 1,-39 1,-40 1,-40 1,3 v 3 l 1,2 1,3 1,2 1,3 v 3 l 1,2 1,3 1,3 1,-5 v -4 l 1,-5 1,-4 1,-5 1,-4 v -5 l 1,-4 1,-5 1,-4 1,1 v 2 l 1,2 1,1 1,2 1,2 v 1 l 1,2 1,2 1,1 1,1 1,1 v 1 l 1,1 1,1 h 1 l 1,1 v 1 l 1,1 1,1 1,-3 1,-3 v -2 l 1,-3 1,-3 1,-3 1,-2 v -3 l 1,-3 1,-2 1,36 1,36 v 36 l 1,36 1,36 1,36 1,36 1,37 v 36 l 1,36 1,-36 1,-36 1,-36 v -36 l 1,-36 1,-36 1,-36 1,-36 v -36 l 1,-36 1,1 1,1 1,1 v 1 l 1,1 1,1 1,1 1,1 v 1 l 1,1 1,1 1,1 1,2 v 1 l 1,2 1,1 1,2 1,1 1,2 v 1 l 1,40 1,39 1,40 1,40 v 39 l 1,40 1,40 1,39 1,40 v 39 l 1,-40 1,-41 1,-41 1,-41 v -41 l 1,-41 1,-40 1,-41 1,-41 v -41 l 1,4 1,3 1,4 1,4 1,3 v 4 l 1,4 1,3 1,4 1,4 v -6 l 1,-5 1,-6 1,-5 1,-6 v -6 l 1,-5 1,-6 1,-5 1,-6 v 5 l 1,5 1,5 1,5 1,5 v 5 l 1,4 1,5 1,5 1,5 1,-13 v -12 l 1,-13 1,-13 1,-13 1,-12 V 93 l 1,-13 1,-13 1,-12 1,13 v 13 l 1,13 1,13 1,13 1,13 v 13 l 1,13 1,13 1,13 1,1 v 1 l 1,1 1,1 h 1 l 1,1 v 1 l 1,1 1,1 1,1 1,-7 1,-6 v -7 l 1,-6 1,-7 1,-6 1,-7 v -6 l 1,-7 1,-6 1,1 h 1 v 1 h 1 l 1,1 1,1 h 1 v 1 h 1 l 1,1 1,4 1,4 v 4 l 1,4 1,4 1,4 1,4 1,4 v 4 l 1,4 1,2 1,2 1,2 v 2 l 1,1 1,2 1,2 1,2 v 2 l 1,1 h 1 l 1,-1 1,-1 v -1 l 1,-1 h 1 l 1,-1 1,-1 v -1 h 1 1 1 l 1,-1 h 1 v 0 h 1 1 1 1 v 0 l 1,-4 1,-4 1,-4 1,-5 v -4 l 1,-4 1,-4 1,-4 1,-4 v -5 l 1,5 1,5 1,5 1,5 v 5 l 1,5 1,5 1,5 1,5 v 4 l 1,-6 1,-6 1,-7 1,-6 1,-7 v -6 l 1,-7 1,-6 1,-7 1,-6 v 0 h 1 l 1,1 h 1 1 v 0 l 1,1 h 1 1 1 v 1 l 1,1 1,1 1,1 1,1 v 1 l 1,1 1,1 1,1 1,1 1,5 v 5 l 1,5 1,5 1,5 1,4 v 5 l 1,5 1,5 1,5 h 1 v 0 h 1 l 1,1 h 1 1 v 0 h 1 1 l 1,1 1,-5 v -5 l 1,-5 1,-4 1,-5 1,-5 v -5 l 1,-4 1,-5 1,-5 1,2 1,1 v 2 l 1,1 1,2 1,2 1,1 v 2 l 1,1 1,2 1,-3 1,-2 v -3 l 1,-2 1,-3 1,-2 1,-3 v -2 l 1,-2 1,-3 1,3 1,3 v 3 l 1,4 1,3 1,3 1,3 1,3 v 3 l 1,3 1,2 1,2 1,2 v 2 l 1,2 1,2 1,3 1,2 v 2 l 1,2 1,-3 1,-2 1,-2 v -3 l 1,-2 1,-3 1,-2 1,-2 v -3 l 1,-2 1,-3 1,-2 1,-3 1,-3 v -3 l 1,-2 1,-3 1,-3 1,-3 v -2 l 1,3 1,2 1,3 1,3 v 3 l 1,2 1,3 1,3 1,3 v 3 l 1,-3 1,-2 1,-2 1,-2 v -2 l 1,-2 1,-2 1,-2 1,-2 v -2 l 1,2 1,2 1,3 1,2 1,2 v 2 l 1,3 1,2 1,2 1,2 v 1 l 1,1 h 1 l 1,1 1,1 v 1 h 1 l 1,1 1,1 h 1 v -2 l 1,-3 1,-2 1,-3 1,-2 v -3 l 1,-2 1,-3 1,-2 1,-3 1,3 v 3 l 1,3 1,3 1,3 1,3 v 3 l 1,3 1,3 1,3 1,-2 v -2 l 1,-2 1,-2 1,-3 1,-2 v -2 l 1,-2 1,-2 1,-2 1,1 v 2 l 1,1 1,2 1,1 1,2 1,1 v 2 l 1,1 1,2 1,2 1,2 v 2 l 1,2 1,2 1,2 1,2 v 2 l 1,2 1,2 1,-6 1,-5 v -6 l 1,-6 1,-6 1,-6 1,-6 v -5 l 1,-6 1,-6 1,7 1,7 v 6 l 1,7 1,7 1,7 1,6 1,7 v 7 l 1,7 1,-7 1,-7 1,-7 v -7 l 1,-7 1,-7 1,-7 1,-7 v -7 l 1,-7 1,6 1,5 1,5 v 5 l 1,5 1,5 1,6 1,5 v 5 l 1,5 1,1 1,1 1,1 1,1 v 1 l 1,2 1,1 1,1 1,1 v 1 l 1,-2 1,-1 1,-2 1,-1 v -2 l 1,-1 1,-2 1,-1 1,-1 v -2 l 1,-4 1,-4 1,-4 1,-4 v -4 l 1,-5 1,-4 1,-4 1,-4 v -4 h 1 l 1,1 1,1 h 1 l 1,1 v 0 l 1,1 h 1 l 1,1 h 1 v -8 l 1,-9 1,-9 1,-9 1,-8 v -9 l 1,-9 1,-9 1,-9 1,-8 v 12 l 1,13 1,12 1,12 1,13 v 12 l 1,13 1,12 1,13 1,12 1,2 v 2 l 1,2 1,2 1,2 1,2 v 2 l 1,2 1,2 1,3 1,-6 v -5 l 1,-5 1,-5 1,-6 1,-5 v -5 l 1,-5 1,-6 1,-5 1,5 v 5 l 1,5 1,6 1,5 1,5 1,5 v 5 l 1,5 1,5 1,35 1,34 v 35 l 1,34 1,35 1,34 1,34 v 35 l 1,34 1,35 1,-42 1,-41 v -41 l 1,-42 1,-41 1,-41 1,-41 v -42 l 1,-41 1,-41 1,2 1,3 v 3 l 1,3 1,2 1,3 1,3 1,3 v 2 l 1,3 1,34 1,34 1,34 v 34 l 1,34 1,34 1,33 1,34 v 34 l 1,34 1,-34 1,-35 1,-35 v -34 l 1,-35 1,-34 1,-35 1,-34 v -35 l 1,-34 h 1 1 1 1 v 0 h 1 1 1 1 v 0 l 1,5 1,4 1,5 1,5 v 5 l 1,4 1,5 1,5 1,5 v 5 l 1,-1 1,-1 1,-1 1,-1 v -1 l 1,-1 1,-1 h 1 l 1,-1 1,-1 v -6 l 1,-5 1,-6 1,-6 1,-5 v -6 l 1,-6 1,-5 1,-6 1,-6 v -8 l 1,-7 1,-8 1,-8 1,-8 v -8 l 1,-8 1,-8 1,-7 1,-8 v 0 h 1 1 1 1 v 0 h 1 1 1 1 l 1,8 v 9 l 1,9 1,9 1,8 1,9 v 9 l 1,9 1,8 1,9 1,2 v 2 l 1,2 1,1 1,2 1,2 v 2 l 1,2 1,2 1,1 1,37 v 37 l 1,36 1,37 1,37 1,36 1,37 v 37 l 1,36 1,37 1,-34 1,-34 v -35 l 1,-34 1,-34 1,-35 1,-34 v -34 l 1,-35 1,-34 1,1 1,1 v 1 l 1,1 1,1 1,1 1,1 v 1 l 1,1 1,1 h 1 1 v -1 h 1 1 l 1,-1 h 1 1 v 0 l 1,-1 1,-1 1,-1 1,-1 v -1 l 1,-1 1,-1 1,-1 1,-1 v -1 l 1,-1 h 1 l 1,-1 h 1 v -1 l 1,-1 h 1 l 1,-1 1,-1 v 0 l 1,-1 1,2 1,2 1,2 1,2 v 2 l 1,2 1,2 1,2 1,1 v 2 l 1,-5 1,-6 1,-5 1,-6 v -6 l 1,-5 1,-6 1,-5 1,-6 v -5 l 1,5 1,6 1,5 1,5 v 6 l 1,5 1,6 1,5 1,6 1,5 v -5 l 1,-6 1,-5 1,-6 1,-5 v -6 l 1,-5 1,-6 1,-5 1,-6 v 4 l 1,4 1,4 1,3 1,4 v 4 l 1,4 1,3 1,4 1,4 v 1 l 1,2 1,1 1,1 1,1 v 2 l 1,1 1,1 1,1 1,2 1,-1 v 0 h 1 1 l 1,-1 h 1 v 0 l 1,-1 h 1 1 l 1,-1 v -1 l 1,-1 1,-1 1,-1 1,-1 v -1 l 1,-1 h 1 l 1,-1 1,1 v 2 l 1,1 1,2 1,2 1,1 1,2 v 1 l 1,2 1,2 1,37 1,37 v 36 l 1,37 1,37 1,37 1,37 v 37 l 1,37 1,37 1,-41 1,-41 v -41 l 1,-41 1,-41 1,-41 1,-41 v -41 l 1,-40 1,-41 h 1 l 1,1 1,1 v 1 l 1,1 1,1 1,1 1,1 v 1 h 1 l 1,3 1,3 1,3 v 3 l 1,2 1,3 1,3 1,3 v 2 l 1,3 1,-5 1,-6 1,-6 v -5 l 1,-6 1,-5 1,-6 1,-5 v -6"
         stroke="#2f5597"
         stroke-width="3.75"
         stroke-linecap="round"
         stroke-linejoin="round"
         stroke-miterlimit="10"
         stroke-dasharray="0, 7.5"
         fill="none"
         id="path1028" />
    </g>
    <g
       clip-path="url(#clip3-1)"
       id="g1034"
       transform="matrix(0.26458333,0,0,0.26458333,-102.56384,36.550299)">
      <path
         d="m 14,381 h 1 1 1 v 0 h 1 1 1 1 v 0 h 1 1 1 l 1,-4 v -3 l 1,-4 1,-3 1,-4 1,-3 v -2 l 1,-1 h 1 1 l 1,-1 h 1 v 0 l 1,-1 h 1 1 1 v 0 h 1 1 1 1 v 0 h 1 1 1 1 v 0 h 1 1 1 1 v 0 h 1 1 1 1 v 0 h 1 1 1 1 l 1,1 v 0 h 1 1 1 1 v 1 h 1 1 l 1,-1 h 1 v 0 h 1 1 1 1 v 0 h 1 1 1 1 v 0 h 1 1 1 1 1 v 0 h 1 1 1 1 v -1 h 1 l 1,-1 1,-17 h 1 v 0 h 1 1 1 1 v 0 h 1 1 1 1 v 0 h 1 1 1 1 1 v 0 h 1 1 1 1 v 0 h 1 1 1 1 v 0 h 1 1 l 1,15 1,2 v 1 h 1 l 1,1 h 1 1 v 0 h 1 1 1 1 v 0 h 1 1 1 1 1 v 0 h 1 1 1 1 v 0 h 1 1 l 1,-4 h 1 v 0 h 1 1 1 1 v 0 h 1 1 1 1 v 0 h 1 1 1 1 1 v 0 h 1 1 1 1 v 1 h 1 1 1 l 1,3 v 0 l 1,1 h 1 l 1,2 h 1 v 2 l 1,1 h 1 l 1,1 h 1 v 2 h 1 l 1,1 h 1 l 1,2 v 1 l 1,1 h 1 1 1 1 v 0 h 1 1 1 1 v 0 h 1 1 l 1,1 1,1 v 0 l 1,2 h 1 1 l 1,1 v 1 l 1,2 h 1 1 1 v 0 h 1 1 1 1 1 v 0 h 1 1 1 1 v -1 h 1 1 1 1 v 0 h 1 1 1 1 v 0 l 1,1 h 1 1 1 v 3 h 1 1 l 1,1 h 1 1 v 0 h 1 1 1 1 v 0 h 1 1 1 1 v 0 h 1 1 1 1 v 1 h 1 l 1,2 h 1 1 v 1 h 1 l 1,1 1,2 h 1 v 0 l 1,1 1,1 h 1 l 1,2 1,1 v 0 l 1,1 1,1 1,1 h 1 v 0 h 1 1 1 1 v 0 l 1,-1 h 1 l 1,-1 1,-1 v 0 h 1 1 1 1 v 0 h 1 1 1 1 l 1,1 v 0 h 1 1 1 1 v 0 h 1 1 l 1,-1 1,-1 v 0 h 1 1 1 1 v 0 h 1 1 1 1 v 0 h 1 1 1 1 1 v 0 h 1 1 1 1 v 0 h 1 1 1 1 v -1 h 1 1 1 1 v 1 h 1 1 1 1 v 0 h 1 1 1 1 v 0 h 1 1 1 1 1 v 0 h 1 1 1 1 v 0 h 1 1 l 1,-1 h 1 v 0 h 1 1 l 1,-1 1,-1 v -1 l 1,-1 h 1 1 1 v 0 h 1 1 1 1 1 v 0 h 1 1 1 1 v 1 l 1,2 h 1 1 1 v 0 h 1 1 1 l 1,-3 v 0 l 1,-1 h 1 l 1,-2 1,-3 v 0 h 1 1 1 1 v 0 h 1 1 1 1 1 v 0 h 1 1 1 1 v 0 l 1,3 1,1 1,1 h 1 v 1 l 1,2 1,1 1,1 1,-2 v -3 h 1 l 1,-1 1,-4 h 1 v 0 l 1,-2 1,-3 h 1 1 l 1,-4 v -1 h 1 l 1,-5 1,-1 1,-4 v -1 l 1,-4 h 1 1 1 v 0 h 1 1 1 1 v 0 l 1,4 1,5 h 1 l 1,3 v 3 h 1 l 1,1 1,2 1,2 h 1 v 0 l 1,3 h 1 l 1,2 h 1 v 1 l 1,3 h 1 1 1 v 0 h 1 l 1,-3 h 1 1 v 0 h 1 1 1 1 v 0 h 1 1 1 1 v 0 h 1 1 1 1 1 v 0 l 1,2 1,1 h 1 1 v 0 h 1 1 1 1 v 0 h 1 1 1 1 v 0 h 1 1 1 1 v 0 h 1 1 1 1 l 1,-1 v 0 l 1,-1 h 1 l 1,-1 h 1 v 0 h 1 1 1 1 v 0 h 1 l 1,1 h 1 l 1,1 v 0 l 1,1 h 1 1 1 v 0 h 1 1 1 1 1 v 0 h 1 1 1 1 v 0 h 1 1 l 1,-1 h 1 v -1 h 1 l 1,-1 h 1 l 1,-1 v 0 l 1,-1 h 1 l 1,-10 1,-13 v -1 l 1,-21 1,-1 1,-17 1,-5 v -15 l 1,-7 1,-13 1,-10 1,-7 1,-16 v -6 l 1,-15 1,-1 1,-23 1,-1 v -11 l 1,-2 1,-2 1,-1 1,-2 v 0 l 1,-1 1,-2 h 1 1 v -1 l 1,-2 h 1 1 1 v 0 h 1 1 1 1 1 v 0 h 1 1 1 1 v 0 h 1 1 1 1 v 0 l 1,-3 h 1 1 1 v 0 h 1 1 1 l 1,-2 v -2 l 1,-1 1,-1 1,-1 h 1 v -1 l 1,-1 h 1 1 l 1,-1 h 1 v 0 h 1 1 1 1 v 0 h 1 1 1 1 v 0 l 1,1 h 1 1 1 v 0 h 1 1 1 1 v 0 l 1,-1 h 1 1 1 1 v 0 h 1 l 1,1 h 1 1 v 0 l 1,1 h 1 l 1,1 h 1 v 0 h 1 1 1 1 v 0 h 1 1 1 1 v 0 l 1,1 1,1 h 1 1 l 1,2 v 0 h 1 1 1 1 v 0 h 1 1 1 1 v -2 h 1 1 l 1,-3 1,-1 v 0 h 1 1 1 1 v 0 h 1 1 1 1 v 0 h 1 1 1 1 1 v 1 l 1,3 h 1 1 1 v 0 h 1 1 1 1 v 0 h 1 1 1 1 v 0 h 1 1 1 l 1,-4 v 0 l 1,-2 h 1 l 1,-2 h 1 1 v 0 h 1 1 1 1 v 0 h 1 1 1 1 v 0 h 1 l 1,2 h 1 l 1,2 v 0 h 1 1 1 1 v 0 h 1 1 1 1 1 v 0 h 1 l 1,4 h 1 l 1,1 v 1 l 1,2 1,1 h 1 1 v 0 h 1 1 1 1 v -1 l 1,-2 1,-1 h 1 1 v 0 l 1,3 1,1 1,1 h 1 v 1 l 1,1 1,2 h 1 1 1 v 0 h 1 1 1 1 v -2 l 1,-1 1,-1 h 1 1 v -2 l 1,-3 h 1 1 l 1,-1 v 0 l 1,-3 1,-1 h 1 l 1,-2 v -1 h 1 1 1 1 1 v 0 h 1 1 l 1,3 h 1 v 1 l 1,1 1,2 h 1 l 1,1 v 0 l 1,1 1,2 1,2 h 1 v 0 l 1,1 1,1 1,2 h 1 v 1 l 1,-1 1,-1 1,-2 1,-1 v 0 h 1 l 1,-1 1,-3 1,-1 h 1 v -1 h 1 l 1,-2 1,-1 1,-1 v -1 l 1,-2 h 1 1 l 1,-1 v -1 l 1,-1 h 1 l 1,-1 h 1 v 0 l 1,-1 1,-1 h 1 1 v -1 h 1 1 1 1 1 v 0 h 1 1 l 1,1 h 1 v 0 h 1 1 1 1 v 0 h 1 1 1 1 v 0 h 1 1 1 l 1,1 v 1 h 1 1 l 1,1 h 1 1 v 0 h 1 1 1 1 v 0 h 1 1 1 1 v 0 h 1 1 1 1 v 0 l 1,2 h 1 1 1 v -1 l 1,-1 h 1 1 1 v -1 h 1 1 1 l 1,-2 h 1 v 0 h 1 1 1 1 v 0 h 1 1 1 1 v 0 h 1 1 1 l 1,1 v 1 h 1 1 1 l 1,1 v 0 h 1 1 1 l 1,-1 h 1 v 0 h 1 1 l 1,1 h 1 v 1 h 1 1 l 1,1 h 1 v 0 l 1,1 h 1 1 l 1,1 v 0 h 1 1 1 l 1,-1 v 0 h 1 1 1 1 1 v 0 h 1 1 1 1 v 0 h 1 1 1 1 v 0 h 1 1 1 1 v 0 l 1,1 h 1 1 1 v 0 h 1 1 1 1 v 0 h 1 1 1 1 l 1,1 v 0 l 1,1 h 1 l 1,1 h 1 v 0 h 1 1 1 1 v 0 h 1 1 1 1 v 0 h 1 1 l 1,1 h 1 v 0 h 1 l 1,1 h 1 1 1 v 0 h 1 1 1 1 v 0 h 1 1 l 1,1 h 1 v 0 h 1 l 1,1 h 1 l 1,2 v 0 h 1 1 1 1 v 0 h 1 1 1 1 v 0 h 1 l 1,-2 h 1 l 1,-1 h 1 v 0 h 1 1 1 1 v 0 h 1 1 1 1 v 0 h 1 1 1 l 1,-1 v 0 l 1,-1 1,-3 1,-1 h 1 v -2 l 1,-1 h 1 1 1 1 v 0 h 1 1 1 1 v 0 l 1,1 1,2 1,1 1,3 v 1 h 1 l 1,1 h 1 l 1,1 v -1 h 1 l 1,-1 1,-1 1,-2 v -1 h 1 1 1 1 1 v 1 l 1,3 1,1 h 1 l 1,1 v 0 l 1,2 1,2 1,1 h 1 v 1 l 1,3 1,1 h 1 1 v 0 h 1 1 1 1 v 0 l 1,-4 1,-1 h 1 l 1,-2 v -1 l 1,-2 h 1 l 1,-1 1,-1 1,-3 v -1 h 1 1 1 1 v 0 h 1 l 1,1 1,4 1,1 v 0 l 1,3 1,2 h 1 l 1,5 v 1 h 1 l 1,2 1,2 h 1 v 1 h 1 1 1 1 1 v 0 h 1 1 1 1 v 0 h 1 1 1 1 v 0 h 1 1 l 1,1 h 1 v 2 l 1,1 1,1 h 1 1 v 2 h 1 l 1,1 h 1 l 1,-1 h 1 v -1 l 1,-1 h 1 1 1 v 0 h 1 1 1 1 v 0 h 1 1 1 1 v 0 h 1 1 1 l 1,-4 v -1 h 1 l 1,-5 h 1 l 1,-4 v -2 l 1,-2 1,-1 1,-3 1,-2 1,-3 v -2 l 1,-3 1,-1 h 1 l 1,-2 v -2 l 1,-1 h 1 1 1 v 0 h 1 1 1 1 v 0 l 1,1 1,1 h 1 1 v 0 h 1 1 1 1 1 v 0 h 1 1 1 1 v 0 h 1 1 1 1 v 0 h 1 1 l 1,2 1,1 v 0 l 1,1 1,2 1,1 h 1 v 2 l 1,3 1,2 1,3 1,3 v 2 l 1,4 h 1 l 1,5 h 1 1 v 0 h 1 1 1 1 v 0 h 1 1 1 1 v -1 l 1,-1 1,-1 h 1 1 v 0 h 1 1 1 1 v 0 h 1 1 1 1 1 v 1 l 1,1 h 1 l 1,1 h 1 v 1 h 1 1 1 1 v 0 h 1 1 1 1 v 0 h 1 1 1 1 v 0 h 1 1 1 1 l 1,1 v 0 h 1 1 1 1 v 0 h 1 1 1 1 v 0 h 1 l 1,-1 h 1 1 v -1 h 1 l 1,-1 h 1 1 v -1 h 1 1 l 1,-1 h 1 v 0 h 1 1 1 1 1 v 0 h 1 1 1 1 v 0 h 1 1 1 1 v 0 h 1 1 1 1 v 0 h 1 l 1,-1 h 1 1 v 0 h 1 1 1 1 1 v 0 h 1 1 1 1 v 0 h 1 1 l 1,1 h 1 v 0 h 1 l 1,1 h 1 1 v 0 l 1,1 h 1 1 1 v 0 h 1 l 1,-1 h 1 1 1 v 0 h 1 1 1 1 v 0 h 1 1 1 1 v 0 h 1 1 1 1 v 0 h 1 1 1 l 1,-1 v 0 h 1 1 1 1 v 0"
         stroke="#385723"
         stroke-width="3.75"
         stroke-linecap="round"
         stroke-linejoin="round"
         stroke-miterlimit="10"
         fill="none"
         id="path1032" />
    </g>
    <g
       clip-path="url(#clip4-6)"
       id="g1038"
       transform="matrix(0.26458333,0,0,0.26458333,-102.56384,36.550299)">
      <path
         d="m 14,440 1,-1 1,-2 1,-2 v -3 l 1,-3 1,-4 1,-4 1,-5 v -5 l 1,-6 1,-6 1,-7 1,-7 v -6 l 1,-6 1,-7 1,-6 1,-6 v -6 l 1,-5 1,-6 1,-6 1,-4 1,-2 v -1 h 1 l 1,2 1,3 1,4 v 6 l 1,6 1,9 1,7 1,6 v 5 l 1,5 1,3 1,3 1,2 v 1 h 1 l 1,-1 h 1 l 1,-1 v 0 l 1,-1 h 1 l 1,-1 h 1 v -1 h 1 l 1,-1 h 1 1 1 v 0 h 1 1 1 1 v 1 h 1 1 l 1,-1 1,-1 v -3 l 1,-2 1,-4 1,-4 1,-5 v -5 l 1,-6 1,-6 1,-5 1,-6 v -6 l 1,-5 1,-5 1,-5 1,-5 1,-5 v -5 l 1,-4 1,-4 1,-2 1,-2 v -1 l 1,-1 h 1 l 1,1 1,1 v 2 l 1,2 1,2 1,2 1,2 v 2 l 1,1 1,2 1,2 1,2 v 2 l 1,1 h 1 1 l 1,-1 1,-1 v -3 l 1,-2 1,-4 1,-4 1,-5 v -3 l 1,-4 1,-2 1,-2 h 1 v -1 l 1,1 1,1 1,2 1,2 v 3 l 1,2 1,3 1,2 1,2 v 2 l 1,2 1,2 1,2 1,2 v 2 l 1,1 1,2 1,1 1,1 1,2 v 1 l 1,1 h 1 l 1,1 1,1 v 1 h 1 l 1,1 1,1 h 1 v 1 h 1 l 1,1 1,1 h 1 v 1 l 1,1 h 1 l 1,1 1,1 v 1 l 1,1 1,1 1,1 1,1 1,1 v 0 l 1,1 1,1 h 1 l 1,1 v 0 l 1,1 h 1 1 l 1,1 v 0 l 1,1 h 1 l 1,1 1,1 v 1 h 1 l 1,1 1,2 1,2 v 3 l 1,4 1,4 1,5 1,6 v 6 l 1,7 1,7 1,7 1,5 1,5 v 4 l 1,3 1,2 1,2 h 1 v 0 l 1,-1 h 1 l 1,-1 1,-1 v 0 l 1,-1 h 1 1 l 1,-1 v 0 h 1 l 1,-1 h 1 l 1,-1 v 0 l 1,-1 1,-1 h 1 l 1,-1 1,-1 v -1 l 1,-1 1,-1 h 1 l 1,-1 v 0 l 1,-1 h 1 1 1 v 0 h 1 1 1 1 v 0 h 1 1 1 1 v -1 h 1 1 1 l 1,-1 h 1 v 0 l 1,-1 1,-1 h 1 l 1,-1 v -1 l 1,-1 h 1 l 1,-1 h 1 v 0 l 1,-1 h 1 1 1 v 0 l 1,1 1,2 1,3 1,3 v 4 l 1,5 1,5 1,6 1,7 v 6 l 1,5 1,4 1,3 1,3 1,2 v 1 l 1,1 h 1 l 1,-1 h 1 v -1 l 1,-1 1,-1 1,-1 1,-1 v -1 l 1,-1 1,-1 1,-1 1,-1 v -1 l 1,-1 1,-1 h 1 l 1,-1 v -1 h 1 l 1,-1 h 1 1 l 1,-1 v -1 l 1,-1 1,-1 1,-1 1,-1 v -2 l 1,-1 1,-2 1,-1 1,-1 v -2 l 1,-1 1,-1 1,-2 1,-1 v -1 l 1,-1 1,-1 1,-1 h 1 v -1 l 1,-1 1,-1 h 1 1 l 1,-1 v 0 h 1 l 1,-1 h 1 1 v 0 l 1,-1 h 1 1 1 v -1 h 1 1 1 l 1,-1 v 0 h 1 1 1 1 v 0 l 1,-1 h 1 1 1 v -1 h 1 l 1,-1 1,-1 1,-1 1,-1 v -1 l 1,-1 1,-1 h 1 l 1,-1 v -1 l 1,-1 1,-1 h 1 l 1,-1 v -1 h 1 l 1,-1 h 1 1 v 0 h 1 1 1 1 v 1 l 1,1 1,2 1,2 1,3 1,4 v 4 l 1,5 1,6 1,6 1,7 v 6 l 1,5 1,4 1,3 1,2 v 1 l 1,1 h 1 l 1,-1 1,-2 v -2 l 1,-3 1,-4 1,-4 1,-4 v -5 l 1,-6 1,-6 1,-6 1,-7 v -6 l 1,-6 1,-4 1,-4 1,-4 1,-2 v -2 l 1,-1 1,-1 h 1 1 v 1 h 1 1 l 1,1 h 1 v 1 l 1,1 h 1 l 1,1 h 1 v 0 l 1,-2 1,-2 1,-2 1,-4 v -4 l 1,-4 1,-5 1,-6 1,-5 1,-5 v -3 l 1,-3 1,-3 1,-1 1,-2 v 0 h 1 l 1,1 1,1 1,1 v 1 l 1,1 1,1 1,1 1,1 v 1 l 1,1 1,1 1,2 1,2 v 3 l 1,4 1,4 1,5 1,5 1,5 v 6 l 1,7 1,6 1,5 1,5 v 3 l 1,3 1,2 1,2 1,1 v 0 l 1,-1 h 1 1 l 1,-1 v 0 h 1 1 l 1,-1 h 1 v 0 h 1 1 1 1 v 0 l 1,-1 h 1 1 1 1 v -1 h 1 1 l 1,-1 h 1 v 0 h 1 l 1,-1 h 1 1 v -1 h 1 l 1,-2 1,-1 1,-2 v -3 l 1,-3 1,-3 1,-3 1,-4 v -5 l 1,-4 1,-4 1,-4 1,-3 1,-4 v -4 l 1,-3 1,-3 1,-3 1,-3 v -2 l 1,-2 h 1 1 1 v 2 l 1,2 1,3 1,3 1,5 v 3 l 1,2 1,2 1,1 h 1 v -1 l 1,-1 1,-3 1,-3 1,-3 1,-4 v -3 l 1,-4 1,-3 1,-3 1,-3 v -3 l 1,-2 1,-3 1,-3 1,-2 v -3 l 1,-3 1,-2 1,-3 1,-3 v -3 l 1,-2 1,-3 1,-3 1,-3 v -3 l 1,-2 1,-3 1,-2 1,-3 v -2 l 1,-2 1,-2 1,-3 1,-2 1,-2 v -1 l 1,-2 1,-2 1,-2 1,-2 v -1 l 1,-2 1,-1 1,-2 1,-2 v -1 l 1,-2 1,-2 1,-1 1,-2 v -2 l 1,-1 1,-2 1,-1 h 1 v 0 l 1,1 1,2 1,2 1,3 1,4 v 5 l 1,5 1,4 1,3 1,3 v 2 l 1,1 1,1 1,-1 1,-1 v -1 l 1,-3 1,-2 1,-2 1,-2 v -2 l 1,-2 1,-2 1,-2 1,-2 v -2 l 1,-2 1,-1 1,-2 1,-1 v -2 l 1,-1 1,-2 1,-1 1,-1 1,-2 v -1 h 1 1 l 1,2 1,1 v 3 l 1,4 1,4 1,4 1,6 v 6 l 1,5 1,5 1,3 1,3 v 1 l 1,1 h 1 1 l 1,-2 v -2 l 1,-2 1,-2 1,-2 1,-2 1,-2 v -1 l 1,-2 1,-1 1,-2 1,-1 v -1 l 1,-1 1,-2 1,-1 1,-2 v -2 l 1,-2 1,-1 1,-2 1,-2 v -2 l 1,-2 1,-1 1,-2 1,-1 v -1 l 1,-2 1,-1 h 1 l 1,-1 1,-1 v -1 l 1,-2 1,-1 1,-2 1,-2 v -3 l 1,-2 1,-3 1,-3 1,-3 v -2 l 1,-2 1,-1 1,-2 1,-1 v -1 h 1 l 1,-1 h 1 1 v 0 h 1 1 1 1 v 0 l 1,1 h 1 1 1 1 v -1 h 1 l 1,-1 h 1 l 1,-1 v -1 l 1,-1 1,-1 1,-1 1,-1 v -1 l 1,-1 1,-1 h 1 l 1,-1 v -1 l 1,-1 1,-1 h 1 l 1,-1 v 0 l 1,-1 h 1 1 l 1,-1 h 1 v 0 l 1,1 h 1 1 1 v 0 h 1 l 1,1 h 1 1 v 1 h 1 l 1,1 h 1 1 v 1 h 1 1 1 l 1,1 v 0 h 1 1 1 l 1,1 h 1 v 0 h 1 1 1 l 1,1 v 0 h 1 1 1 l 1,-1 v 0 h 1 l 1,-1 h 1 l 1,-1 v 0 l 1,-1 h 1 1 l 1,-1 v 0 h 1 1 l 1,1 h 1 v 0 h 1 1 1 1 1 v 0 l 1,-1 1,-1 h 1 l 1,-1 v -1 l 1,-1 1,-1 h 1 l 1,-1 v -1 l 1,-1 h 1 l 1,-1 1,-1 v 0 l 1,-1 h 1 l 1,-1 h 1 v -1 h 1 l 1,-1 h 1 l 1,-1 h 1 v 0 h 1 1 1 1 v 1 h 1 l 1,1 h 1 l 1,1 v 0 l 1,1 h 1 l 1,1 h 1 v 1 h 1 l 1,1 h 1 l 1,1 v 0 h 1 1 1 1 v 0 h 1 1 l 1,-1 h 1 l 1,-1 v 0 h 1 1 l 1,-1 h 1 v 0 h 1 1 1 1 v -1 h 1 1 l 1,-1 h 1 v 0 l 1,-1 h 1 l 1,-1 h 1 v -1 h 1 1 1 1 1 v 0 h 1 1 l 1,1 h 1 v 0 h 1 l 1,1 h 1 l 1,1 v 0 l 1,1 h 1 1 l 1,1 v 0 h 1 1 1 1 v 0 h 1 1 1 1 1 v 0 l 1,-1 h 1 l 1,-1 h 1 v -1 h 1 1 l 1,-1 h 1 v 0 h 1 1 1 1 v 0 h 1 1 1 1 v -1 h 1 1 1 1 v -1 h 1 1 1 l 1,-1 h 1 v 0 h 1 1 l 1,1 h 1 v 0 h 1 1 1 l 1,1 v 0 h 1 1 l 1,1 h 1 v 0 h 1 1 1 1 v 0 h 1 1 1 1 l 1,-1 v 0 h 1 1 1 1 v 1 h 1 1 1 l 1,1 v 0 h 1 1 1 1 v 0 h 1 1 1 1 v 0 h 1 1 1 1 1 v 0 l 1,1 h 1 1 1 v 1 h 1 1 l 1,1 h 1 v 1 h 1 1 l 1,1 h 1 v 0 h 1 1 1 1 v -1 h 1 l 1,-1 h 1 l 1,-1 v 0 h 1 1 1 l 1,1 h 1 v 1 h 1 l 1,1 h 1 l 1,1 v 0 h 1 1 l 1,-1 h 1 v -1 h 1 l 1,-1 h 1 l 1,-1 v 0 h 1 1 1 1 v 1 h 1 1 l 1,1 h 1 l 1,1 v 0 l 1,1 h 1 l 1,1 h 1 v 1 h 1 1 l 1,1 h 1 v 0 l 1,1 h 1 1 1 v 1 h 1 1 1 l 1,-1 v 0 h 1 l 1,-1 h 1 l 1,-1 v 0 l 1,-1 h 1 l 1,-1 1,-1 h 1 v 0 l 1,-1 h 1 l 1,-1 h 1 v -1 l 1,-1 h 1 l 1,-1 1,-2 v -1 l 1,-2 1,-1 1,-2 1,-2 v -1 l 1,-2 1,-1 1,-1 h 1 v -1 h 1 l 1,1 h 1 l 1,1 h 1 v 1 l 1,1 1,1 h 1 l 1,1 v 1 l 1,1 1,1 1,1 1,1 v 0 l 1,1 h 1 l 1,1 h 1 v 0 h 1 1 1 1 v 0 h 1 1 1 l 1,1 h 1 v 1 h 1 l 1,1 1,2 1,2 v 2 l 1,4 1,4 1,4 1,5 v 6 l 1,6 1,7 1,6 1,5 v 4 l 1,3 1,2 1,2 h 1 v 0 l 1,-1 1,-2 1,-2 1,-1 v -2 l 1,-1 1,-2 1,-1 1,-1 1,-1 v -1 l 1,-1 1,-1 1,1 1,1 v 1 l 1,3 1,2 1,4 1,4 v 5 l 1,5 1,4 1,4 1,3 v 2 l 1,2 1,1 h 1 l 1,-1 v -1 l 1,-2 1,-2 1,-2 1,-1 1,-2 v -2 l 1,-1 1,-2 1,-2 1,-1 v -2 l 1,-1 1,-2 1,-1 1,-1 v -1 l 1,-1 h 1 l 1,-1 h 1 v -1 h 1 l 1,-1 h 1 l 1,-1 v 0 l 1,-1 h 1 1 l 1,-1 h 1 v -1 l 1,-1 1,-1 h 1 l 1,-1 v -1 l 1,-2 1,-1 1,-1 1,-2 v -1 l 1,-2 1,-2 1,-2 1,-2 v -2 l 1,-2 1,-2 1,-3 1,-2 v -3 l 1,-2 1,-3 1,-2 1,-3 v -2 l 1,-2 1,-2 1,-2 1,-3 1,-1 v -2 l 1,-2 1,-1 1,-1 1,-1 v -1 h 1 l 1,-1 h 1 1 v 0 h 1 1 1 1 v 0 h 1 l 1,1 h 1 l 1,1 v 1 l 1,3 1,3 1,3 1,4 1,5 v 6 l 1,6 1,7 1,6 1,5 v 4 l 1,4 1,3 1,2 1,1 v 1 h 1 l 1,-1 h 1 l 1,-1 v 0 l 1,-1 h 1 l 1,-1 h 1 v 0 l 1,-1 h 1 1 l 1,-1 v 0 h 1 l 1,-1 h 1 1 l 1,-1 v 0 h 1 l 1,-1 h 1 1 v -1 h 1 l 1,-1 h 1 l 1,-1 v 0 h 1 l 1,-1 h 1 l 1,-1 v 0 l 1,-1 h 1 l 1,-1 h 1 v -1 h 1 1 l 1,-1 h 1 1 v -1 h 1 1 1 1 v 0 h 1 l 1,-1 h 1 l 1,-1 v 0 l 1,-1 1,-1 h 1 l 1,-1 v -1 l 1,-1 1,-1 1,-1 h 1 v -1 h 1 1 1 1 1 v 0 h 1 1 l 1,-1 h 1 v -1 h 1 l 1,-1 1,-1 1,-1 v 0 l 1,-1 1,-1 h 1 l 1,-1 v 0 h 1 l 1,-1 h 1 1 v 0 h 1 1 1 1 v 1 h 1 1 1 1 1 v 0 l 1,1 h 1 1 1 v 0 h 1 1 l 1,1 h 1 v 0 h 1 1 1 1 v 0 h 1 1 1 1 v -1 l 1,1 h 1 1 1 1 v 0 h 1 1 l 1,1 1,2 v 2 l 1,3 1,4 1,4 1,5 v 6 l 1,6 1,7 1,6 1,5 v 4 l 1,3 1,2 1,2 1,1 v -1 l 1,-1 1,-1 1,-2 1,-2 1,-1 v -2 l 1,-1 1,-2 1,-1 1,-2 v -1 l 1,-1 1,-1 1,-2 1,-1 v -1 l 1,-1 h 1 l 1,-1 1,-1 v 0 l 1,-1 1,-1 h 1 l 1,-1 v -1 l 1,-1 1,-1 1,-2 1,-1 v -1"
         stroke="#c00000"
         stroke-width="3.75"
         stroke-linecap="round"
         stroke-linejoin="round"
         stroke-miterlimit="10"
         fill="none"
         id="path1036" />
    </g>
    <g
       clip-path="url(#clip5-5)"
       id="g1042"
       transform="matrix(0.26458333,0,0,0.26458333,-102.56384,36.550299)">
      <path
         d="m 571,674 h 42"
         stroke="#2f5597"
         stroke-width="3.75"
         stroke-linecap="round"
         stroke-linejoin="round"
         stroke-miterlimit="10"
         stroke-dasharray="0, 7.5"
         fill="none"
         fill-rule="evenodd"
         id="path1040" />
    </g>
    <g
       clip-path="url(#clip6-5)"
       id="g1046"
       transform="matrix(0.26458333,0,0,0.26458333,-102.56384,36.550299)">
      <text
         fill="#595959"
         font-family="Calibri, Calibri_MSFontService, sans-serif"
         font-weight="400"
         font-size="27px"
         transform="translate(618.039,681)"
         id="text1044">Signal</text>
    </g>
    <g
       clip-path="url(#clip7-3)"
       id="g1050"
       transform="matrix(0.26458333,0,0,0.26458333,-102.56384,36.550299)">
      <path
         d="m 711,674 h 42"
         stroke="#385723"
         stroke-width="3.75"
         stroke-linecap="round"
         stroke-linejoin="round"
         stroke-miterlimit="10"
         fill="none"
         fill-rule="evenodd"
         id="path1048" />
    </g>
    <g
       clip-path="url(#clip8-0)"
       id="g1054"
       transform="matrix(0.26458333,0,0,0.26458333,-102.56384,36.550299)">
      <text
         fill="#595959"
         font-family="Calibri, Calibri_MSFontService, sans-serif"
         font-weight="400"
         font-size="27px"
         transform="translate(757.366,681)"
         id="text1052">Median filter</text>
    </g>
    <g
       clip-path="url(#clip9-2)"
       id="g1058"
       transform="matrix(0.26458333,0,0,0.26458333,-102.56384,36.550299)">
      <path
         d="m 927,674 h 42"
         stroke="#c00000"
         stroke-width="3.75"
         stroke-linecap="round"
         stroke-linejoin="round"
         stroke-miterlimit="10"
         fill="none"
         fill-rule="evenodd"
         id="path1056" />
    </g>
    <g
       clip-path="url(#clip10-7)"
       id="g1062"
       transform="matrix(0.26458333,0,0,0.26458333,-102.56384,36.550299)">
      <text
         fill="#595959"
         font-family="Calibri, Calibri_MSFontService, sans-serif"
         font-weight="400"
         font-size="27px"
         transform="translate(973.752,681)"
         id="text1060">Low pass</text>
    </g>
    <rect
       x="-102.43155"
       y="36.68259"
       width="322.79166"
       height="210.87291"
       stroke="#d9d9d9"
       stroke-width="0.330729"
       stroke-linejoin="round"
       stroke-miterlimit="10"
       fill="none"
       id="rect1064" />
    <g
       id="tip1"
       class="invisible">
      <rect
         style="fill:#f4d7d7;fill-opacity:1;stroke:#000000;stroke-width:0.380437;stroke-linecap:round"
         id="rect5070"
         width="67.981377"
         height="24.921568"
         x="-62.087227"
         y="170.39001" />
      <text
         xml:space="preserve"
         id="text5064"
         style="font-size:32px;line-height:1.25;font-family:sans-serif;white-space:pre;shape-inside:url(#rect5066);"
         transform="matrix(0.08597416,0,0,0.08597416,-79.283954,153.23376)"><tspan
           x="237.75586"
           y="279.22635"><tspan
             style="font-size:66.6667px;fill:#4e0000;fill-opacity:1">Low pass filter moves </tspan></tspan><tspan
           x="237.75586"
           y="362.55972"><tspan
             style="font-size:66.6667px;fill:#4e0000;fill-opacity:1">towards each outlier, </tspan></tspan><tspan
           x="237.75586"
           y="445.8931"><tspan
             style="font-size:66.6667px;fill:#4e0000;fill-opacity:1">median ignores them</tspan></tspan></text>
    </g>
    <g
       id="tip2"
       transform="matrix(0.08597416,0,0,0.08597416,142.41612,112.85848)"
       class="invisible">
      <rect
         style="fill:#f4d7d7;fill-opacity:1;stroke:#000000;stroke-width:5.7288;stroke-linecap:round"
         id="rect5070-8"
         width="943.28864"
         height="407.27158"
         x="-1151.8695"
         y="51.04557" />
      <text
         xml:space="preserve"
         id="text5064-2"
         style="font-size:32px;line-height:1.25;font-family:sans-serif;white-space:pre;shape-inside:url(#rect5066-2);"
         transform="translate(-1352.5434,-149.15758)"><tspan
           x="237.75586"
           y="279.22635"><tspan
             style="font-size:66.6667px;fill:#4e0000;fill-opacity:1">At a step change, median </tspan></tspan><tspan
           x="237.75586"
           y="362.55972"><tspan
             style="font-size:66.6667px;fill:#4e0000;fill-opacity:1">filter preserves the step </tspan></tspan><tspan
           x="237.75586"
           y="445.8931"><tspan
             style="font-size:66.6667px;fill:#4e0000;fill-opacity:1">(with a delay), low pass </tspan></tspan><tspan
           x="237.75586"
           y="529.22647"><tspan
             style="font-size:66.6667px;fill:#4e0000;fill-opacity:1">makes a slope</tspan></tspan></text>
    </g>
    <circle
       style="fill:#ffd5d5;fill-opacity:1;stroke:#000000;stroke-width:0.345088;stroke-linecap:round"
       id="path5060-4"
       cx="44.057854"
       cy="108.71068"
       r="8.794343"
       onmouseover=""
       onmouseout=""
       onclick="document.getElementById('tip2').classList.toggle(&quot;invisible&quot;);"
       class="openspot" />
    <circle
       style="fill:#ffd5d5;fill-opacity:1;stroke:#000000;stroke-width:0.345088;stroke-linecap:round"
       id="path5060"
       cx="-24.477591"
       cy="162.23085"
       r="8.794343"
       onmouseover=""
       onmouseout=""
       onclick="document.getElementById('tip1').classList.toggle(&quot;invisible&quot;);"
       class="openspot" />

  </g>
</svg>
